<?xml version="1.0" encoding="UTF-8"?>
<svg id="Calque_2" data-name="Calque 2" xmlns="http://www.w3.org/2000/svg" viewBox="0 0 74.58 45.17">
  <g id="Calque_1-2" data-name="Calque 1">
    <path d="M73.66,4.88c-.28-.31-.62-.52-.99-.65h-.01c-.22-.09-.45-.14-.68-.16C51.56-.93,27.61-1.33,2.66,2.93c-.6.04-1.17.29-1.63.76C.36,4.36-.02,5.4,0,6.47c.52,20.99,16.29,37.98,35.9,38.68,20.32.72,37.31-15.74,38.67-37.47.06-1.09-.27-2.11-.91-2.8ZM66.82,4.96c-20.27,3.45-39.98,3.16-58.74-.86,20.97-3.06,41.06-2.76,58.74.86ZM35.97,43.15c-11.72-.41-21.98-7.01-28.08-16.83,2.8-2.21,6.12-4.49,9.83-4.51,3.93-.02,7.52,2.57,11.11,3.9,3.68,1.36,7.6,2.22,11.54,2.29,4.21.08,8.33-.88,12.5-1.25,4.11-.36,8.39-.05,11.87,2.34-6.75,8.96-17.19,14.47-28.77,14.06ZM65.9,27.45c-7.08-4.97-15.74-1.84-23.59-1.48-4.41.21-8.76-.65-12.88-2.17-3.79-1.4-7.47-3.99-11.64-3.99-4.13.01-7.76,2.32-10.92,4.77C3.93,19.23,2.17,13.04,2,6.42c-.01-.63.22-1.1.45-1.32.09-.1.19-.16.28-.18,21.9,5.5,45.14,5.89,69.09,1.16.07.02.14.03.21.05.06.03.11.05.16.1.21.23.42.69.38,1.32-.47,7.47-2.88,14.28-6.67,19.9Z"/>
  </g>
</svg>