<?xml version="1.0" encoding="UTF-8"?>
<svg id="Calque_2" data-name="Calque 2" xmlns="http://www.w3.org/2000/svg" viewBox="0 0 75.55 56.7">
  <g id="Calque_1-2" data-name="Calque 1">
    <path d="M75.09,32.36l-12.97-8.33c-.23-.15-.52-.2-.78-.13l-8.6,2.14,3.1-9.9c1.07-1.17,1.81-2.57,1.87-4.23v-.08c0-.09-.01-.17-.02-.25-.19-3.1-2.82-5.3-5.35-6.73-4.13-2.34-8.94-3.48-13.59-4.14-5.91-.85-11.94-.94-17.87-.25-4.95.57-10,1.61-14.5,3.85C3.74,5.62.65,7.72.09,10.85c-.37,2.03.47,3.81,1.76,5.24l4.22,13.19c.26.81.8,1.49,1.51,1.91,2.81,1.67,5.75,2.97,8.82,3.89l-.27.07c-.36.09-.65.38-.73.74-.09.37.04.75.32.99l.43.37,2.67,10.31s0,0,.01.02v.05c.03.1.09.2.18.27h.02s10.99,8.69,10.99,8.69c.09.07.2.11.31.11.05,0,.11,0,.16-.03.02-.01.03-.01.05-.02l41.65-12.25h.05s.09-.03.09-.03c.11-.03.2-.09.26-.18.03-.03.05-.06.05-.1.02-.02.03-.04.03-.07.01,0,.01-.01.01-.02l2.17-9.85h.01c.36-.12.61-.42.68-.79.06-.39-.12-.79-.45-1ZM61.4,25.94l10.68,6.86-44.64,11.49-8.95-7.66,2.1-.52,2.48-.62,27.84-6.94,1.13-.28,9.36-2.33ZM3.35,17.47s0,0,0,0h0s0,0,0,0ZM22.65,12.11c1.33.97,3.81,1.49,6.2,1.49s4.87-.51,6.2-1.48c.37,2.55.93,5.53,1.71,9.09-4.98.58-10.05.6-15.03.09-.26-.03-.53-.06-.79-.09.79-3.56,1.35-6.55,1.72-9.09ZM28.85,12.6c-3.83,0-6.18-1.22-6.18-2.1s2.35-2.09,6.18-2.09,6.19,1.22,6.19,2.09-2.35,2.1-6.19,2.1ZM19.89,23.09c4.9.65,9.88.74,14.79.33,1.04-.09,2.08-.19,3.13-.32.25-.03.5-.06.75-.1,4.31-.59,8.6-1.64,12.5-3.52.95-.46,1.93-1.03,2.86-1.69l-2.58,8.6-31.93,7.94c-3.87-.73-7.79-2.32-11.66-4.74l-3.71-11.62c3.75,2.61,8.47,3.86,12.91,4.65.73.13,1.46.25,2.2.36.25.03.49.07.74.1ZM29.24,54.26l-8.95-6.91-2.06-8.31,8.29,7.11c.12.1.26.17.41.21l2.3,7.9ZM5.9,6.85c3.6-2.18,7.86-3.26,11.98-3.96,5.31-.91,10.78-1.09,16.15-.7,5.18.38,10.56,1.27,15.33,3.4,2.49,1.1,6.29,3.07,6.35,6.24-.06,2.74-2.98,4.56-5.13,5.66-3.85,1.98-8.24,2.97-12.5,3.56-.7-2.94-1.4-6.35-2.09-10.16.03-.13.05-.26.05-.39,0-2.01-3.7-3.09-7.19-3.09s-7.18,1.08-7.18,3.09c0,.13.02.26.05.39-.69,3.82-1.4,7.23-2.09,10.16-3.91-.52-7.85-1.42-11.43-3.04-2.3-1.04-5.55-2.73-6.13-5.47-.54-2.55,1.91-4.53,3.83-5.69ZM71.84,43.14l-41.07,11.99-2.24-9.06,45.24-11.63-1.92,8.7Z"/>
  </g>
</svg>