<?xml version="1.0" encoding="UTF-8"?>
<svg id="Calque_2" data-name="Calque 2" xmlns="http://www.w3.org/2000/svg" viewBox="0 0 70.25 56.02">
  <g id="Calque_1-2" data-name="Calque 1">
    <g>
      <path d="M69.73,21.51c.11-.67.25-1.58.39-1.84.03-.06.05-.12.07-.18l.05-.2s0,0,0-.01c0-.03,0-.07,0-.1,0-.05,0-.1,0-.14,0-.02,0-.05,0-.07,0,0,0,0,0-.01,0-.03-.02-.05-.03-.07-.01-.05-.03-.09-.05-.13-.01-.02-.02-.05-.03-.07-.02-.03-.04-.05-.06-.07-.03-.03-.06-.06-.09-.09-.02-.02-.04-.04-.06-.05-.03-.02-.06-.03-.09-.05-.02-.01-.04-.03-.06-.04l-.28-.12c-1-.65-2.78-1.23-4.66-1.86-1.78-.59-3.81-1.26-4.41-1.79-.17-.15-.19-.32-.2-.76-.01-.49-.03-1.16-.62-1.69-.6-.54-1.96-1.03-4.12-1.78-1.31-.45-3.3-1.14-3.62-1.48-.17-.22-.18-.5-.19-.93,0-.36-.01-.78-.19-1.18-.74-1.7-14.77-6.48-15.92-6.75-.13-.04-.36-.02-.53.06-.8.38-.97,1.44-.69,8.21.04.98.08,1.83.07,2.18,0,.17-.08.73-.15,1.22-.34,2.39-.37,2.94.03,3.34.1.1.23.17.37.21.08.02.16.03.24.02l2.63-.19c-.01.65-.02,1.29-.04,1.94v.16c0,.17-.04.53-.09.96-.26,2.74-.24,3.2.15,3.58.1.1.23.17.37.2.05.01.11.02.17.02l2.53.06c-.03.95-.05,1.9-.09,2.86-.02.4-.07.82-.13,1.24-.13.99-.27,2.01,0,3.02.06.22.21.41.42.51.07.03.14.06.22.08.58.14,1.74-.04,5.61-.79,1.86-.36,4.6-.89,5.26-.86.05.04.1.08.16.11.25.12.93.91,1.33,1.38.63.73,1.22,1.43,1.76,1.77.02.02.04.04.07.06h0s.14.14.14.14c.01.01.03.02.04.03.01.01.03.02.04.04.02.01.03.02.05.03.06.04.12.07.18.09.01,0,.02.01.03.02h0s0,0,0,0c0,0,.01,0,.02,0,0,0,0,0,0,0,0,0,0,0,0,0h.02c.12.03.24.02.35,0,.02,0,.03,0,.05-.01,1.31-.14,4.89-.92,5.24-1.28.43-.44.57-1.28.81-3.12.06-.48.14-1.09.21-1.41.03-.02.07-.03.1-.06.29-.18,1.62-.35,2.5-.46,1.97-.25,3.21-.43,3.83-.97.49-.42.65-1.32.9-2.87ZM35.87,1.76c3.24.98,13.05,4.7,14.17,5.72.03.12.03.31.03.5,0,.52.02,1.23.52,1.88.5.65,1.91,1.16,4.36,2.01,1.34.46,3.18,1.1,3.58,1.46.07.06.08.19.09.55.01.51.04,1.28.74,1.91.85.75,2.75,1.38,4.96,2.11.9.3,1.81.6,2.6.9l-8.81,1.77c-.28.06-.5.26-.6.52s-.03.57.16.78l2.42,2.75c-.35.05-.71.09-1.09.12-.59.05-1.19.12-1.74.23-.78-.88-2.35-2.33-2.95-2.83h.01s-.14-.15-.14-.15c0,0-.02,0-.02-.02,0,0-.01-.02-.02-.03-.03-.03-.08-.04-.11-.06-.04-.03-.09-.06-.13-.07-.01,0-.02-.01-.03-.02,0,0,0,0,0,0,0,0,0,0,0,0,0,0-.01,0-.02,0-.1-.03-.18-.03-.27-.03-.01,0-.02,0-.03,0-.04,0-.09,0-.13.01-1.08-.12-3.03.34-6,1.09-1.98.5-4.2,1.06-5.29,1.08.03-.9.07-1.79.09-2.69v-.21c0-.17.03-.55.07-1,.22-2.67.21-3.02-.14-3.36-.15-.14-.34-.23-.55-.23l-2.51-.03c.02-.76.04-1.51.05-2.27,0-.2.04-.59.09-1.03.19-1.96.2-2.5-.07-2.89-.14-.19-.35-.31-.58-.33l-2.59-.21c-.01-.41-.03-.91-.06-1.49-.07-1.61-.21-5.09-.06-6.46ZM35.82,11.91c.03-.24.06-.43.09-.62l1.86.15c-.02.46-.09,1.12-.13,1.54-.02.17-.03.33-.04.48l-1.99.14c.05-.52.15-1.24.22-1.7ZM38.98,18.28c0-.09.02-.17.02-.25l1.84.02c-.03.57-.09,1.4-.13,1.88-.01.17-.03.32-.04.47l-1.85-.04c.02-.61.11-1.55.16-2.08ZM46.32,27.34c-1.54.3-3.56.69-4.5.78-.04-.56.05-1.18.13-1.83.03-.26.05-.5.08-.75,1.27.01,3.46-.54,5.78-1.13,1.66-.42,3.62-.91,4.76-1.03l-.91,3.06c-.94.04-2.55.35-5.33.89ZM53.15,26.99l.89-2.99c.71.67,1.71,1.65,2.1,2.08,0,.02,0,.05,0,.07.03.28-.25,1.29-.44,1.95-.13.45-.25.88-.34,1.28-.26-.28-.54-.61-.78-.88-.59-.69-1.04-1.19-1.43-1.51ZM60.27,29.2c-.59.18-2.31.57-3.42.78.09-.43.24-.98.38-1.46.24-.86.42-1.51.48-2.02.47-.08.94-.13,1.45-.18.52-.05,1.05-.1,1.57-.19-.04.26-.08.57-.13.95-.08.63-.22,1.75-.33,2.12ZM67.79,23.18c-.32.26-1.99.47-2.99.6-1.34.17-2.24.3-2.83.55l-2.19-2.47,8.58-1.73c-.07.34-.13.72-.2,1.13-.11.65-.28,1.74-.38,1.92Z"/>
      <path d="M33.34,23.07c0-.24,0-.48,0-.71,0-.96,0-1.95-.78-3-2.45-3.35-7.72-4.06-11.87-3.27-.27.05-.76.21-1.33.4-.41.13-1.06.34-1.34.4-.19-.12-.56-.36-.83-.55-.63-.43-1.29-.87-1.72-1.06-2.97-1.36-9.11-1.34-12.57.71-1.63.96-2.59,2.31-2.76,3.9-.02.04-.03.1-.04.15l-.04.24c0,.12,0,.24-.02.43v.4c-.07,2.42-.06,4.9.82,6.19,1.41,2.08,3.74,4.1,6.01,6.06,1.71,1.48,3.33,2.88,4.58,4.33l.04.03.04.04s.02.02.03.03c.03.03.05.04.08.06.02,0,.03.02.06.03,0,0,.02,0,.03,0,.03.02.06.03.09.03.04,0,.08.02.13.02s.08,0,.13-.02c0,0,.02,0,.03,0l.16-.04c1.38-.51,2.77-1,4.16-1.49,3.58-1.28,7.28-2.6,10.82-4.1,5.41-2.29,6.35-3.19,6.08-9.19ZM11.32,35.71c-1.1-1.11-2.38-2.22-3.64-3.31-2.2-1.9-4.47-3.88-5.79-5.81-.47-.71-.6-2.2-.62-3.57,1.63,2.28,4.69,4.91,7.29,7.15,1.14.98,2.13,1.83,2.78,2.47l-.03,3.08ZM9.39,29.2c-2.97-2.55-7.47-6.42-7.97-8.6q-.06-.25-.04-.46c.09-1.25.83-2.28,2.16-3.07,3.1-1.83,8.78-1.85,11.41-.65.34.15,1,.6,1.53.96.83.56,1.08.72,1.29.76.29.07.63-.03,1.98-.46.46-.15.99-.32,1.18-.35,3.63-.7,8.49-.13,10.61,2.77.52.72.52,1.36.53,2.25,0,.2,0,.41,0,.63-.13.03-.27.09-.36.21-2.16,2.6-8.49,4.64-13.58,6.29-2.28.74-4.45,1.44-6.03,2.12-.67-.66-1.63-1.47-2.71-2.41ZM16.02,35.16c-1.16.41-2.32.83-3.43,1.24l.03-3.63c1.52-.65,3.65-1.34,5.91-2.07,5.12-1.65,10.89-3.51,13.6-6.08.05,4.04-.85,4.56-5.36,6.48-3.5,1.49-7.18,2.81-10.74,4.07Z"/>
      <path d="M46.52,37.87c.05-.41-.25-.78-.66-.83-.89-.1-2.2.09-3.59.3-1.3.19-2.78.41-3.37.26-.36-.09-1.17-.8-1.76-1.32-1.18-1.04-2.2-1.93-3.13-1.66-.74.22-1.39,1-2.08,1.83-.46.55-1.02,1.23-1.39,1.4-.35.16-1.92,0-2.86-.1-1.69-.17-2.77-.26-3.43-.03-.53.18-.77.54-.88.8-.1.25-.13.53-.09.83,0,.02,0,.04,0,.07l.47,3.38c-.5.27-1.02.53-1.58.79-.66.3-1.34.62-1.97.99-.03.02-.04.04-.07.06-.03.03-.07.05-.1.08-.01.01-.02.03-.03.04-.03.03-.04.07-.06.1-.02.04-.04.07-.06.11,0,.01-.01.02-.02.03,0,0,0,.01,0,.02-.01.04-.01.08-.01.12,0,.03-.02.06-.02.09v5.67c0,.37.27.69.64.74l7.67,1.13c-.02,1.28-.03,2.71.9,3.16.16.07.34.11.55.11.67,0,1.69-.36,3.48-1.06.9-.35,1.93-.75,2.31-.79.67-.08,2.11.38,3.26.75,1.71.54,2.79.86,3.51.65,1.18-.34,1.1-2.05,1.03-3.43,0-.01,0-.02,0-.04.02,0,.04,0,.06,0,.98-.3,1.99-.53,2.97-.76,1.24-.29,2.52-.58,3.78-1.02.3-.1.5-.38.5-.69l.11-5.2v-.13s-.02-.05-.02-.07c0-.03,0-.05,0-.08,0-.01-.01-.02-.01-.03,0-.03-.02-.05-.03-.07-.02-.04-.04-.07-.06-.11-.02-.03-.03-.06-.05-.08-.01-.02-.03-.03-.05-.05-.03-.04-.07-.06-.11-.09-.02-.02-.04-.03-.07-.05,0,0-.02-.01-.02-.02-.02,0-.04-.02-.05-.02-.01,0-.02-.01-.03-.01-.03-.01-.07-.03-.12-.05-.71-.36-1.47-.65-2.21-.94-.49-.19-.96-.36-1.41-.56,0-.52.03-1.04.05-1.56.03-.63.06-1.27.06-1.9v-.11c0-.11.01-.22,0-.33l.04-.29ZM24.97,43.83c.77-.48,1.5-1.02,1.58-1.76.08-.68-.39-1.14-.8-1.55-.31-.31-.66-.66-.9-1.15-.06-.13-.08-.23-.09-.24.41-.13,1.78,0,2.78.11,1.82.19,2.97.28,3.64-.02.68-.31,1.28-1.03,1.92-1.8.42-.5,1.05-1.27,1.27-1.34.32.04,1.25.85,1.8,1.34.86.75,1.67,1.47,2.38,1.65.88.22,2.37,0,3.95-.23.82-.12,1.63-.23,2.3-.28-.24.53-.57.92-.87,1.26-.41.47-.83.95-.7,1.61.13.7.82,1.17,1.87,1.7.69.35,1.43.63,2.15.9.13.05.24.1.37.14-.49.1-1.02.19-1.5.27-2.39.42-3.48.65-3.97,1.11-.47.45-.53,1.32-.48,3.21-.84.06-1.95-.3-3.04-.67-1.17-.39-2.28-.77-3.25-.71-.92.06-1.91.49-2.95.95-.99.44-1.98.86-2.81.9-.06-1.24-.2-2.79-1.16-3.36-.66-.39-1.78-.49-3.55-.62-.74-.05-1.57-.12-2.29-.22.06-.03.12-.06.19-.09.73-.34,1.49-.69,2.17-1.11ZM44.98,40.82l-.02.59c-.12-.09-.21-.16-.27-.22.08-.11.18-.24.3-.37ZM21.34,46.3c.97.26,2.23.36,3.46.45,1.11.08,2.5.18,2.89.41.23.15.38.97.44,2.43,0,.17.01.33.02.47.02.34.01.68,0,1.03,0,.05,0,.09,0,.14l-6.81-1v-3.93ZM41.63,54.14c-.47,0-1.7-.39-2.53-.65-1.42-.45-2.9-.91-3.88-.81-.58.06-1.56.44-2.69.88-.85.33-2.23.86-2.79.95-.12-.41-.11-1.38-.1-1.77,0-.26,0-.48,0-.64-.02-.32,0-.64,0-.96,0-.13,0-.26,0-.4,1.1-.05,2.26-.54,3.38-1.03.88-.39,1.79-.79,2.44-.83.69-.03,1.7.3,2.67.63,1.19.4,2.41.82,3.53.76,0,.09,0,.18,0,.26,0,.33,0,.66,0,.98,0,.17,0,.41.02.69.02.44.07,1.53-.06,1.93ZM45.89,49.87c-.89.21-1.8.43-2.71.69,0-.01,0-.03,0-.04,0-.32,0-.64,0-.96,0-.17,0-.42-.01-.72-.01-.51-.05-1.8.07-2.22.46-.23,2.06-.51,3.14-.69,1.17-.2,2.06-.37,2.74-.55l-.08,3.69c-1.02.32-2.05.56-3.13.81Z"/>
    </g>
  </g>
</svg>