<?xml version="1.0" encoding="UTF-8"?>
<svg id="Calque_2" data-name="Calque 2" xmlns="http://www.w3.org/2000/svg" viewBox="0 0 74.78 60.84">
  <g id="Calque_1-2" data-name="Calque 1">
    <g>
      <path d="M70.03,0H4.75C2.13,0,0,2.13,0,4.75v41.98c0,2.62,2.13,4.75,4.75,4.75h6.72c-.48,1.64-1.02,3.47-1.6,5.47l-.15.51c-.2.71-.06,1.53.39,2.18.36.55.88.93,1.45,1.09.12.03.24.06.36.07.94.1,2.66.11,3.67-.86.03-.02.06-.05.08-.08.37-.39.54-.87.5-1.39-.04-.53-.28-.98-.7-1.3-.11-.1-.1-.17.09-.54.1-.17.2-.37.27-.6l1.34-4.55h52.86c2.62,0,4.75-2.13,4.75-4.75V4.75c0-2.62-2.13-4.75-4.75-4.75ZM14.61,55.46h0c-.01.07-.03.13-.05.18-.03.11-.08.24-.14.37-.25.61-.62,1.53.24,2.21.12.09.18.2.19.35.01.14-.03.26-.13.37-.52.53-1.71.63-2.66.53-.31-.03-.63-.24-.84-.57-.23-.34-.31-.74-.22-1.06l.15-.52c.63-2.17,1.2-4.11,1.71-5.84.2-.68.39-1.33.57-1.95,1.14-3.88,1.88-6.37,2.21-7.44l2.69.79-1.97,6.65-.57,1.95-1.18,3.98ZM16.03,40.82l6.2-21.01c.69-2.38,1.56-5.34,3.01-7.42.34,1.17.77,3.09.96,5.74.06.85.1,1.81.1,2.88,0,3.9-.54,9.26-2.53,15.77-.12.4-.43.7-.82.79-.39.1-.78.24-1.14.42-.51.25-.97.58-1.38.97-.73.69-1.3,1.58-1.7,2.65l-2.7-.79ZM72.83,46.73c0,1.54-1.26,2.8-2.8,2.8H17.75l2.04-6.91c1.15-3.89,4.12-3.86,4.24-3.86.18,0,.35-.06.48-.18l.1-.1h-.01c.04-.07.07-.13.08-.19,2.93-9.03,3.16-16,2.84-20.26-.35-4.69-1.39-7.17-1.43-7.27-.09-.21-.27-.36-.5-.4-.04-.01-.08-.01-.11-.01-.19,0-.37.08-.49.21-2.12,2.28-3.18,5.94-4.04,8.87l-6.38,21.6v.05c-.18.49-1.05,3.42-2.52,8.45h-7.3c-1.54,0-2.8-1.26-2.8-2.8V4.75c0-1.54,1.26-2.8,2.8-2.8h65.28c1.54,0,2.8,1.26,2.8,2.8v41.98Z"/>
      <path d="M68.12,12.99c-.61-.32-1.34-.28-1.9.11l-2.7,1.83c-.5.34-.81.91-.81,1.53v18.56c0,.62.31,1.19.81,1.53l2.7,1.83c.31.22.67.32,1.03.32.3,0,.6-.07.87-.21.61-.32.98-.95.98-1.64V14.63c0-.69-.37-1.32-.98-1.64ZM67.6,36.85c0,.19-.13.28-.18.31-.06.03-.2.09-.36-.02l-2.69-1.83c-.1-.06-.16-.17-.16-.29v-18.56c0-.12.06-.23.16-.29l2.69-1.83c.07-.05.13-.06.19-.06.08,0,.14.02.17.04.05.03.18.12.18.31v22.22Z"/>
    </g>
  </g>
</svg>