<?xml version="1.0" encoding="UTF-8"?>
<svg id="Calque_2" data-name="Calque 2" xmlns="http://www.w3.org/2000/svg" viewBox="0 0 74.92 20.5">
  <g id="Calque_1-2" data-name="Calque 1">
    <path d="M74.45,6.65c-.55-.81-1.48-1.3-2.5-1.3H31.41c-.98,0-1.88.46-2.44,1.23l-7.78-1.38c-.17-1.17-1.05-2.15-2.27-2.37L3.29.04c-.74-.13-1.48.03-2.09.46S.18,1.57.04,2.31c-.13.74.03,1.48.46,2.09s1.07,1.02,1.81,1.15l15.63,2.78c.16.03.33.04.49.04,1.03,0,1.97-.58,2.45-1.46l7.58,1.35c.01.31.06.62.18.91l3.9,9.53c.45,1.09,1.53,1.79,2.76,1.79h32.75c1.23,0,2.31-.7,2.76-1.79l3.9-9.53c.35-.84.25-1.77-.26-2.53ZM18.25,6.62L2.62,3.83c-.28-.05-.52-.2-.68-.43-.16-.23-.22-.51-.17-.78.05-.28.2-.52.43-.68.18-.12.39-.19.6-.19.06,0,.12,0,.19.02l15.63,2.78c.57.1.95.65.85,1.22-.1.57-.65.95-1.22.85ZM73.09,8.52l-3.9,9.53c-.17.42-.63.71-1.14.71h-32.75c-.51,0-.97-.28-1.14-.71l-3.9-9.53c-.17-.41-.01-.73.1-.89.22-.33.61-.53,1.04-.53h40.55c.43,0,.82.2,1.04.53.11.16.26.49.1.89Z"/>
  </g>
</svg>