<?xml version="1.0" encoding="UTF-8"?>
<svg id="Calque_2" data-name="Calque 2" xmlns="http://www.w3.org/2000/svg" viewBox="0 0 74.74 74.65">
  <g id="Calque_1-2" data-name="Calque 1">
    <g>
      <g>
        <path d="M38.74,14.75c-.05-.89-1.39-2.39-2.26-2.39h-7.47c.04-1.62.55-2.83.08-4.45-.54-1.84-2.79-4.07-4.79-4.07h-3.48V.79c0-.2-.65-.8-.94-.72-2.43.17-5.15-.22-7.54,0-.5.04-1.05.37-1.05.94v2.83h-3.48c-.25,0-1.25.34-1.54.46-1.78.73-2.99,2.44-3.4,4.28-1.22.07-3.64-.43-2.63,1.6.93,1.86,2.76,3.64,3.61,5.58l2.8,22.46c.25,4.21-2.74,7.35-3.52,11.21-.25,1.25-.66,5.87-.16,6.86.11.22.29.31.46.47h25.25c.42-.31.6-.52.66-1.05.16-1.4.05-3.99-.12-5.41-.61-4.99-4.75-9.01-3.42-14.28l11.13-2.62c1.04-.42,1.75-1.36,1.83-2.49l-.02-16.16ZM28.29,18.01h4.65l.17.16v10.3l-6.54,1.49,1.72-11.95ZM13.29,1.95h5.64v1.89h-5.64v-1.89ZM8.49,5.73c3.79,0,8.02-.02,11.71-.02,2.73,0,6.06-.46,7.04,2.78H4.87c.51-1.65,1.93-2.76,3.62-2.76ZM26.69,47.96c.2.6.66,2.09.66,2.65v4.27H4.76c-.01-1.89-.08-3.71.37-5.56.54-2.28,1.95-4.14,2.65-6.32.44-1.35.68-2.76.75-4.18h15.17c-.06,3.34,1.98,6.12,2.99,9.14ZM23.76,36.73l-15.33.09c-.04-.17-.08-.33-.11-.5-1.28-7.05-1.4-14.62-2.8-21.67l-2.75-4.17h24.47l-3.48,26.25ZM36.86,30.68c-.1.57-.24.79-.79.98l-9.77,2.18c-.27.07-.18-.33-.17-.5.03-.31.09-1.13.29-1.26l7.66-1.75c.38-.1.7-.33.86-.69l.05-12.58c.08-.29-.52-.93-.72-.93h-5.81l.22-1.89h7.14c.84.1.99.49,1.05,1.27.41,4.84-.3,10.26-.01,15.17Z"/>
        <path d="M12.41,34.09h-.15c-.48.02-.88-.34-.9-.82l-.9-18.11c-.03-.51.4-.94.91-.91.26.01.52.02.76-.02.03,0,.13.01.17.06.35,6.36.56,12.52.94,18.87.03.49-.35.9-.83.92Z"/>
        <path d="M21.65,15.15l-.96,18.14c-.03.48-.44.85-.92.82h0c-.47-.03-.83-.43-.82-.9.21-6.3.61-12.6.87-18.91l.21-.07s.03,0,.06,0h.68c.5,0,.89.42.87.91Z"/>
        <path d="M15.48,42.62c-6.88.82-4.32,11.64,2.34,9.1,5-1.91,3.24-9.77-2.34-9.1ZM16.54,50.11c-3.85.53-4.49-5.22-.73-5.62,3.59-.37,4.16,5.15.73,5.62Z"/>
      </g>
      <g>
        <path d="M72.83,21.39c-1.42-1.62-3.43-2.45-5.76-2.45-1.51,0-3.14.34-4.83,1.05-2.99,1.25-5.67,3.58-7.54,6.57l-.59.95c-1.47,2.39-2.75,4.46-4.69,6.6-.96,1.05-2.04,2.07-3.09,3.06-1.17,1.11-2.38,2.25-3.42,3.43-1.48,1.69-1.87,3.79-1.07,5.75.06.14.16.3.25.45.07.12.16.26.2.38l-12.48,12.43c-2.89-1.42-6.05-1.08-8.3.9-.41.36-1.73,1.59-2.1,2.11-.36.49-.38,1.14-.03,1.73.35.6,1.05.74,1.72.87.5.1,1.02.21,1.35.5.5.46.7,1.05.92,1.68.28.81.61,1.73,1.63,2.42.43.29.92.45,1.38.6.62.2,1.2.39,1.63.88.27.3.37.78.48,1.3.15.73.33,1.56,1.09,1.9.23.1.45.15.66.15.36,0,.71-.15,1.07-.46,2.55-2.29,4.7-5,3.22-9.35-.03-.12-.12-.31-.22-.5-.06-.14-.16-.34-.19-.46l12.44-12.43c1.92,1.34,4.56,1.13,6.48-.54,1.17-1.03,2.32-2.23,3.43-3.4.88-.93,1.79-1.88,2.71-2.74,1.25-1.19,2.72-2.4,4.04-3.32.99-.69,1.91-1.25,2.81-1.8,2.6-1.58,4.84-2.95,6.8-6.32,2.55-4.33,2.55-9.02,0-11.94ZM33.44,67.44c0,.48-.06.97-.18,1.47-.35,1.49-1.32,2.43-2.35,3.43-.23.22-.46.44-.69.68,0-.02-.01-.04-.02-.08-.13-.31-.19-.63-.24-.94-.11-.59-.23-1.21-.79-1.83-.62-.66-1.36-.92-2.08-1.17-.92-.32-1.71-.59-2.11-1.66-.09-.23-.16-.45-.23-.66-.21-.66-.41-1.28-1.02-1.93-.71-.74-1.31-.85-1.94-.96-.3-.05-.61-.1-.96-.23-.03-.01-.07-.03-.1-.04.18-.19.64-.63.91-.88.23-.23.43-.41.49-.47,2.25-2.42,5.23-2.11,7.28-1.01,2.08,1.13,4.03,3.47,4.03,6.28ZM49.1,36.69c1.92-1.88,3.65-3.98,5.14-6.25.4-.6.77-1.23,1.12-1.84.69-1.18,1.4-2.4,2.33-3.44,1.8-2.02,5.21-4.32,8.45-4.59,2.77-.21,4.95.77,6.16,2.75.66,1.08.94,2.26.94,3.46,0,3.62-2.52,7.48-4.88,9.48-.93.79-2,1.42-3.04,2.02-.58.34-1.17.69-1.75,1.07-2.37,1.52-4.54,3.28-6.44,5.24-4.28-.52-7.63-3.81-8.03-7.9ZM50.93,43.48c1.32,1.16,3.02,2.03,4.84,2.46l-3.77,3.79c-1.22,1.13-3.14,1.32-4.55.45-.65-.42-3.3-3.03-3.77-3.72-.95-1.4-.87-3.22.18-4.52l3.88-3.9c.48,1.85,1.29,3.41,2.39,4.65l.8.79ZM44.52,49.64c.14.15.3.29.46.43.12.11.24.21.36.32l-12.03,12.09c-.61-.78-1.29-1.46-2.03-2.02l12.03-12.1c.26.29.53.58.82.88l.39.4Z"/>
        <path d="M66.47,23.51c-5.09.86-12.35,8.15-13.48,13.15-.45,1.92-.03,4.06,2.28,4.27,3.26.27,7.54-3.01,9.75-5.19,2.28-2.26,5.37-6.29,5.25-9.63-.07-2.23-1.8-2.93-3.79-2.6ZM68.91,28c-.97,3.11-3.79,6.32-6.25,8.38-1.41,1.18-2.98,2.31-4.7,2.98-2.47.95-4.7.77-3.9-2.53,1.07-4.51,7.56-10.96,12.05-12.11,2.87-.73,3.6.7,2.8,3.29Z"/>
        <path d="M61.3,29.56c-1.66.22-2.29,1.61-2.16,2.8.12,1.14.93,2.31,2.43,2.31.07,0,.15,0,.23,0,1-.08,1.76-.58,2.14-1.4.4-.88.28-2-.3-2.78-.54-.72-1.36-1.05-2.34-.92ZM62.26,33.02h0c-.47.28-.89.3-1.24.04-.38-.29-.56-.87-.42-1.35.12-.41.44-.66.93-.7.04,0,.08,0,.12,0,.55,0,.92.38,1.05.79.12.37.08.92-.44,1.23Z"/>
      </g>
    </g>
  </g>
</svg>