<?xml version="1.0" encoding="UTF-8"?>
<svg id="Calque_2" data-name="Calque 2" xmlns="http://www.w3.org/2000/svg" viewBox="0 0 75.48 41.67">
  <g id="Calque_1-2" data-name="Calque 1">
    <g>
      <path d="M73.54,4.58c0-2.53-2.19-4.58-4.89-4.58H6.83C4.14,0,1.94,2.06,1.95,4.53L0,31.6c0,2.53,2.29,4.58,5.1,4.58h3.91l.72,3.21c.3,1.32,1.6,2.27,3.09,2.27h3.93c1.5,0,2.8-.96,3.09-2.27l.72-3.21h11.39l.72,3.21c.3,1.32,1.6,2.27,3.09,2.27h3.92c1.5,0,2.8-.96,3.09-2.27l.72-3.21h11.39l.72,3.21c.3,1.32,1.6,2.27,3.09,2.27h3.93c1.5,0,2.8-.96,3.09-2.27l.72-3.21h3.91c2.81,0,5.1-2.06,5.1-4.64l-1.94-26.96ZM18.19,40.26c-.14.11-.29.21-.46.29l-6-.06c-.19-.1-.37-.23-.52-.38l-.92-3.93h8.86l-.96,4.08ZM41.09,40.31c-.13.09-.26.17-.41.24l-6-.06c-.22-.12-.41-.27-.57-.45l-.91-3.86h8.86l-.97,4.13ZM63.99,40.34c-.11.08-.23.15-.36.21l-6-.06c-.25-.13-.46-.31-.63-.52l-.89-3.79h8.86l-.98,4.16ZM70.38,34.39H5.1c-1.71,0-3.1-1.25-3.11-2.73L3.94,4.58c0-1.54,1.29-2.79,2.89-2.79h61.82c1.59,0,2.89,1.25,2.89,2.85l1.94,26.96c0,1.54-1.39,2.79-3.1,2.79Z"/>
      <path d="M14.79,5.22c-3.64,0-6.6,2.04-6.6,4.55s2.96,4.55,6.6,4.55,6.6-2.04,6.6-4.55-2.96-4.55-6.6-4.55ZM14.79,12.98c-2.81,0-5.1-1.44-5.1-3.21s2.29-3.21,5.1-3.21,5.1,1.44,5.1,3.21-2.29,3.21-5.1,3.21Z"/>
      <path d="M14.79,22.04c-3.64,0-6.6,2.04-6.6,4.55s2.96,4.55,6.6,4.55,6.6-2.04,6.6-4.55-2.96-4.55-6.6-4.55ZM14.79,29.8c-2.81,0-5.1-1.44-5.1-3.21s2.29-3.21,5.1-3.21,5.1,1.44,5.1,3.21-2.29,3.21-5.1,3.21Z"/>
      <path d="M37.68,5.22c-3.64,0-6.6,2.04-6.6,4.55s2.96,4.55,6.6,4.55,6.6-2.04,6.6-4.55-2.96-4.55-6.6-4.55ZM37.68,12.98c-2.81,0-5.1-1.44-5.1-3.21s2.29-3.21,5.1-3.21,5.1,1.44,5.1,3.21-2.29,3.21-5.1,3.21Z"/>
      <path d="M37.68,22.04c-3.64,0-6.6,2.04-6.6,4.55s2.96,4.55,6.6,4.55,6.6-2.04,6.6-4.55-2.96-4.55-6.6-4.55ZM37.68,29.8c-2.81,0-5.1-1.44-5.1-3.21s2.29-3.21,5.1-3.21,5.1,1.44,5.1,3.21-2.29,3.21-5.1,3.21Z"/>
      <path d="M60.57,5.22c-3.64,0-6.6,2.04-6.6,4.55s2.96,4.55,6.6,4.55,6.6-2.04,6.6-4.55-2.96-4.55-6.6-4.55ZM60.57,12.98c-2.81,0-5.1-1.44-5.1-3.21s2.29-3.21,5.1-3.21,5.1,1.44,5.1,3.21-2.29,3.21-5.1,3.21Z"/>
      <path d="M60.57,22.04c-3.64,0-6.6,2.04-6.6,4.55s2.96,4.55,6.6,4.55,6.6-2.04,6.6-4.55-2.96-4.55-6.6-4.55ZM60.57,29.8c-2.81,0-5.1-1.44-5.1-3.21s2.29-3.21,5.1-3.21,5.1,1.44,5.1,3.21-2.29,3.21-5.1,3.21Z"/>
    </g>
  </g>
</svg>