<?xml version="1.0" encoding="UTF-8"?>
<svg id="Calque_2" data-name="Calque 2" xmlns="http://www.w3.org/2000/svg" viewBox="0 0 74.74 25.86">
  <g id="Calque_1-2" data-name="Calque 1">
    <g>
      <path d="M72.32,0H2.41C1.06,0,0,.94,0,2.14c0,1.01.75,1.84,1.79,2.06.66,8.01,4.03,15.2,8.98,19.92h.04c4.54,1.16,9.26,1.74,14.14,1.74s9.92-.58,15.07-1.74h0c.76-.72,1.49-1.51,2.19-2.36,3.88-4.71,6.29-10.92,6.8-17.49h23.3c1.36,0,2.42-.93,2.42-2.13s-1.06-2.14-2.42-2.14ZM45.46,12.07c-.18-.23-.46-.38-.78-.38-.53,0-.96.43-.96.96s.43.97.96.97c.07,0,.13,0,.19,0-1.05,2.54-2.44,4.89-4.12,6.95-.49.6-1,1.15-1.53,1.68-9.76,2.14-19.06,2.14-27.65,0-3.12-3.14-5.55-7.29-6.88-12.07.49-.05.88-.47.88-.97,0-.53-.43-.96-.97-.96-.13,0-.25.01-.36.07-.29-1.31-.49-2.64-.59-4.04h43.45c-.22,2.71-.78,5.34-1.64,7.8ZM72.32,2.75H2.41c-.49,0-.88-.27-.88-.61s.39-.6.88-.6h69.91c.5,0,.9.27.9.6s-.4.61-.9.61Z"/>
      <path d="M9.96,10.17c.53,0,.97-.43.97-.97s-.43-.97-.97-.97-.97.43-.97.97.43.97.97.97Z"/>
      <path d="M15.31,10.17c.53,0,.97-.43.97-.97s-.43-.97-.97-.97-.97.43-.97.97.43.97.97.97Z"/>
      <circle cx="20.67" cy="9.2" r=".97"/>
      <path d="M26.02,10.17c.53,0,.97-.43.97-.97s-.43-.97-.97-.97-.97.43-.97.97.43.97.97.97Z"/>
      <circle cx="31.38" cy="9.2" r=".97"/>
      <path d="M36.73,10.17c.53,0,.97-.43.97-.97s-.43-.97-.97-.97-.97.43-.97.97.43.97.97.97Z"/>
      <path d="M42.09,10.17c.53,0,.97-.43.97-.97s-.43-.97-.97-.97-.97.43-.97.97.43.97.97.97Z"/>
      <circle cx="7.2" cy="12.66" r=".97"/>
      <path d="M12.55,13.63c.53,0,.97-.43.97-.97s-.43-.97-.97-.97-.97.43-.97.97.43.97.97.97Z"/>
      <circle cx="17.91" cy="12.66" r=".97"/>
      <path d="M23.26,13.63c.53,0,.97-.43.97-.97s-.43-.97-.97-.97-.97.43-.97.97.43.97.97.97Z"/>
      <circle cx="28.62" cy="12.66" r=".97"/>
      <path d="M33.97,13.63c.53,0,.97-.43.97-.97s-.43-.97-.97-.97-.97.43-.97.97.43.97.97.97Z"/>
      <path d="M39.33,13.63c.53,0,.97-.43.97-.97s-.43-.97-.97-.97-.97.43-.97.97.43.97.97.97Z"/>
      <path d="M9.96,17.09c.53,0,.97-.43.97-.97s-.43-.97-.97-.97-.97.43-.97.97.43.97.97.97Z"/>
      <path d="M15.31,17.09c.53,0,.97-.43.97-.97s-.43-.97-.97-.97-.97.43-.97.97.43.97.97.97Z"/>
      <path d="M20.67,17.09c.53,0,.97-.43.97-.97s-.43-.97-.97-.97-.97.43-.97.97.43.97.97.97Z"/>
      <path d="M26.02,17.09c.53,0,.97-.43.97-.97s-.43-.97-.97-.97-.97.43-.97.97.43.97.97.97Z"/>
      <path d="M31.38,17.09c.53,0,.97-.43.97-.97s-.43-.97-.97-.97-.97.43-.97.97.43.97.97.97Z"/>
      <path d="M36.73,17.09c.53,0,.97-.43.97-.97s-.43-.97-.97-.97-.97.43-.97.97.43.97.97.97Z"/>
      <path d="M42.09,17.09c.53,0,.97-.43.97-.97s-.43-.97-.97-.97-.97.43-.97.97.43.97.97.97Z"/>
      <path d="M12.55,20.55c.53,0,.97-.43.97-.97s-.43-.97-.97-.97-.97.43-.97.97.43.97.97.97Z"/>
      <circle cx="17.91" cy="19.58" r=".97"/>
      <path d="M23.26,20.55c.53,0,.97-.43.97-.97s-.43-.97-.97-.97-.97.43-.97.97.43.97.97.97Z"/>
      <circle cx="28.62" cy="19.58" r=".97"/>
      <path d="M33.97,20.55c.53,0,.97-.43.97-.97s-.43-.97-.97-.97-.97.43-.97.97.43.97.97.97Z"/>
      <path d="M39.33,20.55c.53,0,.97-.43.97-.97s-.43-.97-.97-.97-.97.43-.97.97.43.97.97.97Z"/>
    </g>
  </g>
</svg>