<?xml version="1.0" encoding="UTF-8"?>
<svg id="Calque_2" data-name="Calque 2" xmlns="http://www.w3.org/2000/svg" viewBox="0 0 74.94 50.66">
  <g id="Calque_1-2" data-name="Calque 1">
    <g>
      <path d="M69.5,28.87c-.11-1.36-1.29-2.43-2.73-2.43h-2.42c.39-.48.63-1.08.63-1.74v-.76c0-1.53-1.25-2.78-2.78-2.78h-15.26c8.98-3.16,15.3-10.31,15.6-18.83.02-.62-.21-1.23-.64-1.67C61.48.23,60.95,0,60.3,0L12.74.68c-.62,0-1.18.27-1.6.72-.42.46-.63,1.08-.58,1.7.65,8.14,6.96,14.98,15.67,18.05h-12.95c-1.53,0-2.78,1.25-2.78,2.78v.76c0,.66.24,1.26.63,1.74h-2.96c-1.44,0-2.62,1.07-2.73,2.43L.05,47.68l-.05.34c0,1.45,1.35,2.63,3,2.63h68.94c1.66,0,3-1.18,3-2.63l-5.44-19.16ZM36.53,20.9c-6.43,0-12.31-2.05-16.65-5.38,1.06-.84,2.19-1.64,3.47-2.08,1.53-.53,2.97-.34,4.47.2,2.73.99,5.27,2.07,8.18,2.44,2.96.38,5.79-.1,8.7-.58,2.62-.43,5.41-.69,7.85.43-4.28,3.08-9.91,4.97-16.03,4.97ZM12.56,2.95c0-.1.04-.17.06-.2.04-.04.09-.07.15-.07l47.56-.68s.09,0,.15.06c.03.03.08.09.07.2-.17,4.71-2.53,9.02-6.28,12.31-2.56-1.53-5.56-1.63-8.45-1.24-3.52.47-6.88,1.28-10.44.66-1.63-.28-3.22-.76-4.76-1.36-1.48-.58-2.92-1.28-4.52-1.47-2.97-.35-5.55,1.27-7.77,3.06-3.3-3.06-5.43-6.96-5.77-11.27ZM12.5,23.94c0-.43.35-.78.78-.78h48.92c.43,0,.78.35.78.78v.76c0,.43-.35.78-.78.78H13.28c-.43,0-.78-.35-.78-.78v-.76ZM71.94,48.16H3c-.23,0-.39-.08-.46-.11l5.34-18.63.05-.34s.08-.13.24-.13h58.6c.16,0,.24.09.24.13l5.38,18.96c-.08.06-.23.13-.46.13Z"/>
      <path d="M48.01,33.64h-21.07c-1.1,0-2,.9-2,2v5.82c0,1.1.9,2,2,2h21.07c1.1,0,2-.9,2-2v-5.82c0-1.1-.9-2-2-2ZM26.94,41.46v-5.82h21.07v5.82s-21.07,0-21.07,0Z"/>
      <path d="M56.36,35.47c-.85,0-1.54.69-1.54,1.54s.69,1.54,1.54,1.54,1.54-.69,1.54-1.54-.69-1.54-1.54-1.54Z"/>
      <path d="M60.01,38.55c-.85,0-1.54.69-1.54,1.54s.69,1.54,1.54,1.54,1.54-.69,1.54-1.54-.69-1.54-1.54-1.54Z"/>
    </g>
  </g>
</svg>