<?xml version="1.0" encoding="UTF-8"?>
<svg id="Calque_2" data-name="Calque 2" xmlns="http://www.w3.org/2000/svg" viewBox="0 0 13.3 75.19">
  <g id="Calque_1-2" data-name="Calque 1">
    <path d="M9.25,9.87C6.94,3.51,4.53.48,4.43.36,4.23.11,3.92-.03,3.59,0h0c-.32.04-.6.23-.75.52C.79,4.5.74,9.97.7,14.37l-.4,32.38v.07c-.06,1.04-.17,9.49-.3,23.79v.77c-.01,1.06.51,2.13,1.38,2.87.71.61,1.57.94,2.42.94.18,0,.36-.01.54-.04,1.33-.23,3.72-.89,4.74-2.62.03-.05.06-.1.09-.15.36-.68.41-1.41.14-2.12-.25-.72-.76-1.25-1.47-1.53-.2-.08-.21-.2-.09-.79.06-.27.12-.58.13-.93l.25-20.1c.08-5.84,4.19-6.95,4.37-7,.25-.06.46-.22.59-.43l.09-.17-.02-.02c.03-.09.05-.18.05-.27.53-13.64-1.87-23.38-3.98-29.15ZM2.23,45.88l.39-31.49c.03-3.57.08-8.01,1.27-11.44.93,1.49,2.27,3.98,3.57,7.57h0c1.94,5.32,4.19,14.28,3.91,26.76,0,.59-.33,1.14-.83,1.42-.5.29-.98.63-1.42,1.03-.6.54-1.11,1.17-1.53,1.88-.73,1.24-1.18,2.69-1.32,4.33l-4.05-.05ZM7.13,70.5c.2.08.32.21.39.41.08.2.06.38-.04.57-.5.94-2.12,1.53-3.46,1.77-.45.07-.97-.1-1.39-.46-.45-.38-.72-.9-.72-1.39v-.78c.13-12.64.22-20.31.27-22.83l4.03.05-.23,18.86h0c0,.1,0,.19,0,.27,0,.17-.03.36-.05.57-.11.94-.26,2.36,1.19,2.96Z"/>
  </g>
</svg>