<?xml version="1.0" encoding="UTF-8"?>
<svg id="Calque_2" data-name="Calque 2" xmlns="http://www.w3.org/2000/svg" viewBox="0 0 48.51 75">
  <g id="Calque_1-2" data-name="Calque 1">
    <path d="M.83,9.03l6.16,16.16c.37.62.93,1.05,1.61,1.22l.12.03.04.11c4.07,13.71,8.54,32.71,8.65,33.56v.1c.11,2.47,1.41,14.79,15.55,14.79s15.43-12.32,15.55-14.78v-.22c0-4.16-7.73-6.36-15.4-6.38h-.16c-3.64.01-7.16.5-9.92,1.38l-.3.1-.03-.31c-2.02-13.5-6.59-23.96-7.62-31.01l-.05-.12.07-.11c.45-.69.54-1.53.25-2.31L11.58,3.88c-.58-1.55-1.8-2.81-3.35-3.44-1.54-.63-3.3-.58-4.81.14C1.9,1.3.75,2.63.26,4.24-.23,5.83-.02,7.58.83,9.03ZM19.87,63.6l.55.3c5.97,3.26,19.09,3.26,25.08,0l.56-.29-.19.6c-1.28,4.04-4.55,8.86-12.9,8.86h-.25c-8.21-.1-11.41-4.86-12.66-8.87l-.18-.6ZM19.35,60c0-2.1,5.82-4.46,13.62-4.46l.11.02c7.75.02,13.53,2.36,13.53,4.45,0,.09-.02.17-.05.29-.01.04-.02.08-.02.1-.02.08-.06.14-.12.24l-.04.08s-.03.06-.05.09c-.05.07-.1.13-.15.19l-.08.08s-.05.08-.11.13c-.07.06-.15.13-.28.24l-.13.11c-.11.09-.24.18-.39.27-.06.04-.1.07-.15.1-.16.1-.35.2-.53.29-.04.02-.06.03-.11.06-.14.07-.28.14-.44.2l-.3.14c-.23.1-.48.18-.71.27l-.13.05c-.26.1-.55.19-.85.28l-.08.02c-.22.07-.46.13-.69.19l-.32.09c-.29.07-.6.13-.91.2l-.2.05c-.27.04-.55.09-.83.14l-.37.07c-.26.04-.54.07-.82.11l-.45.06c-.25.03-.51.05-.76.07l-.25.02c-.07.01-.13.01-.19.02l-.15.02c-.33.02-.65.04-1.01.05h-.1c-.11.02-.21.02-.32.03-.49.01-.99.02-1.5.02-7.8,0-13.62-2.35-13.62-4.45ZM10.67,26.06l2.73-1.29.1.24c1.01,6.8,5.46,17.37,7.36,30.66l.02.17-.15.08c-.58.29-1.07.6-1.48.91l-.34.26-.07-.42c-1.26-5.56-5.23-19.19-8.07-30.41l-.1-.22ZM2.11,4.79c.34-1.1,1.1-1.98,2.13-2.47.91-.46,2.01-.53,3.02-.19v-.02l.26.1c1.07.44,1.88,1.27,2.27,2.35l3.77,17.36c.11.29-.04.65-.35.79l-3.71,1.77c-.09.05-.19.07-.28.07-.23,0-.45-.12-.57-.32L2.5,8.06c-.6-1.01-.74-2.16-.4-3.27Z"/>
  </g>
</svg>