<?xml version="1.0" encoding="UTF-8"?>
<svg id="Calque_2" data-name="Calque 2" xmlns="http://www.w3.org/2000/svg" viewBox="0 0 74.91 31.28">
  <g id="Calque_1-2" data-name="Calque 1">
    <path d="M73.88,6.36c-.52-.66-1.21-1.02-1.93-1.02H31.41c-.72,0-1.4.36-1.93,1.02-.07.08-.12.18-.18.27l-8.1-1.44c-.17-1.17-1.05-2.15-2.27-2.37L3.29.04C1.76-.22.31.79.04,2.31c-.13.74.03,1.48.46,2.09s1.07,1.02,1.81,1.15l15.63,2.78c.17.03.33.04.49.04,1.03,0,1.97-.58,2.45-1.46l7.72,1.37c-.21.9-.22,1.9-.01,2.82l3.12,17.24c.42,1.78,1.55,2.93,2.88,2.93h34.17c1.33,0,2.46-1.15,2.89-2.97l3.1-17.15c.39-1.72.04-3.64-.88-4.79ZM19.04,6.44c-.23.16-.5.22-.79.17L2.62,3.83c-.28-.05-.52-.2-.68-.43-.16-.23-.22-.51-.17-.78.09-.51.53-.87,1.03-.87.06,0,.12,0,.18.02l15.63,2.78c.57.1.95.65.85,1.22-.05.28-.2.52-.43.68ZM73.04,10.8l-3.1,17.15c-.25,1.04-.78,1.58-1.18,1.58h-34.17c-.4,0-.94-.54-1.17-1.53l-3.11-17.23c-.31-1.35.04-2.69.54-3.31.13-.16.33-.36.56-.36h40.55c.23,0,.43.2.56.36.5.62.84,1.96.53,3.35Z"/>
  </g>
</svg>