<?xml version="1.0" encoding="UTF-8"?>
<svg id="Calque_2" xmlns="http://www.w3.org/2000/svg" version="1.1" viewBox="0 0 74.8 50.5">
  <!-- Generator: Adobe Illustrator 29.2.1, SVG Export Plug-In . SVG Version: 2.1.0 Build 116)  -->
  <g id="Calque_1-2">
    <g>
      <path d="M73.1,27.9l-5.8-.5.3-2.9c0-1-.6-1.9-1.6-2l-7.1-.7h-1.7c0-.1-43.4-4.2-43.4-4.2h-1.6c0-.1-.8-.2-.8-.2-1,0-1.9.6-1.9,1.6l-.3,2.9-6.9-.6c-1.1-.1-2,1.1-2.2,2.8-.2,1.7.5,3.1,1.6,3.2l6.9.6-.3,2.9c0,1,.6,1.9,1.6,1.9l8.5.8h1.6c0,.1,44,4.3,44,4.3h.5c.4,0,.7,0,1-.2.5-.3.9-.8.9-1.4l.3-2.9,5.8.5c1.1,0,2-1.1,2.2-2.8.2-1.7-.5-3.1-1.6-3.2h0ZM8.7,26.4l-6.9-.6c-.1,0-.4-.6-.3-1.5,0-.9.4-1.4.5-1.4l7,.6-.3,2.9h0ZM65.1,34.7v1.4c-.1.1-.3.2-.4.2h-.8c0,0-44.1-4.2-44.1-4.2h-1.6c0-.1-8.1-.9-8.1-.9-.1,0-.2-.1-.2-.3l1.1-11.8c0-.1.1-.2.3-.2h.6s1.5.2,1.5.2l44.5,4.2h1.7c0,.1,6.3.7,6.3.7.1,0,.2.1.2.3l-1,10.4h0ZM73.2,30.9c0,.9-.4,1.4-.5,1.4l-5.8-.5.3-2.9,5.8.5c.1,0,.4.6.3,1.5h0Z"/>
      <path d="M58.9,21.8h-1.7c-.6-1.8-1.1-3.5-1.7-5.2-.8-2.6-1.2-6.1-3.8-7.4-2.2-1.1-4.5-1.8-6.4-3.6-1-1-1.8-2.4-3-3.2-1.2-.8-2.6-.8-4-.8-2.5,0-5.4,0-7.2,2.1-1.5,1.8-2.1,4.2-3.2,6.3-1.1,1.9-2.8,3.5-4.8,4.4-1,.5-2,.8-3.1.9-1.4.2-2.8,0-4.1.4-1,.3-1.8,1.1-2.2,2h-1.6c.3-.9.7-1.6,1.2-2.1,2.2-2.3,5.3-1.2,8-2,3.2-.9,5.1-3.5,6.3-6.4,1.1-2.5,2.2-5,4.8-6.2,2.4-1,5.6-1,8.1-.6,1.4.2,2.6.8,3.5,1.8,1,1,1.7,2.2,2.8,3.1,1.3,1,2.7,1.6,4.2,2.2,1.1.4,2.1.9,2.9,1.7,1,1,1.3,2.3,1.7,3.6.5,1.5.9,2.9,1.4,4.4.5,1.6,1,3.2,1.6,4.8h0Z"/>
      <path d="M65.5,37.6c0,3.7-2.1,7.1-6.3,7.5-3,.3-5.5-1.2-8.3-2.1-3.3-1-6.6-.2-9.7,1.3-5.1,2.6-10,6.9-16.2,6.1-5-.6-8.6-5.4-7.6-10.4.3-1.8,1.1-3.4,1.1-5.2,0-.4,0-.9,0-1.3h1.6c0,1.2,0,2.3-.1,3.3-.3,1.6-1,3.1-1,4.8,0,1.3.4,2.7,1,3.8,1.6,2.7,4.5,3.8,7.5,3.5,5.7-.5,10-4.8,15.2-6.9,2.5-1,5.3-1.4,7.9-.8,2.6.6,4.9,2.1,7.6,2.3,2.8.1,5.2-1.4,5.8-4.1.1-.6.2-1.1.2-1.7h.5c.4,0,.7,0,1-.2h0Z"/>
    </g>
  </g>
</svg>