<?xml version="1.0" encoding="UTF-8"?>
<svg id="Calque_2" data-name="Calque 2" xmlns="http://www.w3.org/2000/svg" viewBox="0 0 60.11 73.4">
  <g id="Calque_1-2" data-name="Calque 1">
    <path d="M59.81,15.39c-.93-1.8-2.43-2.93-4.04-3.05-.24-.01-.46,0-.68.01h-.23c-1.09.06-2.57.12-3.28-1.84l-.12-.35c-.06-.2-.12-.39-.18-.57-.34-1.12-.55-1.79-1.65-2.57-1.05-.75-1.75-.74-2.74-.74-.42.01-.89.01-1.39-.05-1.86-.18-2.29-1.67-2.6-2.76l-.04-.12c-.14-.48-.28-.93-.51-1.29-1.32-1.99-3.47-2.29-5.05-1.93-2.1.49-3.62,2.14-3.87,4.21-.17,1.38-.02,2.99.13,4.55.16,1.6.28,2.98.19,4.28l-.03.66-.66-.07c-.87-.1-1.73-.14-2.58-.14-1.15,0-2.29.08-3.39.25-8.33,1.3-14.54,7.2-16.6,15.79-1,4.18-1.77,8.58-2.52,12.82l-.04.23c-.59,3.4-1.26,7.26-2.08,10.99l-.05.31-.44.19c-.52.24-.74.35-.85.72L.03,69.35c-.08.42.01.79.26,1.09.24.25,3.44,2.62,3.84,2.8.4.19.62.22,1.12.03l12.47-8.68c.3-.21.34-.43.42-.94l.1-.56.26-.15c2.98-1.73,6.14-3.38,9.18-4.97l.7-.37c3.63-1.9,7.75-4.05,11.59-6.35,8.34-5.03,12.1-14.02,9.57-22.92-.15-.51-.35-1.04-.55-1.54l-.06-.14c-.21-.52-.48-1.17-.66-1.82l-.07-.25.12-.22c.21-.41.6-.5.79-.54,1.07-.28,2.17-.52,3-.7h.09c1.41-.32,2.88-.65,4.17-1.09,2.17-.72,3.43-2.32,3.74-4.75l-.3-1.89ZM14.07,64.47l-8.54,6.01c-.28.19-.65.2-.93,0l-1.86-1.27c-.3-.21-.43-.59-.32-.93l3.19-9.86c.17-.52.81-.73,1.26-.41l7.2,5.12c.46.33.46,1.01,0,1.34ZM40.02,48.88h-.01s-23.71,12.88-23.71,12.88l-8.76-6.55.07-.38,4.84-24.78c1.92-9.3,10.78-15.55,20.16-14.22,1.29.18,2.65.52,3.86,1.8.21.16.44.39.4.87l-.04.41-8.16,2.94c-.3.39-.2.84-.03,1.11.2.33.63.63,1.17.44l9.26-3.73,1.87,1.35-.14.43c-.53,1.66-.82,2.41-1.07,3.07l-.05.12c-.27.69-.55,1.41-1.07,3.1-.05.18-.11.36-.18.54-.39,1.12-.48,1.58.12,2.01.25.18.57.24.86.16.27-.08.49-.28.59-.53l2.37-7.07.24-.12c.51-.23.85.02.97.1,1.16.56,2.08,1.5,2.77,2.87,4.1,8.19,1.38,18.15-6.33,23.18ZM55.64,20.13h0c-1.36.47-2.87.8-4.33,1.12l-.48.1c-1.24.28-2.52.56-3.67.96l-.15.03h-.07c-.78,0-1.52-.65-2.12-1.18-.11-.09-.2-.17-.28-.24l-.84-.66.88-.45c1.34-.67,2.78-1.78,2.82-2.51.01-.16-.03-.38-.51-.68-.63-.41-1.29-.03-2.61,1.05l-.07.06c-.59.48-1.15.93-1.75,1.13-.45.17-.98-.05-1.28-.29-.4-.3-.61-.71-.58-1.11.04-.54.28-1.16.56-1.85.7-1.75.89-2.6.19-3.04-.31-.22-.57-.28-.78-.2-.69.27-1.14,1.9-1.35,2.69-.2.76-.3,1.15-.78,1.23l-.27.04-2.17-1.66-.6-9.57c.07-1.86,1.4-2.89,2.61-3.08,1.32-.2,2.44.44,2.89,1.63.14.35.25.68.35,1,.41,1.31.67,2.13,1.96,2.9,1.06.64,1.7.63,2.59.62.47-.01.86,0,1.26.03,1.79.14,2.27,1.59,2.66,2.76.21.62.43,1.24.8,1.71,1.23,1.6,2.28,1.62,4.03,1.66.19.01.38.01.58.02h.43c1.3.08,2.26.96,2.45,2.26.17,1.29-.5,2.87-2.37,3.52Z"/>
  </g>
</svg>