<?xml version="1.0" encoding="UTF-8"?>
<svg id="Calque_2" data-name="Calque 2" xmlns="http://www.w3.org/2000/svg" viewBox="0 0 75.08 52.55">
  <g id="Calque_1-2" data-name="Calque 1">
    <path d="M71.13,6.16L8.49.02C6.09-.21,3.95,1.55,3.71,3.95L.02,41.61c-.24,2.4,1.53,4.54,3.93,4.78l62.63,6.14c2.4.24,4.55-1.53,4.78-3.93l3.69-37.66c.24-2.4-1.53-4.54-3.93-4.78ZM61.2,7.07l5.29.52-2.01,20.86-5.32-.52,2.05-20.86ZM59.96,6.94l-2.05,20.86-5.67-.56,2.04-20.83-.37-.04v-.03s6.05.59,6.05.59ZM50.93,27.12l-5.75-.56,2.05-20.86,5.75.56-2.05,20.86ZM46,5.58l-2.05,20.86-5.69-.56,2.04-20.77-.35-.03v-.09s6.05.59,6.05.59ZM39.03,4.89l-2.05,20.86-6.05-.59,2.05-20.86,6.05.59ZM31.64,4.17l-2.05,20.86-5.63-.55,2.05-20.86,5.63.55ZM24.72,3.49l-2.05,20.86-5.69-.56,2.05-20.86,5.69.56ZM17.67,2.8l-2.05,20.86-5.61-.55L12.06,2.25l5.61.55ZM5.57,4.13c.13-1.38,1.36-2.38,2.74-2.25l2.46.24h-.02s-2.05,20.86-2.05,20.86l-4.94-.48,1.8-18.37ZM1.88,41.79l1.8-18.37,4.94.48-2.05,20.86-2.44-.24c-1.38-.13-2.38-1.36-2.25-2.74ZM6.83,44.8h.12s-.12,0-.12,0ZM7.88,44.9l2.05-20.86,5.61.55-2.03,20.74.43.04v.12s-6.06-.59-6.06-.59ZM14.85,45.58l2.05-20.86,5.69.56-2.04,20.8.35.03v.06s-6.05-.59-6.05-.59ZM21.83,46.27l2.05-20.86,5.63.55-2.03,20.68.41.04-.02.18-6.05-.59ZM28.8,46.95l2.05-20.86,6.05.59-2.05,20.86-6.05-.59ZM36.13,47.67l2.05-20.86,5.69.56-2.05,20.86-5.69-.56ZM42.75,48.32v-.03s.3.03.3.03l2.04-20.83,5.75.56-2.05,20.86-6.05-.59ZM50.1,49.04l2.05-20.86,5.67.56-2.05,20.86-5.67-.56ZM56.71,49.59l.32.03,2.04-20.77,5.33.52-2.01,20.86-5.67-.56v-.09ZM69.5,48.42c-.13,1.38-1.36,2.38-2.74,2.25l-3.09-.3,2.05-20.86,5.58.55-1.8,18.37ZM71.4,29.13l-5.58-.55,2.05-20.86,3.09.3c1.38.13,2.38,1.36,2.25,2.74l-1.8,18.37Z"/>
  </g>
</svg>