<?xml version="1.0" encoding="UTF-8"?>
<svg id="Calque_2" data-name="Calque 2" xmlns="http://www.w3.org/2000/svg" viewBox="0 0 37.96 73.87">
  <g id="Calque_1-2" data-name="Calque 1">
    <g>
      <path d="M37.2,17.03v-6.53c0-3.64-2.96-6.6-6.6-6.6h-5.05c-.41-2.21-2.34-3.9-4.67-3.9h-3.78c-2.33,0-4.26,1.68-4.67,3.9h-5.07C3.73,3.9.76,6.86.76,10.5v6.53c-.46.39-.76.96-.76,1.61v2.42c0,.65.3,1.23.77,1.61.02,13.86.9,29.13,2.67,46.58,0,2.54,1.81,4.61,4.03,4.61h23.02c2.22,0,4.03-2.07,4.03-4.51,1.96-17.16,2.84-32.43,2.68-46.69.46-.39.76-.96.76-1.61v-2.42c0-.65-.3-1.22-.76-1.61ZM1.72,21.06v-2.42c0-.22.18-.39.39-.39h33.75c.22,0,.39.18.39.39v2.42c0,.22-.18.39-.39.39H2.11c-.22,0-.39-.18-.39-.39ZM17.1,1.72h3.78c1.38,0,2.54.92,2.92,2.18h-9.61c.37-1.26,1.54-2.18,2.92-2.18ZM2.48,10.5c0-2.69,2.19-4.89,4.89-4.89h23.23c2.69,0,4.89,2.19,4.89,4.89v5.48H2.48v-5.48ZM32.81,69.25c0,1.6-1.04,2.89-2.31,2.89H7.47c-1.28,0-2.31-1.3-2.32-2.98-1.76-17.28-2.63-32.33-2.67-46h33.01c.13,14.05-.75,29.1-2.69,46.09Z"/>
      <path d="M5.43,36.4c-.47.03-.83.43-.81.91.49,8.62,1.22,17.37,2.17,25.99.05.44.42.76.85.76.03,0,.06,0,.09,0,.47-.05.81-.48.76-.95-.94-8.59-1.67-17.31-2.16-25.9-.03-.47-.44-.82-.91-.81Z"/>
    </g>
  </g>
</svg>