<?xml version="1.0" encoding="UTF-8"?>
<svg id="Calque_2" data-name="Calque 2" xmlns="http://www.w3.org/2000/svg" viewBox="0 0 27.67 74.79">
  <g id="Calque_1-2" data-name="Calque 1">
    <g>
      <path d="M27.67,14.14C27.67,6.34,21.47,0,13.84,0S0,6.34,0,14.14c0,6.59,4.45,12.13,10.43,13.69h-.23v43.33c0,2,1.63,3.63,3.62,3.63s3.64-1.63,3.64-3.63V27.83h-.23c5.99-1.56,10.43-7.09,10.43-13.69ZM15.42,71.16c0,.88-.7,1.58-1.59,1.58s-1.57-.7-1.57-1.58V28.18c.52.06,1.05.1,1.58.1s1.06-.04,1.58-.1v42.98ZM13.84,26.28c-6.53,0-11.84-5.45-11.84-12.14S7.31,2,13.84,2s11.84,5.45,11.84,12.14-5.31,12.14-11.84,12.14Z"/>
      <path d="M13.59,4.17l-.56.56c-.29.29-.29.77,0,1.06.15.15.34.22.53.22s.38-.07.53-.22l.56-.56c.29-.29.29-.77,0-1.06s-.77-.29-1.06,0Z"/>
      <path d="M18.67,6.46c-.29-.29-.77-.29-1.06,0-.29.29-.29.77,0,1.06l.56.56c.15.15.34.22.53.22s.38-.07.53-.22c.29-.29.29-.77,0-1.06l-.56-.56Z"/>
      <path d="M22.71,10.59c.19,0,.38-.07.53-.22l.56-.56c.29-.29.29-.77,0-1.06s-.77-.29-1.06,0l-.56.56c-.29.29-.29.77,0,1.06.15.15.34.22.53.22Z"/>
      <path d="M22.75,13.33l-.56.56c-.29.29-.29.77,0,1.06.15.15.34.22.53.22s.38-.07.53-.22l.56-.56c.29-.29.29-.77,0-1.06s-.77-.29-1.06,0Z"/>
      <path d="M22.75,17.91l-.56.56c-.29.29-.29.77,0,1.06.15.15.34.22.53.22s.38-.07.53-.22l.56-.56c.29-.29.29-.77,0-1.06s-.77-.29-1.06,0Z"/>
      <path d="M18.67,11.04c-.29-.29-.77-.29-1.06,0s-.29.77,0,1.06l.56.56c.15.15.34.22.53.22s.38-.07.53-.22c.29-.29.29-.77,0-1.06l-.56-.56Z"/>
      <path d="M18.67,15.62c-.29-.29-.77-.29-1.06,0s-.29.77,0,1.06l.56.56c.15.15.34.22.53.22s.38-.07.53-.22c.29-.29.29-.77,0-1.06l-.56-.56Z"/>
      <path d="M18.67,20.2c-.29-.29-.77-.29-1.06,0s-.29.77,0,1.06l.56.56c.15.15.34.22.53.22s.38-.07.53-.22c.29-.29.29-.77,0-1.06l-.56-.56Z"/>
      <path d="M9.53,6.46c-.29-.29-.77-.29-1.06,0-.29.29-.29.77,0,1.06l.56.56c.15.15.34.22.53.22s.38-.07.53-.22c.29-.29.29-.77,0-1.06l-.56-.56Z"/>
      <path d="M4.46,8.75l-.56.56c-.29.29-.29.77,0,1.06.15.15.34.22.53.22s.38-.07.53-.22l.56-.56c.29-.29.29-.77,0-1.06s-.77-.29-1.06,0Z"/>
      <path d="M4.46,13.33l-.56.56c-.29.29-.29.77,0,1.06.15.15.34.22.53.22s.38-.07.53-.22l.56-.56c.29-.29.29-.77,0-1.06s-.77-.29-1.06,0Z"/>
      <path d="M4.46,17.91l-.56.56c-.29.29-.29.77,0,1.06.15.15.34.22.53.22s.38-.07.53-.22l.56-.56c.29-.29.29-.77,0-1.06s-.77-.29-1.06,0Z"/>
      <path d="M9.53,11.04c-.29-.29-.77-.29-1.06,0s-.29.77,0,1.06l.56.56c.15.15.34.22.53.22s.38-.07.53-.22c.29-.29.29-.77,0-1.06l-.56-.56Z"/>
      <path d="M9.53,15.62c-.29-.29-.77-.29-1.06,0s-.29.77,0,1.06l.56.56c.15.15.34.22.53.22s.38-.07.53-.22c.29-.29.29-.77,0-1.06l-.56-.56Z"/>
      <path d="M9.53,20.2c-.29-.29-.77-.29-1.06,0s-.29.77,0,1.06l.56.56c.15.15.34.22.53.22s.38-.07.53-.22c.29-.29.29-.77,0-1.06l-.56-.56Z"/>
      <path d="M13.59,8.75l-.56.56c-.29.29-.29.77,0,1.06.15.15.34.22.53.22s.38-.07.53-.22l.56-.56c.29-.29.29-.77,0-1.06s-.77-.29-1.06,0Z"/>
      <path d="M13.59,13.33l-.56.56c-.29.29-.29.77,0,1.06.15.15.34.22.53.22s.38-.07.53-.22l.56-.56c.29-.29.29-.77,0-1.06s-.77-.29-1.06,0Z"/>
      <path d="M13.59,17.91l-.56.56c-.29.29-.29.77,0,1.06.15.15.34.22.53.22s.38-.07.53-.22l.56-.56c.29-.29.29-.77,0-1.06s-.77-.29-1.06,0Z"/>
      <path d="M13.59,22.49l-.56.56c-.29.29-.29.77,0,1.06.15.15.34.22.53.22s.38-.07.53-.22l.56-.56c.29-.29.29-.77,0-1.06s-.77-.29-1.06,0Z"/>
    </g>
  </g>
</svg>