<?xml version="1.0" encoding="UTF-8"?>
<svg id="Calque_2" data-name="Calque 2" xmlns="http://www.w3.org/2000/svg" viewBox="0 0 46.03 75">
  <g id="Calque_1-2" data-name="Calque 1">
    <g>
      <g>
        <path d="M36.18,0h-5.05c-2.12,0-3.85,1.73-3.85,3.85v24.99c0,.56.46,1.02,1.02,1.02h4.47v41.5c0,2.01,1.64,3.64,3.64,3.64s3.64-1.63,3.64-3.64V29.86h4.96c.56,0,1.02-.46,1.02-1.02V9.85c0-5.43-4.41-9.85-9.84-9.85ZM38,71.36c0,.88-.71,1.59-1.59,1.59s-1.59-.71-1.59-1.59V29.86h3.17v41.5ZM43.98,27.82h-14.65V3.85c0-.99.81-1.8,1.8-1.8h5.05c4.29,0,7.79,3.5,7.79,7.8v17.96Z"/>
        <path d="M36.65,21.17c-.42,0-.77-.34-.77-.77v-9.47c0-.42.34-.77.77-.77s.77.34.77.77v9.47c0,.42-.34.77-.77.77Z"/>
      </g>
      <g>
        <path d="M16.65,0H4.13C1.84,0-.01,1.85,0,4.21l1.36,18.73c.05,2.8,2.36,5.08,5.15,5.1v43.32c0,2.01,1.63,3.64,3.63,3.64s3.64-1.63,3.64-3.64V28.04h.45c2.81,0,5.14-2.29,5.18-5.04l1.37-18.87c0-2.28-1.85-4.14-4.13-4.14ZM11.73,71.36c0,.88-.71,1.59-1.59,1.59s-1.58-.71-1.58-1.59V28.04h3.16v43.32ZM17.37,22.9c-.03,1.71-1.44,3.09-3.14,3.09h-7.67c-1.7,0-3.11-1.38-3.14-3.14L2.04,4.14c0-1.15.94-2.09,2.09-2.09h12.53c1.15,0,2.08.94,2.08,2.01l-1.36,18.84Z"/>
        <path d="M10.41,22.99c-.42,0-.77-.34-.77-.77V6.08c0-.42.34-.77.77-.77s.77.34.77.77v16.14c0,.42-.34.77-.77.77Z"/>
        <path d="M6.88,22.99c-.39,0-.73-.3-.76-.7l-1.4-16.14c-.04-.42.28-.8.7-.83.42-.03.79.28.83.7l1.4,16.14c.04.42-.28.8-.7.83-.02,0-.05,0-.07,0Z"/>
        <path d="M13.94,22.99s-.05,0-.07,0c-.42-.04-.74-.41-.7-.83l1.4-16.14c.04-.42.42-.73.83-.7.42.04.74.41.7.83l-1.4,16.14c-.04.4-.37.7-.76.7Z"/>
      </g>
    </g>
  </g>
</svg>