<?xml version="1.0" encoding="UTF-8"?>
<svg id="Calque_2" data-name="Calque 2" xmlns="http://www.w3.org/2000/svg" viewBox="0 0 22.19 75.07">
  <g id="Calque_1-2" data-name="Calque 1">
    <path d="M22.19,15C22.19,6.72,15.48,0,11.1,0S0,6.72,0,15c0,6.97,3.53,12.82,8.3,14.5l-.84,41.43c0,2.28,1.64,4.14,3.64,4.14s3.63-1.86,3.63-4.14l-.84-41.43c4.77-1.68,8.3-7.54,8.3-14.5ZM13.85,27.39c-.28.13-.56.23-.85.32-.41.12-.69.51-.69.94v1.27s.37,41.02.37,41.02c0,1-.7,1.8-1.58,1.8s-1.59-.8-1.59-1.8l.36-41.02v-1.26c.02-.43-.26-.82-.68-.94-.29-.09-.57-.19-.85-.32-3.67-1.67-6.34-6.59-6.34-12.39C2,7.49,7.98,2,11.1,2s9.09,5.49,9.09,13c0,5.8-2.67,10.72-6.34,12.39Z"/>
  </g>
</svg>