<?xml version="1.0" encoding="UTF-8"?>
<svg id="Calque_2" data-name="Calque 2" xmlns="http://www.w3.org/2000/svg" viewBox="0 0 74.36 39.67">
  <g id="Calque_1-2" data-name="Calque 1">
    <g>
      <path d="M71.19,0H3.16C1.39,0,0,1.23,0,2.8s1.39,2.8,3.16,2.8h3.04c.9,11.49,6.13,21.47,13.63,27.61l-3.61,3.61c-.48.49-.48,1.28,0,1.77.25.24.57.37.89.37s.64-.13.88-.37l3.86-3.86c4.55,3.14,9.79,4.94,15.33,4.94s10.73-1.71,15.37-4.91l3.82,3.83c.25.24.57.37.89.37s.64-.13.88-.37c.49-.49.49-1.28,0-1.77l-3.57-3.57c1.66-1.38,3.24-2.95,4.69-4.73,5.09-6.19,8.24-14.32,8.91-22.92h3.02c1.78,0,3.17-1.23,3.17-2.8s-1.39-2.8-3.17-2.8ZM63.5,15.82c-.23-.3-.6-.5-1.01-.5-.7,0-1.27.56-1.27,1.26s.57,1.27,1.27,1.27c.08,0,.16-.01.24-.03-1.37,3.34-3.19,6.42-5.4,9.11-1.63,1.99-3.42,3.71-5.34,5.13-.07.05-.14.11-.2.17-4.39,3.22-9.4,4.94-14.61,4.94-12.4,0-23.22-9.97-27.1-23.86.64-.06,1.15-.6,1.15-1.26,0-.7-.57-1.27-1.27-1.27-.17,0-.33.03-.48.1-.37-1.71-.63-3.47-.77-5.28h56.95c-.29,3.53-1.03,6.98-2.16,10.22ZM71.19,3.6H3.16c-.64,0-1.16-.36-1.16-.8s.52-.8,1.16-.8h68.03c.65,0,1.17.36,1.17.8s-.52.8-1.17.8Z"/>
      <g>
        <circle cx="16.98" cy="12.05" r="1.27"/>
        <circle cx="24" cy="12.05" r="1.27"/>
        <circle cx="31.02" cy="12.05" r="1.27"/>
        <circle cx="38.04" cy="12.05" r="1.27"/>
        <circle cx="45.05" cy="12.05" r="1.27"/>
        <circle cx="52.07" cy="12.05" r="1.27"/>
        <circle cx="59.09" cy="12.05" r="1.27"/>
      </g>
      <g>
        <circle cx="13.36" cy="16.58" r="1.27"/>
        <circle cx="20.38" cy="16.58" r="1.27"/>
        <circle cx="27.4" cy="16.58" r="1.27"/>
        <circle cx="34.42" cy="16.58" r="1.27"/>
        <circle cx="41.44" cy="16.58" r="1.27"/>
        <circle cx="48.45" cy="16.58" r="1.27"/>
        <circle cx="55.47" cy="16.58" r="1.27"/>
      </g>
      <g>
        <circle cx="16.98" cy="21.12" r="1.27"/>
        <circle cx="24" cy="21.12" r="1.27"/>
        <circle cx="31.02" cy="21.12" r="1.27"/>
        <circle cx="38.04" cy="21.12" r="1.27"/>
        <circle cx="45.05" cy="21.12" r="1.27"/>
        <circle cx="52.07" cy="21.12" r="1.27"/>
        <circle cx="59.09" cy="21.12" r="1.27"/>
      </g>
      <g>
        <circle cx="20.38" cy="25.66" r="1.27"/>
        <circle cx="27.4" cy="25.66" r="1.27"/>
        <circle cx="34.42" cy="25.66" r="1.27"/>
        <circle cx="41.44" cy="25.66" r="1.27"/>
        <circle cx="48.45" cy="25.66" r="1.27"/>
        <circle cx="55.47" cy="25.66" r="1.27"/>
      </g>
    </g>
  </g>
</svg>