<?xml version="1.0" encoding="UTF-8"?>
<svg id="Calque_2" data-name="Calque 2" xmlns="http://www.w3.org/2000/svg" viewBox="0 0 54.65 55.72">
  <g id="Calque_1-2" data-name="Calque 1">
    <g>
      <path d="M52.34,2.52l-.35-.34c-3.02-2.96-7.89-2.9-10.84.13l-18.3,18.73c-2.72,2.78-2.88,7.12-.53,10.1L.35,53.61c-.48.49-.47,1.27.02,1.75s1.27.47,1.75-.02l21.96-22.48c3.03,2.28,7.36,2.01,10.08-.77l18.3-18.73c2.95-3.02,2.9-7.89-.13-10.84ZM24.38,30.09c-1.97-2.1-1.96-5.41.07-7.48L42.76,3.88c2.09-2.14,5.53-2.18,7.66-.09l.35.34c2.14,2.09,2.18,5.53.09,7.66l-18.3,18.73c-2.03,2.08-5.33,2.17-7.48.25l-.7-.68Z"/>
      <rect x="27.61" y="17.5" width="14.31" height="5.32" rx="1.29" ry="1.29" transform="translate(-3.95 30.94) rotate(-45.67)"/>
    </g>
  </g>
</svg>