<?xml version="1.0" encoding="UTF-8"?>
<svg id="Calque_2" data-name="Calque 2" xmlns="http://www.w3.org/2000/svg" viewBox="0 0 55.47 74.84">
  <g id="Calque_1-2" data-name="Calque 1">
    <g>
      <path d="M52.66,2.06h-2.42c-.65-.02-1.29.28-1.78.82-.5.52-.84,1.26-.98,2.09h-1.55s0-.7,0-.7c.01-2.25-1.67-4.09-3.76-4.11L13.36,0c-2.08-.01-3.79,1.81-3.8,4.06v.69s-1.54,0-1.54,0c-.14-.83-.47-1.57-.96-2.1-.48-.54-1.11-.85-1.77-.85h-2.42C1.3,1.77.03,3.39,0,5.37v.26c-.08,13.86,8.37,25.59,19.95,29.29.63.2,1.06.81,1.03,1.52l-1.07,28.08c-.11,3.06.84,5.96,2.59,7.95,1.34,1.52,3.06,2.37,4.85,2.38s3.51-.82,4.86-2.32c1.78-1.97,2.75-4.85,2.68-7.92l-.75-28.09c-.02-.71.42-1.32,1.05-1.51,11.62-3.57,20.2-15.21,20.28-29.07v-.24c0-1.99-1.26-3.62-2.81-3.63ZM11.53,4.07c0-1.07.82-1.94,1.81-1.94l28.81.16c.99,0,1.8.88,1.79,1.96v2.17c-.02,1.07-.83,1.94-1.82,1.94l-28.81-.16c-.99,0-1.8-.88-1.79-1.96v-2.17ZM13.3,10.34l28.81.16c2.08.01,3.79-1.81,3.8-4.06v-.06s1.45,0,1.45,0c-.33,10.5-9.08,18.93-19.73,18.87-10.66-.06-19.29-8.57-19.52-19.09h1.43s0,.07,0,.07c-.01,2.25,1.67,4.09,3.76,4.11ZM53.49,5.92c-.07,13.11-8.34,24.1-19.43,27.2-.28.08-.56.15-.85.22-.65.16-1.1.8-1.09,1.52l.02.87.77,28.94c.07,2.45-.72,4.82-2.12,6.35-1.99,2.2-4.9,2.18-6.86-.04-1.37-1.55-2.14-3.93-2.05-6.38l1.1-28.93.03-.87c.03-.72-.42-1.37-1.07-1.54-.28-.07-.56-.15-.84-.23C10.05,29.83,1.9,18.75,1.98,5.63v-.23c0-.85.47-1.49.87-1.49h2.42c.13.01.26.09.38.23.29.31.47.87.47,1.51-.07,11.92,9.57,21.67,21.51,21.74s21.68-9.58,21.75-21.54c0-.6.18-1.15.47-1.46.12-.14.25-.21.38-.21h2.42c.41.02.85.66.85,1.51v.23Z"/>
      <path d="M17.29,5.91l20.89.12c.39,0,.71-.31.72-.71s-.31-.71-.71-.72l-20.89-.12c-.39,0-.71.31-.72.71s.31.71.71.72Z"/>
    </g>
  </g>
</svg>