<?xml version="1.0" encoding="UTF-8"?>
<svg id="Calque_2" data-name="Calque 2" xmlns="http://www.w3.org/2000/svg" viewBox="0 0 30.92 75">
  <g id="Calque_1-2" data-name="Calque 1">
    <path d="M27.67,5.2c-1.94-2.33-4.64-3.95-7.78-4.69-.06-.02-.12-.03-.18-.04C18.33.15,16.87-.01,15.35,0c0,0-.02,0-.03,0h0s-.02,0-.02,0h0c-1.34.06-2.61.23-3.79.47-.01,0-.02,0-.03.01-.04,0-.08.01-.12.02-.01,0-.03,0-.04.01,0,0-.02,0-.03,0,0,0,0,0,0,0-3.88.84-6.87,2.66-8.79,5.36C-.25,9.7-.73,15.01,1.07,21.25c2.29,7.87,6.3,15.21,10.5,21.76-.01.08,0,.16,0,.25l.12,2.34c-.78.45-1.31,1.31-1.31,2.29v21.87c0,2.89,2.35,5.24,5.24,5.24s5.24-2.35,5.24-5.24v-21.87c0-1.11-.68-2.06-1.65-2.46l-.09-1.64c1.13-2.31,2.37-4.58,3.59-6.81,3.23-5.92,6.56-12.04,7.87-18.86.94-4.96-.09-9.54-2.9-12.92ZM16.3,39.45s0,0,0,0c0,0-.02,0-.04,0l-.13-37.81c1.06.03,2.09.15,3.05.36,6.39,6.19,4.25,14.41,2.17,22.37-.18.67-.35,1.34-.52,2-.83,3.25-2.99,9.35-4.52,13.1ZM14.52,1.66l.13,37.72s-.06.01-.09.02c-.16-.36-.32-.7-.46-1.01-1.77-3.88-1.91-4.19-3.59-10.02l-.33-1.15c-2.52-8.64-5.35-18.43,1.78-25.2.82-.17,1.66-.29,2.55-.36,0,0,0,0,0,0ZM2.63,20.8c-1.67-5.74-1.27-10.58,1.16-13.98,1.25-1.74,3-3.07,5.23-3.94h0c-5.48,7.28-2.68,16.9-.39,24.79l.33,1.15c1.72,5.94,1.9,6.35,3.67,10.24.14.31.29.65.46,1,0,0,0,0,0,0-.35.26-.64.57-.88.93-3.87-6.14-7.48-12.97-9.58-20.2ZM18.71,69.76c0,1.71-1.39,3.09-3.09,3.09s-3.09-1.38-3.09-3.09v-21.87c0-.29.23-.52.5-.52h5.16c.29,0,.52.23.52.52v21.87ZM28.98,17.82c-1.26,6.58-4.53,12.59-7.7,18.4-.9,1.64-1.81,3.32-2.68,5.02-.23-.4-.51-.76-.87-1.05,1.56-3.8,3.8-10.1,4.65-13.44.17-.66.34-1.32.52-1.99,1.89-7.2,3.98-15.25-.74-21.78,0,0,0,0,.01,0h.01c1.67.77,3.11,1.87,4.26,3.24,2.5,3,3.4,7.11,2.54,11.58Z"/>
  </g>
</svg>