<?xml version="1.0" encoding="UTF-8"?>
<svg id="Calque_2" data-name="Calque 2" xmlns="http://www.w3.org/2000/svg" viewBox="0 0 73.29 28.45">
  <g id="Calque_1-2" data-name="Calque 1">
    <path d="M27.99,5.6v.8l-6.8-1.21c-.17-1.17-1.05-2.15-2.27-2.37L3.29.04C1.76-.22.31.79.04,2.31c-.13.74.03,1.48.46,2.09s1.07,1.02,1.81,1.15l15.63,2.78c.17.03.33.04.49.04,1.03,0,1.97-.58,2.45-1.46l7.11,1.26v3.99c0,8.98,10.34,16.28,17.54,16.28h10.22c7.2,0,17.54-7.3,17.54-16.28v-6.57H27.99ZM19.04,6.44c-.23.16-.5.22-.79.17L2.62,3.83c-.28-.05-.52-.2-.68-.43-.16-.23-.22-.51-.17-.78.09-.51.53-.87,1.03-.87.06,0,.12,0,.18.02l15.63,2.78c.57.1.95.65.85,1.22-.05.28-.2.52-.43.68ZM71.55,12.17c0,8.02-9.37,14.54-15.8,14.54h-10.22c-6.43,0-15.8-6.52-15.8-14.54v-4.83h41.82v4.83Z"/>
  </g>
</svg>