<svg id="logo" xmlns="http://www.w3.org/2000/svg" xmlns:xlink="http://www.w3.org/1999/xlink" width="241.793" height="44.597" viewBox="0 0 241.793 44.597">
  <defs>
    <clipPath id="clip-path">
      <rect id="Rectangle_55" data-name="Rectangle 55" width="241.793" height="44.597" fill="none"/>
    </clipPath>
  </defs>
  <g id="Groupe_68" data-name="Groupe 68" clip-path="url(#clip-path)">
    <path id="Tracé_31" data-name="Tracé 31" d="M709.719,22.891a3.134,3.134,0,0,0-2.318-1.04h-.057a3.188,3.188,0,0,0-2.307.959l-5.728,5.874a8.805,8.805,0,0,0-5.685,2.482,9.82,9.82,0,0,0-2.533,3.749,1.071,1.071,0,0,0-.034.55l.064.319.319-.068a3.972,3.972,0,0,1,1.434-.037l.251.039.1-.236A7.491,7.491,0,0,1,695.1,32.8a6.305,6.305,0,0,1,4.5-1.911,1.143,1.143,0,0,0,.945-.351l6-6.168a1.216,1.216,0,0,1,.8-.339.944.944,0,0,1,.73.327,1.415,1.415,0,0,1,.306.8,1.038,1.038,0,0,1-.319.7l-6.6,5.54a1.1,1.1,0,0,0-.437.879l0,.023,0,.023a5.959,5.959,0,0,1-.775,2.649,1.192,1.192,0,0,0-.113.45l-.018.4.4-.069a3.929,3.929,0,0,1,1.524.034l.248.053.11-.229a8.861,8.861,0,0,0,.839-2.875l6.236-5.228.067-.057a3.441,3.441,0,0,0,1.035-2.268,3.26,3.26,0,0,0-.85-2.292" transform="translate(-468.776 -14.823)" fill="#31432d"/>
    <path id="Tracé_32" data-name="Tracé 32" d="M613.991,13.442c3.739-3.877,2.691-8.04.636-10.444a8.594,8.594,0,0,0-11.785-1.2,7.163,7.163,0,0,0-2.391,2.861l-.056.113-.146-.032a8.315,8.315,0,0,0-1.459-.226,17.226,17.226,0,0,0-6.222.739,8.877,8.877,0,0,0-5.635,8.491,7.123,7.123,0,0,0,4.844,6.714,11,11,0,0,0,1.606.285c.247.033.545.072.686.1.308.519,1.712,3.353,1.9,3.8.153.358.362.956.583,1.589a13.1,13.1,0,0,0,1.573,3.616,3.2,3.2,0,0,0,2.314.637q.55,0,1.217-.066l.424-.041-.157-.4a4.643,4.643,0,0,1-.289-1.141l-.034-.317-.317.031c-1.625.155-1.831-.131-1.836-.139-.063-.11-.337-.847-.6-1.56-.472-1.268-1.118-3-1.586-4.006-.124-.265-1.764-3.455-2-3.707a1.252,1.252,0,0,0-1.127-.223,2.033,2.033,0,0,1-.35.023,5.288,5.288,0,0,1-4.887-4.583,6.807,6.807,0,0,1,4.238-7.292c2.272-.989,5.454-.644,6.984-.477a3.307,3.307,0,0,0,1.04.048c.327-.1.579-.534.955-1.236a5.671,5.671,0,0,1,.324-.562,7,7,0,0,1,7.928-2.515,5.922,5.922,0,0,1,4.219,5.733,5.4,5.4,0,0,1-2.2,4.219c-.27.232-.393.337-.429.5a45.009,45.009,0,0,0,1.087,4.708c.15.5.6,1.727,1.043,2.913l.1.258.115.231.248-.026.11-.01.152-.007a3.956,3.956,0,0,1,1.041-.041l.508.047-.265-.715a43.17,43.17,0,0,1-2.1-6.685" transform="translate(-398.153 0)" fill="#31432d"/>
    <path id="Tracé_33" data-name="Tracé 33" d="M631.188,43h-.024l-.023.006c-.607.174-1.228.346-1.856.521a68.637,68.637,0,0,0-7.383,2.355c-1.077.441-2.124.992-3.138,1.526-.4.209-.794.418-1.193.621l-.049.025-.02.051a.516.516,0,0,0,.019.432.619.619,0,0,0,.4.3l.056.014.05-.029c4.066-2.321,8.635-3.612,13.055-4.861l.41-.116.029-.055a.622.622,0,0,0,.049-.589.431.431,0,0,0-.385-.2" transform="translate(-418.867 -29.17)" fill="#31432d"/>
    <path id="Tracé_34" data-name="Tracé 34" d="M671.031,73.215c-.308-2.464-5.909-3.579-10.6-4.081a.221.221,0,0,0-.15-.031.282.282,0,0,0-.061.012,104.29,104.29,0,0,0-14.093-.037.506.506,0,0,0-.072,0c-3.911.412-10.522,1.5-10.852,4.154v.357a.858.858,0,0,0,.044.242.4.4,0,0,1,.018.085,24.226,24.226,0,0,0,2.577,7.011,29.346,29.346,0,0,0,1.737,2.695,24.211,24.211,0,0,0,4.187,4.32c-.005.033-.013.07-.02.106a1.283,1.283,0,0,0-.033.24,2.4,2.4,0,0,0,1.973,2.359,38.041,38.041,0,0,0,6.638.658h1.594a38.034,38.034,0,0,0,6.628-.657,2.4,2.4,0,0,0,1.979-2.36,1.27,1.27,0,0,0-.033-.24c-.007-.036-.015-.072-.02-.105a24.2,24.2,0,0,0,4.189-4.322,29.371,29.371,0,0,0,1.735-2.692,24.188,24.188,0,0,0,2.58-7.037.443.443,0,0,1,.016-.06.869.869,0,0,0,.044-.243Zm-24.958-2.089.192-.006v-.006a104.5,104.5,0,0,1,14.021.051l.085.014c5.78.623,8.249,1.833,8.552,2.328-.4.755-5.678,2.642-15.8,2.662-10.125-.02-15.4-1.906-15.8-2.661.286-.444,2.738-1.731,8.76-2.381m14.391,16.039-.027.027-.048.139a1.166,1.166,0,0,0-.092.424,1.293,1.293,0,0,0,.136.548l.028.039a.289.289,0,0,1,.015.127.332.332,0,0,1-.29.319,33.925,33.925,0,0,1-6.273.651h-1.585a33.939,33.939,0,0,1-6.281-.651.331.331,0,0,1-.287-.318.356.356,0,0,1,.012-.124l.03-.042a1.287,1.287,0,0,0,.136-.548,1.178,1.178,0,0,0-.092-.426l-.048-.137-.027-.027a.663.663,0,0,1-.069-.094.9.9,0,0,0-.126-.158,21.85,21.85,0,0,1-4.373-4.374,21.423,21.423,0,0,1-1.593-2.419,26.187,26.187,0,0,1-1.6-3.684c3.641,1.425,10.115,1.948,15.07,1.959h.071c4.951-.01,11.425-.533,15.066-1.958a26.222,26.222,0,0,1-1.6,3.683,21.346,21.346,0,0,1-1.6,2.423,21.939,21.939,0,0,1-4.388,4.386.967.967,0,0,0-.109.143.632.632,0,0,1-.069.095" transform="translate(-430.9 -46.711)" fill="#a82d54"/>
    <path id="Tracé_35" data-name="Tracé 35" d="M11.634,22.745l8.774-.291a2.917,2.917,0,0,1,1.793.509,1.746,1.746,0,0,1,0,2.763,2.917,2.917,0,0,1-1.793.509l-6.787-.243q-.243,10.907-.243,15.076l.243,16.046a2.822,2.822,0,0,1-.533,1.793,1.753,1.753,0,0,1-1.454.679,1.749,1.749,0,0,1-1.454-.679,2.816,2.816,0,0,1-.533-1.793l.242-16.046q0-4.218-.242-15.124l-7.32.242Q0,26.187,0,24.345T2.327,22.5Z" transform="translate(0 -15.232)" fill="#31432d"/>
    <path id="Tracé_36" data-name="Tracé 36" d="M77.737,72.522a27.064,27.064,0,0,0,.533,5.938q.533,2.3,1.26,2.593a2.114,2.114,0,0,0,.7.194,1.668,1.668,0,0,1,.582.145.409.409,0,0,1,.17.388,3.175,3.175,0,0,1-.7,2.133,2.62,2.62,0,0,1-2.109.824q-1.406,0-2.181-1.793a11.686,11.686,0,0,1-.775-4.605A11.837,11.837,0,0,1,71.654,82.9a8.349,8.349,0,0,1-5.284,1.842A7.274,7.274,0,0,1,61.3,82.8q-3.878-3.538-3.878-10.131a14.569,14.569,0,0,1,3.054-9.21,9.516,9.516,0,0,1,7.853-3.926A8.959,8.959,0,0,1,74.635,62q0-2.473,1.842-2.472,2.229,0,2.23,3.418a65.943,65.943,0,0,1-.969,9.574m-2.812.436-.242-7.465A8.729,8.729,0,0,0,68.6,62.681a6.786,6.786,0,0,0-5.453,2.86A10.665,10.665,0,0,0,60.868,72.4a13.173,13.173,0,0,0,1.479,6.593,4.608,4.608,0,0,0,4.193,2.594,6.624,6.624,0,0,0,4.944-2.424,16.421,16.421,0,0,0,3.441-6.2" transform="translate(-38.956 -40.383)" fill="#31432d"/>
    <path id="Tracé_37" data-name="Tracé 37" d="M158.33,77.273a6.5,6.5,0,0,1-2.69,5.381,10.211,10.211,0,0,1-6.447,2.085,12.079,12.079,0,0,1-6.52-1.721q-2.763-1.72-2.763-3.418a1.656,1.656,0,0,1,.436-1.187,1.336,1.336,0,0,1,.994-.461,1.638,1.638,0,0,1,.9.218,5.508,5.508,0,0,1,.921.848q.581.631,1.042,1.067a6.086,6.086,0,0,0,1.891.969,7.6,7.6,0,0,0,2.642.533,8.063,8.063,0,0,0,4.387-1.091,3.532,3.532,0,0,0,1.721-3.175q0-2.52-4.848-4.217-1.988-.678-4-1.479a9.965,9.965,0,0,1-3.418-2.206,4.566,4.566,0,0,1-1.406-3.345,5.813,5.813,0,0,1,2.376-4.581,8.825,8.825,0,0,1,5.817-1.963,10.717,10.717,0,0,1,5.454,1.187q2.011,1.189,2.012,2.5,0,1.6-1.7,1.6a2.447,2.447,0,0,1-1.454-.533,7.662,7.662,0,0,0-4.363-1.6,5.655,5.655,0,0,0-3.393.946,2.686,2.686,0,0,0-1.309,2.181,2.494,2.494,0,0,0,1.406,2.109,18.249,18.249,0,0,0,3.417,1.6q2.011.728,4.048,1.624a9.9,9.9,0,0,1,3.442,2.472,5.332,5.332,0,0,1,1.406,3.66" transform="translate(-94.91 -40.384)" fill="#31432d"/>
    <path id="Tracé_38" data-name="Tracé 38" d="M206.266,44.475l-.1-5.429q0-2.423,1.842-2.424t1.842,2.424l-.145,5.478,3.926-.194q2.423,0,2.424,1.648,0,1.552-2.424,1.551-.436,0-4.023-.1l-.1,11.488a28.1,28.1,0,0,0,.364,5.769,1.757,1.757,0,0,0,1.915,1.358,4.207,4.207,0,0,0,1.77-.509,4.27,4.27,0,0,1,1.381-.509.889.889,0,0,1,1.018.994q0,.994-1.794,2.084a6.781,6.781,0,0,1-3.539,1.09q-4.217,0-4.217-6.2l-.049-15.561Z" transform="translate(-139.858 -24.843)" fill="#31432d"/>
    <path id="Tracé_39" data-name="Tracé 39" d="M251.064,58.777a9.187,9.187,0,0,1,6.35,2.181,7.242,7.242,0,0,1,2.448,5.671,5.831,5.831,0,0,1-3.029,5.308,14.228,14.228,0,0,1-7.441,1.818,32.268,32.268,0,0,1-6.156-.727,9.591,9.591,0,0,0,2.545,5.841,6.713,6.713,0,0,0,5.017,2.448,9.75,9.75,0,0,0,3.054-.461,7.775,7.775,0,0,0,2.133-.994,6.436,6.436,0,0,1,2.545-1.5,1.308,1.308,0,0,1,.969.364,1.217,1.217,0,0,1,.363.9q0,1.358-2.787,3.1a11.167,11.167,0,0,1-6.035,1.745,9.878,9.878,0,0,1-8-3.539,13.974,13.974,0,0,1-3.2-8.532q-2.57-.774-2.569-2.521a1.54,1.54,0,0,1,.412-1.139,1.355,1.355,0,0,1,.994-.412,3.427,3.427,0,0,1,1.454.436,14.254,14.254,0,0,1,4.048-7.174,9.736,9.736,0,0,1,6.883-2.811M249.222,70.7a10.579,10.579,0,0,0,5.235-1.115,3.366,3.366,0,0,0,1.964-3.006,4.646,4.646,0,0,0-1.285-3.272,4.752,4.752,0,0,0-3.66-1.382,6.986,6.986,0,0,0-5.381,2.4,11.459,11.459,0,0,0-2.811,5.6,21.218,21.218,0,0,0,5.938.775" transform="translate(-160.958 -39.872)" fill="#31432d"/>
    <path id="Tracé_40" data-name="Tracé 40" d="M339.19,37.606l-.242-13.282a2.682,2.682,0,0,1,.582-1.769,1.757,1.757,0,0,1,2.812,0,2.684,2.684,0,0,1,.582,1.769l-.242,13.428q4.847.1,9.21.1t7.9-.145l-.242-13.379a2.684,2.684,0,0,1,.582-1.769,1.757,1.757,0,0,1,2.812,0,2.683,2.683,0,0,1,.582,1.769l-.242,13.234v3.781l.242,15.367a2.68,2.68,0,0,1-.582,1.769,1.758,1.758,0,0,1-2.812,0,2.682,2.682,0,0,1-.582-1.769l.242-15.512q-7.126-.145-10.3-.145t-6.81.145q0,7.853.121,11.489t.121,4.363a2.235,2.235,0,0,1-.582,1.43,1.758,1.758,0,0,1-2.812,0,2.233,2.233,0,0,1-.582-1.43q0-.728.048-2.909.193-4.992.194-12.846" transform="translate(-229.931 -14.823)" fill="#a82d54"/>
    <path id="Tracé_41" data-name="Tracé 41" d="M430.224,63.506l-.388,10.665a9.315,9.315,0,0,0,1.406,5.356,4.466,4.466,0,0,0,3.9,2.06q2.5,0,4.824-2.787a16.1,16.1,0,0,0,3.248-6.278L443.07,62q0-2.473,1.842-2.472,2.229,0,2.23,3.417a65.943,65.943,0,0,1-.969,9.574,27.063,27.063,0,0,0,.533,5.938q.533,2.3,1.26,2.593a2.114,2.114,0,0,0,.7.194,1.671,1.671,0,0,1,.582.145.409.409,0,0,1,.17.388,2.934,2.934,0,0,1-.8,2.133,2.688,2.688,0,0,1-2.012.824q-3.054,0-3.054-6.2-3.588,6.205-9.017,6.2a7.039,7.039,0,0,1-6.011-2.884,11.529,11.529,0,0,1-2.133-7.053l.291-7.32a15.985,15.985,0,0,0-.388-3.611,12.18,12.18,0,0,1-.388-2.4,1.889,1.889,0,0,1,.582-1.333,1.989,1.989,0,0,1,1.5-.606q2.229,0,2.23,3.975" transform="translate(-288.923 -40.384)" fill="#a82d54"/>
    <path id="Tracé_42" data-name="Tracé 42" d="M532.045,46.04a14.566,14.566,0,0,1-3.054,9.211,9.516,9.516,0,0,1-7.853,3.926,8.958,8.958,0,0,1-6.3-2.472q0,2.472-1.842,2.472-2.23,0-2.23-3.417a65.806,65.806,0,0,1,.969-9.574q0-3.3-.436-12.434t-.436-9.864a2.216,2.216,0,0,1,.509-1.381,1.785,1.785,0,0,1,2.764,0,2.809,2.809,0,0,1,.509,1.769V39.593a11.511,11.511,0,0,1,3.514-4.047A8.458,8.458,0,0,1,523.2,33.97a6.985,6.985,0,0,1,4.92,1.939q3.927,3.539,3.927,10.131m-11.174,9.986a6.787,6.787,0,0,0,5.454-2.86,10.668,10.668,0,0,0,2.278-6.859,13.181,13.181,0,0,0-1.479-6.593,4.611,4.611,0,0,0-4.193-2.594,6.625,6.625,0,0,0-4.945,2.424,16.406,16.406,0,0,0-3.441,6.2l.242,7.465a8.723,8.723,0,0,0,6.084,2.812" transform="translate(-346.485 -14.823)" fill="#a82d54"/>
  </g>
</svg>
