<svg xmlns="http://www.w3.org/2000/svg" width="49.082" height="40" viewBox="0 0 49.082 40">
  <g id="cooking-time" transform="translate(0)">
    <g id="Groupe_765" data-name="Groupe 765" transform="translate(0)">
      <path id="Tracé_5609" data-name="Tracé 5609" d="M42.6,4.711a.925.925,0,0,1,.549.231,4.316,4.316,0,0,1,1.645,3.18A4.319,4.319,0,0,1,43.141,11.3l-.013.01a2.444,2.444,0,0,0-1,1.784,2.462,2.462,0,0,0,1.024,1.795.924.924,0,0,1-1.222,1.387,4.317,4.317,0,0,1-1.65-3.182,4.3,4.3,0,0,1,1.614-3.153l.029-.028a2.462,2.462,0,0,0,1.024-1.795,2.455,2.455,0,0,0-1.017-1.795A.925.925,0,0,1,42.6,4.711ZM33.215-.735a.924.924,0,0,1,.549.231,4.316,4.316,0,0,1,1.645,3.18,4.319,4.319,0,0,1-1.652,3.182l-.013.01a2.444,2.444,0,0,0-1,1.784,2.462,2.462,0,0,0,1.024,1.795.924.924,0,0,1-1.222,1.387,4.317,4.317,0,0,1-1.65-3.182A4.3,4.3,0,0,1,32.505,4.5l.031-.028a2.458,2.458,0,0,0,1.022-1.795A2.455,2.455,0,0,0,32.541.882a.925.925,0,0,1,.673-1.616ZM23.832,3.8a.925.925,0,0,1,.547.231,4.316,4.316,0,0,1,1.645,3.18,4.285,4.285,0,0,1-1.6,3.131q-.023.025-.049.049a2.468,2.468,0,0,0-1.024,1.795,2.462,2.462,0,0,0,1.024,1.795.924.924,0,0,1-1.222,1.387,4.317,4.317,0,0,1-1.65-3.182,4.316,4.316,0,0,1,1.645-3.18l.042-.031a2.422,2.422,0,0,0,.982-1.764,2.458,2.458,0,0,0-1.018-1.795A.926.926,0,0,1,23.832,3.8Zm25.123,14a.925.925,0,0,1,.921.921v4.491a5.477,5.477,0,0,1-5.459,5.48H21.882a5.466,5.466,0,0,1-4.951-3.174H4.042a3.16,3.16,0,1,1,0-6.318H16.422v-.479a.925.925,0,0,1,.921-.921Zm-.928,1.849H18.271v3.563a3.6,3.6,0,0,0,3.611,3.637H44.417a3.6,3.6,0,0,0,3.61-3.637Zm-31.605,1.4H4.042a1.313,1.313,0,1,0,0,2.62h12.4c-.013-.151-.022-.3-.022-.457Zm26.527,9.254a.925.925,0,0,1,.663.28,21.135,21.135,0,0,1,1.439,1.679,5.622,5.622,0,0,1,1.564,3.3,3.681,3.681,0,0,1-.493,1.842h2.833a.925.925,0,0,1,0,1.851H17.343a.925.925,0,0,1,0-1.851h2.84a3.681,3.681,0,0,1-.493-1.842,5.613,5.613,0,0,1,1.557-3.3,20.324,20.324,0,0,1,1.446-1.679.925.925,0,0,1,1.325,0,21.137,21.137,0,0,1,1.439,1.679,5.622,5.622,0,0,1,1.564,3.3,3.681,3.681,0,0,1-.493,1.842h3.449a3.681,3.681,0,0,1-.493-1.842,5.622,5.622,0,0,1,1.564-3.3,21.138,21.138,0,0,1,1.439-1.679.922.922,0,0,1,1.324,0,20.926,20.926,0,0,1,1.441,1.679,5.619,5.619,0,0,1,1.562,3.3,3.679,3.679,0,0,1-.491,1.842h3.454a3.681,3.681,0,0,1-.493-1.842,5.613,5.613,0,0,1,1.557-3.3,20.31,20.31,0,0,1,1.446-1.679.925.925,0,0,1,.663-.28Zm0,2.34a8.809,8.809,0,0,0-.641.744,7.1,7.1,0,0,0-1.174,2.178,1.815,1.815,0,1,0,3.629,0,7.157,7.157,0,0,0-1.179-2.178,8.931,8.931,0,0,0-.636-.744Zm-9.8,0a8.922,8.922,0,0,0-.636.744,7.175,7.175,0,0,0-1.181,2.178,1.816,1.816,0,1,0,3.631,0,7.177,7.177,0,0,0-1.181-2.178,8.964,8.964,0,0,0-.634-.744Zm-9.794,0a8.808,8.808,0,0,0-.641.744,7.1,7.1,0,0,0-1.174,2.178,1.815,1.815,0,1,0,3.629,0,7.157,7.157,0,0,0-1.179-2.178,8.931,8.931,0,0,0-.636-.744Z" transform="translate(-0.794 0.736)" fill="#a82d54" fill-rule="evenodd"/>
    </g>
    <g id="Groupe_763" data-name="Groupe 763" transform="translate(15.628)">
      <path id="Tracé_5609-2" data-name="Tracé 5609" d="M26.971,4.711a.925.925,0,0,1,.549.231,4.316,4.316,0,0,1,1.645,3.18A4.319,4.319,0,0,1,27.513,11.3l-.013.01a2.444,2.444,0,0,0-1,1.784,2.462,2.462,0,0,0,1.024,1.795A.924.924,0,0,1,26.3,16.28a4.317,4.317,0,0,1-1.65-3.182,4.3,4.3,0,0,1,1.614-3.153l.029-.028a2.462,2.462,0,0,0,1.024-1.795A2.455,2.455,0,0,0,26.3,6.328a.925.925,0,0,1,.673-1.616ZM17.587-.735a.925.925,0,0,1,.549.231,4.316,4.316,0,0,1,1.645,3.18,4.319,4.319,0,0,1-1.652,3.182l-.013.01a2.444,2.444,0,0,0-1,1.784,2.462,2.462,0,0,0,1.024,1.795.924.924,0,0,1-1.222,1.387,4.317,4.317,0,0,1-1.65-3.182A4.3,4.3,0,0,1,16.877,4.5l.031-.028A2.458,2.458,0,0,0,17.93,2.677,2.455,2.455,0,0,0,16.913.882a.925.925,0,0,1,.673-1.616ZM8.2,3.8a.925.925,0,0,1,.547.231A4.316,4.316,0,0,1,10.4,7.214a4.285,4.285,0,0,1-1.6,3.131q-.023.025-.049.049a2.468,2.468,0,0,0-1.024,1.795,2.462,2.462,0,0,0,1.024,1.795A.924.924,0,0,1,7.529,15.37a4.317,4.317,0,0,1-1.65-3.182,4.316,4.316,0,0,1,1.645-3.18l.042-.031a2.422,2.422,0,0,0,.982-1.764A2.458,2.458,0,0,0,7.529,5.418.926.926,0,0,1,8.2,3.8ZM27.321,30.309a.925.925,0,0,1,.663.28,21.135,21.135,0,0,1,1.439,1.679,5.622,5.622,0,0,1,1.564,3.3,3.681,3.681,0,0,1-.493,1.842h2.833a.925.925,0,0,1,0,1.851H1.715a.925.925,0,0,1,0-1.851h2.84a3.681,3.681,0,0,1-.493-1.842,5.613,5.613,0,0,1,1.557-3.3,20.324,20.324,0,0,1,1.446-1.679.925.925,0,0,1,1.325,0A21.137,21.137,0,0,1,9.83,32.269a5.622,5.622,0,0,1,1.564,3.3,3.681,3.681,0,0,1-.493,1.842h3.449a3.681,3.681,0,0,1-.493-1.842,5.622,5.622,0,0,1,1.564-3.3,21.137,21.137,0,0,1,1.439-1.679.922.922,0,0,1,1.324,0,20.925,20.925,0,0,1,1.441,1.679,5.619,5.619,0,0,1,1.562,3.3,3.679,3.679,0,0,1-.491,1.842h3.454a3.681,3.681,0,0,1-.493-1.842,5.613,5.613,0,0,1,1.557-3.3,20.31,20.31,0,0,1,1.446-1.679.925.925,0,0,1,.663-.28Zm0,2.34a8.81,8.81,0,0,0-.641.744,7.1,7.1,0,0,0-1.174,2.178,1.815,1.815,0,1,0,3.629,0,7.157,7.157,0,0,0-1.179-2.178,8.931,8.931,0,0,0-.636-.744Zm-9.8,0a8.922,8.922,0,0,0-.636.744,7.175,7.175,0,0,0-1.181,2.178,1.816,1.816,0,1,0,3.631,0,7.177,7.177,0,0,0-1.181-2.178,8.964,8.964,0,0,0-.634-.744Zm-9.794,0a8.808,8.808,0,0,0-.641.744,7.1,7.1,0,0,0-1.174,2.178,1.815,1.815,0,1,0,3.629,0,7.157,7.157,0,0,0-1.179-2.178,8.931,8.931,0,0,0-.636-.744Z" transform="translate(-0.794 0.736)" fill="#31432d" fill-rule="evenodd"/>
    </g>
  </g>
</svg>
