<svg xmlns="http://www.w3.org/2000/svg" width="40.268" height="40" viewBox="0 0 40.268 40">
  <g id="prep-time" transform="translate(0 0)">
    <g id="noun-cook-1888571" transform="translate(0 0)">
      <g id="Groupe_762" data-name="Groupe 762">
        <path id="Tracé_5608" data-name="Tracé 5608" d="M53.663,15.494a2.145,2.145,0,0,0-2.988-.535l-8.346,5.814a2.127,2.127,0,0,0-.767,2.542L37.8,25.851a4.757,4.757,0,0,0-3.254-1.062,15.215,15.215,0,0,0-8.252,3.151,15.86,15.86,0,0,0-5.3,6.118h-5.8a.847.847,0,0,0-.847.847A21.142,21.142,0,0,0,24.174,52.88H18.8a.847.847,0,0,0,0,1.694H49.751a.847.847,0,0,0,0-1.694H44.374A21.142,21.142,0,0,0,54.211,34.9a.847.847,0,0,0-.847-.847H36.537c2.026-2.459,2.848-4.982,2.2-6.8l3.746-2.522a2.14,2.14,0,0,0,2.849.359l8.347-5.813a2.145,2.145,0,0,0,.535-2.988ZM27.281,29.314a13.5,13.5,0,0,1,7.261-2.832,3.777,3.777,0,0,1,1.759.375l-10.7,7.2H22.86A15.3,15.3,0,0,1,27.281,29.314ZM40.627,52.88H27.92A19.173,19.173,0,0,1,16.048,35.751H52.5A19.173,19.173,0,0,1,40.627,52.88ZM34.256,34.057H28.637l8.611-5.8C37.444,29.753,36.316,31.993,34.256,34.057ZM52.716,17.89,44.368,23.7a.45.45,0,0,1-.257.082.444.444,0,0,1-.37-.194l-.557-.8a.451.451,0,0,1,.113-.629l8.347-5.815a.452.452,0,0,1,.629.113l.556.8a.452.452,0,0,1-.113.63Z" transform="translate(-14.337 -14.574)" fill="#31432d"/>
      </g>
    </g>
    <g id="noun-cook-1888571-2" data-name="noun-cook-1888571" transform="translate(0 19.483)">
      <g id="Groupe_762-2" data-name="Groupe 762" transform="translate(0 0)">
        <path id="Tracé_5608-2" data-name="Tracé 5608" d="M15.184,34.057a.847.847,0,0,0-.847.847A21.142,21.142,0,0,0,24.174,52.88H18.8a.847.847,0,0,0,0,1.694H49.751a.847.847,0,0,0,0-1.694H44.374A21.142,21.142,0,0,0,54.211,34.9a.847.847,0,0,0-.847-.847ZM40.627,52.88H27.92A19.173,19.173,0,0,1,16.048,35.751H52.5A19.173,19.173,0,0,1,40.627,52.88Z" transform="translate(-14.337 -34.057)" fill="#a82d54"/>
      </g>
    </g>
  </g>
</svg>
