<svg xmlns="http://www.w3.org/2000/svg" width="76.989" height="69.006" viewBox="0 0 76.989 69.006">
  <g id="upload" transform="translate(-1153.001 -623.003)">
    <path id="Union_21" data-name="Union 21" d="M-6806.745-8509.213a3,3,0,0,1-3-3,3,3,0,0,1,3-3,14.837,14.837,0,0,0,13.317-8.413,14.835,14.835,0,0,0-1.855-15.641,14.83,14.83,0,0,0-14.917-5.063l-4.635,1.262a3,3,0,0,1-3.683-2.1,3,3,0,0,1,2.107-3.683l1.628-.443a16.592,16.592,0,0,0-18.043-9.432,16.58,16.58,0,0,0-13.447,18.143c0,.011,0,.021,0,.032a13.515,13.515,0,0,0,1.216,3.66,3,3,0,0,1-.951,4.135,3.01,3.01,0,0,1-1.588.458,3,3,0,0,1-2.546-1.411,12.713,12.713,0,0,1-1.15-2.487,11.245,11.245,0,0,0-5.626,11.135,11.234,11.234,0,0,0,11.1,9.854h3.545a3,3,0,0,1,3,3,3,3,0,0,1-3,3h-3.552a17.243,17.243,0,0,1-17.051-15.12,17.252,17.252,0,0,1,10.508-18,22.608,22.608,0,0,1,18.454-22.293,22.607,22.607,0,0,1,25.076,14.012,20.878,20.878,0,0,1,18.209,7.576,20.863,20.863,0,0,1,2.61,22,20.858,20.858,0,0,1-18.729,11.831Z" transform="translate(8016.001 9188.004)" fill="#65d8e1"/>
    <g id="Groupe_751" data-name="Groupe 751">
      <path id="Ligne_74" data-name="Ligne 74" d="M.48,34.469a2.98,2.98,0,0,1-2.98-2.98V.48a2.98,2.98,0,1,1,5.96,0V31.489A2.98,2.98,0,0,1,.48,34.469Z" transform="translate(1191.02 657.54)" fill="#a82d54"/>
      <path id="Ligne_75" data-name="Ligne 75" d="M.479,14.187a2.98,2.98,0,0,1-2.226-4.96L7.788-1.5A2.98,2.98,0,1,1,12.243,2.46L2.707,13.187A2.973,2.973,0,0,1,.479,14.187Z" transform="translate(1181.484 657.54)" fill="#a82d54"/>
      <path id="Ligne_76" data-name="Ligne 76" d="M10.017,14.187a2.972,2.972,0,0,1-2.228-1L-1.747,2.46A2.98,2.98,0,1,1,2.707-1.5L12.243,9.228a2.98,2.98,0,0,1-2.226,4.96Z" transform="translate(1191.02 657.54)" fill="#a82d54"/>
    </g>
  </g>
</svg>
