<svg xmlns="http://www.w3.org/2000/svg" width="42" height="42" viewBox="0 0 42 42">
  <g id="waiting-time" transform="translate(1 1)">
    <path id="Tracé_5610" data-name="Tracé 5610" d="M29.522,12.228a.538.538,0,0,1,.147.494l-.623,2.917,0,0a.54.54,0,0,1-1.055-.226l.242-1.131L22.654,19.86a2.049,2.049,0,1,1-3.559,0l-5.577-5.577.242,1.131a.54.54,0,0,1-1.055.226l-.623-2.917,0,0a.541.541,0,0,1,.641-.639l2.917.623a.54.54,0,0,1-.226,1.057l-1.131-.242L19.859,19.1a2.057,2.057,0,0,1,2.031,0l5.577-5.577-1.131.242a.54.54,0,1,1-.226-1.055l2.917-.623,0,0a.538.538,0,0,1,.494.147Z" transform="translate(-0.874 -0.347)" fill="#a82d54"/>
    <path id="Tracé_5611" data-name="Tracé 5611" d="M20,0A20,20,0,1,1,0,20,20,20,0,0,1,20,0Z" fill="none" stroke="#31432d" stroke-width="2"/>
    <path id="Tracé_5610-2" data-name="Tracé 5610" d="M22.382,8.243V6.693a.6.6,0,0,1,1.2,0v1.55a.6.6,0,1,1-1.2,0Zm17.49,14.74a.6.6,0,0,1-.6.6h-1.55a.6.6,0,1,1,0-1.2h1.55a.6.6,0,0,1,.6.6Zm-31.029,0a.6.6,0,0,1-.6.6H6.692a.6.6,0,1,1,0-1.2h1.55a.6.6,0,0,1,.6.6Z" transform="translate(-2.942 -2.942)" fill="#a82d54" stroke="#a82d54" stroke-linecap="round" stroke-width="1"/>
    <path id="Tracé_5612" data-name="Tracé 5612" d="M22.382,8.243V6.693a.6.6,0,0,1,1.2,0v1.55a.6.6,0,1,1-1.2,0Zm17.49,14.74a.6.6,0,0,1-.6.6h-1.55a.6.6,0,1,1,0-1.2h1.55a.6.6,0,0,1,.6.6Zm-31.029,0a.6.6,0,0,1-.6.6H6.692a.6.6,0,1,1,0-1.2h1.55a.6.6,0,0,1,.6.6Z" transform="translate(-2.942 -2.942)" fill="#a82d54" stroke="#a82d54" stroke-linecap="round" stroke-width="1"/>
    <path id="Tracé_5613" data-name="Tracé 5613" d="M22.382,21.433v1.55a.6.6,0,0,0,1.2,0v-1.55a.6.6,0,1,0-1.2,0Z" transform="translate(-2.942 13.058)" fill="#a82d54" stroke="#a82d54" stroke-linecap="round" stroke-width="1"/>
  </g>
</svg>
