<svg xmlns="http://www.w3.org/2000/svg" width="472.863" height="708.6" viewBox="0 0 472.863 708.6">
  <g id="phone-woman-sitting" transform="translate(-1135.598 -150)">
    <g id="phone-woman-sitting-2" data-name="phone-woman-sitting" transform="translate(916.794 -4214.26)">
      <g id="Order_food-pana" data-name="Order food-pana" transform="translate(218.804 4366.26)">
        <g id="freepik--Character--inject-2" transform="translate(0 68.891)">
          <path id="Tracé_2255" data-name="Tracé 2255" d="M80.27,436.84,67.08,522.614H82.146L107.6,436.84Z" transform="translate(-2.3 115.095)" fill="#263238"/>
          <path id="Tracé_2256" data-name="Tracé 2256" d="M259.728,436.84l13.19,85.774H257.833L232.4,436.84Z" transform="translate(145.683 115.095)" fill="#263238"/>
          <path id="Tracé_2257" data-name="Tracé 2257" d="M38.879,328.559c-1.061,38.7-11.105,209.412,23.9,241.913h43.474c11.371,0,10.726-5.363,10.291-16.677l-8.263-221.5a19.729,19.729,0,0,0-4.3-11.693c-5.685-7.05-17.189-17.947-32.937-16.886A46.638,46.638,0,0,0,47.256,311.6a20.846,20.846,0,0,0-8.376,16.961Z" transform="translate(-29.456 -4.134)" fill="#31432d"/>
          <path id="Tracé_2258" data-name="Tracé 2258" d="M400.065,494.588,73.42,492.106V391.19H400.065Z" transform="translate(3.375 74.233)" fill="#31432d"/>
          <path id="Tracé_2259" data-name="Tracé 2259" d="M399.662,421.419,72.43,424.11v-60.53l328.521-6.159Z" transform="translate(2.489 44.004)" fill="#31432d"/>
          <path id="Tracé_2260" data-name="Tracé 2260" d="M41.13,353.451s2.426-84.03,94.908-88.37,229.709,0,229.709,0,116.172-4.359,118.863,68.812l-23.083,140.24H102.835Z" transform="translate(-25.528 -40.378)" fill="#31432d"/>
          <path id="Tracé_2261" data-name="Tracé 2261" d="M319.252,338.261c-2.445,57.915-7.789,227.795-48.079,235.47H241.21l9.267-248.148s13.891-24.22,37.031-22.742h.7a33.866,33.866,0,0,1,31.042,35.42Z" transform="translate(153.569 -4.91)" fill="#31432d"/>
          <path id="Tracé_2262" data-name="Tracé 2262" d="M303.508,306.187l-1.1-.265-3.127-.853-2.274-.625-2.843-.436c-1.023-.133-2.122-.341-3.3-.474h-3.79a40.8,40.8,0,0,0-18.572,4.643l-1.27.625L266,309.56l-2.5,1.573a55.833,55.833,0,0,0-4.814,3.79,50.521,50.521,0,0,0-8.718,10.1v-.171c-1.213,25.641-2.729,58.029-4.378,93.165-1.9,42.773-3.279,81.491-4.056,109.558-.36,14.005-.625,25.338-.834,33.222,0,3.885-.171,6.936-.208,9.04a16.131,16.131,0,0,1-.095,2.35,1.622,1.622,0,0,0,0,.8V560.8c0-7.846.246-19.2.531-33.222.625-28.067,1.9-66.822,3.79-109.6,1.573-35.155,3.222-67.561,4.548-93.165h0a.246.246,0,0,1,0-.152,50.314,50.314,0,0,1,8.888-10.2,53.685,53.685,0,0,1,4.908-3.885l2.539-1.592,1.251-.758,1.289-.625a41.01,41.01,0,0,1,18.838-4.548l3.79.133c1.175.133,2.274.36,3.316.512l2.843.474,2.274.682,3.108.966Z" transform="translate(152.807 -4.655)" fill="#263238"/>
          <path id="Tracé_2263" data-name="Tracé 2263" d="M73.69,423.079H98.5l67.675.171c57.138.208,136.071.834,223.228-.417h3.62l-.474.436c.322-10.347.625-20.581.929-30.644q.227-7.581.455-15.009l.227-7.41c0-1.213.114-2.483,0-3.639a7.675,7.675,0,0,0-.948-3.335,8.4,8.4,0,0,0-5.534-4.075,15.467,15.467,0,0,0-3.658-.208h-18.61l-28.692.19-99.21,1.023c-28.218.284-51.036.4-66.8.417H152.565l18.136-.133,66.8-.7,99.191-1.232,28.711-.208h18.61a15.83,15.83,0,0,1,3.79.227,9.286,9.286,0,0,1,6.121,4.529,8.415,8.415,0,0,1,1.061,3.677c0,1.308,0,2.483,0,3.79,0,2.445-.133,4.927-.208,7.41q-.228,7.41-.455,14.99-.455,15.161-.91,30.663a.512.512,0,0,1-.474.436h-3.6c-87.176,1.251-166.108.531-223.246.152l-67.675-.436-18.4-.133H75.244Z" transform="translate(3.617 44.769)" fill="#263238"/>
          <g id="Groupe_241" data-name="Groupe 241" transform="translate(74.919 467.431)" opacity="0.2">
            <path id="Tracé_2264" data-name="Tracé 2264" d="M72.43,392.932c74.971,16.26,110.676,15.028,180.379,16.222,62.539,1.08,131.389-10.2,141.339-16.9Z" transform="translate(-72.43 -392.25)"/>
          </g>
          <path id="Tracé_2265" data-name="Tracé 2265" d="M104.535,570.343a7.049,7.049,0,0,1,0-.834V557.57c0-8.263.171-20.107.3-34.738.36-29.375.834-69.873,1.365-114.6.322-22.382.606-43.7.872-63.089a42.3,42.3,0,0,0-1.9-13.853A41.692,41.692,0,0,0,99.153,319.6a42.318,42.318,0,0,0-8.869-8.528,40.025,40.025,0,0,0-10.12-4.984,37.9,37.9,0,0,0-19.387-.777,37.221,37.221,0,0,0-13.531,5.875,30.815,30.815,0,0,0-6.69,6.538c-1.289,1.725-1.8,2.748-1.9,2.71a3.9,3.9,0,0,1,.379-.739,22.026,22.026,0,0,1,1.327-2.085,29.3,29.3,0,0,1,6.614-6.747,36.954,36.954,0,0,1,13.645-6.083,38.2,38.2,0,0,1,19.709.644,40.879,40.879,0,0,1,10.423,5.041,43.585,43.585,0,0,1,9.1,8.661,40.044,40.044,0,0,1,8.073,26.039c-.246,19.406-.512,40.726-.8,63.108-.644,44.725-1.232,85.281-1.649,114.58-.265,14.63-.474,26.532-.625,34.738,0,4.075-.152,7.239-.208,9.476v2.464a5.684,5.684,0,0,1-.114.815Z" transform="translate(-27.739 -4.005)" fill="#263238"/>
          <path id="Tracé_2266" data-name="Tracé 2266" d="M170.882,416.708a746.807,746.807,0,0,1,11.56-118.541c1.061-5.97,2.464-12.394,7.088-16.3,3.98-3.373,9.476-4.112,14.668-4.529,37.239-3.032,75.2,13.588,109.008,31.592a19.9,19.9,0,0,1,10.29,20.979c-5.685,32.407-17.056,56.854-33.79,87.8A205.7,205.7,0,0,1,169.84,428.325" transform="translate(89.684 -28)" fill="#bd3a3c"/>
          <path id="Tracé_2267" data-name="Tracé 2267" d="M194.066,241.473c-2.35-16.7-2.2-16.146-4.283-32.122-4.018-31-13.8-66.159-58.048-63.62,0,0-33.335,1.9-43.588,25.7-5.458,12.849-6.9,57.309-8.737,97.3a6.727,6.727,0,0,1-.379,1.9l-2.066,6.045A89.677,89.677,0,0,0,72.209,301.3l-2.8,55.508a6.917,6.917,0,0,0,6.538,7.258c14.915.72,48.989-1.175,55.546-3.544a99.949,99.949,0,0,0,59.052-58.37c.682-1.9,10.328-2.71,12.148-3.411C205.683,297.588,194.521,244.657,194.066,241.473Z" transform="translate(-0.227 -145.601)" fill="#573139"/>
          <path id="Tracé_2268" data-name="Tracé 2268" d="M114.367,154.446l2.8-2.6,29.81,12.47a8.339,8.339,0,0,1,7.77,8.187l-1.63,97.391c0,6.614,1.9,14.251-2.236,19.463l-4.852,6.8c-9.741,12.508-32.217,7.978-39.589-6.045a10.1,10.1,0,0,1-1.023-2.539A18.95,18.95,0,0,1,105,285.4c-.777-7.846-.739-14.649-.739-14.649-.417-8.6-.531-12.148-.55-12.053s-18.269-2.331-22.893-26c-2.293-11.712-1.611-27.8-.7-43.588C81.391,167.3,96.761,154.181,114.367,154.446Z" transform="translate(8.613 -140.008)" fill="#ffbf9d"/>
          <path id="Tracé_2269" data-name="Tracé 2269" d="M100.26,181.233a3.032,3.032,0,0,0,3.051,2.956,2.9,2.9,0,0,0,3.032-2.843,3.051,3.051,0,0,0-3.051-2.975,2.918,2.918,0,0,0-3.032,2.862Z" transform="translate(27.401 -116.27)" fill="#263238"/>
          <path id="Tracé_2270" data-name="Tracé 2270" d="M84.14,181.353a3.032,3.032,0,0,0,3.051,2.956,2.9,2.9,0,0,0,3.032-2.843,3.051,3.051,0,0,0-3.051-2.975,2.918,2.918,0,0,0-3.032,2.862Z" transform="translate(12.971 -116.163)" fill="#263238"/>
          <path id="Tracé_2271" data-name="Tracé 2271" d="M81.359,176.427c.379.4,2.634-1.4,5.894-1.5s5.685,1.44,6.064,1.023-.227-.891-1.308-1.611a8.282,8.282,0,0,0-4.87-1.308,7.941,7.941,0,0,0-4.681,1.687C81.472,175.536,81.15,176.256,81.359,176.427Z" transform="translate(10.427 -121.054)" fill="#263238"/>
          <path id="Tracé_2272" data-name="Tracé 2272" d="M98.863,177.18c.436.341,2.483-1.668,5.685-2.123s5.837.853,6.14.4-.322-.853-1.478-1.459a8.377,8.377,0,0,0-4.984-.815,8.13,8.13,0,0,0-4.472,2.179C98.9,176.27,98.655,177.028,98.863,177.18Z" transform="translate(26.088 -120.992)" fill="#263238"/>
          <path id="Tracé_2273" data-name="Tracé 2273" d="M96.636,200.619a22.041,22.041,0,0,0-5.344-.758c-.853,0-1.649-.189-1.9-.758a4.132,4.132,0,0,1,.474-2.5c.7-2.047,1.44-4.207,2.236-6.443,3.108-9.191,5.306-16.734,4.946-16.848s-3.184,7.22-6.292,16.412L88.619,196.2a4.813,4.813,0,0,0-.3,3.3,2.066,2.066,0,0,0,1.4,1.156,5.1,5.1,0,0,0,1.44.152,21.09,21.09,0,0,0,5.477-.19Z" transform="translate(16.565 -120.799)" fill="#263238"/>
          <path id="Tracé_2274" data-name="Tracé 2274" d="M92.17,212.747a60.53,60.53,0,0,0,31.459-9.627s-7.391,16.7-31.213,15.351Z" transform="translate(20.159 -94.115)" fill="#ff9a6c"/>
          <path id="Tracé_2275" data-name="Tracé 2275" d="M93.614,193a5.856,5.856,0,0,1,5.212-2.388,5.4,5.4,0,0,1,3.79,1.9,3.468,3.468,0,0,1,.4,3.9,4,4,0,0,1-4.264,1.232,12.413,12.413,0,0,1-4.207-2.388,3.468,3.468,0,0,1-.967-.929,1.1,1.1,0,0,1,0-1.213" transform="translate(21.254 -105.331)" fill="#ff9a6c"/>
          <path id="Tracé_2276" data-name="Tracé 2276" d="M102.521,188.73c-.531,0-.4,3.544-3.354,6.178s-6.747,2.369-6.747,2.881c0,.208.853.644,2.464.644a8.965,8.965,0,0,0,5.685-2.2,7.581,7.581,0,0,0,2.539-5.1C103.2,189.564,102.767,188.711,102.521,188.73Z" transform="translate(20.383 -106.996)" fill="#263238"/>
          <path id="Tracé_2277" data-name="Tracé 2277" d="M97.276,168.5c.436.834,3.62,0,7.486-.095s7.088.531,7.581-.322c.171-.417-.474-1.175-1.9-1.9a12.488,12.488,0,0,0-5.685-1.156,12.811,12.811,0,0,0-5.685,1.478C97.693,167.308,97.086,168.1,97.276,168.5Z" transform="translate(24.699 -128.214)" fill="#263238"/>
          <path id="Tracé_2278" data-name="Tracé 2278" d="M81.725,169.121c.606.72,2.824-.133,5.534-.265s5.022.3,5.515-.493c.227-.379-.171-1.118-1.194-1.781a8.054,8.054,0,0,0-8.907.606C81.744,167.984,81.459,168.761,81.725,169.121Z" transform="translate(10.724 -127.772)" fill="#263238"/>
          <path id="Tracé_2279" data-name="Tracé 2279" d="M138.123,214.828s-16.81,4.965-25.717-36.5c-3.032-14.176-15.976-25.793-15.976-25.793L101.755,151s32.9,9.779,33.449,10.2,8.092,17.189,8.092,17.189Z" transform="translate(23.972 -140.769)" fill="#573139"/>
          <path id="Tracé_2280" data-name="Tracé 2280" d="M116.27,186.977c0-1.762,1.9-5.989,3.563-6.33,4.624-.891,13.038-.815,13.55,10.992.682,16.165-15.692,13.531-15.73,13.057S116.478,193.08,116.27,186.977Z" transform="translate(41.732 -114.529)" fill="#ffbf9d"/>
          <path id="Tracé_2281" data-name="Tracé 2281" d="M119.464,195.921a5.375,5.375,0,0,0,.777.379,2.786,2.786,0,0,0,2.1,0c1.687-.7,3.013-3.468,2.956-6.387a9.287,9.287,0,0,0-.948-4,3.26,3.26,0,0,0-2.217-2.066,1.44,1.44,0,0,0-1.63.834c-.19.474,0,.777-.171.815s-.341-.265-.246-.929a1.9,1.9,0,0,1,.587-1.042,2.2,2.2,0,0,1,1.535-.474,4,4,0,0,1,3.051,2.369,9.476,9.476,0,0,1,1.175,4.473c0,3.26-1.5,6.387-3.79,7.145a2.994,2.994,0,0,1-2.6-.3C119.52,196.319,119.426,195.959,119.464,195.921Z" transform="translate(44.584 -112.083)" fill="#ff9a6c"/>
          <path id="Tracé_2282" data-name="Tracé 2282" d="M126.455,205.269a21.075,21.075,0,0,1-2.407-.512,14.668,14.668,0,0,1-5.685-3.43,19.292,19.292,0,0,1-2.956-3.544,27.842,27.842,0,0,1-2.369-4.757,98.91,98.91,0,0,1-3.316-11.788c-1.08-4.226-2.255-8.225-3.563-11.788a65.667,65.667,0,0,0-4.075-9.172,45.168,45.168,0,0,0-3.62-5.685c-.474-.663-.872-1.118-1.137-1.459a3.788,3.788,0,0,0-.417-.474,3.658,3.658,0,0,0,.36.531c.227.341.625.834,1.061,1.5a54.682,54.682,0,0,1,3.487,5.685,69.646,69.646,0,0,1,3.98,9.172c1.27,3.544,2.426,7.581,3.506,11.75a98.236,98.236,0,0,0,3.354,11.845,27.041,27.041,0,0,0,2.445,4.795,20.034,20.034,0,0,0,3.051,3.582,14.176,14.176,0,0,0,5.856,3.354,8.509,8.509,0,0,0,2.445.4Z" transform="translate(24.402 -139.283)" fill="#263238"/>
          <path id="Tracé_2283" data-name="Tracé 2283" d="M224.109,238,188.1,224.413,136.933,213.27l-41.219,5.458c-8.7.19-23.765,18.459-35.23,38.054C50.212,274.331,42.12,291.975,42.12,291.975L90.086,309.9c2.729,20.411,6.747,47.378,10.215,58.01,5.913,18.174,7.713,43.114,7.713,43.114L221.93,396.169l1.611-78.25,37.467-4.889C261.027,310.282,246.567,244.976,224.109,238Z" transform="translate(-24.642 -85.029)" fill="#65d8e1"/>
          <path id="Tracé_2284" data-name="Tracé 2284" d="M136.657,242.87a8.908,8.908,0,0,0,.208,1.9c.19,1.251.455,3.07.739,5.306a144.271,144.271,0,0,1,1.1,17.663,146.813,146.813,0,0,1-1.137,17.644c-.284,2.255-.55,4.075-.739,5.325a9.869,9.869,0,0,0-.227,1.9,8.416,8.416,0,0,0,.531-1.9c.3-1.251.644-3.051,1-5.306a114.3,114.3,0,0,0,0-35.458c-.36-2.236-.7-4.056-.985-5.287A8.414,8.414,0,0,0,136.657,242.87Z" transform="translate(59.93 -58.533)" fill="#263238"/>
          <path id="Tracé_2285" data-name="Tracé 2285" d="M183.812,266.5l-37.012,4,.587,10.158-8.225-11.788L126.75,294.624s5,15.047,7.713,23.348c7.22,22.268,18.762,47.113,32.217,45.483,16.2-1.9,27.669-21.339,27.138-33.79C193.383,318.408,183.812,266.5,183.812,266.5Z" transform="translate(51.113 -37.381)" fill="#ffbf9d"/>
          <path id="Tracé_2286" data-name="Tracé 2286" d="M173.01,344.39,237.2,369.557l-24.409,29.507-54.6-9.495Z" transform="translate(79.256 32.34)" fill="#ffbf9d"/>
          <path id="Tracé_2287" data-name="Tracé 2287" d="M77.089,328.843s-1.687,73.209,5.022,85.944,71.6,13.266,71.6,13.266l102.337,5.193,11.939-47.871s-74.46-34.567-81.491-38.566-23.67-10.992-23.67-10.992L137.771,303.6Z" transform="translate(6.491 -4.172)" fill="#101411"/>
          <path id="Tracé_2288" data-name="Tracé 2288" d="M178.3,388.139a4.964,4.964,0,0,0-.815-.284l-2.35-.682-8.755-2.407-29.431-7.827h-.114a44.49,44.49,0,0,1-4.927-.322,38.317,38.317,0,0,1-9.286-2.179,44.173,44.173,0,0,1-8.035-3.79A45.274,45.274,0,0,1,97.53,352.453c-.55-1.061-.891-1.9-1.175-2.5a3.924,3.924,0,0,0-.455-.872,4.7,4.7,0,0,0,.3.928c.227.588.531,1.5,1.042,2.6a42.946,42.946,0,0,0,5.477,8.7,46.091,46.091,0,0,0,11.522,9.987,43.908,43.908,0,0,0,8.168,3.885,43.007,43.007,0,0,0,4.586,1.4,45.458,45.458,0,0,0,4.852.834,46.827,46.827,0,0,0,5.041.322h0l29.507,7.58,8.812,2.161,2.388.55A2.9,2.9,0,0,0,178.3,388.139Z" transform="translate(23.498 36.539)" fill="#455a64"/>
          <path id="Tracé_2289" data-name="Tracé 2289" d="M137.77,412.784,155.205,306.2s-2.312-76.715,40.764-71.219,37.9,73,37.9,73-5.572,92.539-8.623,105.9-4.586,28.219-13.38,33.563l-39.1-6.083Z" transform="translate(60.977 -65.846)" fill="#101411"/>
          <path id="Tracé_2290" data-name="Tracé 2290" d="M160.423,246.451,150,271.637l6.462,96.2s55.527,4.757,54.959,3.241,9.949-47.909,9.949-47.909,3.449-61.573-13-73.323S160.423,246.451,160.423,246.451Z" transform="translate(71.924 -57.907)" fill="#101411"/>
          <path id="Tracé_2291" data-name="Tracé 2291" d="M154.59,309.23l.72,45.938L194.1,376.45l10.537-63.866Z" transform="translate(76.033 0.868)" fill="#ffbf9d"/>
          <path id="Tracé_2292" data-name="Tracé 2292" d="M108.98,311.834l42.356-17.454,25.338,22.7-14.062,45.275-37.164-13.872Z" transform="translate(35.206 -12.425)" fill="#101411"/>
          <path id="Tracé_2293" data-name="Tracé 2293" d="M262.686,371.083l-.512-.3L260.62,370l-5.989-2.919-22.078-10.651-32.8-15.616-19.387-9.135-10.253-4.852-5.249-2.483-2.653-1.251a19.323,19.323,0,0,0-2.729-1.156,38.85,38.85,0,0,0-11.522-2.331,46.431,46.431,0,0,0-11.371.7,57.535,57.535,0,0,0-19.975,7.865,64.2,64.2,0,0,0-14.687,12.754,88.485,88.485,0,0,0-9.646,13.929,128.3,128.3,0,0,0-9.722,22.419c-.91,2.748-1.535,4.908-1.9,6.387l-.455,1.668a2.235,2.235,0,0,0-.114.569,1.356,1.356,0,0,1,.208-.55l.531-1.649c.455-1.459,1.137-3.582,2.085-6.311a133.985,133.985,0,0,1,9.893-22.325,90.64,90.64,0,0,1,9.665-13.759,63.658,63.658,0,0,1,14.574-12.565,56.856,56.856,0,0,1,19.709-7.713,45.016,45.016,0,0,1,11.2-.682,38.412,38.412,0,0,1,11.371,2.293,18.45,18.45,0,0,1,2.691,1.137l2.653,1.251,5.25,2.483,10.253,4.833,19.387,9.153,32.881,15.445,22.192,10.366,6.045,2.767,1.592.7a3.358,3.358,0,0,0,.417.3Z" transform="translate(9.346 10.082)" fill="#455a64"/>
          <path id="Tracé_2294" data-name="Tracé 2294" d="M134.031,348.224a43.2,43.2,0,0,1,.474-6.974,54.526,54.526,0,0,1,6.083-15.654,97.44,97.44,0,0,0,7.277-15.369,32,32,0,0,0,1.213-5.041,7.581,7.581,0,0,0,.133-1.9c-.152,0-.417,2.672-1.9,6.747a120.121,120.121,0,0,1-7.467,15.161,50.486,50.486,0,0,0-5.913,15.938,23.387,23.387,0,0,0-.208,5.193A7.863,7.863,0,0,0,134.031,348.224Z" transform="translate(57.306 -4.45)" fill="#455a64"/>
          <path id="Tracé_2295" data-name="Tracé 2295" d="M221.42,309.962l-.152.493a7.04,7.04,0,0,1-.379,1.478c-.322,1.365-.758,3.26-1.346,5.685-1.137,4.946-2.786,12.11-4.719,20.979-.966,4.435-2.009,9.286-3.013,14.536-.246,1.327-.512,2.634-.682,4.037a5.687,5.687,0,0,0,0,.606v-.095h-.095a7.938,7.938,0,0,1-.985.095h-2.1c-2.824,0-5.685-.208-8.737-.379-11.977-.72-25.11-1.763-38.907-2.9l-3.79-.322.36.379c-1.9-26.74-3.487-50.752-4.7-68.225-.625-8.642-1.137-15.635-1.5-20.524-.19-2.369-.341-4.226-.455-5.553a11.388,11.388,0,0,0-.133-1.44,1.9,1.9,0,0,0,0-.493,1.9,1.9,0,0,0,0,.493v1.44c0,1.327.19,3.2.3,5.572.3,4.889.72,11.883,1.251,20.543,1.137,17.4,2.71,41.428,4.454,68.225v.36h.36l3.79.322c13.8,1.156,26.949,2.161,38.945,2.843,2.994.152,5.913.3,8.774.341h2.123a7.467,7.467,0,0,0,1.1-.114,1.576,1.576,0,0,0,.4-.152.417.417,0,0,0,.152-.208.4.4,0,0,0,0-.208c0-.095-.246,0,0,0h0a4.024,4.024,0,0,1,0-.436c.152-1.327.417-2.672.644-3.98.985-5.249,1.99-10.1,2.918-14.555,1.9-8.831,3.411-15.995,4.473-21.017l1.194-5.685c.114-.625.227-1.118.284-1.5A1.478,1.478,0,0,0,221.42,309.962Z" transform="translate(71.988 -44.703)" fill="#455a64"/>
          <path id="Tracé_2296" data-name="Tracé 2296" d="M169.631,241.26a6.54,6.54,0,0,0-1.232,1.061c-.777.72-1.9,1.9-3.07,3.241a63.77,63.77,0,0,0-13.455,25.85c-.455,1.9-.758,3.317-.91,4.359a6.159,6.159,0,0,0-.152,1.63c.133,0,.587-2.255,1.611-5.837a73.455,73.455,0,0,1,13.361-25.641C168.115,243.022,169.745,241.355,169.631,241.26Z" transform="translate(72.647 -59.974)" fill="#455a64"/>
          <path id="Tracé_2297" data-name="Tracé 2297" d="M135.685,337.011a6.312,6.312,0,0,0-.265-1.535c-.227-.967-.606-2.369-1.137-4.074a84.921,84.921,0,0,0-5.306-12.944,86.287,86.287,0,0,0-7.372-11.882,33.543,33.543,0,0,0-2.634-3.3,5.344,5.344,0,0,0-1.08-1.118s1.232,1.9,3.241,4.757a111.609,111.609,0,0,1,7.107,11.92,109.089,109.089,0,0,1,5.477,12.754C134.927,334.927,135.553,337.049,135.685,337.011Z" transform="translate(43.182 -5.461)" fill="#455a64"/>
          <path id="Tracé_2298" data-name="Tracé 2298" d="M99.356,317.62c-.133,0-.682,1.611-1.9,4.15a49.959,49.959,0,0,1-5.685,9.324A48.439,48.439,0,0,1,84.2,338.9c-2.16,1.763-3.62,2.729-3.544,2.843s.417-.152,1.118-.531a29.029,29.029,0,0,0,2.786-1.9,40.9,40.9,0,0,0,8-7.713,41.541,41.541,0,0,0,5.5-9.608,28.714,28.714,0,0,0,1.08-3.165,3.79,3.79,0,0,0,.227-1.213Z" transform="translate(9.846 8.378)" fill="#455a64"/>
          <path id="Tracé_2299" data-name="Tracé 2299" d="M212.95,393.992c23.917-1.213,29.943-.455,53.86-1.668,5.837-.3,27.081.436,31.952-2.786,4.454-2.918,10.158-5.685,11.371-10.859,1.9-8.755-.474-18.667-8.528-24.144a19.33,19.33,0,0,0-9.476-3.222c-14.119-1.118-27.025,9.191-41.143,6.121-3.79-.815-7.239-2.937-11.03-3.79a24.22,24.22,0,0,0-16.544,2.653c-5.06,2.615-6.235,3.051-6.235,3.051l-25.129-8.509-7.827,43.891Z" transform="translate(102.556 38.114)" fill="#fafafa"/>
          <path id="Tracé_2300" data-name="Tracé 2300" d="M195.639,345.434l13.266,4.321a4.169,4.169,0,0,1,2.767,4.814l-10.291,47.075a4.112,4.112,0,0,1-4.51,3.241l-13.418-1.5a4.131,4.131,0,0,1-3.6-4.965l10.442-49.842a4.15,4.15,0,0,1,5.344-3.146Z" transform="translate(98.566 33.096)" fill="#fafafa"/>
          <path id="Tracé_2301" data-name="Tracé 2301" d="M191,399.506a47.5,47.5,0,0,0,2.445-7.069c1.346-4.416,3.032-10.556,4.548-17.454s2.521-13.266,3.07-17.776c.265-2.293.455-4.169.531-5.458a6.16,6.16,0,0,0,0-2.009,62.968,62.968,0,0,0-1.327,7.353c-.758,4.529-1.9,10.8-3.373,17.644s-3.089,13.039-4.226,17.492A54.962,54.962,0,0,0,191,399.506Z" transform="translate(108.625 37.129)" fill="#263238"/>
          <path id="Tracé_2302" data-name="Tracé 2302" d="M205.236,355.561a21.036,21.036,0,0,0-20.846-3.316c0,.36,4.852-1.023,10.707,0S205.066,355.864,205.236,355.561Z" transform="translate(102.708 38.112)" fill="#263238"/>
          <path id="Tracé_2303" data-name="Tracé 2303" d="M205.248,365.189a46.735,46.735,0,0,0-11.105-3.487,46.1,46.1,0,0,0-11.522-1.762,86.988,86.988,0,0,0,11.257,2.862C200.112,364.242,205.153,365.512,205.248,365.189Z" transform="translate(101.124 46.26)" fill="#263238"/>
          <path id="Tracé_2304" data-name="Tracé 2304" d="M200.818,376.366c0-.36-5.136.265-10.8-2.161s-8.888-6.387-9.135-6.14.531,1.213,1.9,2.71a21.246,21.246,0,0,0,6.728,4.491,20.714,20.714,0,0,0,7.941,1.592A7.071,7.071,0,0,0,200.818,376.366Z" transform="translate(99.527 53.523)" fill="#263238"/>
          <path id="Tracé_2305" data-name="Tracé 2305" d="M154.06,325.72l1,19.861,39.646,19.027,6.6-33.165Z" transform="translate(75.559 15.628)" fill="#fafafa"/>
          <path id="Tracé_2306" data-name="Tracé 2306" d="M210.87,327.505,207.9,341.34a4.226,4.226,0,0,1-4.586,3.316l-48.819-5.363a4.226,4.226,0,0,1-3.79-4.226V321.289a4.245,4.245,0,0,1,4.662-4.169l51.7,5.287a4.226,4.226,0,0,1,3.809,5.1Z" transform="translate(72.551 7.911)" fill="#fafafa"/>
          <path id="Tracé_2307" data-name="Tracé 2307" d="M151.7,328.75a43.6,43.6,0,0,0,7.41,1.743c4.624.872,11.03,1.9,18.174,2.767a176,176,0,0,0,18.345,1.213H201.2a7.048,7.048,0,0,0,2.028-.208,59.4,59.4,0,0,0-7.581-.569c-4.681-.284-11.143-.758-18.25-1.554s-13.512-1.744-18.155-2.426a57.667,57.667,0,0,0-7.543-.967Z" transform="translate(73.446 18.341)" fill="#263238"/>
          <path id="Tracé_2308" data-name="Tracé 2308" d="M175.139,340.942a18.061,18.061,0,0,0,3.468-10.594c.379-6.368-2.1-11.087-2.331-10.916s1.554,4.795,1.175,10.84S174.893,340.79,175.139,340.942Z" transform="translate(94.41 9.996)" fill="#263238"/>
          <path id="Tracé_2309" data-name="Tracé 2309" d="M165.566,342.04a47.509,47.509,0,0,0,2.369-11.636c.834-6.519.891-11.845.569-11.864s-.891,5.25-1.706,11.712S165.244,341.964,165.566,342.04Z" transform="translate(85.789 9.201)" fill="#263238"/>
          <path id="Tracé_2310" data-name="Tracé 2310" d="M155.789,338.729c.36,0-.8-5.193,1.042-11.181s5.534-9.684,5.25-9.912-1.156.663-2.521,2.293a21.453,21.453,0,0,0-4.624,15.483,7.391,7.391,0,0,0,.853,3.316Z" transform="translate(76.255 8.361)" fill="#263238"/>
          <path id="Tracé_2311" data-name="Tracé 2311" d="M119.235,248.871s20.259,2.862,21.548,4.112,27.366,31.838,27.366,31.838l-12.413,25.755-22.988-11.845a36.015,36.015,0,0,0-7.277-2.179s-23.007-3.127-24.637-5.856-.72-3.392.967-3.79,15.445.815,18.515,1.308a46.977,46.977,0,0,0,9.135-.19S119.88,286,117.7,285.3s-23.594-5.022-23.329-8.869,2.881-5.268,16.317-1.9a95.362,95.362,0,0,0,22.779,3.051L103.733,267.9s-11.977-3.563-8.225-7.05,29.375,2.994,29.375,2.994l11.371,4.018-3.335-6.728s-16.109-4.416-18.193-5.97c-2.577-1.9-2.975-3.79-1.1-5.439S119.235,248.871,119.235,248.871Z" transform="translate(22.127 -53.334)" fill="#ffbf9d"/>
          <path id="Tracé_2312" data-name="Tracé 2312" d="M74.561,231.77a11.691,11.691,0,0,1-.265,2.274c-.265,1.649-.606,3.7-1.023,6.121-.853,5.174-1.9,12.337-3.013,20.259S68.5,275.585,68,280.8c-.227,2.445-.436,4.51-.587,6.178a12.3,12.3,0,0,1-.322,2.274,9.1,9.1,0,0,1,0-2.293c0-1.478.114-3.6.265-6.216.322-5.249.948-12.489,1.9-20.43s2.274-15.161,3.316-20.259c.531-2.577.985-4.662,1.327-6.083a9.022,9.022,0,0,1,.663-2.2Z" transform="translate(-2.352 -68.469)" fill="#263238"/>
          <path id="Tracé_2313" data-name="Tracé 2313" d="M162.954,252.969c0-.531-5.041-31.649-7.391-42.659L118.494,216c-.512,4.605-.682,20.657-.569,26.058a23.935,23.935,0,0,0,5.1,15.047,14.555,14.555,0,0,0,14.517,5,19.709,19.709,0,0,0,12.148,8.149c4.927.758,10.556-1.8,12.129-6.538a26.4,26.4,0,0,0,1.137-10.745Z" transform="translate(43.184 -87.679)" fill="#573139"/>
          <path id="Tracé_2314" data-name="Tracé 2314" d="M135.885,239.631l-5.913,56.721a3.563,3.563,0,0,1-3.79,3.184l-35.1-2.8a3.544,3.544,0,0,1-3.26-3.79l4.131-59.64a3.563,3.563,0,0,1,4.131-3.279l36.8,5.685a3.544,3.544,0,0,1,2.994,3.923Z" transform="translate(16.261 -70.076)" fill="#263238"/>
          <path id="Tracé_2315" data-name="Tracé 2315" d="M123.087,245.06s-20.43-.512-21.927.512S69,272.54,69,272.54l8,27.479s22.078-7.088,24.637-7.922a37.143,37.143,0,0,1,7.581-.967s23.215.7,25.186-1.744,1.251-3.222-.341-3.961-15.37-1.725-18.478-1.725a47.141,47.141,0,0,1-8.983-1.687s9.779-.436,12.034-.777,24.106-1.1,24.485-4.908-1.9-5.685-15.786-4.586a95.7,95.7,0,0,1-22.742-.607l30.739-4.719s12.394-1.554,9.267-5.685-29.488-1.9-29.488-1.9l-11.845,2.1,4.378-6.1s16.62-1.706,18.951-2.9c2.862-1.478,3.563-3.222,1.9-5.174S123.087,245.06,123.087,245.06Z" transform="translate(-0.581 -56.687)" fill="#ffbf9d"/>
          <path id="Tracé_2316" data-name="Tracé 2316" d="M58.221,256.35l34.264,12.792-.644,4.757,10.31-12.28,9.476,24.637s-15.938,31.327-19.387,39.362c-9.874,23.272-27.423,35.42-40.006,30.265-15.161-6.178-23.841-22.173-16.924-39.911C39.421,305.415,58.221,256.35,58.221,256.35Z" transform="translate(-32.898 -46.467)" fill="#ffbf9d"/>
          <path id="Tracé_2317" data-name="Tracé 2317" d="M69,272.643s.284-.284.834-.777l2.521-2.179,9.7-8.282,15.37-12.982,2.312-1.9,1.213-.986a4.718,4.718,0,0,1,1.611-.417c2.1-.227,4.264-.265,6.481-.3h14.062a10.784,10.784,0,0,1,3.7.531,4.794,4.794,0,0,1,1.725.985,4.075,4.075,0,0,1,1.1,1.706,2.558,2.558,0,0,1-.171,2.1,4.889,4.889,0,0,1-1.421,1.5,7.181,7.181,0,0,1-1.9.985c-.663.19-1.308.341-1.9.474-5.25,1-10.783,1.63-16.507,2.255l.265-.133-4.378,6.083-.36-.587,11.845-2.1h0c4.965-.379,10.082-.625,15.294-.606a69.77,69.77,0,0,1,7.922.417,24.306,24.306,0,0,1,4,.739,6.631,6.631,0,0,1,1.9.872,2.729,2.729,0,0,1,1.232,1.9,2.483,2.483,0,0,1-1.08,2.047,7.977,7.977,0,0,1-1.9,1.042,24.4,24.4,0,0,1-4,1.232c-2.729.588-5.477.872-8.225,1.327L113.5,270.122l-9.1,1.365v-.8a99.873,99.873,0,0,0,21.093.7,90.047,90.047,0,0,1,10.347-.36,14.442,14.442,0,0,1,5.1.948,3.79,3.79,0,0,1,2.028,1.9,4.681,4.681,0,0,1,.284,2.691,2.066,2.066,0,0,1-.872,1.194,7.066,7.066,0,0,1-1.156.644,16.262,16.262,0,0,1-2.407.8,46.957,46.957,0,0,1-4.814.948c-3.2.474-6.368.777-9.476,1.023l-4.643.341c-1.5.114-3.051.341-4.567.417-3.013.19-5.97.341-8.888.474v-.72a38.188,38.188,0,0,0,9.817,1.725c3.3.133,6.5.379,9.627.644,1.554.152,3.108.3,4.624.493.758.095,1.516.19,2.255.322a7.669,7.669,0,0,1,1.175.3,5.188,5.188,0,0,1,1.023.606,1.668,1.668,0,0,1,.663,1.137,2.161,2.161,0,0,1-.265,1.213,6.553,6.553,0,0,1-.606.985l-.341.436a1.744,1.744,0,0,1-.493.417,13.437,13.437,0,0,1-4.226,1,141.124,141.124,0,0,1-15.673.531h-3.544a25.187,25.187,0,0,0-3.392,0,24.35,24.35,0,0,0-6.178,1.023l-17.776,5.685-4.7,1.44-1.194.36-.417.114.4-.152,1.194-.417L83.062,298l17.7-5.8a40.65,40.65,0,0,1,13.266-1.137,140.1,140.1,0,0,0,15.6-.606,12.738,12.738,0,0,0,4-.948,1.1,1.1,0,0,0,.322-.265l.322-.417a4.8,4.8,0,0,0,.531-.891c.322-.625.322-1.213-.227-1.592a4.1,4.1,0,0,0-.891-.531c-.3-.095-.663-.171-1.023-.246-.72-.133-1.478-.227-2.217-.322q-2.274-.246-4.605-.455c-3.108-.265-6.311-.493-9.589-.625a39,39,0,0,1-9.987-1.706.355.355,0,0,1,.076-.7h0c2.919-.133,5.875-.284,8.888-.493,1.516,0,2.975-.3,4.548-.436l4.643-.341c3.108-.265,6.273-.55,9.476-1.042a44.521,44.521,0,0,0,4.738-.929,15.156,15.156,0,0,0,2.274-.758c.682-.3,1.478-.758,1.573-1.289a3.791,3.791,0,0,0-.227-2.179,3.051,3.051,0,0,0-1.63-1.44,13.911,13.911,0,0,0-4.814-.872,89.092,89.092,0,0,0-10.253.379,98.3,98.3,0,0,1-21.169-.663.379.379,0,0,1-.341-.455.4.4,0,0,1,.341-.341h0l9.1-1.383,16.753-2.539c2.748-.455,5.515-.739,8.168-1.308a23.239,23.239,0,0,0,3.79-1.175,8.094,8.094,0,0,0,1.687-.948,1.649,1.649,0,0,0,.777-1.346c-.114-1.118-1.365-1.781-2.6-2.1a22.177,22.177,0,0,0-3.79-.72,78,78,0,0,0-7.846-.417c-5.193,0-10.291.209-15.161.569h0L103.4,261.613a.36.36,0,0,1-.417-.3.379.379,0,0,1,0-.284c1.535-2.1,3.032-4.207,4.4-6.083a.417.417,0,0,1,.265-.152c5.685-.607,11.238-1.232,16.431-2.2a18.117,18.117,0,0,0,1.9-.455,6.158,6.158,0,0,0,1.63-.872c1.023-.7,1.8-1.781,1.383-2.862a3.79,3.79,0,0,0-2.426-2.293,9.476,9.476,0,0,0-3.468-.493h0c-4.908-.133-9.608-.19-14.024-.133a51.129,51.129,0,0,0-6.443.265,4.018,4.018,0,0,0-1.365.322l-1.194.948-2.312,1.9L82.266,261.689,72.43,269.8l-2.577,2.1C69.284,272.416,69,272.643,69,272.643Z" transform="translate(-0.581 -56.79)" fill="#ff9a6c"/>
          <path id="Tracé_2318" data-name="Tracé 2318" d="M89.725,259.5c.208.171-9.476,12.375-21.529,27.233s-22.059,26.778-22.344,26.627S55.329,301,67.382,286.127,89.479,259.33,89.725,259.5Z" transform="translate(-21.306 -43.648)" fill="#ff9a6c"/>
        </g>
      </g>
      <g id="noun-food-5563382" transform="translate(467.467 4389.184)">
        <g id="Groupe_184" data-name="Groupe 184" transform="translate(0 0)">
          <g id="Groupe_183" data-name="Groupe 183">
            <g id="Groupe_182" data-name="Groupe 182">
              <g id="Groupe_181" data-name="Groupe 181" transform="translate(14.297 9.079)">
                <g id="Groupe_180" data-name="Groupe 180">
                  <g id="Groupe_177" data-name="Groupe 177" transform="translate(0 21.419)">
                    <path id="Tracé_193" data-name="Tracé 193" d="M108.554,208.87a1.856,1.856,0,0,1-1.854-1.854V188.154a1.856,1.856,0,0,1,1.854-1.854h0l26.662.032a1.854,1.854,0,0,1,0,3.708h0l-24.84-.032v17.007A1.809,1.809,0,0,1,108.554,208.87Z" transform="translate(-106.7 -186.3)" fill="#65d8e1" fill-rule="evenodd"/>
                  </g>
                  <g id="Groupe_178" data-name="Groupe 178" transform="translate(26.694 7.609)">
                    <path id="Tracé_194" data-name="Tracé 194" d="M192.054,180.184a1.856,1.856,0,0,1-1.854-1.854V158.765a1.915,1.915,0,0,1,.384-1.151L201.421,143.8a1.849,1.849,0,0,1,1.439-.7h0a1.8,1.8,0,0,1,1.439.7l10.837,13.811a1.848,1.848,0,0,1,.384,1.151v8.344a1.854,1.854,0,0,1-3.708,0v-7.7l-8.983-11.445L193.844,159.4V178.33A1.782,1.782,0,0,1,192.054,180.184Z" transform="translate(-190.2 -143.1)" fill="#65d8e1" fill-rule="evenodd"/>
                  </g>
                  <g id="Groupe_179" data-name="Groupe 179" transform="translate(0.009)">
                    <path id="Tracé_195" data-name="Tracé 195" d="M108.573,144.428a1.761,1.761,0,0,1-1.151-.416,1.835,1.835,0,0,1-.288-2.589h0l10.422-13.267v-7a1.856,1.856,0,0,1,1.854-1.854H146.1a1.856,1.856,0,0,1,1.854,1.854v7.641a1.856,1.856,0,0,1-1.854,1.854h-25.8l-10.262,13.075h0v.032a1.928,1.928,0,0,1-1.471.671Zm12.66-17.487H144.25v-3.964H121.233Z" transform="translate(-106.727 -119.3)" fill="#65d8e1" fill-rule="evenodd"/>
                  </g>
                </g>
              </g>
              <g id="Groupe_161" data-name="Groupe 161" transform="translate(59.31)">
                <g id="Groupe_159" data-name="Groupe 159">
                  <g id="Groupe_158" data-name="Groupe 158">
                    <g id="Groupe_153" data-name="Groupe 153" transform="translate(0 78.452)">
                      <path id="Tracé_175" data-name="Tracé 175" d="M249.354,340.04a1.856,1.856,0,0,1-1.854-1.854v-.032a1.854,1.854,0,0,1,3.708,0v.032A1.835,1.835,0,0,1,249.354,340.04Z" transform="translate(-247.5 -336.3)" fill="#636" fill-rule="evenodd"/>
                    </g>
                    <g id="Groupe_154" data-name="Groupe 154" transform="translate(0 73.209)">
                      <path id="Tracé_176" data-name="Tracé 176" d="M249.354,323.768a1.856,1.856,0,0,1-1.854-1.854v-.16a1.854,1.854,0,0,1,3.708,0v.16A1.856,1.856,0,0,1,249.354,323.768Z" transform="translate(-247.5 -319.9)" fill="#636" fill-rule="evenodd"/>
                    </g>
                    <g id="Groupe_155" data-name="Groupe 155" transform="translate(0 7.381)">
                      <path id="Tracé_177" data-name="Tracé 177" d="M249.354,169.778h0a1.856,1.856,0,0,1-1.854-1.854V156a15.735,15.735,0,0,1,3.293-9.271.031.031,0,0,1,.032-.032l1.151-1.439a23.214,23.214,0,0,0,1.471-2.014,30.674,30.674,0,0,0,5.211-15.537l.671-11.988a1.842,1.842,0,1,1,3.676.224l-.671,11.988a34.455,34.455,0,0,1-5.85,17.359c-.512.767-1.055,1.5-1.63,2.238l-1.151,1.439a12.36,12.36,0,0,0-2.526,7.1v11.86A1.809,1.809,0,0,1,249.354,169.778Z" transform="translate(-247.5 -113.988)" fill="#636" fill-rule="evenodd"/>
                    </g>
                    <g id="Groupe_156" data-name="Groupe 156" transform="translate(21.256 7.381)">
                      <path id="Tracé_178" data-name="Tracé 178" d="M320.61,143.787a1.818,1.818,0,0,1-1.6-.959,35.387,35.387,0,0,1-4.348-14.9l-.671-11.988a1.842,1.842,0,0,1,3.676-.224l.671,11.988a31.055,31.055,0,0,0,3.868,13.331,1.8,1.8,0,0,1-.7,2.494A1.906,1.906,0,0,1,320.61,143.787Z" transform="translate(-313.989 -113.989)" fill="#636" fill-rule="evenodd"/>
                    </g>
                    <g id="Groupe_157" data-name="Groupe 157" transform="translate(8.951)">
                      <path id="Tracé_179" data-name="Tracé 179" d="M292.54,101.961H277.354a1.856,1.856,0,0,1-1.854-1.854V96.271a5.362,5.362,0,0,1,5.371-5.371h8.12a5.362,5.362,0,0,1,5.371,5.371v3.836a1.828,1.828,0,0,1-1.822,1.854Zm-13.363-3.676h11.509V96.271a1.706,1.706,0,0,0-1.694-1.694h-8.12a1.706,1.706,0,0,0-1.694,1.694v2.014Z" transform="translate(-275.5 -90.9)" fill="#636" fill-rule="evenodd"/>
                    </g>
                  </g>
                </g>
                <g id="Groupe_160" data-name="Groupe 160" transform="translate(11.238 16.705)">
                  <path id="Tracé_180" data-name="Tracé 180" d="M284.49,148.283a1.848,1.848,0,0,1-.256-3.676l10.518-1.439a1.84,1.84,0,0,1,.512,3.644l-10.518,1.439A.7.7,0,0,1,284.49,148.283Z" transform="translate(-282.653 -143.153)" fill="#636" fill-rule="evenodd"/>
                </g>
              </g>
              <g id="Groupe_162" data-name="Groupe 162" transform="translate(52.249 66.181)">
                <path id="Tracé_181" data-name="Tracé 181" d="M227.521,301.715a2.2,2.2,0,0,1-.767-.16c-.1-.032-.192-.1-.288-.128a1.845,1.845,0,1,1,1.6-3.325c.064.032.16.064.224.1a1.847,1.847,0,0,1-.767,3.517Z" transform="translate(-225.416 -297.916)" fill-rule="evenodd"/>
              </g>
              <g id="Groupe_172" data-name="Groupe 172" transform="translate(43.574 18.094)">
                <g id="Groupe_165" data-name="Groupe 165">
                  <g id="Groupe_163" data-name="Groupe 163">
                    <path id="Tracé_182" data-name="Tracé 182" d="M225.107,229.053a47.684,47.684,0,0,1-25.991-7.736,1.849,1.849,0,0,1,2.014-3.1,43.755,43.755,0,0,0,56.137-66.272L210.146,199.1a1.831,1.831,0,0,1-2.589-2.589l48.465-48.465a1.811,1.811,0,0,1,1.311-.543h0a1.865,1.865,0,0,1,1.311.543,47.415,47.415,0,0,1-28.836,80.817C228.176,228.989,226.642,229.053,225.107,229.053Z" transform="translate(-198.278 -147.5)" fill="#31432d" fill-rule="evenodd"/>
                  </g>
                  <g id="Groupe_164" data-name="Groupe 164" transform="translate(4.358 4.698)">
                    <path id="Tracé_183" data-name="Tracé 183" d="M235.533,231.921a43.478,43.478,0,0,1-9.687-1.087,46.362,46.362,0,0,1-13.011-5.115,1.848,1.848,0,1,1,1.854-3.2,41.635,41.635,0,0,0,20.78,5.69,35.691,35.691,0,0,0,25.351-10.134c13.619-13.619,13.491-36.828-.32-52.845a1.836,1.836,0,0,1,2.781-2.4A46.209,46.209,0,0,1,274.695,192.5a39.019,39.019,0,0,1-11.285,28.133,37.964,37.964,0,0,1-11.157,7.737,39.333,39.333,0,0,1-12.883,3.357Q237.451,231.921,235.533,231.921Z" transform="translate(-211.911 -162.196)" fill="#31432d" fill-rule="evenodd"/>
                  </g>
                </g>
                <g id="Groupe_171" data-name="Groupe 171" transform="translate(11.605 19.22)">
                  <g id="Groupe_166" data-name="Groupe 166" transform="translate(15.599 34.846)">
                    <path id="Tracé_184" data-name="Tracé 184" d="M291.44,326.556a.881.881,0,0,1-.288-.032l-3.8-.607a4.619,4.619,0,0,1-3.708-3.133,4.554,4.554,0,0,1,.991-4.667c.032-.032.064-.1.128-.128.032-.032.1-.064.128-.128a4.623,4.623,0,0,1,4.667-.991,4.718,4.718,0,0,1,3.133,3.708l.607,3.8a1.891,1.891,0,0,1-1.854,2.174Zm-3.421-6.234a.847.847,0,0,0-.607.256l-.032.032-.032.032a.964.964,0,0,0-.192.959.938.938,0,0,0,.8.671l1.311.192-.192-1.311a1.034,1.034,0,0,0-.671-.8C288.275,320.354,288.147,320.322,288.019,320.322Z" transform="translate(-283.376 -316.62)" fill="#a82d54" fill-rule="evenodd"/>
                  </g>
                  <g id="Groupe_167" data-name="Groupe 167" transform="translate(35.868)">
                    <path id="Tracé_185" data-name="Tracé 185" d="M354.84,217.556a.885.885,0,0,1-.288-.032l-3.8-.607a4.619,4.619,0,0,1-3.708-3.133,4.554,4.554,0,0,1,.991-4.667l.128-.128c.032-.032.1-.064.128-.128a4.623,4.623,0,0,1,4.667-.991,4.718,4.718,0,0,1,3.133,3.708l.607,3.8a1.853,1.853,0,0,1-.512,1.6,1.949,1.949,0,0,1-1.343.575Zm-3.453-6.234a.847.847,0,0,0-.607.256l-.032.032-.032.032a.964.964,0,0,0-.192.959.938.938,0,0,0,.8.671l1.311.192-.192-1.311a1.035,1.035,0,0,0-.671-.8C351.643,211.354,351.515,211.322,351.387,211.322Z" transform="translate(-346.776 -207.62)" fill="#a82d54" fill-rule="evenodd"/>
                  </g>
                  <g id="Groupe_168" data-name="Groupe 168" transform="translate(28.707 26.905)">
                    <path id="Tracé_186" data-name="Tracé 186" d="M330.939,302.688a1.927,1.927,0,0,1-.927-.256l-3.325-1.95a4.68,4.68,0,0,1-2.3-4.284,4.514,4.514,0,0,1,2.653-3.964c.064-.032.1-.032.16-.064s.1-.032.16-.064a4.585,4.585,0,0,1,4.7.8,4.677,4.677,0,0,1,1.535,4.6l-.831,3.74a1.785,1.785,0,0,1-1.055,1.279,2.2,2.2,0,0,1-.767.16Zm-1.886-7.225a1.647,1.647,0,0,0-.352.064c-.032,0-.032,0-.032.032a.031.031,0,0,0-.032.032.986.986,0,0,0-.543.831,1.027,1.027,0,0,0,.511.927l1.151.671.288-1.279a.916.916,0,0,0-.352-.991A.861.861,0,0,0,329.053,295.463Z" transform="translate(-324.378 -291.781)" fill="#a82d54" fill-rule="evenodd"/>
                  </g>
                  <g id="Groupe_169" data-name="Groupe 169" transform="translate(35.358 15.076)">
                    <path id="Tracé_187" data-name="Tracé 187" d="M349.886,264.088a4.768,4.768,0,0,1-3.58-1.63,4.585,4.585,0,0,1-.8-4.7c.032-.064.032-.1.064-.16s.032-.1.064-.16a4.673,4.673,0,0,1,8.248-.352l1.95,3.325a1.837,1.837,0,0,1-1.183,2.717l-3.74.831a3.893,3.893,0,0,1-1.023.128Zm-.064-5.626h-.032a.922.922,0,0,0-.831.543.031.031,0,0,1-.032.032c0,.032,0,.032-.032.064a.914.914,0,0,0,.16.959,1.11,1.11,0,0,0,.991.352l1.279-.288-.671-1.151A.856.856,0,0,0,349.822,258.462Z" transform="translate(-345.181 -254.778)" fill="#a82d54" fill-rule="evenodd"/>
                  </g>
                  <g id="Groupe_170" data-name="Groupe 170" transform="translate(0 35.76)">
                    <path id="Tracé_188" data-name="Tracé 188" d="M239.286,328.788a4.768,4.768,0,0,1-3.581-1.63,4.586,4.586,0,0,1-.8-4.7c.032-.064.032-.1.064-.16s.032-.1.064-.16a4.673,4.673,0,0,1,8.248-.352l1.95,3.325a1.837,1.837,0,0,1-1.183,2.717l-3.74.831a3.594,3.594,0,0,1-1.023.128Zm-.032-5.626h-.032a.922.922,0,0,0-.831.543,47.356,47.356,0,0,0-.064.064.914.914,0,0,0,.16.959,1.11,1.11,0,0,0,.991.352l1.279-.288-.671-1.151A.931.931,0,0,0,239.254,323.161Z" transform="translate(-234.581 -319.478)" fill="#a82d54" fill-rule="evenodd"/>
                  </g>
                </g>
              </g>
              <g id="Groupe_174" data-name="Groupe 174" transform="translate(7.724 56.507)">
                <path id="Tracé_190" data-name="Tracé 190" d="M87.981,278.379a1.524,1.524,0,0,1-.639-.128,1.835,1.835,0,0,1-1.087-2.366c1.726-4.667,5.083-7.736,8.919-8.216a1.836,1.836,0,0,1,.448,3.645c-2.462.32-4.667,2.494-5.914,5.85A1.826,1.826,0,0,1,87.981,278.379Z" transform="translate(-86.14 -267.655)" fill="#bd3a3c" fill-rule="evenodd"/>
              </g>
              <g id="Groupe_176" data-name="Groupe 176" transform="translate(24.896 37.247)">
                <path id="Tracé_192" data-name="Tracé 192" d="M143.065,219.46a9.342,9.342,0,0,1-1.63-.128,1.862,1.862,0,0,1-1.566-2.078,11.469,11.469,0,0,1,12.979-9.719,1.862,1.862,0,0,1,1.566,2.078,11.347,11.347,0,0,1-4.476,7.545,11.471,11.471,0,0,1-6.873,2.3Zm7.1-8.312a7.855,7.855,0,0,0-6.042,4.54A7.738,7.738,0,0,0,150.162,211.148Z" transform="translate(-139.853 -207.411)" fill="#b2cc7c" fill-rule="evenodd"/>
              </g>
              <g id="Groupe_175" data-name="Groupe 175" transform="translate(19.187 40.12)">
                <path id="Tracé_191" data-name="Tracé 191" d="M130.852,232.254h-.192a1.809,1.809,0,0,1-1.63-2.014,10.167,10.167,0,0,0-5.946-10.326,1.839,1.839,0,1,1,1.5-3.357,13.872,13.872,0,0,1,8.12,14.066A1.89,1.89,0,0,1,130.852,232.254Z" transform="translate(-121.996 -216.396)" fill="#b2cc7c" fill-rule="evenodd"/>
              </g>
              <g id="Groupe_173" data-name="Groupe 173" transform="translate(0 49.368)">
                <path id="Tracé_189" data-name="Tracé 189" d="M98.749,293.461a10.55,10.55,0,0,1-5.4-1.5h0a6.492,6.492,0,0,0-6.713,0c-4.955,2.877-10.837,1.5-14.642-3.421l-5.211-6.809a24.378,24.378,0,0,1-4.731-13.011,26.345,26.345,0,0,1,2.717-13.875,17.949,17.949,0,0,1,8.152-8.216,13.483,13.483,0,0,1,10.678-.384l4,1.534a7.387,7.387,0,0,0,2.3.454,6.347,6.347,0,0,0,2.555-.454l4-1.534a13.488,13.488,0,0,1,10.678.384,17.949,17.949,0,0,1,8.152,8.216,26.345,26.345,0,0,1,2.717,13.875,24.378,24.378,0,0,1-4.731,13.011l-5.243,6.809a11.813,11.813,0,0,1-9.271,4.923ZM95.2,288.794c3.357,1.95,7.225.959,9.878-2.494l5.243-6.809c4.7-6.106,5.4-15.761,1.662-22.954-3.2-6.17-8.919-8.919-14.226-6.873l-4,1.535a10.168,10.168,0,0,1-7.513,0l-4-1.535c-5.307-2.046-11.029.7-14.226,6.873-3.74,7.193-3.037,16.848,1.662,22.954l5.243,6.809c2.653,3.453,6.554,4.444,9.878,2.494a10.1,10.1,0,0,1,10.39,0Z" transform="translate(-61.977 -245.324)" fill="#bd3a3c" fill-rule="evenodd"/>
              </g>
            </g>
          </g>
        </g>
      </g>
    </g>
    <path id="Union_22" data-name="Union 22" d="M-2246.02-7145.23H-2250a11,11,0,0,1-11-11V-7281a11,11,0,0,1,11-11h138a11,11,0,0,1,11,11v124.771a11,11,0,0,1-11,11h-103.707l-30.313,30.734Z" transform="translate(3628 7444)" fill="none" stroke="#101411" stroke-linecap="round" stroke-linejoin="round" stroke-width="4"/>
  </g>
</svg>
