<?xml version="1.0" encoding="UTF-8"?>
<svg id="Calque_2" xmlns="http://www.w3.org/2000/svg" viewBox="0 0 56.98 75.91">
  <defs>
    <style>
      .cls-1 {
        fill: #000;
      }

      .cls-2 {
        fill: #fff;
      }
    </style>
  </defs>
  <g id="Calque_1-2" data-name="Calque_1">
    <g>
      <g>
        <path class="cls-1" d="M50.21,50.28c-.82.14-2-.01-3.55-.44-.71-.2-1.43-.26-2.13-.26-.59,0-1.17.04-1.74.08-.35.03-.69.05-1.03.07l-4.55.18c-.34.02-.76.06-1.21.11-1.13.13-2.21.22-3,.07-.19-.04-.35-.08-.5-.15v21.72c0,1.65,1.34,2.99,2.99,2.99h12.23c1.66,0,2.99-1.34,2.99-2.99v-21.53c-.15.07-.31.12-.5.15ZM48.36,59.25c-.4,0-.73-.33-.73-.73s.33-.73.73-.73.72.33.72.73-.32.73-.72.73ZM46.91,52.76c.61,0,1.11.5,1.11,1.12s-.5,1.11-1.11,1.11-1.12-.5-1.12-1.11.5-1.12,1.12-1.12ZM42.44,56c0,.4-.33.73-.73.73s-.72-.33-.72-.73.32-.72.72-.72.73.32.73.72ZM36.07,52.03c.36.18.61.55.61.98,0,.62-.5,1.12-1.11,1.12s-1.12-.5-1.12-1.12c0-.36.17-.68.44-.88.42-.02.82-.06,1.18-.1ZM35.23,58.12c0-.4.33-.73.73-.73s.72.33.72.73-.32.72-.72.72-.73-.32-.73-.72Z"/>
        <path class="cls-1" d="M50.71,47.25v.34c-.19-.1-.41-.15-.68-.18l-.92-.1v-.06h1.6Z"/>
        <path class="cls-1" d="M49.13,46.75l-.02.5v.06l.92.1c.27.03.49.08.68.18.1.04.19.11.28.19.08.07.16.16.22.24v-1.27h-2.08ZM50.71,50.13c-.15.07-.31.12-.5.15v21.38c0,1.37-1.11,2.49-2.49,2.49h-12.23c-1.38,0-2.49-1.12-2.49-2.49v-21.57c-.19-.04-.35-.08-.5-.15-.21-.09-.38-.21-.5-.37v22.09c0,1.92,1.56,3.49,3.49,3.49h12.23c1.93,0,3.49-1.57,3.49-3.49v-21.86c-.13.14-.3.25-.5.33ZM32,46.75v.04h.15s.03-.04.03-.04h-.18Z"/>
      </g>
      <path class="cls-1" d="M52.35,55.95c-.05,0-.09,0-.14,0-.05-.01-.1-.01-.15-.01h-1.81v9.85h1.81s.09-.01.13-.01.09-.01.13-.01c.07,0,.15,0,.22-.03,1-.09,1.91-.47,2.65-1.08.02-.01.02-.02.03-.03.7-.59,1.24-1.37,1.53-2.28.01-.01.01-.02.01-.03.11-.36.18-.74.2-1.14.02-.1.02-.21.02-.32,0-2.61-2.05-4.76-4.63-4.9ZM51.25,56.93h.81c2.16,0,3.92,1.76,3.92,3.92,0,.11,0,.22-.02.32-.02.31-.08.61-.18.9-.23.74-.69,1.39-1.29,1.85-.67.54-1.51.86-2.43.86h-.81v-7.85Z"/>
      <path class="cls-1" d="M55.59,58.25c-.1-.19-.23-.36-.37-.53-.01-.01-.02-.02-.03-.03-.9-1.07-2.25-1.76-3.77-1.76h-1.81v9.85h1.81c2.61,0,4.75-2.04,4.91-4.61.02-.1.02-.21.02-.32,0-.96-.27-1.85-.76-2.6ZM50.61,64.78v-7.85h.81c1.26,0,2.38.59,3.09,1.51.11.13.21.27.3.42.34.58.54,1.26.54,1.99,0,.11,0,.22-.02.32-.16,2.02-1.85,3.61-3.91,3.61h-.81Z"/>
      <path class="cls-1" d="M56.75,60c-.37-2.17-2.17-3.85-4.4-4.05-.05,0-.09,0-.14,0-.1-.01-.21-.01-.31-.01h-1.81v9.85h1.81c.1,0,.19,0,.29-.01.04,0,.09-.01.13-.01.07,0,.15,0,.22-.03,1.22-.15,2.29-.75,3.05-1.64.71-.79,1.16-1.8,1.22-2.92.02-.1.02-.21.02-.32,0-.29-.03-.58-.08-.85ZM51.09,56.93h.81c1.98,0,3.62,1.46,3.89,3.36.03.18.04.37.04.56,0,.11,0,.22-.02.32-.07.9-.44,1.72-1.03,2.34-.71.78-1.74,1.27-2.88,1.27h-.81v-7.85Z"/>
      <path class="cls-1" d="M56.75,60c-.37-2.17-2.17-3.85-4.4-4.05-.05,0-.09,0-.14,0-.1-.01-.21-.01-.31-.01h-1.81v9.85h1.81c.1,0,.19,0,.29-.01.04,0,.09-.01.13-.01.07,0,.15,0,.22-.03,1.22-.15,2.29-.75,3.05-1.64.71-.79,1.16-1.8,1.22-2.92.02-.1.02-.21.02-.32,0-.29-.03-.58-.08-.85ZM51.09,56.93h.81c1.98,0,3.62,1.46,3.89,3.36.03.18.04.37.04.56,0,.11,0,.22-.02.32-.07.9-.44,1.72-1.03,2.34-.71.78-1.74,1.27-2.88,1.27h-.81v-7.85Z"/>
      <path class="cls-1" d="M56.33,61.17c-.16-2.57-2.3-4.6-4.91-4.6h-1.81v9.84h1.81c1.52,0,2.87-.69,3.77-1.76.02-.01.02-.02.03-.03.14-.17.27-.34.37-.53.49-.75.76-1.64.76-2.6,0-.11,0-.22-.02-.32ZM50.61,57.57h.81c2.06,0,3.75,1.59,3.91,3.6.02.1.02.21.02.32,0,.74-.21,1.43-.57,2.02-.08.14-.18.28-.29.41-.71.91-1.82,1.49-3.07,1.49h-.81v-7.84Z"/>
      <path class="cls-1" d="M56.96,61.17c-.02-.41-.09-.8-.21-1.17-.29-.9-.83-1.69-1.53-2.28-.01-.01-.02-.02-.03-.03-.74-.6-1.65-.98-2.65-1.07-.07-.02-.15-.03-.22-.03-.04,0-.09-.01-.13-.01-.04,0-.09,0-.13,0h-1.81v9.84h1.65c.1,0,.21,0,.31-.01.05,0,.09-.01.14-.01,2.58-.14,4.63-2.29,4.63-4.9,0-.11,0-.22-.02-.32ZM54.51,58.44c.59.47,1.04,1.11,1.28,1.85.09.28.15.57.17.88.02.1.02.21.02.32,0,2.16-1.76,3.92-3.92,3.92h-.81v-7.84h.81c.93,0,1.78.32,2.45.87Z"/>
      <path class="cls-2" d="M36.07,52.03c-.36.04-.76.08-1.18.1.19-.14.42-.23.68-.23.18,0,.35.04.5.13Z"/>
      <g>
        <path class="cls-2" d="M51.66,47.04c-.48-.44-.99-.56-1.51-.62.04-1.06-.32-2.18-1.04-2.96-.98-1.04-2.36-1.32-3.7-1.09-.55.09-1.5.7-2.01.63-.39-.05-.67-.85-.99-1.28-1.75-2.35-4.72-1.28-6.12.86-.29.45-.57,1.54-.98,1.82-.4.29-1.38.06-1.86.17-.82.17-1.4.59-1.8,1.18-1.64-.16-2.33,2.37-.93,3.25.03.22.09.45.18.68.23.55.61.91,1.1,1.13.16.08.33.14.5.18.16.05.33.09.5.12,1.44.21,3.2-.16,4.25-.2l4.55-.19c1.51-.06,3.12-.33,4.59.08.98.28,2.52.66,3.82.49.17-.02.34-.05.5-.1.18-.04.34-.1.5-.17.52-.24.94-.64,1.17-1.27.37-.98.02-2.04-.72-2.71ZM50.71,50.13c-.15.07-.31.12-.5.15-.82.14-2-.01-3.55-.44-.71-.2-1.43-.26-2.13-.26-.59,0-1.17.04-1.74.08-.35.03-.69.05-1.03.07l-4.55.18c-.34.02-.76.06-1.21.11-1.13.13-2.21.22-3,.07-.19-.04-.35-.08-.5-.15-.21-.09-.38-.21-.5-.37-.08-.08-.13-.17-.17-.27-.06-.15-.1-.28-.11-.41l-.06-.48-.41-.26c-.31-.19-.33-.63-.22-.95.05-.15.21-.48.53-.45l.44.04h.15s.03-.04.03-.04l.3-.44c.27-.41.66-.65,1.18-.77.07-.01.32,0,.48,0,.58.02,1.23.05,1.75-.32.49-.34.74-.96.99-1.55.08-.19.19-.45.24-.54.68-1.03,1.75-1.71,2.73-1.74.69-.02,1.28.29,1.76.93.08.1.15.24.22.37.3.53.68,1.19,1.43,1.3.58.09,1.16-.17,1.72-.41.2-.08.49-.21.6-.23.66-.11,1.9-.16,2.8.79.51.55.8,1.41.77,2.24l-.02.37-.02.5v.06l.92.1c.27.03.49.08.68.18.1.04.19.11.28.19.08.07.16.16.22.24v1.78c-.13.14-.3.25-.5.33Z"/>
        <path d="M52.33,46.29c-.4-.36-.82-.57-1.22-.69-.13-1.07-.58-2.08-1.27-2.82-1.12-1.2-2.8-1.71-4.61-1.4-.33.06-.67.21-1.03.36-.14.06-.34.15-.49.21-.05-.09-.1-.17-.13-.24-.12-.21-.25-.42-.37-.58-.86-1.16-2.04-1.77-3.42-1.74-1.64.05-3.3,1.06-4.34,2.64-.16.25-.28.55-.42.87-.08.2-.21.53-.27.65-.14.01-.39,0-.55,0-.32-.02-.66-.03-.97.04-.84.18-1.56.58-2.09,1.18-.91.14-1.68.81-2.02,1.79-.37,1.11-.09,2.27.68,2.99.04.17.1.34.17.51.4.99,1.15,1.54,2.02,1.82.16.05.33.1.5.14.17.03.33.06.5.07.63.09,1.28.09,1.89.04.42-.02.82-.06,1.18-.1.05-.01.1-.01.15-.02.4-.04.77-.09,1.07-.1l4.55-.19c.36-.01.73-.04,1.09-.06,1.15-.09,2.23-.16,3.19.1,1.31.37,2.46.55,3.43.55.23,0,.45-.01.66-.03.18-.02.34-.04.5-.08.17-.02.34-.06.5-.13,1.03-.3,1.74-.96,2.11-1.97.14-.38.21-.78.21-1.17,0-.97-.42-1.94-1.2-2.64ZM42.79,49.66c-.35.03-.69.05-1.03.07l-4.55.18c-.34.02-.76.06-1.21.11-1.13.13-2.21.22-3,.07-.19-.04-.35-.08-.5-.15-.21-.09-.38-.21-.5-.37-.08-.08-.13-.17-.17-.27-.06-.15-.1-.28-.11-.41l-.06-.48-.41-.26c-.31-.19-.33-.63-.22-.95.05-.15.21-.48.53-.45l.44.04h.15s.03-.04.03-.04l.3-.44c.27-.41.66-.65,1.18-.77.07-.01.32,0,.48,0,.58.02,1.23.05,1.75-.32.49-.34.74-.96.99-1.55.08-.19.19-.45.24-.54.68-1.03,1.75-1.71,2.73-1.74.69-.02,1.28.29,1.76.93.08.1.15.24.22.37.3.53.68,1.19,1.43,1.3.58.09,1.16-.17,1.72-.41.2-.08.49-.21.6-.23.66-.11,1.9-.16,2.8.79.51.55.8,1.41.77,2.24l-.02.37-.02.5v.06l.92.1c.27.03.49.08.68.18.1.04.19.11.28.19.08.07.16.16.22.24.31.41.41.93.24,1.38-.06.15-.14.28-.24.4-.13.14-.3.25-.5.33-.15.07-.31.12-.5.15-.82.14-2-.01-3.55-.44-.71-.2-1.43-.26-2.13-.26-.59,0-1.17.04-1.74.08Z"/>
      </g>
      <path d="M24.72,40.8c.02-4.03-1.19-7.61-3.7-10.94-.19-.26-.41-.53-.65-.82-.67-.81-1.51-1.82-1.59-2.55-.31-2.99-.51-6.05-.69-9.02l-.13-2.06c-.26-3.64-.49-7.33-.69-10.99-.02-.28.04-.54.1-.64.55-1.08.63-1.99.22-2.69-.26-.44-.83-.98-2.08-1.04-1.46-.06-2.92-.05-4.34-.03-.63,0-1.26.01-1.89.01-.36,0-.68.1-.95.19-.68.23-1.2.73-1.4,1.37-.21.63-.1,1.34.3,1.89.34.48.31.96.24,1.77l-.04.44c-.18,2.89-.37,5.79-.57,8.68-.23,3.35-.46,6.7-.65,10.06-.14,2.45-1.73,4.68-3.11,6.35-2.06,2.51-3.1,5.68-3.1,9.4.01,2.49.01,4.98.01,7.47s0,4.98.01,7.47v5.1c-.01,3.4-.01,6.81,0,10.21,0,.72.08,1.5.24,2.32.5,2.23,1.64,3.14,3.93,3.14,5.13.02,10.24.02,15.38.02h.58c2.83-.02,4.04-1.06,4.46-3.85.08-.57.08-1.12.08-1.65v-11.01c0-2.03-.01-4.09-.01-6.16,0-4.13.01-8.31.04-12.44ZM22.69,59.4v11.02c0,.48,0,.93-.06,1.35-.27,1.81-.65,2.13-2.49,2.14-5.32,0-10.62,0-15.94-.02-1.38,0-1.69-.25-1.98-1.55-.14-.67-.2-1.31-.2-1.92-.01-3.4-.01-6.8-.01-10.2v-12.57c0-2.49,0-4.98-.01-7.47,0-3.25.89-5.99,2.65-8.13,1.57-1.91,3.39-4.48,3.55-7.51.2-3.34.43-6.69.65-10.04.2-2.89.4-5.79.57-8.68l.04-.38c.08-.89.19-2.01-.6-3.11-.03-.05-.04-.09-.03-.12.01-.03.07-.07.14-.1.07-.02.25-.08.31-.08.64,0,1.28-.01,1.92-.01.62-.01,1.25-.02,1.88-.02.79,0,1.57,0,2.34.05.26.01.4.04.43.05,0,.09-.05.34-.25.75-.35.65-.34,1.42-.32,1.7.2,3.65.43,7.35.68,11l.13,2.04c.19,2.99.38,6.08.7,9.12.16,1.33,1.16,2.54,2.04,3.6.21.27.42.52.59.75,2.24,2.97,3.32,6.15,3.3,9.73-.04,6.2-.04,12.51-.03,18.61Z"/>
      <path d="M19.8,50.75c-.32-1.28-.86-2.47-1.66-3.53-.48-.64-1.06-1.19-1.72-1.61-.8-.51-1.68-.87-2.61-1.05-.51-.11-1.03-.16-1.53-.22-.12-.02-.19-.05-.17-.18.05-.3.07-.6.15-.89.14-.48.42-.89.8-1.22.06-.06.08-.11.01-.19-.15-.18-.3-.36-.44-.55-.07-.08-.12-.08-.2-.01-.54.47-.9,1.03-1.12,1.71-.13.41-.19.84-.16,1.27,0,.09-.01.16-.11.2-.24.08-.47.18-.71.27-1.04.42-1.98,1.01-2.78,1.81-.66.67-1.16,1.45-1.51,2.34-.23.58-.38,1.17-.5,1.79-.15.96-.2,1.92-.08,2.89.02.14.05.15.19.12.16-.03.32-.06.49-.08.11-.03.13.01.14.11,0,.23.01.45.03.67.08.92.31,1.81.66,2.67.21.53.48,1.04.79,1.54.05.09.12.12.21.05.27-.18.53-.36.79-.54.07-.04.12-.08.2-.14.04.15.07.29.11.41.28.89.63,1.72,1.12,2.5q.16.26.38.06c.22-.18.42-.35.64-.54.04.05.08.08.11.13.24.27.47.55.72.81.56.6,1.19,1.11,1.88,1.55.24.15.25.15.43-.05.75-.83,1.34-1.76,1.78-2.79.06-.12.1-.23.15-.35.33.14.63.28.94.41.08.04.11.01.13-.06.09-.3.18-.61.24-.91.15-.75.22-1.51.21-2.27,0-.09.02-.12.11-.08.3.1.61.2.91.31.25.09.26.09.33-.17.46-1.66.54-3.33.08-5.01-.03-.1-.01-.13.09-.14.18-.01.34-.04.51-.05.13-.01.16-.06.13-.18-.05-.26-.09-.54-.16-.81ZM10.87,47.36c.19-.58.47-1.13.76-1.68.03-.05.06-.09.12-.15.08.08.17.16.26.24.47.48.9.99,1.26,1.56.35.57.62,1.19.77,1.85.16.79.1,1.56-.09,2.33-.19.84-.57,1.61-1.01,2.36-.01.01-.03.02-.05.06-.24-.25-.47-.49-.71-.74-.34-.35-.63-.75-.87-1.17-.34-.59-.61-1.2-.73-1.87-.16-.96-.02-1.89.29-2.79ZM14.15,53.98l.92,1.02s.05.13.03.17c-.13.35-.25.71-.41,1.06-.3.64-.68,1.23-1.1,1.81-.07.1-.13.1-.22.03-.86-.65-1.63-1.4-2.23-2.31-.06-.09-.05-.15,0-.25.19-.38.37-.77.55-1.15.02-.03.03-.07.05-.1.01,0,.02-.02.04-.05.17.17.33.32.51.47.22.19.45.37.69.56.08.07.15.06.21-.04.26-.4.53-.79.8-1.19.02-.03.04-.07.07-.12.04.03.06.06.09.09ZM6.82,52.4c-.11.04-.22.08-.33.12-.08.02-.13.01-.13-.1,0-.69.08-1.38.25-2.06.13-.56.3-1.09.56-1.61.33-.67.79-1.27,1.37-1.77.52-.47,1.1-.84,1.72-1.14.05-.02.11-.04.16-.06,0,.01.02.02.02.03-.1.25-.22.49-.32.73-.38.95-.61,1.93-.57,2.95.01.39.09.77.14,1.14.03.13,0,.2-.09.28-.83.67-1.76,1.16-2.78,1.49ZM8.84,56.78c-.19.17-.39.33-.58.49-.03.03-.06.04-.11.07-.06-.15-.13-.28-.19-.41-.26-.63-.46-1.27-.6-1.94-.1-.49-.12-1-.11-1.51-.01-.13.03-.2.18-.26.79-.29,1.55-.66,2.23-1.15.11-.08.21-.14.32-.23.07-.05.11-.05.16.04.22.49.5.93.82,1.35.02.05.02.13.01.18-.14.59-.38,1.13-.7,1.64-.39.65-.88,1.22-1.43,1.73ZM11.78,58.25c-.31.44-.66.86-1.04,1.24-.13.14-.14.13-.23-.03-.31-.69-.56-1.4-.7-2.14-.02-.04,0-.11.01-.13.21-.23.42-.46.63-.7.06.08.1.13.15.19.35.47.74.9,1.16,1.31.09.09.09.15.02.26ZM15.39,59.3c-.21.55-.47,1.08-.79,1.59-.17.26-.37.52-.54.79-.06.08-.1.07-.17.02-.71-.56-1.37-1.17-1.9-1.91-.03-.03-.05-.06-.08-.11.03-.03.04-.07.06-.1.2-.25.4-.5.59-.76.05-.07.09-.06.16-.02.28.2.56.39.85.58.07.05.11.06.16-.01.23-.26.44-.52.65-.78.07-.08.11-.1.2-.02.24.19.49.37.75.56.08.04.09.1.06.17ZM16.72,58.49c-.05.3-.06.32-.32.14-.43-.29-.86-.59-1.28-.89-.1-.06-.07-.12-.03-.2.2-.39.42-.79.61-1.19.08-.17.14-.34.21-.52.02-.03.03-.06.05-.09.08.05.15.09.21.14.19.11.37.21.53.32.05.04.11.12.1.18.05.71.03,1.41-.08,2.11ZM18.43,55.73c-.03.19-.05.2-.24.13-.56-.26-1.1-.54-1.61-.89-.5-.35-.95-.73-1.34-1.19-.22-.26-.41-.57-.61-.85-.06-.08-.07-.15-.03-.25.19-.47.32-.96.41-1.47.01-.1.06-.13.14-.09.85.35,1.74.54,2.65.62.1.01.19.02.29.05.04,0,.09.06.1.1.11.38.22.78.32,1.17.09.91.06,1.79-.08,2.67ZM18.53,50.82c-.99-.04-1.95-.19-2.87-.54-.14-.06-.29-.12-.43-.17-.1-.04-.14-.1-.14-.2,0-.09-.01-.2-.01-.29-.1-.99-.43-1.89-.95-2.73-.28-.46-.59-.9-.97-1.31-.04-.04-.07-.1-.11-.16.01-.01.01-.02.01-.03.35.08.7.14,1.03.23.59.18,1.16.41,1.68.73.6.37,1.11.84,1.54,1.4.66.84,1.11,1.78,1.43,2.78q.1.3-.21.29Z"/>
    </g>
  </g>
</svg>
