<?xml version="1.0" encoding="UTF-8"?>
<svg id="Calque_2" xmlns="http://www.w3.org/2000/svg" viewBox="0 0 70.28 73.67">
  <defs>
    <style>
      .cls-1 {
        fill: none;
        fill-rule: evenodd;
        stroke-width: 1.5px;
      }

      .cls-1, .cls-2 {
        stroke: #000;
        stroke-miterlimit: 10;
      }

      .cls-2 {
        fill: #000;
      }

      .cls-3 {
        fill: #000;
      }
    </style>
  </defs>
  <g id="Calque_1-2" data-name="Calque_1">
    <g>
      <g>
        <g>
          <path class="cls-3" d="M61.85,40.71H20.96c-1.87,0-3.39,1.52-3.39,3.4v17.64h1.7v-17.64c0-.93.76-1.7,1.69-1.7h40.9c.93,0,1.69.76,1.69,1.7v18.8c0,.93-.76,1.7-1.69,1.7H26.51v.1c0,.8-.65,1.45-1.45,1.45h-5.08c.31.09.64.14.98.14h40.9c1.87,0,3.39-1.53,3.39-3.4v-18.8c0-1.88-1.52-3.4-3.39-3.4Z"/>
          <path class="cls-3" d="M40.91,42.41c-.59-1.02-1.68-1.7-2.93-1.7h-17.02c-1.87,0-3.39,1.52-3.39,3.4v17.64h1.7v-17.64c0-.93.76-1.7,1.69-1.7h17.02c.93,0,1.69.76,1.69,1.7v18.8c0,.93-.76,1.7-1.69,1.7h-11.46v.1c0,.8-.65,1.45-1.45,1.45h-5.08c.31.09.64.14.98.14h17.02c1.25,0,2.35-.68,2.93-1.7.29-.5.46-1.08.46-1.7v-18.8c0-.62-.17-1.2-.46-1.7Z"/>
          <path class="cls-3" d="M25.06,60.05h-13.3c-1.73,0-3.15,1.41-3.15,3.15v1.5c0,1.73,1.42,3.15,3.15,3.15h13.3c1.16,0,2.17-.63,2.71-1.55.28-.47.44-1.02.44-1.6v-1.5c0-1.74-1.41-3.15-3.15-3.15ZM26.51,64.7c0,.8-.65,1.45-1.45,1.45h-13.3c-.8,0-1.45-.65-1.45-1.45v-1.5c0-.81.65-1.45,1.45-1.45h13.3c.81,0,1.45.65,1.45,1.45v1.5Z"/>
        </g>
        <path class="cls-2" d="M4.07,64.77h65.71v4.99c0,1.88-1.53,3.41-3.41,3.41H7.48c-1.88,0-3.41-1.53-3.41-3.41v-4.99h0Z"/>
      </g>
      <g>
        <rect class="cls-3" x="-.68" y="5.35" width="24.64" height="6.7" rx="1.63" ry="1.63" transform="translate(16.99 22.2) rotate(-148.4)"/>
        <path class="cls-1" d="M18.8,12.51c.52-.84,1.62-1.1,2.46-.59l6.12,3.77,25.26,14.92c1.44.85,1.5,2.97.06,3.82-1.43.86-4.01,1.1-8.61-1.04l-.45-.24-16.73-10.29c-.68-.42-1.22-1.03-1.55-1.76l-1.17-2.56c-.07-.14-4.9-3.24-4.93-3.39h0c-.84-.52-1.1-1.62-.59-2.46l.12-.19Z"/>
      </g>
    </g>
  </g>
</svg>