<?xml version="1.0" encoding="UTF-8"?>
<svg id="Calque_2" xmlns="http://www.w3.org/2000/svg" viewBox="0 0 75 75">
  <g id="Calque_1-2" data-name="Calque_1">
    <g>
      <path d="M73.15,55.65c-.09-.23-.27-.41-.5-.48-.06-.02-.62-.17-1.46-.31,2.12-1.47,3.6-3.61,3.69-3.74.13-.19.16-.44.08-.68-.09-.24-.26-.42-.49-.49-.15-.04-2.73-.83-5.4-.68,1.63-3.33.41-8.8.36-9.05-.06-.26-.24-.5-.47-.62s-.5-.11-.69.02c-.19.13-4.44,2.97-5.26,6.84-2.04-2.43-4.73-4.17-4.9-4.28-.26-.16-.54-.19-.78-.08-.24.1-.39.33-.4.6-.02.19-.17,3.22.68,6.22-.83-.61-1.43-.98-1.5-1.02-.26-.15-.54-.17-.78-.06-.24.11-.39.34-.4.61-.02.19-.16,3.19.71,6.15-.84-.58-1.44-.93-1.51-.97-.26-.14-.55-.15-.79-.04-.24.11-.4.35-.41.61-.02.18-.15,3.17.74,6.08-.85-.56-1.46-.89-1.53-.92-.27-.13-.55-.14-.8-.02-.25.12-.4.35-.41.62-.02.27-.3,6.71,2.91,9.75.62.59,1.33,1.02,2.12,1.27.39.12.8.2,1.22.24l-.98,2.82c-.13.39.09.81.5.93s.85-.1.98-.48l.97-2.8c.36.21.73.38,1.1.5.75.24,1.53.29,2.34.17,3.96-.58,7.26-5.4,7.39-5.6.14-.19.16-.44.07-.67-.09-.23-.27-.38-.51-.44-.06-.01-.63-.13-1.49-.23,2.15-1.56,3.65-3.74,3.73-3.88.13-.19.16-.44.07-.67-.09-.23-.27-.4-.51-.46-.06-.02-.63-.15-1.47-.27,2.13-1.52,3.62-3.67,3.71-3.81.13-.19.16-.44.08-.68ZM73.06,51.1c-.94,1.1-2.7,2.93-4.64,3.5-.62,0-1.27.02-1.92.11-.75.11-1.49.3-2.17.6,0,0-.01,0-.02.01v-.02s.72-2.07.72-2.07h0c.22-.63.58-1.12,1.11-1.51.02-.03.06-.05.09-.08.41-.29.89-.5,1.41-.63,1.84-.51,4.1-.19,5.41.07ZM64.39,47.58c.18-2.51,2.5-4.79,3.83-5.89.28,1.9.55,5.39-.77,7.3-.17.24-.36.46-.59.64-.39.34-.86.57-1.43.67-.07.01-.14.02-.21.04-.04-.06-.09-.13-.13-.19-.36-.52-.57-1.06-.66-1.62-.06-.31-.07-.62-.05-.94ZM58.53,44.34c1.31.97,3.36,2.69,4.46,4.6.3.52.54,1.04.67,1.58,0,.05.02.09.02.13.16.7.14,1.34-.08,1.97h0s-.72,2.1-.72,2.1v.02s0-.02,0-.02c-.33-.73-.78-1.44-1.3-2.1-.45-.58-.96-1.11-1.47-1.61-1.24-2.05-1.53-4.98-1.58-6.66ZM56.55,50.03c.65.46,1.51,1.1,2.33,1.87h0c.59.55,1.17,1.16,1.65,1.8.56.74,1.02,1.52,1.22,2.33.2.74.18,1.42-.05,2.08h0s-.72,2.1-.72,2.1v.02s0-.02,0-.02c-.34-.72-.79-1.41-1.32-2.05-.46-.56-.97-1.08-1.48-1.56-1.25-2-1.56-4.9-1.61-6.57ZM54.57,55.73c.66.44,1.52,1.05,2.36,1.79h0c.6.53,1.18,1.12,1.67,1.74.57.72,1.03,1.48,1.24,2.28.2.73.19,1.4-.05,2.07h0s-.73,2.1-.73,2.1v.02s0-.02,0-.02c-.34-.7-.8-1.38-1.34-2-.46-.54-.98-1.04-1.5-1.5-1.27-1.95-1.59-4.82-1.65-6.47ZM57.61,69.75c-1.05-.04-1.92-.4-2.64-1.1-1.87-1.8-2.29-5.3-2.37-7.21.67.42,1.54,1.01,2.38,1.71h0c.61.51,1.2,1.08,1.69,1.68.58.69,1.05,1.44,1.26,2.23.21.71.19,1.38-.04,2.05h0c-.08.23-.17.43-.28.64ZM67.6,66.87c-1.11,1.34-3.35,3.71-5.73,4.04-.96.14-1.83-.07-2.67-.65.04-.24.09-.46.17-.66.23-.66.63-1.21,1.23-1.64.63-.47,1.42-.78,2.25-.95.72-.16,1.45-.23,2.15-.25,1-.03,1.92.04,2.61.11ZM69.42,61.61c-.95,1.13-2.73,3.02-4.71,3.69-.64.03-1.3.09-1.96.21-.76.14-1.52.37-2.21.71,0,0-.01,0-.02.02v-.02s.73-2.07.73-2.07c.23-.66.63-1.2,1.22-1.62.63-.46,1.41-.75,2.23-.9.71-.14,1.44-.19,2.13-.19.99,0,1.9.09,2.58.18ZM66.56,59.95c-.63,0-1.29.05-1.94.16-.76.12-1.51.34-2.19.66,0,0-.01,0-.02.01v-.02s.73-2.07.73-2.07h0c.23-.67.63-1.19,1.21-1.6.63-.44,1.4-.71,2.21-.85.71-.12,1.43-.16,2.11-.14.98.02,1.89.14,2.56.25-.94,1.12-2.72,2.97-4.68,3.6Z"/>
      <path d="M1.93,56.33c.09.14,1.58,2.29,3.71,3.81-.85.12-1.41.25-1.47.27-.24.07-.42.23-.51.46-.09.23-.06.48.07.67.09.14,1.59,2.31,3.73,3.88-.86.09-1.42.21-1.49.23-.24.06-.42.22-.51.44-.09.23-.06.48.07.67.13.2,3.43,5.02,7.39,5.6.81.12,1.59.06,2.34-.17.37-.12.74-.29,1.1-.5l.97,2.8c.13.38.57.6.98.48s.63-.54.5-.93l-.98-2.82c.43-.04.83-.12,1.22-.24.79-.25,1.49-.68,2.12-1.27,3.2-3.04,2.93-9.48,2.91-9.75,0-.26-.16-.5-.41-.62-.25-.12-.53-.11-.8.02-.07.04-.68.37-1.53.92.89-2.91.75-5.9.74-6.08,0-.27-.16-.5-.41-.61-.24-.11-.53-.1-.79.04-.07.04-.68.39-1.51.97.87-2.96.73-5.97.71-6.15,0-.27-.16-.5-.4-.61-.24-.11-.52-.09-.78.06-.07.04-.67.41-1.5,1.02.85-3.01.7-6.04.68-6.22,0-.27-.16-.5-.4-.6-.24-.1-.52-.07-.78.08-.16.11-2.86,1.86-4.9,4.28-.82-3.86-5.07-6.7-5.26-6.84-.2-.13-.46-.14-.69-.02s-.41.36-.47.62c-.05.26-1.26,5.73.36,9.05-2.67-.15-5.24.64-5.4.68-.23.08-.41.26-.49.49-.09.24-.06.49.08.68.09.14,1.57,2.27,3.69,3.74-.84.14-1.4.29-1.46.31-.23.07-.41.24-.5.48-.09.23-.06.49.08.68ZM7.35,51.02c.51.13.99.35,1.41.63.03.03.07.04.09.08.53.39.9.87,1.11,1.5h0s.72,2.08.72,2.08v.02s0-.01,0-.01c-.68-.3-1.42-.5-2.17-.6-.65-.09-1.3-.12-1.92-.11-1.94-.58-3.71-2.4-4.64-3.5,1.32-.27,3.57-.58,5.41-.07ZM10.56,48.52c-.08.56-.3,1.11-.66,1.62-.04.06-.09.13-.13.19-.07-.01-.14-.02-.21-.04-.57-.1-1.04-.33-1.43-.67-.22-.18-.41-.39-.59-.64-1.33-1.92-1.06-5.4-.77-7.3,1.33,1.1,3.65,3.38,3.83,5.89.02.32,0,.63-.05.94ZM14.89,51c-.51.5-1.01,1.03-1.47,1.61-.52.66-.97,1.37-1.3,2.1,0,0,0,.01,0,.02v-.02s-.73-2.09-.73-2.09h0c-.22-.64-.24-1.28-.08-1.98,0-.04.02-.08.02-.13.13-.54.37-1.06.67-1.58,1.11-1.9,3.16-3.63,4.46-4.6-.05,1.68-.34,4.62-1.58,6.66ZM16.83,56.6c-.52.48-1.03,1-1.48,1.56-.53.64-.98,1.33-1.32,2.05,0,0,0,.01,0,.02v-.02s-.73-2.09-.73-2.09h0c-.23-.68-.25-1.36-.05-2.09.21-.81.66-1.59,1.22-2.33.48-.64,1.05-1.24,1.65-1.78h0c.82-.78,1.68-1.42,2.33-1.88-.06,1.67-.36,4.57-1.61,6.57ZM18.78,62.2c-.52.46-1.04.96-1.5,1.5-.53.62-1,1.29-1.34,2,0,0,0,.01,0,.02v-.02s-.73-2.09-.73-2.09h0c-.23-.68-.25-1.35-.05-2.08.21-.8.67-1.56,1.24-2.28.49-.62,1.07-1.21,1.67-1.73h0c.83-.75,1.7-1.36,2.36-1.8-.06,1.65-.38,4.52-1.65,6.47ZM17.11,69.11h0c-.23-.68-.24-1.35-.04-2.06.22-.78.68-1.53,1.26-2.23.49-.6,1.08-1.17,1.69-1.67h0c.84-.72,1.72-1.31,2.38-1.72-.08,1.9-.5,5.41-2.37,7.21-.72.71-1.59,1.06-2.64,1.1-.12-.21-.21-.41-.28-.63ZM10.01,66.76c.7.02,1.44.09,2.15.25.82.18,1.61.48,2.25.95.59.43,1,.98,1.23,1.64.07.21.13.43.17.66-.83.57-1.71.79-2.67.65-2.38-.33-4.62-2.7-5.73-4.04.68-.07,1.61-.14,2.61-.11ZM8.16,61.43c.69,0,1.42.05,2.13.19.82.16,1.6.45,2.23.9.59.42.99.96,1.22,1.62l.72,2.07v.02s0-.02,0-.02c-.69-.33-1.44-.56-2.21-.71-.66-.13-1.32-.19-1.96-.21-1.98-.67-3.76-2.56-4.71-3.69.68-.09,1.59-.19,2.58-.18ZM3.76,56.35c.67-.11,1.58-.23,2.56-.25.69-.02,1.41.01,2.11.14.81.14,1.59.41,2.21.85.58.41.98.93,1.21,1.59h0s.72,2.08.72,2.08v.02s0-.01,0-.01c-.68-.32-1.43-.53-2.19-.66-.65-.11-1.31-.15-1.94-.16-1.96-.62-3.73-2.48-4.68-3.6Z"/>
      <path d="M21.12,24.16c.07.26,1.29,4.41,3.86,7.89-1.39-.25-2.34-.33-2.45-.34-.4-.02-.77.15-1.03.46-.26.31-.34.73-.23,1.09.07.26,1.3,4.45,3.86,8.01-1.39-.29-2.35-.4-2.45-.41-.4-.03-.77.12-1.03.43-.26.31-.34.72-.23,1.09.1.39,2.8,9.64,8.71,12.59,1.21.6,2.46.92,3.76.93.64,0,1.31-.07,1.98-.21l.08,14.06c.01.67.58,1.24,1.29,1.26s1.27-.53,1.26-1.2l-.08-14.1c.69.15,1.37.24,2.04.25,1.36.01,2.69-.29,3.98-.91,6.59-3.13,9.48-13.37,9.58-13.81.12-.42,0-.86-.32-1.18-.33-.31-.78-.45-1.26-.38-.13.02-1.26.22-2.88.66,2.89-4.11,4.22-8.87,4.29-9.17.12-.42,0-.86-.32-1.17-.32-.31-.78-.43-1.26-.34-.13.03-1.26.26-2.88.74,2.89-4.2,4.21-8.99,4.28-9.29.12-.43,0-.86-.32-1.16-.32-.3-.78-.41-1.26-.31-.13.03-1.26.29-2.87.83,2.89-4.28,4.21-9.11,4.28-9.41.12-.43,0-.86-.32-1.15-.32-.29-.78-.38-1.26-.27-.32.09-5.45,1.44-9.89,4.2.7-6.48-4.51-13.13-4.74-13.44-.24-.31-.66-.45-1.08-.38s-.82.35-1.05.73c-.21.38-4.93,8.34-4.09,14.39-4.12-1.61-8.56-1.7-8.82-1.71-.4,0-.77.19-1.03.52-.26.33-.34.75-.23,1.11.07.26,1.29,4.37,3.86,7.77-1.39-.21-2.34-.26-2.45-.26-.4,0-.77.17-1.03.49-.26.32-.34.74-.23,1.1ZM32.37,18.62c.74.47,1.38,1.05,1.88,1.72.03.06.09.11.1.17.64.88.96,1.83.97,2.92v.02s.06,3.62.06,3.62v.03s-.02-.03-.02-.03c-.91-.82-1.97-1.51-3.09-2.06-.97-.48-1.97-.86-2.96-1.17-2.76-1.91-4.58-5.68-5.48-7.89,2.2.26,5.91.93,8.53,2.67ZM38.69,16.34c-.42.84-1.04,1.58-1.86,2.21-.1.08-.2.15-.3.23-.1-.05-.21-.11-.31-.16-.84-.45-1.47-1.05-1.9-1.78-.26-.39-.45-.83-.59-1.3-1.09-3.69,1.13-9.02,2.55-11.86,1.53,2.42,3.99,7.19,2.98,11.22-.13.51-.31.99-.56,1.45ZM44.21,22.47c-1.06.52-2.12,1.1-3.13,1.77-1.15.76-2.23,1.65-3.12,2.63,0,0-.02.02-.02.03v-.03s-.06-3.65-.06-3.65v-.02c-.02-1.1.27-2.12.89-3.13.02-.07.07-.12.1-.19.49-.78,1.14-1.47,1.87-2.13,2.72-2.42,6.82-4.07,9.37-4.92-.95,2.62-2.92,7.07-5.91,9.64ZM44.37,32.25c-1.06.48-2.13,1.03-3.13,1.68-1.16.73-2.23,1.58-3.13,2.54,0,0-.02.02-.02.03v-.03s-.06-3.65-.06-3.65v-.02c-.02-1.17.31-2.24.99-3.3.74-1.16,1.86-2.16,3.12-3.03,1.08-.76,2.3-1.41,3.5-1.95l.02-.02c1.68-.77,3.35-1.34,4.62-1.73-.95,2.59-2.92,6.98-5.91,9.47ZM44.54,42.05c-1.06.45-2.13.97-3.13,1.58-1.16.7-2.23,1.52-3.13,2.45,0,0-.02.02-.02.03v-.03s-.06-3.65-.06-3.65v-.02c-.02-1.17.31-2.24.99-3.27.74-1.14,1.86-2.11,3.12-2.93,1.08-.72,2.3-1.34,3.51-1.85l.02-.02c1.69-.72,3.36-1.24,4.62-1.59-.95,2.56-2.92,6.9-5.92,9.3ZM38.36,52.04v-.02c-.02-1.17.31-2.23,1-3.24.74-1.12,1.86-2.05,3.13-2.84,1.08-.69,2.3-1.28,3.51-1.75l.02-.02c1.69-.67,3.36-1.15,4.62-1.46-1.11,2.95-3.57,8.23-7.44,10.09-1.5.73-3.05.85-4.72.37-.08-.4-.12-.76-.12-1.14ZM28.43,44.69c1.09.39,2.21.87,3.25,1.5,1.2.7,2.28,1.59,3.04,2.65.71.99,1.06,2.05,1.08,3.21,0,.36-.02.74-.08,1.13-1.61.47-3.09.36-4.52-.35-3.57-1.75-5.86-6.62-6.92-9.29,1.11.23,2.59.6,4.15,1.17ZM28.28,35.37c1.09.36,2.21.81,3.25,1.4,1.2.67,2.28,1.52,3.04,2.56.71.97,1.06,2.01,1.08,3.17l.06,3.63v.03s-.02-.03-.02-.03c-.91-.88-1.97-1.63-3.1-2.25-.97-.54-1.98-.97-2.96-1.34-2.76-2.07-4.59-5.95-5.49-8.22,1.11.2,2.59.53,4.14,1.04ZM23.99,25.13c1.11.17,2.59.45,4.14.92,1.09.32,2.21.74,3.25,1.3,1.2.63,2.28,1.46,3.03,2.47.7.94,1.06,1.97,1.08,3.12v.02s.06,3.62.06,3.62v.03s-.02-.03-.02-.03c-.91-.85-1.97-1.57-3.1-2.16-.97-.51-1.97-.91-2.96-1.25-2.76-1.99-4.58-5.81-5.49-8.05Z"/>
    </g>
  </g>
</svg>