<?xml version="1.0" encoding="UTF-8"?>
<svg id="Calque_2" xmlns="http://www.w3.org/2000/svg" viewBox="0 0 75 62.7">
  <defs>
    <style>
      .cls-1 {
        fill: #1d1d1b;
      }
    </style>
  </defs>
  <g id="Calque_1-2" data-name="Calque_1">
    <g>
      <g>
        <path d="M24.74,0C1.22.47-1.16,8.87.37,25.19c.2,6.85,10.81,11.56,24.37,11.65,1.51-.01,2.98-.08,4.39-.21.11-.51.31-1.02.62-1.54.14-.24.28-.47.44-.7-14.46,1.75-32.29-3.44-27.52-17.69,10.4,9.01,33.74,9.01,44.13,0v8.2c.78-.1,1.56-.17,2.35-.2C50.58,8.7,48.03.46,24.74,0ZM24.74,21.03C.13,21.93-7.65,3.15,24.74,2.3c32.38.85,24.6,19.63,0,18.73Z"/>
        <path d="M.39,25.69h-.02v-.5c0,.16.01.33.02.5Z"/>
        <path d="M8.57,10.1c2.19-1,4.95.03,6.84-1.57.82-.9-.62-2.05-1.33-1.07.16-.09-.36.2-.23.14-.17.06-.35.1-.53.13-1.2-.26-8.44.76-4.75,2.37Z"/>
        <path d="M23.08,8.22l.02-.04-.12.43c.11-.25-.06,0-.08-.04,1.09,3.11,14.78,2.04,9.9-.53-3.6,3.59-10.97-3.95-11.36.63.23,1.07,1.87.62,1.64-.45Z"/>
        <path d="M18.09,15.39c.08.05,0,.42.04.22-.13.25.13-.19-.02.03.07-.06.07-.06-.01,0,.07-.04.08-.04.03-.02-.14,0,.29-.04.1-.02,5.44.88,7.32-2.49.55-1.67-3.95-.95-1.44,5.43-.7,1.46h0Z"/>
        <path d="M34.69,16.81c-.18-.75.7-1.32,1.11-1.29,4.13,2.14,7.5-6.25,1.58-1.35-3.99-2.49-5.97,5.79-2.69,2.65Z"/>
        <path d="M11.19,25.08c.14.44.31,1.39.34,1.58.34.97-.48,2.9.95,3.07,2.32-.3-.1-8.56-1.28-4.65Z"/>
        <path d="M21.65,26.45c.51.94.83,1.94,1.01,3.11-.02.16.1,1.49.9,1.35,2.69-.45-1.55-8.77-1.9-4.45Z"/>
        <path d="M36.32,28.54c-.52.31-1.02.66-1.51,1.02-.49-1.33-1.02-2.67-1.56-3.96.33-3.16,2.36.34,3.07,2.94Z"/>
      </g>
      <g>
        <path d="M74.73,55.07c-.43-.31-.98-.11-1.55-.29-2.71-.62-2.92-4.44-.54-5.49l.18-.07c1.2-.47,2.24.3,2.17-1.33,0-.25-.05-.47-.16-.66h0c.3-1.52.15-3.62-.2-4.91l-.04-.11c-1.22-1.83-2.55-2.33-4.95-4.55-4.77-4.03-11.76-9.95-14.07-11.87-.45-.37-.87-.63-1.45-.81-1.65-.24-3.33-.32-4.97-.25-.79.03-1.57.09-2.35.2-3.81.48-7.43,1.73-10.48,3.63-.52.31-1.02.66-1.51,1.02-1.84,1.36-3.42,2.99-4.62,4.84-.16.23-.3.46-.44.7-.31.52-.51,1.03-.62,1.54-.26,1.16-.14,2.33-.12,3.74.05,2.64.11,6.45.18,9.47.3,2.6-.79,6.09,1.9,6.68,2.48.37,11.75,1.74,21.05,3.12,6.96,1.03,12.29,1.82,18.25,2.7,2.07.26,4.04,1.11,4.37-1.32.22-1.22.39-2.92.06-4.3.26-.5.23-1.39-.09-1.65ZM33.53,33.86c.18-.26.4-.5.59-.71,2.7-2.93,7-4.93,11.65-5.77.99-.19,2.01-.32,3.02-.39,1-.07,2.01-.09,3-.06,2.94.16,4.36,2.57,6.82,4.36,3.1,2.62,8.44,7.09,10.98,9.3.84.79-1.26.11-4.06-.19-4.64-.66-15.08-2.13-18.75-2.65-.47-.05-.88-.14-1.27-.17v-.29c-.19-2.05-1.31-3.44-2.76-4.16-2.54-1.27-6.09-.47-7.29,2.55-.08.17-.15.34-.19.53-.3-.1-.61-.21-.89-.31-.55-.2-1.01-.42-1.13-.76-.19-.44,0-.88.29-1.29ZM40.53,40.71h-.19c-3.82.03-4.1-5.6-.27-5.94,3.89-.16,4.28,5.5.46,5.94ZM72.38,60.13c-.62.33-1.28-.05-2.06-.09-2.27-.33-6.14-.91-10.58-1.56-10.73-1.59-24.76-3.64-27.47-4.07-.39-.08-.58-.19-.68-.63-.25-3.11-.16-7.34-.28-11.22.16-2.05-.69-3.94,1.05-4.36.69-.1,1.78.12,2.74.11.53,5.52,8.15,6.19,10,1.47,5.8,1.01,21.33,3,26.34,3.8,1.59.22,1.17,1.88,1.38,3.27-1.48.31-2.84,1.27-3.55,2.59-1.84,2.98.42,7.2,3.59,7.69-.19,1.18-.06,2.51-.48,3.01Z"/>
        <path class="cls-1" d="M60.06,46.51c-.53-4.81-7.76-4.15-7.27.77.61,4.59,7.38,4.01,7.28-.57v-.2ZM56.59,48.48h-.18c-2.49-.06-1.99-3.81.41-3.25,1.78.42,1.54,3.07-.23,3.25Z"/>
        <path class="cls-1" d="M66.56,54.18c-.52-3.98-6.4-3.36-5.99.7.55,3.77,6.1,3.25,6.01-.51l-.02-.19ZM63.72,55.85h-.17c-2.09-.09-1.57-3.24.42-2.66,1.4.4,1.16,2.5-.25,2.66Z"/>
        <path class="cls-1" d="M44.71,49.36c-.45-4.25-6.8-4.07-6.88.29.08,4.66,6.96,4.47,6.9-.1l-.02-.19ZM42.5,50.66l-.1.11c-1.09,1.16-3.17-.05-2.61-1.61.94-2.28,4.12-.46,2.72,1.5Z"/>
        <path class="cls-1" d="M55.63,32.39c-.61-4.68-7.48-4.18-7.33.6.45,4.88,7.48,4.33,7.35-.43l-.02-.18ZM53.28,33.82l-.11.12c-1.87,1.74-4.22-1.42-1.94-2.67,1.58-.81,3.13,1.21,2.05,2.55Z"/>
      </g>
    </g>
  </g>
</svg>