<?xml version="1.0" encoding="UTF-8"?>
<svg id="Calque_2" xmlns="http://www.w3.org/2000/svg" version="1.1" viewBox="0 0 58.5 73.3">
  <!-- Generator: Adobe Illustrator 29.3.0, SVG Export Plug-In . SVG Version: 2.1.0 Build 146)  -->
  <path d="M16.5,15.7c-.5.1-1-.1-1.1-.6l-2.4-7.9c-.1-.5.1-1,.6-1.1.5-.2,1,.1,1.1.6l2.4,7.9c.1.5-.1,1-.6,1.2Z"/>
  <path d="M20.3,28.4c-.5.2-1-.1-1.1-.6l-2.4-7.9c-.2-.5.1-1,.6-1.2.5-.1,1,.1,1.2.6l2.3,7.9c.2.5-.1,1-.6,1.1Z"/>
  <path d="M41.8,24.6l-4.9,1.4c-.5.2-1-.1-1.1-.6-.2-.5.1-1,.6-1.1l4.8-1.5c.5-.2,1,.1,1.2.6.1.5-.1,1-.6,1.2Z"/>
  <path d="M25.8,15.6l-4.8,1.4c-.5.2-1-.1-1.2-.6-.1-.5.1-1,.6-1.1l4.8-1.5c.5-.1,1,.1,1.2.6.1.5-.1,1-.6,1.2Z"/>
  <path d="M29.6,28.2l-4.9,1.5c-.5.1-1-.1-1.1-.6-.1-.5.1-1,.6-1.2l4.8-1.5c.5-.1,1,.1,1.2.6.1.5-.1,1-.6,1.1Z"/>
  <path d="M13.6,19.2l-4.8,1.5c-.5.2-1-.1-1.1-.6-.2-.5.1-1,.6-1.2l4.8-1.4c.5-.1,1,.1,1.2.6.1.5-.1,1-.6,1.1Z"/>
  <path d="M17.4,31.9l-4.8,1.4c-.5.1-1-.1-1.1-.6-.2-.5.1-1,.6-1.1l4.8-1.5c.5-.2,1,.1,1.1.6.2.5-.1,1-.6,1.2Z"/>
  <path d="M32.6,24.7c-.5.1-1-.1-1.1-.6l-2.4-7.9c-.1-.5.1-1,.6-1.1.5-.1,1,.1,1.1.6l2.4,7.9c.1.5-.1,1-.6,1.1Z"/>
  <g>
    <path d="M40.2,52.2h0c0,0-3.2,6.3-3.2,6.3-.3.6-1.1.8-1.7.5l-6.2-3.5c-2-1.1-2.8-3.7-1.7-5.7.5-1,1.4-1.7,2.4-2,1-.3,2.1-.2,3.1.4h0s0,0,0,0c.5-1,1.4-1.7,2.4-2,1-.3,2.1-.2,3.1.4,2,1.1,2.8,3.7,1.7,5.7Z"/>
    <path d="M58.7,61l-1.4-4.6s0,0,0,0l-5.7-18.9-3-10s0,0,0,0v-.3c-.2-.4-.6-.7-1.1-.7l-3.1-10.3h-.5c-1.9-.6-3.5-2-4.4-3.9l-.4-.8-.8.5c-.5.3-1,.5-1.5.6-3,.9-5.2-.1-6.4-1.1-2-1.7-3.1-4.5-2.8-7.1v-.8c0,0-.7-.2-.7-.2-1.5-.3-2.9-1.2-3.9-2.5l-.4-.5L2.4,6.4C.8,6.9,0,8.6.4,10.1l8.4,28c-.4.2-.6.6-.4,1.1l.2.5,2.9,9.8s0,0,0,0l5.7,18.9,1.4,4.6c.2.5.7.8,1.2.6l38.4-11.5c.5-.1.8-.7.6-1.2ZM47.6,30.4l2,6.8-.7.2-5.7,1.7,3.8-7.8.5-1ZM41.1,39.3l-16.7-.4h-1.9s-7.3-.2-7.3-.2l6.6-2,1.8-.5,10.6-3.2,1.8-.5,10.1-3.1-4.9,10ZM2.2,9.6c-.2-.6.2-1.2.8-1.4L21.9,2.5c1.1,1.2,2.4,2,3.8,2.5,0,3,1.3,6.1,3.5,8,2.2,1.8,5.1,2.4,8.1,1.5.4-.1.7-.2,1.1-.4,1.1,1.8,2.8,3.1,4.7,3.8l2.8,9.3-10.6,3.2-.6-1.9c-.1-.5-.7-.8-1.2-.6-.5.1-.8.7-.6,1.2l.6,1.9-10.6,3.2-.6-1.9c-.1-.5-.7-.8-1.1-.6-.5.2-.8.7-.6,1.2l.6,1.9-10.6,3.2L2.2,9.6ZM10.6,40.4h.8s11.7.3,11.7.3h1.4s0,0,0,0l12.3.3-23.2,6.9-.7.2-2.3-7.8ZM18.6,67.1l-5.1-17.1.7-.2,35.3-10.6.7-.2,5.1,17.1-.7.2-35.3,10.6-.7.2ZM20,71.6l-.8-2.8.7-.2,35.3-10.6.7-.2.8,2.8-36.7,11Z"/>
  </g>
  <path d="M40.2,52.2h0c0,0-3.2,6.3-3.2,6.3-.3.6-1.1.8-1.7.5l-6.2-3.5c-2-1.1-2.8-3.7-1.7-5.7.5-1,1.4-1.7,2.4-2,1-.3,2.1-.2,3.1.4h0s0,0,0,0c.5-1,1.4-1.7,2.4-2,1-.3,2.1-.2,3.1.4,2,1.1,2.8,3.7,1.7,5.7Z"/>
  <path d="M40.2,52.2h0c0,0-3.2,6.3-3.2,6.3-.3.6-1.1.8-1.7.5l-6.2-3.5c-2-1.1-2.8-3.7-1.7-5.7.5-1,1.4-1.7,2.4-2,1-.3,2.1-.2,3.1.4h0s0,0,0,0c.5-1,1.4-1.7,2.4-2,1-.3,2.1-.2,3.1.4,2,1.1,2.8,3.7,1.7,5.7Z"/>
</svg>