<?xml version="1.0" encoding="UTF-8"?>
<svg id="Calque_2" xmlns="http://www.w3.org/2000/svg" viewBox="0 0 58.45 73.32">
  <defs>
    <style>
      .cls-1 {
        fill: #1d1d1b;
      }

      .cls-2 {
        fill: #fff;
      }
    </style>
  </defs>
  <g id="Calque_1-2" data-name="Calque_1">
    <g>
      <path class="cls-1" d="M57.03,58.6l-.45-1.49-6.16-20.57-2.4-8.02-.59-1.96-.11-.38-3.08-10.29-.5-.13c-1.88-.48-3.45-1.82-4.43-3.75l-.43-.85-.83.45c-.5.26-1,.47-1.54.63-3.05.92-5.16-.11-6.4-1.13-1.99-1.65-3.11-4.45-2.83-7.14l.09-.84-.83-.16c-1.53-.31-2.89-1.16-3.92-2.48l-.39-.49L2.13,6.02C.55,6.49-.35,8.16.12,9.74l8.4,28.05.15.49.51,1.72,2.44,8.16,6.17,20.57.44,1.49c.11.35.27.67.48.94.33.44.78.77,1.28.97.6.25,1.29.3,1.96.1l33.08-9.9c.67-.2,1.22-.63,1.58-1.17.32-.45.5-.97.52-1.52.04-.34,0-.69-.1-1.04ZM19.7,71.25l-.84-2.81.7-.21-.27-.89-.26-.89-.7.21-5.11-17.08.7-.21-.27-.88-.26-.89-.71.22-2.33-7.79.77.02-.27-.93-.04-.11-.12-.41-.14-.48-.12-.4-.15-.48L1.89,9.21c-.18-.6.16-1.24.77-1.42L21.58,2.12c1.06,1.18,2.36,2.02,3.82,2.46-.06,3.03,1.28,6.09,3.54,7.96,2.23,1.84,5.11,2.37,8.1,1.47.36-.11.72-.24,1.06-.38,1.14,1.83,2.76,3.14,4.67,3.77l2.78,9.28.11.39.15.49.12.39.15.5.36,1.2.39,1.3.47-.97,2.05,6.85-.7.21.26.89.27.88.7-.21,5.11,17.08-.7.21.27.88.26.9.71-.22.84,2.82-36.67,10.98Z"/>
      <path class="cls-1" d="M16.22,15.35c-.49.15-1.01-.13-1.15-.62l-2.36-7.87c-.14-.48.13-1,.62-1.14.49-.15,1,.13,1.15.61l2.35,7.87c.15.49-.13,1-.61,1.15Z"/>
      <path class="cls-1" d="M20,28c-.48.15-1-.13-1.14-.61l-2.36-7.87c-.15-.49.13-1,.62-1.15.49-.15,1,.13,1.15.62l2.35,7.87c.15.48-.13,1-.62,1.14Z"/>
      <path class="cls-1" d="M23.29,35.76l-1.76.53-.14-.45-.13-.43-.13-.45-.13-.44-.14-.45-.57-1.9c-.15-.48.13-1,.62-1.15.49-.14,1,.14,1.15.62l.57,1.9.13.45.13.44.14.44.13.44.13.45Z"/>
      <path class="cls-1" d="M24.23,40.37h-.01c-.1.13-.25.24-.43.29-.37.12-.77-.03-.99-.33-.07-.08-.12-.18-.15-.29l-.19-.64-.28-.93,1.93.05.28.93.02.06c.1.31.02.63-.18.86Z"/>
      <path class="cls-1" d="M41.51,24.17l-4.85,1.45c-.48.15-1-.13-1.14-.62-.15-.48.13-1,.62-1.14l4.84-1.45c.49-.15,1,.13,1.15.61.15.49-.13,1.01-.62,1.15Z"/>
      <path class="cls-1" d="M25.53,15.17l-4.85,1.45c-.49.15-1-.13-1.15-.62-.14-.49.13-1,.62-1.15l4.85-1.45c.49-.14,1,.13,1.15.62.14.49-.13,1-.62,1.15Z"/>
      <path class="cls-1" d="M29.32,27.82l-4.85,1.46c-.49.14-1-.14-1.15-.62-.14-.49.13-1.01.62-1.15l4.85-1.45c.49-.15,1,.13,1.15.62.14.48-.14,1-.62,1.14Z"/>
      <path class="cls-1" d="M13.33,18.82l-4.84,1.45c-.49.15-1.01-.13-1.15-.62-.15-.48.13-1,.62-1.15l4.84-1.45c.49-.14,1.01.13,1.15.62.15.49-.13,1.01-.62,1.15Z"/>
      <path class="cls-1" d="M17.12,31.48l-4.84,1.45c-.49.14-1.01-.13-1.15-.62-.15-.49.13-1,.62-1.15l4.84-1.45c.49-.15,1.01.13,1.15.62.15.49-.13,1-.62,1.15Z"/>
      <path class="cls-1" d="M32.35,24.31c-.49.14-1-.13-1.15-.62l-2.36-7.87c-.14-.49.13-1,.62-1.15.49-.14,1.01.13,1.15.62l2.36,7.87c.14.49-.13,1-.62,1.15Z"/>
      <path class="cls-1" d="M35.62,32.03l-1.76.53-.13-.41-.14-.47-.13-.42-.13-.46-.13-.42-.57-1.9c-.14-.49.13-1.01.62-1.15.49-.15,1.01.13,1.15.62l.57,1.9.12.41.14.47.13.41.14.48.12.41Z"/>
      <g>
        <path class="cls-2" d="M39.95,51.79l-.04.08-3.25,6.27c-.32.62-1.08.85-1.69.51l-6.24-3.5c-2.01-1.12-2.78-3.69-1.72-5.73.53-1.02,1.42-1.72,2.42-2.02,1.01-.3,2.13-.21,3.13.36l.08.04.04-.08c.53-1.02,1.42-1.72,2.43-2.02,1-.3,2.12-.2,3.13.36,2,1.12,2.77,3.69,1.71,5.73Z"/>
        <path class="cls-2" d="M57.13,59.64l-.73-2.45-.26-.89-5.65-18.85-.26-.88-2.33-7.79-.39-1.3h0s-.01-.01-.01-.01l-.11-.38-1.58.47-10.58,3.17-1.77.53-10.57,3.17-1.76.53-10.58,3.16-1.59.48.15.48.27.93,2.42,8.07.27.88,5.64,18.85.26.89.74,2.46.37,1.24.91-.27,36.62-10.97.9-.27-.38-1.25ZM24.11,38.52l-1.93-.05-7.29-.17,6.64-2.01,1.76-.53,10.57-3.2,1.76-.53,10.12-3.06-4.9,9.95-16.73-.4ZM49.35,36.83l-.7.21-5.67,1.7,3.85-7.79.47-.97,2.05,6.85ZM10.35,40.03l.77.02,11.68.28c.22.3.62.45.99.33.18-.05.33-.16.43-.29h.01l12.33.29-23.17,6.94-.71.22-2.33-7.79ZM13.22,49.58l.7-.21,35.26-10.56.7-.21,5.11,17.08-.7.21-35.26,10.56-.7.21-5.11-17.08ZM19.7,71.25l-.84-2.81.7-.21,35.26-10.56.71-.22.84,2.82-36.67,10.98Z"/>
        <path class="cls-1" d="M58.4,60.62l-1.36-4.56s-.01,0-.01-.02l-5.65-18.85-2.99-10.01s-.01-.02-.01-.03l-.1-.32c-.13-.43-.54-.7-.96-.65-.07,0-.13.01-.19.03l-1.58.47-10.58,3.17-1.77.53-10.57,3.16-1.77.53-10.58,3.17-1.58.47c-.07.02-.13.05-.18.08-.38.21-.57.65-.44,1.07l.15.5,2.94,9.83s.01.02.01.03l5.65,18.86,1.37,4.58c.15.49.66.77,1.15.62l38.43-11.51c.49-.14.77-.66.62-1.15ZM18.86,68.44l-.27-.89-.26-.89-5.11-17.08-.27-.88-.27-.88-2.33-7.79-.24-.81.34-.11h.02l.34-.1,10.58-3.17,1.77-.53,10.57-3.16,1.77-.53,10.58-3.17.7-.21.13.44h0s.39,1.3.39,1.3l2.05,6.85.27.88.26.89,5.11,17.08.27.88.27.89.84,2.82-36.67,10.98-.84-2.81Z"/>
      </g>
      <g>
        <path class="cls-2" d="M39.95,51.79l-.04.08-3.25,6.27c-.32.62-1.08.85-1.69.51l-6.24-3.5c-2.01-1.12-2.78-3.69-1.72-5.73.53-1.02,1.42-1.72,2.42-2.02,1.01-.3,2.13-.21,3.13.36l.08.04.04-.08c.53-1.02,1.42-1.72,2.43-2.02,1-.3,2.12-.2,3.13.36,2,1.12,2.77,3.69,1.71,5.73Z"/>
        <path class="cls-2" d="M50.5,37.45h-.01l-.87.26-.71.22-6.48,1.94-2.9.87-25.88,7.75-.7.21-.88.26,5.64,18.85.88-.26.7-.21,35.27-10.57.7-.21.88-.26-5.64-18.85ZM54.29,55.89l-35.26,10.56-.7.21-5.11-17.08.7-.21,35.26-10.56.7-.21,5.11,17.08-.7.21Z"/>
        <path class="cls-1" d="M57.04,56.06s-.01,0-.01-.02l-5.65-18.85c-.13-.43-.54-.7-.96-.65-.07,0-.13.01-.19.03l-.88.26-.7.21-5.67,1.7-1.2.36-2.37.71h0l-2.84.85-23.17,6.94-.71.22-.88.26c-.07.02-.13.05-.18.08-.37.19-.55.62-.45,1.03.01.01.01.02.01.03l5.65,18.86c.12.42.53.69.96.65.06,0,.12-.01.18-.03h.01l.88-.26.7-.21,35.26-10.56.71-.22.87-.26h0c.06-.02.12-.04.17-.08.38-.2.57-.63.46-1.05ZM49.18,38.81l.7-.21,5.11,17.08-.7.21-35.26,10.56-.7.21-5.11-17.08.7-.21,35.26-10.56Z"/>
      </g>
      <g>
        <path class="cls-2" d="M47.5,27.47l-1.57.48-10.57,3.19-1.77.54-10.56,3.19-1.77.54-10.57,3.19-1.58.48,1.34.03h.4s11.61.29,11.61.29l1.93.05,15.01.36h0l2,.05.37-.76,4.66-9.45.47-.96h0s.6-1.21.6-1.21h0s-.01-.01-.01-.01ZM40.84,38.92l-16.73-.4-1.93-.05-7.29-.17,6.64-2.01,1.76-.53,10.57-3.2,1.76-.53,10.12-3.06-4.9,9.95Z"/>
        <path class="cls-1" d="M48.39,27.18s-.01-.02-.01-.03c-.04-.1-.1-.19-.17-.27-.17-.21-.43-.33-.7-.33-.03,0-.05,0-.08,0-.06,0-.13.01-.19.03l-1.58.48-10.57,3.19-1.76.54-10.57,3.19-1.76.53-10.57,3.2-1.59.48c-.06.02-.12.04-.17.08-.33.17-.53.54-.48.92.01.06.02.11.04.16.12.37.46.63.86.64h.29s.97.03.97.03l.77.02,11.68.28,1.42.04h.01l12.33.29,2.97.08,1.85.04c.1,0,.2-.01.29-.04.24-.07.45-.24.56-.47l.2-.4.55-1.13,3.85-7.79.47-.97.6-1.2.12-.26.32-.64c.11-.22.12-.47.05-.7ZM24.11,38.52l-1.93-.05-7.29-.17,6.64-2.01,1.76-.53,10.57-3.2,1.76-.53,10.12-3.06-4.9,9.95-16.73-.4Z"/>
      </g>
      <path class="cls-1" d="M39.95,51.79l-.04.08-3.25,6.27c-.32.62-1.08.85-1.69.51l-6.24-3.5c-2.01-1.12-2.78-3.69-1.72-5.73.53-1.02,1.42-1.72,2.42-2.02,1.01-.3,2.13-.21,3.13.36l.08.04.04-.08c.53-1.02,1.42-1.72,2.43-2.02,1-.3,2.12-.2,3.13.36,2,1.12,2.77,3.69,1.71,5.73Z"/>
    </g>
  </g>
</svg>