<?xml version="1.0" encoding="UTF-8"?>
<svg id="Calque_2" xmlns="http://www.w3.org/2000/svg" viewBox="0 0 63.95 75">
  <defs>
    <style>
      .cls-1 {
        stroke: #000;
        stroke-miterlimit: 10;
        stroke-width: .25px;
      }

      .cls-1, .cls-2, .cls-3 {
        fill: #000;
      }

      .cls-2 {
        fill-rule: evenodd;
      }
    </style>
  </defs>
  <g id="Calque_1-2" data-name="Calque_1">
    <g>
      <path class="cls-2" d="M28.81,16.64c-.1.96-.12,1.98-.13,3.02.02.09.02.19,0,.28,0,1.24.02,2.49-.04,3.69-.1,2.15-.42,4.13-1.34,5.57-.02.04-.05.08-.07.11-.16.24-.34.47-.54.68-2.66,2.8-5.29,4.03-7.77,4.3-5.68.62-10.61-3.92-13.33-6.57-1.93-1.88-4.26-5.55-5.19-9.67C-.53,13.86-.03,9.23,3.69,5.51c2-2,4.53-3.4,7.23-4.29.05-.02.11-.04.16-.05.93-.3,1.88-.54,2.84-.72.05-.01.1-.02.15-.03C16.29.02,18.54-.08,20.63.07c3.87.28,7.2,1.45,8.9,3.1.97.95,1.62,1.83,1.88,2.97.36,1.6-.09,3.76-1.85,7.49-.37.79-.58,1.71-.71,2.71,0,.1,0,.2-.03.3h0ZM13.74,1.98c-.49.1-.98.22-1.47.36,3.55,6.94,8.54,12.35,14.99,16.2.02-.6.05-1.18.1-1.75-5.7-3.7-10.24-8.64-13.62-14.81h0ZM27.57,15.17c.15-.79.36-1.52.66-2.17,1.54-3.28,2.06-5.14,1.74-6.54-.19-.87-.73-1.52-1.47-2.24-1.52-1.48-4.52-2.44-7.98-2.69-1.68-.12-3.47-.07-5.26.18,3.12,5.53,7.21,10.03,12.31,13.46h0ZM26.35,27.94c.28-.57.46-1.22.59-1.92.24-1.29.28-2.76.29-4.25,0-.51,0-1.03,0-1.55-7.11-4.06-12.56-9.88-16.38-17.44-2.29.82-4.41,2.05-6.13,3.76-.03.03-.06.06-.09.09,4.48,10.03,11.7,17.16,21.71,21.3h0ZM3.59,7.87c-.54.73-.97,1.5-1.29,2.28,4.51,9.66,11.64,16.54,21.43,20.57.58-.44,1.16-.96,1.74-1.56C15.47,24.94,8.2,17.82,3.59,7.87h0ZM1.68,12.22c-.35,1.84-.24,3.72.16,5.51.85,3.8,2.99,7.2,4.78,8.94,1.27,1.24,3.05,2.94,5.18,4.26,2.04,1.26,4.42,2.18,6.97,1.9,1.13-.12,2.3-.48,3.49-1.15C13.07,27.68,6.23,21.17,1.68,12.22h0Z"/>
      <g>
        <path class="cls-3" d="M38.23,7.53l-.92,3.18-1.49-.5c-1.46-.49-3.04.3-3.53,1.76-.17.51-.19,1.06-.05,1.59l2.32,8.88c.04.15.09.3.14.45,0,.06,0,.12.02.18l2.1,8.04c.25.93.98,1.64,1.91,1.86,1.01.26,2.08-.04,2.8-.79l1.05-1.09,2.43,2.31c1.16,1.12,2.74,1.67,4.35,1.52.84-.08,1.69-.23,2.52-.45,4.3-1.13,7.98-4.01,10.11-7.91,2.14-3.91,2.56-8.57,1.15-12.8-.59-1.79-1.47-3.43-2.6-4.87-1.45-1.86-3.31-3.39-5.48-4.48-3.85-1.94-8.23-2.26-12.33-.91-.5.17-.99.36-1.46.56-1.48.65-2.58,1.92-3.03,3.47ZM35.08,18.25l-1.33-5.09c-.17-.65.22-1.31.86-1.48.23-.06.47-.05.7.02l1.55.52-1.78,6.03ZM41.9,5.5c1.2-.53,2.47-.89,3.76-1.09,6.99-.99,13.71,3.15,15.97,9.84.1.32.19.61.27.92,2.02,7.78-2.66,15.75-10.43,17.78-.74.2-1.5.34-2.27.42-1.15.11-2.28-.29-3.12-1.09l-9.16-8.76c-.86-.82-1.17-2.02-.84-3.15l3.65-12.39c.32-1.11,1.11-2.01,2.16-2.47ZM40.4,31.12c-.34.33-.83.46-1.3.33-.24-.05-.45-.19-.59-.38-.09-.11-.15-.24-.19-.38l-1.27-4.88,4.39,4.19-1.04,1.11Z"/>
        <path class="cls-3" d="M39.62,16.3c.03.1.07.2.13.28,0,0,0,.01.01.01.13.16.31.27.51.29.21.03.41-.03.6-.17l10.44-8.25c.17-.13.27-.32.29-.52.02-.21-.03-.41-.16-.57h0c-.13-.17-.32-.27-.52-.3-.21-.02-.41.03-.58.16l-10.45,8.25c-.24.19-.35.51-.27.82Z"/>
        <path class="cls-3" d="M41.16,18.68l.03.1c.17.4.62.59,1.03.43l15.23-6.27c.4-.17.6-.63.43-1.03-.03-.07-.06-.13-.11-.19-.08-.11-.19-.19-.32-.24-.2-.08-.41-.08-.6,0l-15.22,6.27c-.36.15-.56.55-.46.93Z"/>
        <path class="cls-3" d="M42.21,24.21c-.17.12-.29.3-.33.52-.02.11-.01.22.01.33.08.3.33.53.64.58l13.16,2.09c.41.07.79-.2.89-.6v-.05c.05-.22-.01-.44-.14-.61-.12-.15-.29-.26-.5-.3l-13.14-2.09c-.21-.04-.41,0-.59.13Z"/>
        <path class="cls-3" d="M42.07,22.14l.02.06c.1.38.47.63.86.58l16.35-1.97c.21-.02.39-.13.52-.29.12-.16.18-.35.16-.54h0s0-.03,0-.03v-.08s-.01,0-.01,0c-.03-.12-.08-.22-.15-.31-.16-.21-.43-.33-.71-.3l-16.35,1.96c-.43.05-.74.45-.68.91Z"/>
      </g>
      <path class="cls-1" d="M34.08,53.2c-.54-3.31-1.7-6.88-3.44-10.6l-.31-5.17c-.09-1.52-1.2-2.79-2.7-3.09-1.68-.33-3.34.65-3.85,2.29l-.5,1.61-12.21,2.6c-2,.42-3.65,1.72-4.53,3.56-.88,1.84-.85,3.96.07,5.77l1.76,3.48-.51,5.45s0,0,0,.01l-.45,4.84s0,.02,0,.03l-.57,6.07c-.01.1,0,.19.05.28.04.09.1.16.18.21.16.11.37.13.54.04l14.96-7.29,2.43.08c2.69.08,5.25-1.02,7.04-3.05,1.73-1.97,2.48-4.57,2.06-7.12ZM24.79,36.96c.35-1.12,1.48-1.78,2.62-1.56.73.14,1.32.62,1.62,1.26h0c.12.26.19.54.21.84l.3,4.97c-6.25,4.04-9.26,8.91-9,14.54-.73-1.83-.82-3.86-.23-5.75l4.47-14.3ZM17.7,64.47l-8.75-5.61.39-4.2c4.01,3.62,7.9,6.29,11.83,8.12l-3.47,1.69ZM13.14,66.69l-4.64-2.97.34-3.66,7.73,4.96-3.43,1.67ZM7.56,49.69c-.78-1.52-.79-3.28-.06-4.81.73-1.54,2.11-2.62,3.78-2.98l11.62-2.47-3.6,11.51c-.69,2.21-.57,4.59.35,6.71l1.74,4.04c-3.99-1.89-7.95-4.68-12.06-8.5l-1.77-3.5ZM8.38,64.93l3.62,2.32-4.02,1.96.4-4.28ZM31.21,59.62c-1.57,1.78-3.82,2.76-6.19,2.69l-2.21-.07c-2.91-7.52-.59-13.64,7.06-18.68,1.57,3.45,2.64,6.76,3.15,9.83.37,2.24-.29,4.51-1.81,6.24Z"/>
      <g>
        <path class="cls-3" d="M37.76,62.75c1.17-.22,2.35.37,2.86,1.48l2.84,6.04c.32.69.32,1.48.02,2.18-.31.7-.91,1.22-1.63,1.45-1.24.38-2.58.73-3.98,1.03-1.57.33-3.17-.49-3.8-1.97-.94-2.21-1.31-4.48-1.1-6.76.14-1.53,1.31-2.77,2.83-3.01.58-.09,1.16-.22,1.71-.38.08-.02.16-.04.25-.06h0ZM36.56,64.61c-.17.03-.36.06-.54.1-.83.13-1.47.81-1.54,1.64-.19,2.02.15,4.04.99,6.02.35.8,1.22,1.26,2.07,1.08,1.35-.29,2.64-.62,3.84-.99.31-.1.55-.32.68-.61.13-.29.13-.62-.01-.91l-2.82-6.05c-.23-.49-.78-.75-1.3-.59-.44.13-.9.24-1.37.33h0Z"/>
        <path class="cls-3" d="M43.61,59.33c.58-.11,1.2-.02,1.73.29l7.14,4.11c.55.32.93.86,1.06,1.47.12.61-.02,1.26-.41,1.75-1.69,2.2-4.21,4.06-7.5,5.52-1.3.58-2.85,0-3.45-1.29l-2.91-6.23c-.57-1.22-.13-2.67,1.02-3.36.73-.44,1.4-.96,1.97-1.54.38-.38.85-.62,1.35-.72h0ZM41.09,62.91c-.48.29-.67.89-.42,1.41l2.91,6.23c.25.54.9.79,1.44.54,3.05-1.36,5.37-3.07,6.91-5.06.15-.2.14-.42.12-.53-.04-.19-.15-.35-.32-.45l-7.14-4.11c-.39-.23-.9-.16-1.23.18-.66.68-1.43,1.27-2.27,1.78h0Z"/>
        <path class="cls-3" d="M46.42,53.36c.17-.03.35-.04.52-.03l6.03.33c.92.05,1.71.67,1.98,1.55.96,3.17.92,6.11-.11,8.74-.24.6-.72,1.06-1.32,1.27s-1.27.15-1.82-.17l-6.83-3.93c-1.16-.67-1.6-2.13-1.01-3.33.4-.81.66-1.68.79-2.59.13-.94.87-1.68,1.77-1.85h0ZM52.93,63.8s.07-.02.1-.03c.11-.04.3-.14.39-.38.9-2.31.92-4.92.07-7.74-.08-.26-.32-.45-.6-.46l-6.03-.33c-.34-.02-.64.23-.69.56-.15,1.07-.46,2.1-.93,3.06-.24.48-.06,1.06.4,1.33l6.83,3.93c.18.1.33.1.45.08h0Z"/>
        <path class="cls-3" d="M43.29,35.3c.73-.14,1.45.17,1.84.82,1.64,2.64,2.61,5.08,2.98,7.46.04.26.16.51.34.71,2.27,2.63,4.02,5.2,5.22,7.66.35.71.3,1.52-.14,2.17-.44.65-1.16,1.02-1.95.97l-4.86-.27c-1.06-.06-1.92-.87-2.05-1.93-.18-1.47-.69-2.98-1.54-4.48-.16-.28-.41-.51-.71-.63-2.42-.98-5.01-2.33-7.92-4.12-.73-.45-1.03-1.3-.75-2.11s1.05-1.29,1.9-1.18l5.95.73.23-4.16c.05-.79.57-1.44,1.34-1.63.04-.01.07-.02.11-.03h0ZM35.47,41.91c-.14-.02-.22.04-.27.17-.05.13,0,.23.1.3,2.84,1.75,5.36,3.06,7.7,4.01.61.25,1.14.71,1.47,1.3.94,1.67,1.53,3.37,1.72,5.05.04.31.29.56.61.58l4.86.27c.34.02.52-.2.59-.29.06-.09.2-.35.04-.66-1.14-2.34-2.83-4.8-5.01-7.33-.36-.42-.6-.93-.69-1.48-.33-2.17-1.24-4.43-2.77-6.9-.08-.14-.19-.14-.28-.12-.08.02-.18.08-.19.23l-.32,5.8-7.58-.93Z"/>
      </g>
    </g>
  </g>
</svg>