<?xml version="1.0" encoding="UTF-8"?>
<svg id="Calque_2" xmlns="http://www.w3.org/2000/svg" viewBox="0 0 70.63 75.77">
  <defs>
    <style>
      .cls-1 {
        stroke: #000;
        stroke-miterlimit: 10;
        stroke-width: .5px;
      }

      .cls-2 {
        fill: none;
      }
    </style>
  </defs>
  <g id="Calque_1-2" data-name="Calque_1">
    <g>
      <path class="cls-2" d="M44.36,48.47h21.69c.14-3.05.27-6.07.4-9.08h-22.09v9.08Z"/>
      <path class="cls-2" d="M44.36,69.11h19.23c1.14,0,1.59-.46,1.63-1.6.1-2.5.21-5,.32-7.5.01-.32.04-.65.06-.99-7.09,4.29-14.16,5.01-21.24,2.21v7.88Z"/>
      <path class="cls-2" d="M3.35,69.95c0,.69.31,1.3.78,1.66-.47-.36-.77-.97-.77-1.66V24.81s12.61,0,12.61,0v47.16H5.13c-.24,0-.48-.06-.69-.16.21.1.45.16.69.16h10.84V24.81H3.34v45.14Z"/>
      <polygon class="cls-2" points="9.69 14.35 14.22 21 14.23 21 9.69 14.35 5.15 21 5.15 21 9.69 14.35"/>
      <path class="cls-2" d="M44.73,72.04c5.35.02,10.71.01,16.06.01.16,0,.32,0,.47-.02.7-.1.99-.41,1.07-1.17h-18.04c-.05.37-.13.73-.24,1.07.22.06.46.11.68.11Z"/>
      <path class="cls-2" d="M55.98,60.87c3.48-.51,6.62-1.85,9.43-3.97.15-.11.27-.37.28-.57.08-1.09.14-2.18.17-3.28.03-.92,0-1.85,0-2.79h-21.5v9.08c3.6,1.6,7.47,2.13,11.62,1.53Z"/>
      <polygon class="cls-2" points="13.11 13.15 13.79 14.14 13.11 13.15 13.11 13.15"/>
      <polygon class="cls-2" points="33.95 13.15 33.95 13.15 36.28 16.57 33.95 13.15"/>
      <polygon class="cls-2" points="5.15 21 14.22 21 9.69 14.35 5.15 21"/>
      <rect class="cls-2" x="11.37" y="3.81" width="21.72" height="5.52"/>
      <polygon class="cls-2" points="39.3 21 36.28 16.57 33.95 13.15 13.11 13.15 13.79 14.14 18.47 21 39.3 21"/>
      <path class="cls-2" d="M15.97,71.97V24.81H3.34v45.14c.01.69.32,1.3.78,1.66.1.08.2.14.31.2.21.1.44.16.69.16h10.84Z"/>
      <path d="M44.33,22.37l-7.88-11.78V1.9c-.01-1.05-.76-1.9-1.68-1.9H9.69c-.92,0-1.68.85-1.68,1.9v8.69L.61,21.44c-.39.36-.61.9-.61,1.47v47.04c0,3.21,2.3,5.82,5.13,5.82h32.54c-1.47-.53-2.7-1.94-3.32-3.81h-15.03V24.81h21.73v8.64h3.31v-10.59l-.03-.49ZM11.37,3.81h21.72v5.52H11.37V3.81ZM9.69,14.35l4.54,6.65H5.15l4.54-6.65ZM15.97,71.97H5.13c-.25,0-.48-.06-.69-.16-.11-.06-.22-.12-.31-.2-.47-.36-.78-.97-.78-1.66V24.81s12.62,0,12.62,0v47.16ZM18.47,21l-4.68-6.86-.68-.99h20.84l2.33,3.42,3.02,4.43h-20.83Z"/>
      <rect x="5.15" y="21" width="9.07" height="0"/>
      <polygon points="36.28 16.57 39.3 21 18.47 21 13.79 14.14 18.47 21 39.3 21 36.28 16.57"/>
      <rect x="13.11" y="13.14" width="20.84" height="0"/>
      <path d="M4.44,71.81c-.11-.05-.21-.12-.31-.2.1.08.2.14.31.2Z"/>
      <path d="M44.36,50.26v9.09c-1.13-.5-2.23-1.11-3.31-1.83v-7.26h3.31Z"/>
      <path d="M44.36,61.23v7.81c-.08-.07-.18-.15-.21-.19-.14-.13-.27-.27-.4-.41-.13-.14-.24-.28-.36-.43-.24-.31-.46-.63-.68-.95-.5-.71-1.04-1.42-1.66-2.01v-5.39c1.1.61,2.21,1.13,3.31,1.57Z"/>
      <rect x="41.05" y="42.33" width="3.31" height="6.14"/>
      <path d="M43.23,73.59c-.94,1.33-2.38,2.18-3.99,2.18h-1.57c-1.47-.53-2.7-1.94-3.32-3.81h4.93c.71,0,1.33-.49,1.61-1.19.14.04.28.07.43.09.17.52.26.98.46,1.41.3.66.83,1.04,1.45,1.32Z"/>
      <path d="M44.36,69.04v.07h-2.44c-.36,0-.64-.05-.87-.15v-3.91c.62.59,1.16,1.3,1.66,2.01.22.32.44.64.68.95.12.15.23.29.36.43.13.14.26.28.4.41.03.04.13.12.21.19Z"/>
      <path d="M43.66,71.78c.11.07.25.11.39.15.11-.34.19-.7.24-1.07h-1.24c.23.37.35.75.61.92Z"/>
      <rect x="41.05" y="33.45" width="3.31" height="4.13"/>
      <rect x="41.05" y="39.39" width="3.31" height="2.94"/>
      <polygon points="70.38 34.78 70.4 34.8 70.4 34.78 70.38 34.78"/>
      <path class="cls-1" d="M69.35,37.58h-24.99v1.81h22.09c-.13,3.01-.26,6.03-.4,9.08h-21.69v1.79h21.5c0,.94.03,1.87,0,2.79-.03,1.1-.09,2.19-.17,3.28-.01.2-.13.46-.28.57-2.81,2.12-5.95,3.46-9.43,3.97-4.14.6-8.01.07-11.62-1.53v1.88c7.08,2.8,14.15,2.09,21.24-2.21-.02.34-.05.67-.06.99-.11,2.5-.22,5-.32,7.5-.04,1.14-.49,1.6-1.63,1.6h-19.23v.84c0,.31-.03.61-.07.91h18.04c-.08.76-.37,1.07-1.07,1.17-.15.02-.31.02-.47.02-5.35,0-10.71.01-16.06-.01-.22,0-.46-.04-.68-.11-.19.6-.47,1.16-.82,1.65.16.07.33.14.5.21h18.07c.85-.3,1.62-.73,2-1.61.17-.41.26-.86.39-1.31,1.82-.27,2.74-1.6,2.79-3.16.07-2.58.21-5.15.33-7.73.1-2.42.2-4.84.31-7.26.15-3.4.3-6.8.45-10.21.05-1.04.1-2.08.15-3.16h.95s0,0,.23-.01c.6-.02.98-.39.98-.88,0-.52-.4-.86-1.03-.88Z"/>
      <path class="cls-1" d="M69.59,39.35h-.42c.14,0,1.13,0,.42,0Z"/>
      <path d="M44.36,59.35v1.88c-1.1-.44-2.21-.96-3.31-1.57v-2.14c1.08.72,2.18,1.33,3.31,1.83Z"/>
      <rect x="41.05" y="48.47" width="3.31" height="1.79"/>
      <path d="M44.36,69.11v.84c0,.31-.03.61-.07.91h-1.24c.23.37.35.75.61.92.11.07.25.11.39.16-.2.6-.47,1.15-.82,1.65-.62-.28-1.15-.66-1.45-1.32-.2-.43-.29-.89-.46-1.41-.15-.02-.29-.05-.43-.09.1-.25.16-.53.16-.82v-.99c.23.1.51.15.87.15h2.44Z"/>
      <rect x="41.05" y="37.58" width="3.31" height="1.81"/>
    </g>
  </g>
</svg>