<?xml version="1.0" encoding="UTF-8"?><svg id="Calque_1" xmlns="http://www.w3.org/2000/svg" viewBox="0 0 24 24"><defs><style>.cls-1{fill-rule:evenodd;}</style></defs><path class="cls-1" d="M21.61,11.1h-7.6l-3.1,3.11v-2.43c-.06-1.38-.28-2.72-.65-4.01-.33-1.18-.8-2.31-1.4-3.41h.09c.2,0,.39-.09.52-.24.13-.14.21-.34.21-.55v-1.19c0-.22-.09-.42-.21-.56-.13-.14-.32-.24-.52-.24h-4.71c-.19,0-.38.09-.51.24s-.21.34-.21.55v1.19c0,.22.08.42.21.56s.31.22.5.24c-.51.99-.93,2.1-1.27,3.3-.34,1.26-.57,2.64-.68,4.12v8.64s0,.03.01.04c.08.58.26,1.05.56,1.4.3.35.72.55,1.26.57h5.04c.55-.08.95-.32,1.24-.67h5.57l5.77-5.76v-4.77l-.11-.11ZM14.23,11.62h6.52l-.5.5v-.07h-6.44l.42-.43ZM10.91,14.96l2.43-2.45h6.53l-2.99,3.01h-5.97v-.56ZM10.91,17.28h4.4c-.39.49-.98,2.05-1.56,2.2-.41.1-2.21.09-2.84.04v-2.24ZM4.12,3.7s-.06-.08-.06-.13v-1.19c0-.06.03-.11.06-.14.03-.04.08-.06.12-.06h4.71c.05,0,.1.02.13.06.03.03.05.08.05.13v1.2c0,.05-.02.1-.05.13-.04.04-.08.06-.13.06h-4.71s-.09-.02-.12-.06ZM2.82,11.81c.11-1.44.34-2.77.67-4,.33-1.23.77-2.34,1.29-3.33l3.51-.03c.62,1.12,1.11,2.29,1.46,3.48.36,1.25.56,2.52.62,3.84v1.43H2.82v-1.4ZM9.08,21.83h-4.96c-.39-.02-.68-.15-.89-.39-.21-.25-.35-.6-.41-1.05v-3.64h7.54v3.34c-.02.47-.12.86-.31,1.13,0,.02-.02.04-.03.06-.15.2-.36.37-.62.46-.1.03-.2.06-.33.08ZM10.69,21.22c.13-.32.2-.68.22-1.1v-.05c.97.11,2.55.1,3.07-.07.18-.06.31-.2.48-.27l.86,1.49h-4.63ZM15.54,20.41l-.72-1.15.72-1.23v2.38ZM15.73,16.69h-4.81v-.69h5.5l-.68.69ZM21.2,15.76l-5.07,5.03v-3.69l5.07-5.03v3.69Z"/><path d="M16.52,13.74c-.1-.39-.4-.64-.76-.66-.54-.04-1.08-.05-1.62-.08-.53.01-.83.64-.71,1.19.04.2.14.38.29.52h-.04s-.04.06-.05.09v.04c0,.05.04.09.08.1l2.05.1s.08-.04.09-.08v-.07s-.03-.07-.07-.08c-.3-.06-.52-.33-.57-.66,0-.05-.01-.1-.01-.15.08,0,.15.01.22.01.33.01.64.02.97.02.05,0,.11.02.14-.05.03-.05,0-.16-.02-.22ZM13.64,14.22c-.16-.47.08-1.08.58-1.02-.37.39-.37,1.1-.01,1.49l.03.03c-.28,0-.51-.22-.6-.5ZM14.43,14.63c-.37-.29-.42-1.01-.05-1.32.12-.09.25-.1.39-.08-.37.38-.37,1.1-.02,1.49l.03.03c-.12-.01-.25-.04-.35-.12ZM15.03,14.15c.03.25.14.47.31.63-.14-.01-.27-.04-.38-.12-.36-.29-.41-1.02-.04-1.32.13-.11.27-.1.42-.09-.11.12-.2.28-.26.45-.05.15-.07.29-.05.45ZM15.24,13.78c.05-.22.21-.44.43-.49.3-.08.59.21.66.53l-1.09-.04Z"/></svg>