<?xml version="1.0" encoding="UTF-8"?>
<svg id="Calque_2" xmlns="http://www.w3.org/2000/svg" viewBox="0 0 74.22 68.49">
  <defs>
    <style>
      .cls-1 {
        fill: #000;
      }
    </style>
  </defs>
  <g id="Calque_1-2" data-name="Calque_1">
    <g>
      <path class="cls-1" d="M36.99,39.53c-.06-.28-.14-.56-.22-.83-.17-.6-.35-1.18-.55-1.75-2.99-8.77-9.13-15.23-15.78-17.31-.65-.2-1.31-.36-1.96-.48-2.11-.38-4.24-.31-6.31.28C2.38,22.2-2.5,35.34,1.27,48.72c3.78,13.38,14.81,22.02,24.6,19.26,3.21-.91,5.89-2.93,7.92-5.72.43-.59.83-1.22,1.21-1.88,1.75-3.13,2.8-6.95,3.01-11.1.04-.7.05-1.42.03-2.14-.04-2.48-.38-5.04-1.05-7.61ZM35.96,49.76c-.21,3.04-.91,5.87-2.03,8.3-.37.81-.79,1.57-1.26,2.28-1.81,2.8-4.31,4.82-7.35,5.68-8.7,2.46-18.62-5.55-22.09-17.85-3.47-12.31.79-24.32,9.49-26.78,1.73-.49,3.51-.56,5.27-.27.66.11,1.32.27,1.98.48,6.39,2.03,12.31,8.7,14.84,17.63t.01.02c.28,1.02.52,2.04.7,3.05.33,1.83.5,3.64.51,5.39,0,.7-.02,1.39-.07,2.07Z"/>
      <path class="cls-1" d="M74.13,40.95c-.5,5.83-3.16,11.83-7.52,16.89-2.12,2.48-4.49,4.54-6.98,6.17s-5.1,2.83-7.69,3.56c-5.86,1.66-11.65.92-15.75-2.61-.92-.8-1.73-1.7-2.4-2.7.43-.59.83-1.22,1.21-1.88.66,1.15,1.51,2.18,2.51,3.04,6.87,5.9,19.23,2.8,27.57-6.9,4.06-4.75,6.56-10.34,7.02-15.74.45-5.27-1.1-9.73-4.38-12.55-3.28-2.81-7.92-3.67-13.07-2.43-.03,0-.06.02-.09.03-.24.06-.48.12-.72.19-.47.13-.94.28-1.41.46-4.48,1.57-8.77,4.59-12.26,8.66-1.2,1.39-2.27,2.86-3.18,4.39-.06-.28-.14-.56-.22-.83-.17-.6-.35-1.18-.55-1.75.74-1.08,1.54-2.13,2.4-3.14,3.97-4.62,8.92-7.97,14.07-9.56.49-.16.98-.3,1.48-.42.19-.05.38-.09.57-.12,5.58-1.22,10.63-.16,14.3,2.98,3.79,3.26,5.6,8.32,5.09,14.26Z"/>
      <path class="cls-1" d="M4.73,43.82c-.09.02-.18.04-.27.04-.56,0-1.02-.45-1.02-1.01-.02-8.65,2.54-17.86,7.33-17.87.56,0,1.02.45,1.02,1.01,0,.56-.46,1.02-1.01,1.02-2.52,0-5.33,6.51-5.31,15.83,0,.47-.31.86-.74.98Z"/>
      <path class="cls-1" d="M41.16.29c-9.44-1.96-19.28,6.38-22.68,18.87.65.12,1.31.28,1.96.48C23.58,8.21,32.38.54,40.75,2.28c7.89,1.64,12.79,11.09,11.94,21.97.49-.16.98-.3,1.48-.42.19-.05.38-.09.57-.12.66-11.6-4.86-21.61-13.58-23.42Z"/>
      <path class="cls-1" d="M23.3,18.47c-.09-.02-.18-.05-.26-.09-.5-.26-.69-.87-.43-1.37,3.98-7.68,10.5-14.66,14.76-12.46.5.26.69.87.43,1.37-.26.5-.88.69-1.37.43-2.24-1.16-7.73,3.31-12.02,11.59-.21.41-.67.62-1.11.53Z"/>
      <path class="cls-1" d="M67.01,32.1c-.48.13-.99-.1-1.2-.56-1.03-2.31-8.11-2.23-16.62,1.57-.51.23-1.11,0-1.34-.51-.23-.51,0-1.11.51-1.34,7.9-3.53,17.35-4.91,19.3-.54.23.51,0,1.11-.51,1.34-.05.02-.09.04-.14.05Z"/>
    </g>
  </g>
</svg>