<?xml version="1.0" encoding="UTF-8"?>
<svg id="Calque_2" xmlns="http://www.w3.org/2000/svg" viewBox="0 0 64.07 73.63">
  <defs>
    <style>
      .cls-1 {
        fill: #000;
      }
    </style>
  </defs>
  <g id="Calque_1-2" data-name="Calque_1">
    <g>
      <g>
        <path class="cls-1" d="M64.02,56.82c-2.45-7.5-6.51-13.56-11.66-17.03,0,0-.19-.3-.44-.36-1.8-1.17-3.65-2.1-5.62-2.54-3.02-8.4-11.58-9.28-11.88-9.1-.49-.11-1.09.27-1.26,1.01l-2.03,9.08c-2.29,1.03-4.59,2.07-6.74,3.65-1.77-4.77-5.26-7.62-11.06-8.14-.74-.16-1.39.46-1.26,1.01-.69,4.23.26,8.05,3.04,11.76-4.04,1.93-6.82,5.17-7.81,9.59-.11.49.22,1.34.71,1.45.74.16,1.66.63,2.4.79,4.17.93,7.75-.07,10.91-2.71.9,1.75,2.48,3.9,4.6,5.92l-2.3,10.31c-.11.49.22,1.34.71,1.45l1.23.27c2.7.6,9.49,1.35,14.16-4.57,1.96.44,4.04.39,6.41.14q.25.05.55-.14c3.76-.71,8.24-2.28,12.42-5.99,1.56-1.2,3.17-2.64,4.59-4.39.35-.43.46-.92.33-1.47h0ZM35.41,30.34c1.96.44,5.78,1.81,8.2,5.96-3.25-.47-6.36-.39-9.68.67l1.48-6.63ZM26.42,70.59l1.75-7.85c2.42,1.83,5.4,3.52,8.48,4.73l.74.16c-3.99,4.01-8.76,3.46-10.97,2.96h0ZM58.12,60.15l-2.94-.66c-.74-.16-1.34.22-1.5.95s.22,1.34.95,1.5l.98.22c-2.76,1.96-5.6,3.13-8.57,3.76-.95-1.5-1.61-3.19-2.07-4.59-.14-.55-.82-.96-1.61-.87-.55.14-.96.82-.87,1.61.46,1.39,1.17,2.84,1.88,4.28-2.32,0-4.58-.25-6.98-1.04-8.18-2.6-13.55-9.72-14.42-12.75,0,0,.05-.25-.19-.3s-.19-.3-.19-.3l-.25-.05-.25-.05-.25-.05-.25-.05s-.25-.05-.3.19-.05.25-.3.19c-3.02,3.19-6.6,4.2-10.96,2.97,1.31-3.57,3.63-5.89,7.56-7.33.3-.19.6-.38.71-.87s-.08-.79-.27-1.09c-2.64-3.17-4-6.3-3.73-9.85,4.23.69,6.79,3.06,7.93,7.18-.3.19-.6.38-.65.63-.6.38-.52,1.17-.14,1.77.38.6,1.17.52,1.77.14,7.29-6.1,15.04-8.49,22.04-6.41,1.47.33,2.59,1.09,4.01,1.67-2.32,2.31-7.07,7.44-7.44,14.83-.11.49.27,1.09,1.01,1.26l.25.05c.74.16,1.39-.46,1.31-1.25.5-6.85,5.25-11.97,7.16-13.6,4.47,3.06,7.71,8.16,9.89,14.57-1.07,1.31-2.32,2.31-3.33,3.37h0Z"/>
        <path class="cls-1" d="M53.25,50.81c-.98-.22-2.18.54-2.4,1.52s.54,2.18,1.52,2.4,2.18-.54,2.4-1.52-.3-2.13-1.52-2.4Z"/>
      </g>
      <g>
        <path class="cls-1" d="M.07,19.9c-.13.4-.07.76.17,1.09.96,1.35,2.07,2.49,3.15,3.44,2.89,2.92,6.09,4.29,8.82,4.99q.21.16.39.13c1.73.29,3.25.43,4.71.2,3.14,4.56,8.16,4.35,10.17,4.04l.91-.14c.37-.06.65-.66.59-1.03l-1.19-7.67c1.66-1.38,2.92-2.89,3.66-4.12,2.2,2.09,4.77,3,7.88,2.52.55-.09,1.25-.38,1.8-.47.37-.06.65-.66.59-1.03-.51-3.29-2.4-5.8-5.27-7.42,2.22-2.59,3.1-5.35,2.8-8.48.12-.39-.33-.88-.87-.8-4.29.1-6.98,2.02-8.51,5.44-1.5-1.26-3.14-2.13-4.77-3l-1.05-6.76c-.09-.55-.51-.86-.87-.8-.21-.15-6.54.08-9.16,6.1-1.46.23-2.87.82-4.24,1.59-.18.03-.34.24-.34.24C5.49,10.26,2.22,14.51.07,19.9h0ZM23.1,6.78c-2.39-.94-4.67-1.15-7.07-.96,1.98-2.93,4.85-3.75,6.31-3.97l.77,4.93ZM26.99,31.81c-1.64.26-5.17.43-7.91-2.7l.55-.09c2.32-.73,4.58-1.83,6.45-3.06l.91,5.85h0ZM4.23,22.62c-.69-.83-1.56-1.63-2.28-2.64,1.91-4.6,4.53-8.19,7.96-10.22,1.32,1.29,4.56,5.28,4.6,10.33-.1.58.35,1.07.9.98l.18-.03c.55-.09.86-.51.8-.87.09-5.44-3.15-9.43-4.74-11.24,1.07-.35,1.92-.86,3.02-1.03,5.24-1.19,10.81.94,15.87,5.77.42.31,1,.41,1.31-.02.31-.42.41-1-.02-1.31-.03-.18-.24-.34-.45-.49,1.04-2.97,3.03-4.59,6.17-4.89.03,2.61-1.12,4.85-3.21,7.05-.15.21-.31.42-.25.79s.27.52.48.67c2.81,1.25,4.4,3.06,5.19,5.74-3.26.69-5.83-.22-7.9-2.71q-.18.03-.21-.15c-.03-.18-.21-.15-.21-.15l-.18.03-.18.03-.18.03-.18.03s.03.18-.15.21-.15.21-.15.21c-.78,2.18-5.07,7.15-11.19,8.66-1.8.47-3.47.54-5.17.43.59-1.03,1.18-2.05,1.58-3.05.1-.58-.17-1.1-.56-1.22-.58-.1-1.1.17-1.22.56-.41,1-.97,2.21-1.74,3.26-2.15-.6-4.18-1.6-6.11-3.17l.73-.11c.55-.09.86-.51.77-1.05s-.51-.86-1.05-.77l-2.19.34h0Z"/>
        <path class="cls-1" d="M7.02,17.7c.11.73.96,1.35,1.69,1.23s1.35-.96,1.23-1.69-.96-1.35-1.69-1.23c-.91.14-1.35.96-1.23,1.69Z"/>
      </g>
    </g>
  </g>
</svg>