<?xml version="1.0" encoding="UTF-8"?>
<svg id="Calque_2" xmlns="http://www.w3.org/2000/svg" viewBox="0 0 68.04 74.09">
  <defs>
    <style>
      .cls-1 {
        fill: #000;
      }
    </style>
  </defs>
  <g id="Calque_1-2" data-name="Calque_1">
    <g>
      <path class="cls-1" d="M37.53,37.56c-.18-.19-.43-.28-.68-.25-.07,0-.67.1-1.53.32,1.41-2.31,1.93-4.98,1.95-5.15.05-.23-.03-.49-.21-.68-.18-.19-.43-.29-.68-.27-.17.02-2.97.36-5.47,1.63.15-3.88-3.32-8.61-3.48-8.84-.17-.23-.44-.38-.71-.39s-.52.1-.66.31c-.12.21-3,4.73-2.16,8.78-2.98-1.47-6.3-2-6.51-2.04-.31-.04-.59.05-.78.25-.19.2-.24.48-.13.75.06.19,1.2,3.16,3.29,5.68-1.05-.24-1.78-.33-1.87-.34-.31-.03-.59.07-.78.27-.19.21-.24.49-.13.75.06.18,1.2,3.13,3.28,5.6-1.05-.21-1.78-.28-1.86-.29-.31-.02-.59.08-.78.3-.19.21-.24.5-.13.76.06.18,1.2,3.11,3.28,5.53-1.05-.18-1.78-.23-1.86-.24-.31-.01-.59.1-.77.32-.19.22-.23.51-.13.76.09.27,2.55,6.56,6.91,8.12.85.31,1.71.42,2.57.32.43-.05.85-.14,1.27-.28l.25,3.12c.03.43.43.74.87.68s.77-.45.74-.88l-.25-3.09c.43.05.86.05,1.26.01.82-.09,1.59-.37,2.32-.82,3.55-2.23,4.68-8.25,4.72-8.5.05-.24-.03-.49-.21-.67-.18-.18-.43-.25-.68-.21-.07.01-.67.14-1.52.41,1.4-2.41,1.92-5.13,1.94-5.3.05-.24-.03-.49-.21-.68-.18-.18-.43-.26-.68-.23-.07.01-.67.12-1.53.37,1.4-2.36,1.92-5.06,1.95-5.22.05-.24-.03-.49-.21-.68ZM35.52,33.23c-.43,1.46-1.35,3.95-2.97,5.32-.6.26-1.21.56-1.79.92-.67.42-1.3.92-1.83,1.5,0,0,0,.01,0,.02v-.02s-.19-2.29-.19-2.29h0c-.06-.7.09-1.32.43-1.92,0-.04.04-.07.05-.11.27-.45.64-.86,1.08-1.2,1.55-1.26,3.85-1.92,5.22-2.22ZM25.72,33.52c-.89-2.48.37-5.65,1.19-7.27,1.08,1.71,2.81,4.93,2.35,7.33-.06.31-.15.59-.29.86-.23.49-.59.91-1.09,1.25-.06.04-.12.08-.18.12-.07-.04-.14-.08-.21-.13-.56-.35-1-.78-1.32-1.28-.19-.27-.33-.57-.45-.88ZM18.72,32.89c1.66.38,4.36,1.16,6.23,2.52.51.37.96.77,1.32,1.23.03.04.06.07.08.11.45.6.7,1.23.76,1.92h0s.19,2.32.19,2.32v.02s-.01-.02-.01-.02c-.63-.56-1.36-1.05-2.14-1.47-.68-.36-1.39-.66-2.09-.92-2.05-1.44-3.57-4.13-4.33-5.72ZM19.23,39.19c.82.16,1.91.42,3.02.8h.01c.8.28,1.6.61,2.33,1.02.85.47,1.62,1.03,2.16,1.72.5.62.77,1.28.83,2.02h0s.19,2.32.19,2.32v.02s-.01-.02-.01-.02c-.62-.55-1.36-1.02-2.13-1.41-.68-.34-1.38-.62-2.08-.86-2.05-1.39-3.56-4.04-4.32-5.62ZM19.74,45.49c.82.14,1.91.37,3.02.72h.01c.8.25,1.6.57,2.33.96.85.44,1.62.99,2.15,1.66.5.61.77,1.26.83,2h0s.19,2.32.19,2.32v.02s-.01-.02-.01-.02c-.62-.53-1.36-.98-2.13-1.35-.67-.32-1.38-.59-2.08-.81-2.04-1.33-3.56-3.95-4.32-5.51ZM28.58,57.65c-1.02.41-2.01.43-3,.06-2.56-.94-4.44-4.12-5.32-5.91.82.12,1.9.31,3.01.63h.01c.79.23,1.6.52,2.33.89.85.42,1.61.94,2.15,1.6.5.6.77,1.25.83,1.99h0c.02.25.02.48,0,.74ZM36.95,50.67c-.5,1.75-1.65,4.97-3.79,6.3-.86.54-1.79.7-2.83.51-.06-.24-.1-.48-.12-.71-.06-.73.1-1.42.48-2.09.41-.72,1.04-1.35,1.75-1.87.62-.46,1.3-.83,1.96-1.15.95-.45,1.86-.78,2.55-.99ZM36.47,44.85c-.43,1.49-1.34,4.05-2.96,5.53-.6.29-1.21.63-1.79,1.03-.67.46-1.3,1-1.82,1.61,0,0,0,.01,0,.02v-.02s-.19-2.29-.19-2.29c-.06-.73.1-1.42.48-2.07.41-.7,1.04-1.31,1.76-1.81.62-.44,1.3-.79,1.97-1.09.95-.42,1.86-.72,2.55-.92ZM33.03,44.47c-.6.28-1.21.6-1.79.98-.67.44-1.3.96-1.82,1.55,0,0,0,.01,0,.02v-.02s-.19-2.29-.19-2.29h0c-.06-.74.1-1.41.49-2.05.41-.69,1.04-1.28,1.76-1.75.62-.42,1.3-.75,1.97-1.03.95-.39,1.87-.66,2.56-.84-.43,1.47-1.35,4-2.97,5.43Z"/>
      <path class="cls-1" d="M65.42,22.39c-1.11-6.01-2.57-11.95-4.29-17.81-.21-1.1-.53-2.19-.97-3.25,0-.01,0-.03-.01-.04,0,0,0,0,0,0,.02-.64-.38-1.28-1.2-1.28H24.71c-.98,0-1.96-.02-2.94.03-1.12.06-2.24.21-3.34.43-.88.18-1.9.33-2.63.89-1.76,1.34-.62,3.33-.23,5.04,2.12,9.2-2.55,18.25-6.76,26.11-2.16,4.03-4.33,8.08-5.84,12.41-1.57,4.48-2.32,9.2-2.67,13.92-.18,2.42-.38,4.93-.27,7.36.08,1.73.69,3.37,1.8,4.7,1.47,1.76,3.57,2.6,5.83,2.61,3.17.02,6.34,0,9.52,0h25.74c.22,0,.41-.07.59-.18.18.11.4.18.66.18,5.61-.07,11.53,1.45,17.03-.21,2.19-.66,4.16-1.98,5.11-4.12,1.15-2.61,1.12-5.9,1.34-8.7.99-12.72.09-25.56-2.22-38.1ZM18.64,2.98c1.73-.39,3.48-.48,5.25-.48h10.43c7.85,0,15.71.1,23.57,0,.15.5.3.99.45,1.49-13.55.41-27.13,1.66-40.67.56,0-.02,0-.03-.01-.05-.08-.27-.46-.94-.36-1.18.05-.13,1.12-.3,1.34-.35ZM9.77,71.02c-.79,0-1.58.02-2.37,0-1.22-.03-2.36-.45-3.26-1.29-1.4-1.31-1.64-2.99-1.6-4.81.08-4.7.37-9.41,1.36-14.01.96-4.5,2.7-8.69,4.78-12.78,3.98-7.8,8.71-15.34,9.71-24.23.23-2.1.22-4.2-.07-6.29-.02-.17-.06-.33-.09-.5,13.54,1.04,27.13-.23,40.68-.62.27,2.93-.26,5.97-1.02,8.78-1.19,4.39-3.02,8.64-5.06,12.69-2.18,4.33-4.66,8.5-6.62,12.93-2.01,4.55-3.28,9.27-3.91,14.21-.68,5.28-.69,10.61-.65,15.93H9.77ZM65.45,55.12c-.11,3.04-.33,6.07-.65,9.09-.26,2.45-.52,4.89-2.92,6.16-2.17,1.14-4.87,1.19-7.26,1.17-3.49-.03-6.95-.56-10.44-.52,0,0,0,0-.01,0-.06-10,.21-20,4.4-29.28,3.96-8.77,9.4-16.8,11.86-26.22.19-.72.35-1.44.5-2.17,1.94,7.89,3.34,15.9,4.06,23.99.52,5.91.7,11.84.48,17.77Z"/>
    </g>
  </g>
</svg>