<?xml version="1.0" encoding="UTF-8"?><svg id="Calque_1" xmlns="http://www.w3.org/2000/svg" viewBox="0 0 24 24"><defs><style>.cls-1{stroke:#000;stroke-miterlimit:10;stroke-width:.18px;}</style></defs><path class="cls-1" d="M9.44,5.8c-1.01.6-1.48,2.61-1.53,3.71,0,.02.01.05-.02.05l-.97-1.56c.38-1.26,1.92-2.12,2.02-3.49.08-1.08-.86-1.42-1.55-.63-.73.84-.84,2.35-.8,3.41,0,.02,0,.07-.02.07-.09-.34-.2-.67-.28-1.01-.3-1.35.59-2.77-.02-4.08-.46-1-1.5-.82-1.67.23-.18,1.11.54,2.53,1.16,3.42.08.12.27.31.32.41.12.25.19.76.3,1.07.04.09.08.2.12.29.07.15.17.28.23.43l-.69-.42c-.74-.4-1.92-.84-2.76-.6-.69.2-.94.91-.36,1.41,1.03.88,2.87.14,4.12.41.09.02.21.03.27.11.33.52.69,1.01.99,1.55.05.08.17.39.24.42.05.02.11,0,.13-.06.02-.07-.14-.35-.18-.43-.1-.18-.22-.36-.33-.54-.01-.02,0-.03,0-.05.01-.06.16-.26.2-.32.67-.94,2.25-1.76,2.36-2.99.07-.82-.58-1.21-1.28-.79ZM6,5.91c-.15-.18-.27-.38-.39-.58-.44-.75-.9-1.79-.83-2.68.08-.94.94-1.17,1.32-.26.47,1.11-.14,2.38-.1,3.52ZM7.54,4.01c.59-.68,1.31-.35,1.19.55-.15,1.19-1.47,2.03-1.9,3.11l-.03-.14c-.08-1.02.04-2.72.74-3.52ZM6.52,8.66c-1.02-.05-2.48.39-3.36-.21-.71-.48-.29-1.14.45-1.2,1.02-.08,2.75.68,3.46,1.41,0,.01.05.06.05.07-.2-.02-.39-.06-.59-.07ZM10.51,6.65c-.18,1.02-1.37,1.74-2.03,2.47l-.39.5c.08-.97.28-2.09.8-2.93.25-.41.96-1.19,1.47-.71.17.16.19.45.15.68Z"/><path d="M11.04,12.28c-.2.3-.04.78.33.84.28.05.85-.21,1.12-.33,1.15-.52,2.11-1.33,2.82-2.37l.52.52c1.16.97,2.31.6,3.5-.07.58-.33,1.5-1.03,2.14-1.12.15-.02.49.04.49-.19,0-.12-.42-.53-.53-.62-.56-.52-1.23-.94-1.96-1.18.44-.96.47-2.05.67-3.08.08-.41.17-.85.38-1.22.05-.09.25-.32.27-.37.02-.07,0-.17-.07-.2-.15-.07-.86.03-1.06.06-1.81.26-3.67,1.18-4.36,2.97l-.29-.38c-.8-.87-1.94-1.36-3.1-1.52-.17-.02-.78-.09-.89-.03-.21.12.12.41.19.56.41.82.4,2.19.63,3.12.32,1.28,1.04,2.19,2.43,2.32-.09.12-.18.25-.28.36-.64.74-1.39,1.2-2.29,1.56-.23.09-.49.11-.65.33ZM19.15,7.67c-1.08-.24-2.2.02-3.1.65l-.02-.41.42-.69c.3-.01.6.1.9.11.24,0,.35-.18.13-.32l-.82-.11c.25-.38.56-.71.87-1.04.03-.02.06-.01.1,0,.35.04.83.28,1.16.3.2.01.25-.23.08-.32l-.97-.25s-.01-.03,0-.05c.1-.15.72-.4.45-.61-.15-.12-.27.07-.4.13v-.62c0-.07-.22-.17-.3-.04-.09.14.02.75-.04.95l-.75.75c-.07-.17-.02-.74-.26-.75-.05,0-.14.05-.16.09-.07.15.15.81.13,1.02-.2.32-.45.61-.61.95-.06,0-.04,0-.05-.04-.11-.37-.2-.73-.39-1.07.66-1.99,2.77-2.92,4.73-3.04-.7,1.38-.44,3.03-1.1,4.42ZM15.19,9.65l.97-.18s.29.49.36.54c.12.1.3,0,.28-.16-.01-.07-.28-.42-.25-.44l1.33-.07.06.04.41.81c.15.15.33.05.29-.17-.02-.09-.35-.62-.32-.65.11,0,.23.01.34.02.2.02.81.24.76-.1-.02-.15-.22-.15-.35-.17-.54-.1-1.1-.1-1.65-.1-.02-.01.25-.32.26-.39.02-.14-.11-.23-.24-.19-.11.04-.35.5-.46.6l-1.53.21c.6-.61,1.39-1.12,2.25-1.28,1.44-.27,2.74.45,3.73,1.43-.18.07-.37.12-.55.2-1.21.51-2.56,1.9-3.97,1.54-.74-.19-1.32-.87-1.71-1.49ZM12.99,8.1l1.49.07.64.9c-.12.22-.54.36-.28.64-1.06.03-1.97-.35-2.42-1.34-.58-1.27-.33-2.78-.96-4.03,1.39.1,2.89.69,3.65,1.9.43.68.61,1.48.62,2.28l-.36.3-.15-.22c0-.17.32-.71.03-.76-.19-.04-.22.21-.26.34,0,.03.02.07-.04.06-.34-.47-.73-.91-1.12-1.34l-.03-.07c-.1-.37-.12-.81-.24-1.17-.07-.21-.3-.2-.33-.04-.04.2.15.62.14.86-.14-.08-.42-.38-.56-.42-.16-.04-.29.07-.22.22.03.07.39.3.49.38.41.34.77.73,1.12,1.14l-1.21-.06c-.24.04-.23.33.02.35ZM11.38,12.41c1.31-.41,2.52-1.18,3.26-2.36.09,0,.41-.05.44.06.01.05-.28.45-.34.52-.62.8-1.48,1.45-2.41,1.86-.18.08-.61.27-.78.3-.24.04-.37-.23-.17-.38Z"/><path d="M12.72,18.39c-.04-.16-.1-.49-.3-.5-.17-.01-.71.2-.88.29-.19.1-.35.23-.52.34-.25-.48-.79-.83-1.29-1.01-.33-.12-.37-.16-.51.17-.01.03,0,.04-.04.03l-.46-.58c.81-.37,1.23-.92,1.19-1.84,0-.22-.1-.78-.22-.98-.09-.16-.18-.12-.34-.09-.5.09-1.2.46-1.49.9-.12.19-.17.4-.25.6l-1.64-2.07s.33-.18.36-.2c.13-.08.24-.17.35-.27.2-.2.35-.44.4-.72.04-.2.03-.41.03-.62,0-.22.03-1.13-.36-1.12-.26,0-.62.19-.86.28-.24-.45-.59-.79-1-1.09h-.14c-.34.25-.57.65-.75,1.03-.28-.05-.56-.13-.84-.14-.16,0-.22.06-.25.22-.06.27-.04.55-.06.83-.41.09-.86.22-1.19.49v.14c.19.47.44.89.82,1.23-.15.2-.41.52-.48.77-.06.21.28.36.44.44,1,.5,1.9.4,2.59-.52l.5.63s-.01.03-.04.04c-.16.06-.62.1-.66.28-.04.15.16.68.23.84.11.23.25.48.45.65v.03c-.21.19-.81.9-.79,1.17,0,.15.38.3.49.35.27.14.51.24.82.26.2.01.39.01.59,0,.24-.02.39-.13.58-.27.21-.15.4-.3.57-.5l.66.83c0,.05-.43.05-.48.18-.07.18.11.8.19.99.09.23.23.43.36.64-.27.21-.5.48-.68.78-.07.11-.21.34-.18.46.05.17.79.48.97.53.88.24,1.52-.03,2.06-.73.26.28.42.73.87.73.31,0,.57-.25.59-.57.03-.36-.34-.62-.52-.9,1.06-.46,1.37-1.34,1.1-2.44ZM3.25,11.18c.57.06,1.28.26,1.55.81.13.25.05.44.05.71,0,.2.05.39.07.59-.18-.07-.36-.15-.55-.2-.26-.07-.47-.04-.68-.21-.48-.4-.51-1.13-.44-1.7ZM2.32,13.01c-.04-.07-.29-.47-.25-.52.27-.12.54-.23.84-.27.11.31.22.63.47.86-.09.05-.19.07-.28.12-.14.07-.24.17-.37.25-.15-.12-.29-.28-.41-.44ZM3.5,14.88c-.39-.02-.77-.2-1.11-.39.22-.43.62-.94,1.11-1.07.51-.14,1.06.08,1.5.33-.26.58-.81,1.16-1.5,1.13ZM4.34,11.09c.11-.28.29-.52.46-.75.06-.03.39.3.45.36.13.15.25.32.33.49-.1.11-.22.19-.33.31-.07.07-.11.17-.18.24-.16-.3-.45-.48-.73-.65ZM5.36,11.96c.15-.28.41-.48.68-.61.14-.07.28-.13.43-.17.06-.02.15-.07.2-.01.06.06.03.25.04.33.03.27.08.54.04.82-.11.68-.8,1.07-1.42,1.17-.14-.48-.22-1.06.02-1.52ZM5.25,14.13c0-.21.2-.36.4-.31l1.02,1.3c-.23-.11-.49-.08-.73-.12l-.68-.86ZM5.21,15.5c.6-.16,1.18-.25,1.71.15.34.25.67.71.74,1.12-.57-.26-1.23-.42-1.81-.1h-.03c-.33-.32-.52-.74-.61-1.17ZM7.23,17.96c-.14.14-.28.23-.46.28-.02,0-.04,0-.06.01-.16.04-.33.05-.49.05-.37,0-.74-.12-1.04-.34-.12-.08.36-.59.43-.66.47-.48.94-.54,1.57-.34.2.07.39.17.58.27-.13.27-.3.52-.52.73ZM9.41,14.59c.12.43.21.89.07,1.32-.19.6-.83.91-1.4,1.04-.07-.27-.14-.54-.14-.82,0-.92.65-1.35,1.47-1.55ZM8,17.62c-.05-.04.08-.28.11-.29.03-.02.25-.07.28-.04l.63.8c.04.11-.1.46-.08.61l-.12-.04-.82-1.04ZM8.32,19.12c1.02-.27,2.15.2,2.25,1.34-.56-.25-1.16-.39-1.74-.14-.29-.32-.47-.77-.5-1.2ZM9.33,22.03c-.46.04-.9-.16-1.29-.38.21-.4.58-.89,1.02-1.05.53-.18,1.13.04,1.58.31-.22.51-.73,1.07-1.31,1.12ZM10.65,19.04c-.03.07-.06.14-.08.21-.02.06,0,.13-.06.17-.29-.4-.73-.63-1.21-.7.03-.3.11-.6.23-.88.41.12.88.39,1.12.75.18.26.1.22,0,.46ZM11.78,21.68c0,.09-.05.2-.15.23-.31.14-.54-.45-.74-.62,0-.18.14-.32.33-.33.04,0,.06,0,.09.03.1.18.47.5.47.69ZM10.99,20.65c-.14-.49-.22-1.07.03-1.54.25-.46.81-.71,1.3-.83.12.43.21.91.07,1.34-.19.57-.85.91-1.39,1.02Z"/><path d="M21.96,15.88c-.9-.63-2.05-.77-3.09-.41.09-.77-.03-1.53-.45-2.18-.12-.19-.46-.66-.7-.66-.17,0-.57.29-.71.4-.69.55-1.13,1.32-1.26,2.19-.12,0-.2.06-.26.17l-.5-.04c-.76.02-1.54.19-2.13.7-.18.16-.47.42-.33.68.19.36.98.82,1.35.98.24.1.49.16.73.25-.35.42-.58.92-.74,1.44-.11.37-.21.89-.2,1.27,0,.19.17.32.35.32.27,0,.58-.03.85-.06,1.13-.11,2.49-.38,2.9-1.6.15.12.3.25.45.36.08.06.39.27.46.29.19.04.39-.06.41-.27.16.06.3.15.46.21.34.13.91.24,1.26.17.22-.04.25-.26.27-.45.04-.58-.13-1.19-.42-1.69.69-.33,1.38-.79,1.7-1.52v-.17c-.09-.17-.25-.28-.4-.38ZM17.72,12.97c.73.65.97,1.71.78,2.65l-.73.39-.37-.27c0-.28.04-.56.08-.83.02-.17.14-.69.11-.81-.03-.11-.21-.13-.28-.04-.07.08-.15.75-.17.91-.03.19-.04.39-.06.58-.32-.13-.65-.24-.98-.29v-.03c.14-.96.75-1.84,1.63-2.26ZM17.94,17.08c.01.15-.05.13-.19.14-.21-.35-.55-.73-.91-.93-.11-.06-.24-.13-.32.02-.1.19.2.29.32.38.2.16.39.34.54.55-.24-.06-.48-.12-.72-.14-.09,0-.31.02-.37-.02-.37-.43-.48-.99-.53-1.54.86.09,2.1.51,2.18,1.53ZM13.9,17.34c-.29-.13-.83-.45-1.02-.7-.08-.11-.03-.14.06-.23.58-.65,1.69-.8,2.52-.71l.08.6c-.14,0-.28-.03-.41-.04-.25-.01-.63-.02-.87,0-.15.02-.29.13-.18.28.09.12.24.05.36.05.16,0,1.16,0,1.23.08l.26.49c-.15.06-.32.1-.47.17-.07.03-.16.08-.23.12-.06.04-.26.2-.3.2-.13.04-.86-.23-1.02-.3ZM15.53,20.49c-.5.09-1.02.13-1.53.14.02-.68.2-1.42.54-2.02.53-.95,1.5-1.36,2.57-1.1l-.8.48c-.35.26-.69.55-.95.89-.06.08-.23.3-.24.38,0,.14.14.23.26.14.3-.45.67-.83,1.11-1.14.07-.05.64-.43.67-.4-.12.41.08.85.34,1.16-.24.96-1.09,1.29-1.98,1.45ZM18.88,19.06c-.02.2-.06.39-.1.59-.23-.14-.47-.29-.68-.47-.42-.37-.9-.96-.47-1.51.02,0,.1.1.12.13.07.08.14.19.2.28.09.15.17.4.26.51.09.12.28.08.31-.06.02-.09-.14-.37-.19-.46-.11-.19-.24-.37-.37-.55.28-.04.61-.07.77.22.17.29.16.99.13,1.33ZM20.73,19.77c-.54.03-1.08-.12-1.54-.41l.05-.89h.03c.11-.02.51.37.59.46.06.07.19.29.23.33.15.11.33-.04.25-.23-.04-.09-.21-.3-.28-.38-.1-.12-.23-.21-.34-.33l.63-.21c.32.49.4,1.07.37,1.65ZM21.02,17.38c-.55.35-1.2.58-1.83.75,0-.54-.36-1.01-.92-.98,0-.02,0-.06,0-.07.01-.03.45-.2.51-.23.38-.15.77-.25,1.17-.31.12-.02.49-.03.56-.09.08-.07.05-.26-.06-.28-.21-.04-.69.06-.92.1-.45.09-.89.26-1.31.45l-.22-.44s.02-.03.03-.04c.05-.05.24-.14.32-.18.67-.35,1.42-.53,2.18-.41.55.09,1.06.34,1.49.69-.16.45-.6.8-.99,1.05Z"/></svg>