<?xml version="1.0" encoding="UTF-8"?>
<svg id="Calque_2" xmlns="http://www.w3.org/2000/svg" viewBox="0 0 74.61 64.43">
  <defs>
    <style>
      .cls-1 {
        fill: #010101;
      }
    </style>
  </defs>
  <g id="Calque_1-2" data-name="Calque_1">
    <g>
      <g>
        <path class="cls-1" d="M74.34,36.29c-.45-2.24-2.07-4.53-4.18-6.01.93-2.08,1.43-3.94,1.69-5.48.74-4.44-.3-7.3-.45-7.67-.01-.03-.02-.05-.03-.08l-1.86-3.9.23-5.48c.04-.08.52-3.27.52-3.27.05-.35-.1-.7-.39-.9l-3.59-2.45c-.41-.28-.98-.19-1.27.22l-2.74,3.73c-.1.13-2.21,4.65-2.21,4.65-1.42.35-5.57,1.79-9.84,7.08-3.12,1.4-6.92,3-9.45,3.73.74-1.35,1.21-2.85,1.36-4.44.3-3.07-.62-6.07-2.58-8.44-1.46-1.77-3.36-3.03-5.5-3.69-.08-1.09-.35-2.17-.76-3.06-.44-.96-1.75-1.12-2.41-.29.22.17.44.48.64.89-.95-.8-2.13-1.34-3.96-1.25-2.68.14-5.14,1.53-6.57,3.72-.22.33-.19.78.06,1.09.48.6,1.05,1.11,1.67,1.55-.74.7-1.38,1.49-1.91,2.34-.62-.61-1.32-1.16-2.09-1.62-1.91-1.15-4.07-1.7-6.25-1.62-.42-.97-1.01-1.85-1.66-2.53-.73-.76-2.01-.47-2.36.52.28.1.64.36.99.73-1.27-.6-2.67-.86-4.57-.08C2.45,5.27.64,7.35.03,9.83c-.09.39.08.8.41,1.01.74.46,1.56.78,2.4.97-1.18,2.33-1.57,5.07-.9,7.79,1.09,4.43,4.68,7.6,8.9,8.39.45.65,1.01,1.3,1.7,1.94-.93.26-1.85.65-2.54,1.23,0,0-1.84,1.23-.96,3.86.43,1.28,1.24,3.38,3.35,5.13,2.44,2.02,5.82,3.03,10.06,3.03.09,0,.18,0,.27,0,.16.32.39.61.66.83.18.43.37.84.58,1.23-.29.19-.57.4-.84.64-.78.72-1.33,1.6-1.64,2.57-.47-.57-.92-1.02-1.28-1.36-.41-.38-1.05-.3-1.37.15-.27.38-.23.9.11,1.22.62.57,1.58,1.61,2.35,3.02-.04,0-.07.01-.1.02-.16-.1-.31-.2-.46-.29-.21-.19-.41-.4-.61-.61-.38-.39-.83-.73-1.37-.83-.07-.02-.15-.03-.23-.04-.02,0-.03,0-.05,0-.01,0-.02,0-.03,0-.15,0-.3.03-.43.12-.77.49-.37,1.6.13,2.13.53.57,1.29.76,1.99,1.03.27.1.52.24.77.4.14.11.29.2.42.31.17.13.34.25.49.4.06.06.12.1.18.12-.48-.1-.98-.08-1.46.04-.71.17-1.36.55-2.06.77-.68.21-1.64.07-2.05.78-.44.76.34,1.51,1.04,1.19.46-.03.93-.08,1.37-.2.48-.13.94-.33,1.4-.52.86-.35,1.71-.58,2.63-.45,0,.03,0,.07-.02.1-.12.52-.46.89-.87,1.19-.01.01-.02.03-.03.04-.66.44-1.12,1.11-1.76,1.57-.39.47-.75.88-.99,1.13-.07.06-.14.11-.19.18-.08.11-.13.2-.18.33-.04.1-.05.2-.06.3,0,.03,0,.06,0,.09,0,.08.01.15.03.23.01.05.03.1.05.14.04.1.08.16.15.24.06.06.12.09.2.13.08.04.14.05.24.05.04,0,.07,0,.11,0,.11-.01.23-.03.34-.06.1-.03.21-.08.31-.12.09-.04.17-.1.25-.16,0,0,.01-.01.02-.02l.02.02c.08-.08,1.23-1.26,2.24-2.76l.02.12c-.28,2.54-1.4,4.39-1.43,4.44,0,0,0,0,0,0h.01s-.02.03-.02.05c-.04.09-.08.18-.1.28-.01.07-.02.13-.03.2,0,.02,0,.04,0,.06,0,.09.01.18.04.27.05.14.1.22.19.33.04.05.1.08.15.12.05.04.12.06.18.08.07.03.14.03.21.04.03,0,.06,0,.1,0,.06,0,.13,0,.19,0,.03,0,.07,0,.1,0,.13,0,.23-.03.34-.09.14-.08.23-.22.28-.37.01-.04.02-.09.02-.14.19-.33.67-1.22,1.08-2.5.65.77,1.49,1.37,2.48,1.73.67.25,1.36.37,2.05.37,1.31,0,2.59-.44,3.66-1.28l6.37-5.06c1.58-1.26,2.39-3.2,2.2-5.19,3.11-.4,5.82-1.23,7.41-1.78.71-.25,1.4-.52,2.07-.81.15.21.3.42.46.61,2.28,2.82,3.92,4.08,5.49,4.23.1,0,1.34.28,2.75-1.16.59-.52.79-.69,1.18-.76.05,0,1.34,0,1.39,0,.39.07.6.24,1.18.76,1.01,1.01,1.91,1.24,2.75,1.16,1.57-.15,3.22-1.41,5.49-4.23,2.83-3.5,4.23-9.23,3.34-13.62ZM11.39,34.03c-.03.62-.15,1.01-.24,1.18-.03-.02-.07-.04-.12-.07-.29-.79-.37-1.37-.38-1.49,0-.25.06-.47.19-.67.24-.14.39-.2.49-.23.05.15.11.5.07,1.28ZM69.69,17.82c.09.23,1.02,2.81.32,6.81-.23,1.34-.67,2.94-1.46,4.74-.97-.4-1.94-.57-2.85-.47-.46.05-.87.17-1.26.32,1.65-2.74,3.2-4.01,3.22-4.03.25-.2.38-.52.34-.84-.04-.32-.24-.6-.54-.73l-3-1.36c-.27-.12-.59-.12-.84.03-1.57.96-2.63,2.72-3.34,4.49-.41-.71-1-1.48-1.88-2.1.4-1,.66-1.89.89-2.69.34-1.18.61-2.11,1.2-2.95,2.61-3.74,4.82-5.25,4.84-5.26.24-.16.4-.43.41-.73l.21-4.01s.01,0,.02,0c.08,0,1.9-.5,1.9-.5l-.2,4.76c0,.15.02.3.09.44l1.94,4.08ZM61.54,30.73c-.03-.27-.09-.7-.21-1.21.52-1.95,1.42-4.19,2.85-5.34l1.27.58c-.99,1.07-2.53,3.02-3.91,5.97ZM59.62,30.45c-1.06,0-3.1-.2-4.45-1.46-.88-.82-1.36-2-1.41-3.52,1.51-.19,2.75.08,3.7.82,1.46,1.13,1.98,3.1,2.16,4.15ZM65.98,3.08l2.37,1.62-.27,1.85-1.89.53-1.92-1.68,1.7-2.32ZM23.64,3.65c1.09-.96,2.51-1.55,4.02-1.62h0c1.28-.06,2.05.25,2.79.92.57.52.62,1.43.1,2.01-.67.75-1.41,1.14-2.69,1.2-1.51.08-2.98-.36-4.16-1.2-.43-.31-.48-.96-.08-1.31ZM24.48,7.46c4.16,1.4,6.62-.12,7.49-1.29-.15.44-.39.87-.76,1.2.7.79,2.04.62,2.43-.37.14-.37.25-.76.33-1.18,4.04,1.47,6.75,5.54,6.32,10.02-.19,1.94-.94,3.69-2.07,5.11-.19.03-.39.06-.6.09-3.24.49-8.01,1.22-14.15-.23.76-2.04.93-4.33.37-6.6-.34-1.4-.94-2.68-1.75-3.82.6-1.13,1.41-2.12,2.38-2.92ZM2.63,9.83c-.33-.11-.49-.51-.34-.82.67-1.34,1.84-2.43,3.29-3.02h0c1.15-.47,1.96-.43,2.87-.05.67.28,1.01,1.06.73,1.74-.38.93-.92,1.52-2.09,2-1.45.6-3.05.64-4.47.15ZM9.82,18.98s-.53,0-.7,2.21c-.28,2.25.56,4.56.56,4.56-2.85-1.04-5.15-3.44-5.93-6.6-.62-2.53-.16-5.08,1.1-7.14,1-.02,2-.23,2.96-.62,2.14-.87,2.9-2.23,3.37-3.75,0,0,0,0,.01,0,.13.67.14,1.46-.23,2.12.98.54,2.16-.17,2.16-1.29,0-.32-.02-.65-.08-.99,1.66.02,3.28.48,4.74,1.36,2.15,1.3,3.67,3.36,4.27,5.81h0c.48,1.96.31,3.92-.37,5.67-2.16-.64-4.47-1.54-6.93-2.82-.04-.02-1.41-.51-1.41-.51-.28-.1-.59-.06-.84.11l-2.67,1.87ZM13.2,19.76s-.08.15-.55.31c-.37.05-.73,0-1.03-.09l1.31-.91c.22.37.31.6.28.69ZM10.9,22.24c0-.27.24-.46.51-.4.89.19,2.63.31,3.53-1.43.08-.23.11-.45.12-.66,10.43,5.02,18.46,3.8,22.85,3.13.56-.08,1.04-.16,1.47-.21,1.86-.23,5.32-1.54,8.64-2.94-.78.91-2.68,2.83-6.18,4.72-4.45,2.39-12.45,5.21-25.36,5.05-.27-.02-.81-.03-1.48.03-3.4-2.37-4.09-5.3-4.09-7.27ZM22.52,41.32c-3.81,0-6.8-.85-8.91-2.58-.29-.23-.55-.48-.78-.72-.47-.49-.48-1.22-.13-1.8.37-.6.5-1.41.54-2.09.02-.29.04-.71,0-1.14-.07-.75.47-1.43,1.22-1.52,1.01-.12,1.91-.13,1.94-.13,13.42.18,21.79-2.81,26.45-5.35,5.15-2.8,7.05-5.68,7.13-5.79,5.21-7.87,10.8-8.81,10.85-8.82.3-.04.57-.24.7-.51l1.84-3.78.78.68-.13,2.6s-.87,1.35-1.12,3.02c-.98.91-2.39,2.39-3.93,4.6-.76,1.09-1.1,2.26-1.46,3.5-.21.73-.44,1.52-.78,2.39-1.16-.36-2.48-.39-3.95-.1-.21.04-.81.36-.87,1.02-.06,1.87.34,3.43,1.2,4.64-.33.14-.65.31-.98.51-1.73,1.05-3.18,2.67-4.03,4.41-4.49,3.07-9.59,4.11-13.4,4.4-4.05.31-7.37-.14-8.6-.35-.04-.02-.08-.04-.11-.06l-.06-.03c-.43-.22-.95-.13-1.53.25-.63.42-1.61,1.41-1.87,2.76ZM25.3,41.08c-.24.66-.64,1.01-.94,1.19-.03-.06-.04-.12-.04-.16-.05-.94.7-1.73,1.09-1.99.03.02.05.04.06.05,0,0,.1.21-.16.91ZM37.47,55.63l-6.25,4.97c-.89.7-2.02,1.1-3.14.95-1.74-.24-3.05-1.47-3.43-3.08.06-.74.04-2.67,0-2.84l-.42-2.14c-.04-.2-.76-1.88-1.06-2.48-.27-1.39.19-2.79,1.23-3.75.76-.7,1.73-1.07,2.73-1.07.37,0,.75.05,1.13.16l7.7,2.21c1.23.35,2.3,1.21,2.76,2.4.67,1.76.16,3.57-1.24,4.68ZM47.61,48.36c-2.51.88-4.96,1.46-7.26,1.74-.69-1.59-2.06-2.81-3.78-3.31l-7.82-2.24c-1.03-.29-2.08-.3-3.07-.05-.12-.21-.23-.43-.33-.66.63-.39,1.29-1.05,1.68-2.11.18-.49.27-.92.29-1.28,1.73.2,4.38.38,7.46.15,4.7-.35,8.93-1.57,12.51-3.57-.49,3.42.31,7.5,2.01,10.68-.55.23-1.12.46-1.7.66ZM69.56,48.74c-.68.84-2.75,3.41-4.22,3.55-.34.03-.62-.07-.92-.32-.16-.14-.3-.26-.43-.38-.71-.63-1.26-1.12-2.39-1.23-.07,0-1.38,0-1.45,0-1.12.11-1.68.61-2.39,1.23-.13.12-.27.24-.43.38-.3.26-.58.36-.92.32-1.46-.14-3.54-2.7-4.22-3.55-2.47-3.05-3.74-8.25-2.96-12.09.39-1.94,1.9-3.95,3.85-5.14.39-.24.9-.49,1.47-.65,1.5,1.05,3.29,1.35,4.52,1.42,2.2,1.14,3.99-.17,4.81-.68.69-.42,1.29-.79,1.99-.86,1.08-.11,2.11.36,2.79.77,1.95,1.18,3.46,3.2,3.85,5.14.78,3.84-.5,9.03-2.96,12.09Z"/>
        <rect class="cls-1" x="26.39" y="53.1" width="1.63" height="1.85" rx=".81" ry=".81" transform="translate(-8.57 5.25) rotate(-9.53)"/>
        <rect class="cls-1" x="35.42" y="51.3" width="1.63" height="1.86" rx=".81" ry=".81" transform="translate(-8.15 6.72) rotate(-9.53)"/>
        <rect class="cls-1" x="31.83" y="54.51" width="1.63" height="1.86" rx=".81" ry=".81" transform="translate(-8.73 6.17) rotate(-9.53)"/>
        <rect class="cls-1" x="30.88" y="49.72" width="1.63" height="1.86" rx=".81" ry=".81" transform="translate(-7.95 5.95) rotate(-9.54)"/>
        <rect class="cls-1" x="28.56" y="57.83" width="1.63" height="1.86" rx=".81" ry=".81" transform="translate(-9.32 5.68) rotate(-9.53)"/>
        <rect class="cls-1" x="26.59" y="47.9" width="1.63" height="1.85" rx=".81" ry=".81" transform="translate(-7.71 5.21) rotate(-9.53)"/>
      </g>
      <path class="cls-1" d="M56.28,49.95c-1.49-1.19-2.63-2.79-3.23-4.6-.2-.61-1.17-.35-.96.27.65,1.97,1.86,3.75,3.49,5.05.21.17.5.21.71,0,.17-.17.21-.54,0-.71Z"/>
    </g>
  </g>
</svg>