<?xml version="1.0" encoding="UTF-8"?>
<svg id="Calque_2" xmlns="http://www.w3.org/2000/svg" viewBox="0 0 55.63 75">
  <defs>
    <style>
      .cls-1 {
        fill: #1d1d1b;
      }

      .cls-2 {
        fill: none;
      }
    </style>
  </defs>
  <g id="Calque_1-2" data-name="Calque_1">
    <g>
      <g>
        <polygon class="cls-2" points=".07 62.15 .08 62.14 .07 62.14 .07 62.15"/>
        <path class="cls-1" d="M50.29,0H5.33c-1.45,0-2.63,1.15-2.63,2.56v2.99c0,1.41,1.18,2.56,2.63,2.56h44.96c1.45,0,2.63-1.15,2.63-2.56v-2.99c0-1.41-1.18-2.56-2.63-2.56ZM50.92,5.55c0,.34-.28.62-.63.62H5.33c-.35,0-.63-.28-.63-.62v-2.99c0-.34.28-.61.63-.61h44.96c.35,0,.63.27.63.61v2.99Z"/>
        <path d="M16.01,73H2v-17.08l.09-.05v-.08c.02-.35.04-.74.06-1.16.01-.2.02-.41.03-.63.01-.15.02-.32.02-.47h0s0-.02.01-.03c.13-2.77.33-6.39.57-10.2.01-.06.01-.12.01-.18h0c.02-.3.04-.59.06-.88.03-.39.05-.78.07-1.17,0-.06,0-.12,0-.18.02-.3.04-.59.06-.88.15-2.13.31-4.24.47-6.24v-.06s.01-.06.01-.1c.04-.45.07-.91.11-1.35.03-.31.06-.62.08-.92,0-.02,0-.04.01-.06v-.09c.35-3.89.71-7.02,1.06-8.36.07-.26.13-.46.2-.58.21-.27.48-.58.77-.92.04-.05.1-.11.14-.17.15-.16.29-.33.45-.51.26-.29.5-.58.74-.86,2-2.33,3.46-4.27,3.58-5.84l.42-5.84h-1.96l-.45,5.69c-.08,1.11-1.95,3.36-3.35,4.97-.17.2-.33.39-.48.56-.25.29-.48.56-.71.81-.04.06-.1.12-.14.17-.21.26-.41.5-.58.71-.12.15-.24.43-.35.81-.49,1.61-.93,5.1-1.33,9.33-.04.4-.07.82-.11,1.24,0,.03,0,.06-.01.09-.02.29-.05.57-.07.86-.04.52-.09,1.04-.13,1.57-.13,1.59-.24,3.22-.36,4.85-.02.42-.05.83-.08,1.25-.02.39-.05.76-.07,1.14l.15-.08-.15.09h0c-.03.42-.05.84-.08,1.25-.21,3.51-.39,6.84-.52,9.46,0,.22-.02.43-.03.64-.02.41-.04.79-.05,1.15-.01.16-.01.31-.02.46-.02.22-.03.44-.04.64,0,.08-.01.16-.01.24l-.1,2.45v16.54h55.63v-16.54c0-.21-.55-13.7-1.43-24.45-.06-.75-.13-1.48-.19-2.19-.5-5.54-1.09-9.97-1.75-10.8-.06-.07-.12-.15-.19-.23-.33-.42-.77-.92-1.23-1.45-.03-.03-.06-.06-.09-.1-1.4-1.62-3.65-4.22-3.75-5.44l-.42-5.69h-2l.43,5.84c.12,1.67,1.78,3.76,3.98,6.31.11.13.22.26.34.39.37.42.71.81.98,1.15.14.15.25.29.35.42.4.7.82,4.01,1.22,8.38.08.78.15,1.59.22,2.43.84,10.09,1.53,23.74,1.53,25.43v14.54H16.01ZM.07,62.15H.07s.01,0,.01,0h-.01ZM6.26,74.04v-.04h.06l-.06.04Z"/>
        <polygon points="6.32 74 6.33 74 6.32 74 6.32 74"/>
        <path class="cls-2" d="M31.17,24.98c-.44.29-.72.79-.72,1.33v3.79c0,.46.21.89.55,1.19"/>
        <polygon points="6.26 74.04 6.32 74 6.26 74 6.26 74.04"/>
        <path d="M32.5,22.08l-.5-.27-5.25-3.04c-.51-.29-1.13-.29-1.64,0l-4.73,2.73c-.51.29-1.13.29-1.64,0l-4.73-2.73c-.51-.29-1.13-.29-1.64,0l-4.43,2.56c-.51.29-1.13.29-1.64,0l-.93-.53c-.04.06-.1.12-.14.17-.29.35-.57.66-.78.94-.07.12-.13.33-.2.59l.74.42c.51.29.81.83.81,1.42v4.28c0,.58-.31,1.12-.81,1.41l-1.82,1.06s-.01.04-.01.06c-.02.31-.05.62-.08.94-.04.45-.07.92-.11,1.37l3.48-2,.08.04,4.83,2.79c.51.29.81.83.81,1.41v3.87c0,.58-.31,1.12-.81,1.41l-4.36,2.52-.16.1h-.01l-.17-.11h-.01l-2.99-1.73-1.24-.71c-.01.34-.03.68-.05,1.03.31.57.54,1.01.84,1.58l1.79,1.03c.51.3.81.83.81,1.42v4.29c0,.58-.31,1.12-.81,1.41l-3.32,1.91c0,.15-.01.33-.02.48-.01.22-.02.44-.03.64-.02.43-.04.82-.06,1.18v.08l1.87-1.08,3.37-1.93.02-.02.02.02,4.52,2.58c.51.3.81.83.81,1.42v4.29c0,.58-.31,1.12-.81,1.41l-3.71,2.14c-.51.29-1.13.29-1.64,0l-4.54-2.6v.09l.07.05-.07-.04v1.29c0,.58.32,1.12.82,1.41l3.51,2.03v.11l.08.04v5.86h1.95v-5.86l.04-.02.04-.02v-.15l4.46-2.57c.51-.29,1.13-.29,1.64,0l3.71,2.14c.51.29.81.83.81,1.42v4.78c0,.09.02.19.03.28h2v-5.07c0-.59.32-1.13.82-1.42l4.73-2.73c.51-.3.81-.83.81-1.41v-6.63c0-.59-.31-1.13-.81-1.42l-4.73-2.73c-.51-.3-.82-.83-.82-1.41v-4.08c0-.58.32-1.12.82-1.41l4.73-2.74c.51-.29.81-.83.81-1.41v-5.02c0-.58.32-1.12.82-1.41l4.82-2.79.72-.42v-7.58c0-.59-.31-1.13-.81-1.42ZM8.67,29.96c-.51-.29-.82-.83-.82-1.41v-3.85c0-.59.32-1.13.82-1.42l3.71-2.15c.51-.29,1.13-.29,1.64,0l.34.2h0s3.37,1.94,3.37,1.94c.51.29.82.83.82,1.42v3.86c0,.59-.31,1.13-.82,1.42l-2.79,1.61h0s-.92.53-.92.53c-.51.3-1.13.3-1.64,0l-3.71-2.14ZM13.22,54.42h-.02s-.02,0-.02,0l-4.51-2.61c-.51-.29-.82-.83-.82-1.41v-4.28c0-.59.32-1.13.82-1.42l4.35-2.51.17-.1.17.1,4.36,2.51c.51.3.81.83.81,1.42v4.28c0,.58-.31,1.12-.81,1.41l-4.52,2.61ZM24.1,55.68c.51.3.81.83.81,1.42v4.29c0,.58-.31,1.12-.81,1.41l-3.71,2.14c-.51.29-1.13.29-1.64,0l-3.71-2.14c-.51-.29-.82-.83-.82-1.41v-4.29c0-.59.32-1.13.82-1.42l4.53-2.6.02.02,4.52,2.58ZM24.91,39.57c0,.58-.31,1.12-.81,1.41l-4.36,2.51-.17.11-4.53-2.62c-.51-.29-.82-.83-.82-1.41v-3.85c0-.59.32-1.13.82-1.42l3.71-2.15c.51-.3,1.13-.3,1.64,0l3.71,2.15c.51.29.81.83.81,1.42v3.85ZM31.28,28.97c0,.58-.31,1.12-.81,1.41l-3.34,1.92c-.51.29-1.13.29-1.64,0l-4.09-2.35c-.09-.05-.18-.13-.26-.2-.34-.31-.55-.74-.55-1.21v-3.86c0-.55.28-1.05.73-1.35h0s.06-.05.09-.07l3.71-2.15c.51-.29,1.13-.29,1.64,0l3.71,2.15c.51.3.81.83.81,1.42v4.28Z"/>
      </g>
      <path d="M51.15,49.78c-.14-.6-.41-1.17-.73-1.7-1.24-2.02-2.8-3.77-4.69-5.22-1.24-.95-2.54-1.77-4.03-2.27-.15-.06-.29-.1-.46-.16.31-.39.5-.8.53-1.27.09-1.16-.32-2.14-1.01-3.03-.35-.47-.8-.84-1.33-1.14.41-.89,1.07-1.45,2.01-1.68.17-.05.36-.06.54-.09.27-.06.45-.28.44-.49,0-.21-.19-.36-.48-.42h-.19c-1.42.17-2.46.89-3.12,2.17-.03.06-.06.13-.08.16h-1.18s-.04-.07-.07-.11c-.57-1.18-1.5-1.91-2.78-2.16-.23-.05-.49-.04-.72.02-.11.02-.26.21-.27.33s.09.28.21.39c.07.08.21.1.33.13.14.04.29.04.43.08.93.23,1.58.79,2,1.67-.05.03-.09.06-.14.08-1.06.65-1.75,1.58-2.08,2.77-.26.91-.25,1.77.36,2.55-.59.26-1.19.46-1.73.75-3.19,1.65-5.67,4.05-7.52,7.12-.22.35-.39.76-.53,1.16-.38,1.07-.13,2,.69,2.77.25.23.51.45.78.65,1.83,1.33,3.93,1.49,5.87.15.02-.02.04-.02.07-.03.04.1.09.19.13.28.48,1.06,1.13,2.02,1.98,2.8,2.01,1.86,4.67,1.98,6.8.3,1.07-.83,1.81-1.93,2.37-3.18.04-.06.07-.14.1-.22.13.08.23.16.33.22.96.59,1.99.88,3.13.72,1.43-.21,2.57-.92,3.52-1.98.54-.6.7-1.31.52-2.12ZM39.12,46.95c.06,0,.15.03.17.07.23.42.44.84.67,1.29h-3.99c.22-.45.43-.87.64-1.27.03-.05.13-.09.19-.09.77-.01,1.55-.01,2.33,0ZM32.23,51.49c-.65.62-1.39,1.08-2.3,1.24-.18.03-.38.04-.56.06-.95-.02-1.75-.41-2.5-.98-.18-.14-.35-.28-.53-.43-.48-.43-.63-.95-.41-1.53.15-.41.31-.81.54-1.19,1.77-2.85,4.12-5.1,7.13-6.61.57-.29,1.17-.52,1.81-.61.11,0,.25-.01.36-.01.56,0,.81.22.91.76.09.64-.01,1.24-.17,1.83-.46,1.76-1.29,3.36-2.26,4.88-.59.93-1.22,1.82-2.02,2.59ZM34.38,54.1h7.15c-1.79,2.63-5.1,2.89-7.15,0ZM33.68,51.83c.07-.17.1-.31.19-.43.2-.28.4-.54.61-.8.05-.06.18-.13.26-.13,2.15-.01,4.28-.01,6.42,0,.09,0,.21.07.27.15.22.25.42.51.6.78.08.11.13.26.2.43h-8.56ZM49.85,51.07c-.89,1.02-1.96,1.66-3.14,1.72-1.13,0-1.92-.38-2.63-.95-.84-.66-1.47-1.51-2.06-2.39-1.12-1.63-2.04-3.34-2.57-5.24-.18-.66-.32-1.31-.21-2,.09-.55.35-.78.9-.77.71.01,1.36.24,1.98.53,2.12.99,3.89,2.41,5.43,4.15.79.88,1.51,1.82,2.07,2.87.19.35.32.73.43,1.12.1.33.04.69-.2.97Z"/>
    </g>
  </g>
</svg>