<?xml version="1.0" encoding="UTF-8"?><svg id="Calque_1" xmlns="http://www.w3.org/2000/svg" viewBox="0 0 24 24"><path d="M22.79,11.66c-.04-.53-.2-1.07-.49-1.53.57-.3.58-1,.54-1.61-.04-.53-.27-.87-.76-1.06h-9.56c.48-.51-.48-1.01-.76-1.45v-.63c.69-.2.7-.88.65-1.47-.02-.46-.22-.75-.65-.9H2.57c-.42.16-.61.45-.65.9-.04.59-.02,1.27.65,1.47v.63c-.3.47-1.41,1.02-.58,1.58-.48.54-.76,1.27-.81,2v1.3c.1,1.64-.13,4.35,0,5.98.08,1,.87,1.82,1.87,1.93h7.65c0,.08,0,.17.01.25.08,1,.88,1.82,1.88,1.94h8.34c1.05-.16,1.78-.98,1.86-2.04v-2.82c-.05-1.47.1-3.01,0-4.47ZM13.18,10.22h8.59c.3.46.49.96.53,1.51v.27h-9.13c.01-.59.04-1.19.01-1.77ZM22.01,8.06c.34.14.29.92.24,1.23-.04.19-.12.3-.31.37h-8.78v-.1c-.04-.55-.2-1.1-.49-1.57l9.35.06ZM2.48,4.72c-.07-.14-.07-.69-.05-.87.04-.29.27-.39.53-.39l8.75.05c.29.13.25.8.2,1.06-.02.17-.1.27-.27.33H2.7c-.08-.04-.17-.08-.22-.18ZM11.27,5.41v.49H3.07v-.49h8.21ZM2.9,6.43c2.82-.07,5.66-.01,8.48-.04l.76.73c-.22-.02-.47-.12-.7-.12-.41.01-.98.27-1.39.27-.41.01-1.02-.27-1.45-.27s-1,.27-1.42.27c-.4.01-1-.25-1.42-.27-.42-.01-1.02.27-1.46.27-.39.01-1-.25-1.41-.27-.22,0-.47.1-.69.12l.69-.7ZM10.68,18.35c-2.39.12-4.9-.12-7.29-.01-.88-.01-1.6-.6-1.71-1.49l-.02-6.05.02-1.2c.05-.65.33-1.27.75-1.76.14-.17.22-.33.47-.33.41.02,1.02.29,1.42.28.4,0,1.02-.28,1.42-.28s1.05.29,1.45.28c.41,0,1.01-.28,1.42-.28s1.01.28,1.42.28c.33.01.82-.18,1.22-.24,0-.01.01-.01.02-.01.06-.01.12-.02.18-.02.27,0,.45.29.59.49.01,0,.01.01.01.01.36.47.58,1.01.61,1.61v2.36s-.01,2.13-.01,2.13c-.06.74.13,2.64-.14,3.25-.24.55-.73.86-1.3.94-.08.01-.17.02-.25.02-.1,0-.18.01-.28.01ZM22.14,19.55c-.29.64-.89.93-1.58.98-2.48.14-5.12-.12-7.63,0-.84-.02-1.54-.57-1.7-1.4h11.01c-.02.17-.06.31-.11.42ZM22.29,18.78h-10.92c1.01-.16,1.72-.96,1.8-2v-2.8c-.02-.54-.02-1.1,0-1.65h9.13v3.93c-.06.54.04,1.69-.01,2.52Z"/><path d="M11.74,10.22c-.1-.34-.37-.58-.72-.61H3.25c-.36.1-.63.36-.67.72v5.9c.07.4.42.7.82.72h7.57c.08,0,.17-.02.24-.06.3-.11.54-.37.57-.7v-5.83s-.01-.1-.02-.14ZM11.26,12.34v3.77c.01.06-.01.13-.06.18-.06.1-.18.17-.3.17H3.45c-.18,0-.36-.14-.39-.33l.02-5.82c.05-.1.13-.17.25-.2h7.69s.13.12.13.12l.08.06v1.7s.01.35.01.35Z"/><path d="M9.7,12.16c-.04-.18-.37-.48-.53-.58-.06-.04-.17-.05-.2-.07-.02-.02-.13-.31-.22-.4-.12-.16-.41-.41-.63-.35s-.64.51-.64.76c-1.7-.48-2.51,1.82-2.36,3.13.05.48.28.65.75.7,1.3.11,3.53-.71,3.07-2.37.29-.02.83-.53.76-.82ZM8.01,11.48s.14-.17.17-.17c.1-.04.27.2.29.29-.02.13-.13.23-.23.31-.17-.11-.35-.19-.23-.43ZM5.9,14.86c-.18-.02-.27-.05-.29-.24-.12-.78.34-2.53,1.28-2.65.78-.11,1.69.76,1.61,1.54-.11.96-1.81,1.42-2.6,1.35ZM8.67,12.41s-.07-.11-.07-.13l.27-.29.29.23c-.11.18-.29.37-.48.19Z"/><path d="M6.29,14.16c-.25-.25.29-.78.53-.55.26.26-.29.79-.53.55Z"/><path d="M6.6,13.06c-.25-.25.29-.78.54-.54.25.25-.29.79-.54.54Z"/><path d="M7.38,13.83c-.21-.26.35-.77.56-.51.23.27-.32.8-.56.51Z"/><path d="M18.49,14.11c.08-.07.19-.12.3-.16.02,0,.06-.01.1-.01.02,0,.06-.01.07-.01.13-.02.18-.12.17-.2,0-.08-.07-.18-.19-.18-.19,0-.46.11-.63.2,0,.01-.01.02-.04.04-.01.01-.05.05-.06.06-.02-.01-.04-.04-.06-.06s-.06-.05-.06-.05c-.67-.54-1.27-.67-1.96-.45-.42.13-.78.4-1.14.81v.02c-.06.12.01.19.07.23-.33.37-.53.75-.61,1.12-.12.53-.07,1.25.12,1.88v.02c.04.1.07.19.1.23.04.06.16.11.34.17h.02c.34.1.81.17,1.24.17.27,0,.52-.02.72-.08.39-.11.69-.35.99-.6.02.05.07.08.12.1.12.02.24-.1.33-.2h.02c.75-.83.89-1.7.41-2.54-.11-.17-.24-.34-.36-.49ZM17.88,16.82s-.25.23-.3.27c-.57.47-1.04.52-1.82.43-.33-.02-.58-.08-.8-.17-.14-.47-.22-.98-.19-1.47.02-.49.25-.93.71-1.42h.11-.01c-.07.2-.14.36-.11.46.01.05.06.08.07.1.07.05.3.06.33.06.14,0,.3-.01.43-.02-.11.25-.14.51-.12.78.01.08.02.23.16.28.12.04.37.04.48.02.16-.01.33-.06.46-.12-.01.14-.02.29-.01.43,0,.06,0,.19.02.25.01.06.06.13.12.14.1.02.24-.01.47-.11v.08ZM18.25,16.76s0-.07.01-.11c0-.04.01-.08.04-.14.01-.06.02-.11.02-.16,0-.11-.07-.19-.18-.2h-.01c-.07,0-.14.06-.19.11-.02.01-.04.02-.05.04-.08.06-.17.1-.24.13v-.06c0-.17,0-.33.04-.48,0-.04.01-.07.02-.1.02-.11.06-.22,0-.3-.04-.05-.08-.07-.13-.07-.08-.02-.17.06-.23.11-.02.01-.04.04-.06.05-.2.14-.47.22-.73.18-.01-.25.06-.52.23-.76.01-.01.02-.02.04-.05.06-.06.14-.14.07-.28-.07-.12-.25-.07-.36-.05-.02.01-.05.01-.06.02-.17.02-.37.05-.57.04.04-.1.1-.19.16-.28.01-.01.02-.02.04-.04.05-.06.11-.12.06-.25-.05-.16-.23-.11-.33-.08-.01.01-.04.01-.05.01-.07.01-.14.02-.22.02.36-.34.83-.52,1.28-.49.78.06,1.77,1,1.89,1.82.08.59-.23,1.07-.48,1.37Z"/></svg>