<?xml version="1.0" encoding="UTF-8"?>
<svg id="Calque_2" xmlns="http://www.w3.org/2000/svg" viewBox="0 0 74.63 71.48">
  <defs>
    <style>
      .cls-1, .cls-2 {
        fill: #010101;
      }

      .cls-2 {
        stroke: #000;
        stroke-linecap: round;
        stroke-linejoin: round;
        stroke-width: .5px;
      }
    </style>
  </defs>
  <g id="Calque_1-2" data-name="Calque_1">
    <g>
      <g>
        <path class="cls-1" d="M67.4,16.31c-2.26-1.34-4.8-2.12-7.42-2.27-.11-1.23-.57-2.41-1.32-3.39-1.21-1.56-3.1-2.47-5.36-2.62.3-.62.39-1.33.27-2.01-.54-2.86-5.42-5.36-10.44-5.36-3.18,0-6.29.95-8.93,2.73-.07-.06-.14-.11-.21-.17C31.59,1.45,28.75.37,25.78.08,25.23.03,24.67,0,24.12,0c-2.64-.02-5.25.61-7.6,1.83-2.16,1.17-3.48,2.66-3.62,4.1-.14,1.39.79,2.79,2.63,4-1.61.96-3.05,2.2-4.23,3.66-1.72,2.14-2.42,4.29-1.88,5.77.11.29.27.57.47.81-1.01.35-1.99.81-2.91,1.36-2.34,1.42-3.74,3.21-3.74,4.78,0,2.25,2.84,4.2,6.95,5.12-.07.26-.11.53-.12.8,0,3.13,5.49,5.67,12.24,5.67,5.8,0,10.67-1.88,11.92-4.4,2.1.58,4.26.87,6.44.85,6.75,0,12.24-2.55,12.24-5.68-.05-.89-.39-1.75-.98-2.43.21-.1.42-.21.62-.33,2.08.57,4.23.85,6.38.84,6.75,0,12.24-2.55,12.24-5.68,0-1.57-1.4-3.36-3.74-4.78ZM40.48,2.59c.88-.17,1.77-.25,2.66-.25,4.82,0,8.48,2.4,8.78,3.99.1.51-.12,1.12-.61,1.75-2.61.37-5.07,1.43-7.13,3.06-.53.41-1.03.85-1.5,1.33-.1.02-.2.04-.31.06-1.34.26-2.69.39-4.05.39-2.2,0-3.95-.36-5.17-.89,2.42-.8,3.95-2.11,4.11-3.7.11-1.16-.52-2.5-1.75-3.79,1.52-.96,3.2-1.62,4.97-1.95ZM39.09,18.46c-.12-.08-.23-.15-.36-.22-2.5-1.48-5.35-2.27-8.26-2.3.73-.7,1.32-1.53,1.75-2.44,1.53.72,3.63,1.13,6.1,1.13.9,0,1.79-.06,2.68-.16-.87,1.21-1.52,2.57-1.91,4ZM40.14,21.6c-2.81.08-5.56.87-7.98,2.3-1.18.67-2.21,1.59-3.01,2.69-.47-.21-.96-.4-1.46-.57-.16-1.5-1.53-3.15-3.73-4.49-.74-.45-1.52-.83-2.33-1.15,1.88-1.44,4.99-2.77,8.62-2.77,4.65,0,8.44,2.17,9.9,3.98ZM14.59,6.1c.17-1.73,4.34-4.41,9.54-4.41.5,0,1,.02,1.49.07,5.96.59,10.14,4.61,9.96,6.41-.09.87-1.34,1.78-3.37,2.38-1.04-1.82-4.19-3.05-7.93-3.05-.25,0-.5,0-.76.02-2.59-.5-4.47-1.5-5.38-2.3l-1.12,1.27c.81.68,1.73,1.23,2.71,1.64-.42.12-.83.25-1.24.39-.41.15-.81.31-1.2.49-.05-.02-.09-.05-.14-.07-1.66-.93-2.64-2.01-2.56-2.84ZM12.62,14.65c1.7-2.07,3.93-3.64,6.45-4.54,1.67-.6,3.43-.91,5.2-.92,3.51,0,6.13,1.24,6.55,2.38.35.95-.8,2.79-3.21,4.56-2.07.32-4.06,1.03-5.86,2.1-.69.41-1.33.89-1.92,1.43-.09.02-.18.04-.26.06-2.53-.63-5.17-.67-7.71-.11-.38-.16-.68-.46-.85-.83-.27-.73.13-2.29,1.61-4.13h0ZM10.99,29.86c-3.76-.76-6.07-2.38-6.07-3.55,0-1.8,4.56-5.4,10.54-5.4,5.18,0,9.29,2.69,10.3,4.59-1.14-.24-2.31-.36-3.47-.36-2.61,0-5.18.6-7.51,1.76-3.04-.13-5.33-1.03-6.42-1.81l-.99,1.37c1.24.89,3.07,1.56,5.11,1.9-.56.44-1.06.94-1.5,1.5h0ZM22.29,36.21c-6.34,0-10.54-2.4-10.54-3.98,0-1.8,4.56-5.4,10.54-5.4s10.54,3.6,10.54,5.4c0,1.59-4.21,3.98-10.54,3.98ZM40.65,32.66c-2.08.02-4.16-.27-6.16-.85-.14-.91-.71-1.87-1.64-2.79,1.87,1.21,4.85,1.96,7.89,1.96.84,0,1.69-.05,2.53-.14l-.2-1.68c-.77.09-1.55.13-2.33.13-3.43,0-6.01-.99-7.19-1.83l-.95,1.33c-.56-.5-1.17-.95-1.81-1.33-.04-.02-.08-.05-.12-.07,1.39-1.83,5.24-4.1,9.98-4.1,5.99,0,10.54,3.6,10.54,5.4,0,1.59-4.21,3.98-10.54,3.98ZM50.65,24.97c-.38-.31-.77-.6-1.19-.87,2.35-.95,4.4-2.53,5.92-4.56l-1.37-1c-.65.88-1.41,1.66-2.28,2.32-1.28,1.03-2.79,1.75-4.4,2.11-1.19-.52-2.44-.89-3.73-1.12-.53-1.07-.18-2.75.95-4.42l-1.4-.95c-1.02,1.5-1.51,3.02-1.48,4.36-.33-.47-.72-.89-1.15-1.28.43-2.43,2.08-5.07,4.68-7.09,2.29-1.78,4.99-2.79,7.42-2.79,2.03,0,3.69.71,4.69,2,2.3,2.96.61,8.14-3.77,11.54-.9.7-1.88,1.29-2.91,1.76h0ZM58.91,25.07c-1.49,0-2.97-.14-4.43-.42.04-.03.08-.06.12-.09.61-.47,1.18-.99,1.72-1.55l-.03.23c.84.1,1.68.15,2.53.14,3.2,0,6.33-.82,8.18-2.15l-.99-1.37c-1.18.85-3.76,1.83-7.19,1.83-.45,0-.89-.02-1.33-.04,1.35-1.71,2.21-3.76,2.49-5.92,5.45.39,9.48,3.67,9.48,5.36,0,1.59-4.21,3.98-10.54,3.98h0Z"/>
        <path class="cls-1" d="M21.62,17.37c3.01-1.09,5.67-2.94,6.95-4.82l-1.4-.95c-.82,1.2-2.91,3.01-6.13,4.18-.73.27-1.48.49-2.23.67l.39,1.65c.82-.2,1.63-.44,2.42-.73Z"/>
        <path class="cls-1" d="M22.38,32.84c-3.43,0-6.01-.99-7.19-1.83l-.99,1.37c1.84,1.33,4.98,2.15,8.18,2.15.84,0,1.69-.05,2.53-.14l-.2-1.68c-.77.09-1.55.13-2.33.13Z"/>
      </g>
      <g>
        <g>
          <path class="cls-1" d="M41.33,53.87c-.22-.37-.44-.72-.66-1.04-.6-.9-1.15-1.6-1.49-1.99-1.29-1.51-2.03-3.1-2.23-4.72-.08-.7-.54-1.29-1.19-1.54-.67-.24-1.4-.09-1.92.39-2.27,2.09-4.4,2.38-4.42,2.38-.03,0-.06,0-.09,0-.21.05-4.92,1.14-8.02,4.06-3.21-2.51-7.57-3.08-9.06-3.19-1.99-.16-3.63-.75-4.92-1.78-.55-.43-1.29-.53-1.93-.23-.65.3-1.06.91-1.09,1.63-.12,3.09-1.43,4.78-1.44,4.79,0,.03-.03.05-.05.08-.23.36-5.53,8.89-1,14.11,1.69,1.95,3.92,3.44,6.28,4.18,2.77.84,5.73.62,8.11-1.28,2.35.21,4.41-.85,5.97-3.03,1.3,1.21,2.86,1.95,4.58,2.14.78.94,1.75,1.58,2.86,1.92,2.29.7,5.23.14,8.5-1.72.77-.45,1.47-.92,2.08-1.45.32-.28.62-.56.88-.85,1.16-1.26,1.9-2.73,2.18-4.37.56-3.18-.66-6.26-1.95-8.51ZM21.45,65.01s-.07.1-.09.16c-1.36,2.25-3.17,3.3-5.28,3-.9-.13-1.85-.5-2.78-1.09-.94-.6-1.89-1.41-2.81-2.43-1.91-2.12-2.82-4.42-2.73-6.83.02-.43-.33-.78-.74-.8-.43-.02-.78.32-.8.74-.1,2.82.95,5.48,3.14,7.91,1.54,1.72,3.17,2.93,4.79,3.56-3.59,1.83-8.29-.09-11.16-3.4-3.67-4.23.8-11.75,1.12-12.26.24-.32,1.61-2.28,1.75-5.66,0-.18.12-.26.18-.29.07-.03.2-.06.33.05,1.53,1.2,3.47,1.91,5.76,2.09,1.44.11,5.81.66,8.67,3.25,0,0,.02,0,.02.02.02,0,.03.02.04.03.43.39.82.83,1.17,1.32,1.33,1.91,1.62,4.28.85,7.06-.39,1.4-.86,2.59-1.43,3.57ZM41.74,62.12c-.25,1.4-.89,2.65-1.95,3.74-.27.28-.56.55-.88.79-.47.38-.98.72-1.56,1.05-4.31,2.45-7.7,2.42-9.57-.06-.96-1.29-1.48-3.19-1.48-5.52,0-.3,0-.61.03-.92.16-2.84,1.13-5.11,2.9-6.75.31-.3.33-.78.04-1.1-.3-.31-.78-.33-1.1-.04-2.04,1.9-3.21,4.6-3.37,7.81-.13,2.3.17,4.3.86,5.91-.97-.33-1.87-.89-2.64-1.67.54-1.01.99-2.18,1.36-3.52.89-3.24.54-6.05-1.08-8.35-.26-.38-.55-.71-.84-1.04,2.67-2.45,6.79-3.48,7.19-3.58.4-.06,2.76-.48,5.25-2.78.13-.11.26-.09.33-.06.07.02.18.09.2.26.23,1.94,1.09,3.8,2.59,5.56.3.35.77.94,1.3,1.72.2.3.41.64.62.98,1.19,2.01,2.31,4.78,1.82,7.57Z"/>
          <path class="cls-1" d="M10.91,53.19c.08,0,7.61.38,8.02,5.65.02.33.25.59.54.68.09.03.19.04.29.03.43-.03.75-.4.71-.83-.41-5.29-6.39-6.94-9.49-7.07-.43-.02-.79.31-.81.74-.01.42.32.78.74.8Z"/>
          <path class="cls-1" d="M38.72,64.41c-.05.06-.11.1-.17.14-.19.13-.43.16-.65.1-.1-.03-.2-.09-.28-.16-.33-.28-.37-.76-.09-1.09.07-.08.14-.16.19-.25,1.59-2.07,1.02-4.53.11-6.41-.2-.42-.42-.81-.64-1.16-.67-1.1-1.32-1.82-1.34-1.84-.29-.31-.27-.79.05-1.09.32-.29.8-.27,1.09.05.41.45.85,1,1.28,1.66.21.31.42.65.62,1,1.43,2.64,2.26,6.19-.18,9.05Z"/>
        </g>
        <g>
          <g>
            <path class="cls-2" d="M72.02,54.78c-1.76-1.84-1.92-3.23-1.26-4.85.27-.52,3-6.18-2.11-9.71-6.65-5.48-14.2,1.82-14.58,10.19-1.22.73-2.01,1.6-2.17,1.78-3.4,3.21-5.13-1.2-10.41.26-.28.09-.55.2-.81.31.22.32.43.67.65,1.04,1.76-.65,3.71-.61,5.1.11,1.71.88,3.52.94,4.97.15,2.02-1.09,4.62-5.93,10.2-2.13,1.03.69,3.34,2.67,2.94,6.08-.08.72-.31,1.46-.69,2.24-1.46,3.02-4.07,5.55-7.47,6.85-3.5,1.34-10.71,2.1-15.29-.49-.27.3-.56.57-.88.85,3.07,1.91,7.78,2.77,14.26,1.42,2.18-.43,4.17-1.29,6.02-2.71,5.46,4.54,14.37,1.67,13.87-6.46-.33-1.67-1.15-3.67-2.34-4.93ZM61.44,65.39c1.97-1.76,4-4.68,4.29-7.25.57-4.93-3.58-7.33-4.03-7.58-2.44-1.62-4.66-1.45-6.38-.77.65-7.06,6.92-13.38,12.56-8.64.02.02.04.03.06.05,4.46,3.06,1.85,7.99,1.74,8.2-.06.08-.38.9-.46,1.7-.18,1.49.45,2.97,1.93,4.51,1.41,1.47,1.96,3.89,2.01,4.21.4,6.94-6.99,9.21-11.71,5.57Z"/>
            <path class="cls-1" d="M69.79,57.3c0,.21-.08.41-.24.58-.16.18-.39.27-.61.27-.17,0-.34-.05-.47-.15-.04-.02-.07-.05-.11-.08-4.9-4.62-1.5-9.99-1.47-10.04.13-.19.32-.32.54-.37.22-.05.44,0,.63.12.03,0,.05.03.07.04.22.19.5.64.19,1.14-.11.17-2.66,4.24,1.2,7.87.18.17.27.4.27.62Z"/>
          </g>
          <path class="cls-1" d="M55.37,54.39c.04.22-.02.44-.15.63-.03.04-2.33,3.2-6.26,3.2-1.08,0-2.29-.25-3.6-.86-.04-.02-.08-.04-.12-.06h0c-.35-.25-.47-.69-.3-1.07.2-.42.7-.61,1.13-.41,4.81,2.25,7.65-1.62,7.77-1.79.27-.37.79-.46,1.17-.21.2.15.33.34.37.56Z"/>
        </g>
      </g>
    </g>
  </g>
</svg>