<?xml version="1.0" encoding="UTF-8"?>
<svg id="Calque_2" xmlns="http://www.w3.org/2000/svg" viewBox="0 0 74.76 61.03">
  <defs>
    <style>
      .cls-1 {
        fill: #010101;
      }
    </style>
  </defs>
  <g id="Calque_1-2" data-name="Calque_1">
    <g>
      <g>
        <path class="cls-1" d="M43.32,34.62c-.42-1.45-.93-2.95-1.55-4.49-.18-.48-.38-.95-.58-1.43-3.84-8.99-10.58-18.89-17.69-25.71C20.48-.13,15.81-.88,11.98,1.09c-.45.25-7.08,4.06-7.08,4.06-2.27,1.32-3.9,3.43-4.57,5.97-.67,2.53-.32,5.16.98,7.43l.02.02,2.64,4.55c2.19,3.78,2.81,8.17,1.73,12.4-1.44,5.67-.63,11.58,2.3,16.64,3.48,6.03,10.47,8.79,16.91,7.19.61-.15,1.22-.34,1.81-.57.74-.28,1.46-.62,2.16-1.03l1.76-1.02,3.54-2.04,1.34-.78c6.73-3.88,9.94-11.82,7.8-19.29ZM25.49,57.81c-.53.17-1.06.31-1.6.41-5.68,1.09-11.69-1.44-14.74-6.72-2.75-4.77-3.52-10.32-2.16-15.65,1.16-4.55.5-9.29-1.85-13.35l-.02-.05-2.64-4.54c-1.15-1.99-1.45-4.26-.87-6.45s1.99-4.03,3.95-5.16l2.4-1.39c-.42.74-.76,1.53-.98,2.37-.68,2.54-.32,5.21,1,7.46l2.64,4.54.03.05c2.17,3.76,2.78,8.14,1.7,12.36-1.44,5.66-.63,11.57,2.3,16.64,2.01,3.48,5.18,5.86,8.75,6.95,1.95.6,4.03.81,6.09.6l-1.27.73h0c-.08.04-.17.08-.25.12-.8.46-1.63.81-2.48,1.08ZM34.87,52.77c-.93.54-1.91.96-2.9,1.26-.81.25-1.63.42-2.46.52-5.37.62-10.85-1.92-13.72-6.89-2.75-4.76-3.52-10.32-2.16-15.65,1.16-4.55.5-9.28-1.84-13.35l-.03-.05-2.64-4.54-.02-.03c-1.13-1.95-1.43-4.23-.85-6.42s1.99-4.02,3.95-5.16c3.38-1.95,7.64-1.36,10.36,1.47,6.94,6.65,13.51,16.27,17.29,25.02.21.47.4.94.59,1.4.64,1.59,1.18,3.15,1.61,4.64,1.97,6.88-.98,14.19-7.18,17.78Z"/>
        <path class="cls-1" d="M40.61,35.39c-.43-1.48-.98-3.06-1.64-4.69-.19-.46-.38-.92-.58-1.38-1.01-2.3-2.23-4.69-3.63-7.11-3.72-6.45-8.54-12.72-13.22-17.2l-.07-.07c-2.23-2.31-5.74-2.8-8.53-1.19-3.34,1.93-4.48,6.22-2.54,9.57l2.67,4.6c2.55,4.4,3.25,9.53,2,14.45-1.26,4.95-.55,10.12,2.01,14.54,2.25,3.9,6.29,6.12,10.49,6.23.75.02,1.5-.03,2.26-.15,1.47-.22,2.93-.73,4.29-1.52,5.61-3.24,8.28-9.85,6.49-16.08ZM33.46,50.33c-1.61.93-3.36,1.41-5.1,1.48-.68.03-1.35,0-2.01-.1-3.29-.46-6.34-2.37-8.13-5.46-2.38-4.12-3.04-8.94-1.87-13.55,1.34-5.26.59-10.75-2.13-15.45l-2.67-4.59c-1.57-2.72-.65-6.2,2.06-7.77,2.26-1.3,5.1-.9,6.92.98l.09.09c4.6,4.4,9.34,10.57,13,16.91,1.35,2.33,2.52,4.64,3.5,6.85.21.47.4.93.59,1.39.66,1.62,1.21,3.18,1.64,4.65,1.61,5.64-.81,11.63-5.89,14.57Z"/>
        <path class="cls-1" d="M34.42,32.62c-.05-.51-.16-1.03-.32-1.55-.2-.65-.48-1.31-.85-1.94-2.12-3.66-6.1-5.18-9.06-3.46-2.97,1.71-3.65,5.92-1.53,9.57.96,1.67,2.31,2.89,3.77,3.57.48.22.97.38,1.46.48,1.32.26,2.65.09,3.83-.59,2.04-1.18,3-3.53,2.7-6.08ZM31.06,37.56c-.75.43-1.59.59-2.44.5-.52-.04-1.04-.18-1.54-.41-1.26-.55-2.44-1.61-3.28-3.07-1.74-3.01-1.28-6.42,1.05-7.77,2.32-1.34,5.51-.03,7.25,2.98.38.65.65,1.32.82,1.99.15.56.22,1.12.23,1.65.03,1.77-.7,3.33-2.09,4.13Z"/>
        <path class="cls-1" d="M31.61,32.7c-.12-.71-.38-1.45-.8-2.17-1.32-2.29-3.61-3.36-5.22-2.43-1.6.93-1.82,3.45-.5,5.74.74,1.28,1.78,2.17,2.84,2.55.63.24,1.28.28,1.86.1.18-.05.35-.12.52-.22.58-.33.98-.88,1.18-1.54.2-.6.24-1.3.12-2.03ZM29.65,35.13c-.23.13-.5.18-.79.13-.88-.09-1.93-.88-2.62-2.08-.92-1.6-.92-3.4.01-3.93.93-.54,2.5.35,3.42,1.94.5.88.73,1.81.67,2.57-.04.63-.27,1.13-.69,1.37Z"/>
      </g>
      <path d="M72.88,27.28c-.15-.05-.18-.11-.17-.26.1-1.87-1.48-3.31-3.33-3.03-1.74.26-2.82,2.03-2.28,3.73.03.1.05.16-.06.23-1.41.91-2.81,1.82-4.21,2.73-.05.03-.12.05-.18.04-.5,0-1-.05-1.5-.04-1.87.05-3.69.43-5.46,1-.13.04-.21.02-.31-.06-.83-.65-1.71-1.19-2.66-1.64-2.02-.95-4.17-1.38-6.39-1.51-1.72-.1-3.44-.03-5.14.23.2.48.4.95.58,1.43.57-.08,1.15-.13,1.73-.16,1.75-.09,3.5-.02,5.22.31,1.79.34,3.46.97,4.97,1.98.05.03.09.06.15.1-.23.11-.44.21-.65.3-1.3.62-2.52,1.36-3.59,2.33-.75.69-1.38,1.47-1.81,2.4-.56,1.25-.62,2.53-.19,3.82.41,1.22,1.09,2.29,2.03,3.17,1.28,1.2,2.81,1.63,4.53,1.36,1.45-.22,2.73-.85,3.94-1.64.8-.53,1.55-1.15,2.26-1.8.03-.04.08-.07.13-.12.11.27.24.53.32.79.44,1.44,1.35,2.56,2.41,3.58.56.52,1.08,1.07,1.6,1.63.31.33.57.7.71,1.14.29.9.12,1.74-.4,2.5-.5.77-1.25,1.25-2.06,1.64-1.15.56-2.38.9-3.64,1.16-1.3.27-2.63.45-3.95.58-.08.01-.15,0-.22,0-5.85.01-11.7,0-17.54.01-.75,0-1.47-.13-2.2-.26-.45-.07-.9-.16-1.34-.26l-3.54,2.04h37.72c-.04.07-.06.13-.09.18-.64,1.22-1.66,1.95-2.97,2.31-.74.21-1.51.29-2.29.3-10.95,0-21.91,0-32.87-.01-1.08,0-2.13-.14-3.13-.59-.1-.04-.19-.09-.29-.14-.59.23-1.2.42-1.81.57.48.42,1.04.76,1.69,1.03,1.18.49,2.42.65,3.69.65h32.56c.89,0,1.76-.08,2.62-.3,2.41-.61,3.99-2.09,4.67-4.49.04-.14.05-.29.03-.42-.06-.39-.37-.61-.8-.61-2.08-.01-4.17,0-6.25,0h-.17c.22-.14.46-.24.68-.35.91-.43,1.76-.96,2.42-1.73,1.01-1.17,1.34-2.53.99-4.04-.18-.76-.61-1.41-1.14-1.97-.67-.72-1.38-1.4-2.07-2.11-.54-.55-1.04-1.14-1.34-1.87-.27-.67-.53-1.34-.8-2.01-.04-.1-.02-.16.05-.25.45-.55.92-1.09,1.35-1.67.97-1.31,1.78-2.7,2.31-4.25.02-.07.09-.12.15-.16,1.38-.9,2.77-1.8,4.15-2.7.1-.07.16-.05.26.03.75.65,1.61.87,2.58.66,1.21-.27,2.14-1.36,2.21-2.57.08-1.33-.66-2.51-1.87-2.94ZM63.79,35.27c-.6,1.29-1.4,2.46-2.29,3.57-1.09,1.37-2.31,2.61-3.73,3.65-.95.69-1.95,1.28-3.08,1.59-.45.12-.92.18-1.38.26,0-.01-.01-.03-.01-.05-1.02,0-1.91-.35-2.66-1.04-.7-.65-1.21-1.43-1.53-2.32-.5-1.39-.25-2.66.61-3.83.6-.83,1.38-1.47,2.23-2.03,1.65-1.08,3.47-1.79,5.36-2.31,1.31-.35,2.64-.61,4-.68.67-.03,1.34-.02,2,.15.1.03.21.06.31.1.54.23.75.59.71,1.16-.05.63-.27,1.21-.54,1.78ZM72.46,31.23c-.63.29-1.38.08-1.75-.52-.11-.19-.24-.34-.45-.42-.25-.08-.48-.04-.7.11-1.22.79-2.44,1.58-3.67,2.38-.04.03-.09.05-.16.09-.06-.72-.39-1.25-1.04-1.59.07-.05.11-.08.16-.11,1.2-.78,2.4-1.56,3.6-2.35.49-.31.58-.72.25-1.2-.37-.56-.3-1.29.17-1.76.46-.47,1.19-.54,1.74-.16.55.37.75,1.07.49,1.69-.07.18-.14.38-.12.57.03.41.37.66.81.64.67-.02,1.23.37,1.41.99.2.65-.12,1.36-.74,1.64Z"/>
    </g>
  </g>
</svg>