<?xml version="1.0" encoding="UTF-8"?>
<svg id="Calque_2" xmlns="http://www.w3.org/2000/svg" viewBox="0 0 73.98 66.02">
  <defs>
    <style>
      .cls-1 {
        stroke-width: .5px;
      }

      .cls-1, .cls-2 {
        stroke: #000;
        stroke-miterlimit: 10;
      }

      .cls-1, .cls-2, .cls-3 {
        fill: #000;
      }

      .cls-2 {
        stroke-width: .25px;
      }
    </style>
  </defs>
  <g id="Calque_1-2" data-name="Calque_1">
    <g>
      <g>
        <path class="cls-1" d="M47.34,19.1h-.18c-1.81.04-5.21.41-7.61,2.85-1.44,1.44-2.51,3.22-3.07,5.1-.48,1.7-1.81,2.99-3.47,3.47-1.89.55-3.62,1.63-5.1,3.07-4.14,4.14-2.99,11.79-1.29,13.53,1.74,1.74,9.43,2.85,13.53-1.29,1.44-1.44,2.51-3.22,3.07-5.1.48-1.7,1.81-2.99,3.47-3.47,1.89-.55,3.62-1.63,5.1-3.07,2.4-2.4,2.81-5.8,2.85-7.61.04-2.51-.59-4.95-1.55-5.91-.92-.92-3.25-1.55-5.73-1.55ZM51.11,33.52c-1.33,1.33-2.96,2.33-4.69,2.81-2,.59-3.55,2.14-4.14,4.14-.52,1.74-1.48,3.33-2.81,4.69-2.18,2.18-5.29,2.55-6.98,2.55h-.18c-2.44,0-4.44-.67-5.06-1.29-1.48-1.48-2.4-8.5,1.29-12.2,1.33-1.33,2.96-2.33,4.69-2.81,2-.59,3.55-2.14,4.14-4.14.52-1.74,1.48-3.33,2.81-4.69,2.18-2.18,5.29-2.55,6.98-2.55,2.55,0,4.58.67,5.25,1.29.63.63,1.29,2.7,1.29,5.21-.04,1.7-.41,4.8-2.59,6.98Z"/>
        <path class="cls-3" d="M45.61,33.33c-.07,0-.18.04-.26.07-.41.26-.81.52-1.22.74-.41.22-.81.48-1.18.78-.22.15-.26.44-.07.67.15.22.44.26.67.07.33-.26.7-.48,1.07-.7.41-.22.85-.48,1.29-.78.22-.15.3-.44.15-.67-.15-.07-.3-.18-.44-.18h0Z"/>
        <path class="cls-3" d="M33.67,44.94c-.07,0-.15.04-.22.07-.81.44-1.66.81-2.51,1.07-.26.07-.37.33-.3.59.07.26.33.41.59.3.89-.3,1.81-.67,2.66-1.15.22-.11.33-.41.18-.67-.07-.11-.26-.22-.41-.22h0Z"/>
        <path class="cls-3" d="M52,25.02c-.3.85-.63,1.7-1.07,2.51-.11.22-.04.52.18.67.22.11.52.04.67-.18.48-.85.85-1.77,1.15-2.66.07-.26-.04-.52-.3-.59-.04,0-.11-.04-.15-.04-.22-.04-.41.11-.48.3h0Z"/>
        <path class="cls-3" d="M49.78,29.6c-.15,0-.26.07-.37.18-.3.37-.63.74-.96,1.07-.3.3-.63.59-.96.89-.18.18-.22.48-.04.67s.48.22.67.04c.33-.3.67-.59,1-.92.37-.37.7-.74,1.04-1.15.15-.22.15-.52-.07-.67-.07-.07-.18-.11-.29-.11h0Z"/>
        <path class="cls-3" d="M38.03,41.43c-.15,0-.26.04-.37.15-.26.3-.55.59-.85.89-.33.33-.74.7-1.11,1-.22.15-.22.48-.07.67.15.22.48.22.67.07.41-.33.81-.7,1.18-1.07.3-.3.59-.63.89-.92.18-.18.15-.48-.04-.67-.07-.07-.18-.11-.29-.11h0Z"/>
        <path class="cls-3" d="M41.25,36.85c-.15,0-.3.07-.37.18-.3.37-.52.74-.74,1.15-.22.41-.48.85-.78,1.26-.15.22-.07.52.15.67.22.15.52.07.67-.15.3-.44.59-.89.81-1.33.18-.33.41-.7.67-1.04.15-.22.11-.52-.11-.67-.11-.04-.22-.07-.29-.07h0Z"/>
        <path class="cls-3" d="M43.94,24.32c.22-.15.22-.48.07-.67-.11-.11-.22-.18-.37-.18-.11,0-.22.04-.3.11-.41.33-.78.67-1.15,1.04-.33.33-.63.67-.92,1-.18.18-.15.48.04.67s.48.15.67-.04c.3-.33.59-.63.89-.96.33-.33.7-.67,1.07-.96h0Z"/>
        <path class="cls-3" d="M49.01,21.1c-.07-.18-.26-.33-.44-.33-.04,0-.11,0-.15.04-.89.3-1.81.7-2.66,1.15-.22.11-.33.41-.18.67.11.22.41.33.67.18.81-.44,1.66-.81,2.51-1.07.18-.11.33-.37.26-.63h0Z"/>
        <path class="cls-3" d="M28.53,39.66c-.07-.04-.15-.07-.22-.07-.18,0-.33.07-.41.26-.48.85-.85,1.77-1.15,2.66-.07.26.07.52.3.59.26.07.52-.07.59-.3.26-.85.63-1.7,1.07-2.51.15-.22.04-.52-.18-.63h0Z"/>
        <path class="cls-3" d="M30.23,38.03c.33-.41.67-.78,1-1.11.3-.3.59-.59.89-.85.18-.18.22-.48.04-.67-.11-.11-.22-.15-.37-.15-.11,0-.22.04-.33.11-.33.3-.63.59-.92.89-.37.37-.74.78-1.07,1.18-.15.22-.15.52.07.67.22.18.55.15.7-.07h0Z"/>
        <path class="cls-3" d="M38.77,30.82c.3-.37.55-.78.78-1.18.22-.41.48-.81.74-1.22.15-.22.07-.52-.15-.67-.07-.04-.18-.07-.26-.07-.15,0-.3.07-.41.22-.3.44-.55.85-.78,1.29-.18.37-.44.74-.7,1.07-.15.22-.11.52.07.67.26.11.55.07.7-.11h0Z"/>
        <path class="cls-3" d="M34.3,34.37c.41-.3.85-.55,1.26-.78.37-.22.78-.44,1.15-.74.22-.15.26-.44.11-.67-.11-.11-.22-.18-.37-.18-.11,0-.18.04-.3.11-.33.26-.67.48-1.04.67-.44.26-.89.52-1.33.81-.22.15-.26.44-.15.67.15.22.44.26.67.11h0Z"/>
        <path class="cls-3" d="M36.92,36.81c-.11-.11-.22-.15-.33-.15s-.26.04-.33.15l-2.14,2.14c-.18.18-.18.48,0,.67s.48.18.67,0l2.14-2.14c.18-.18.18-.48,0-.67h0Z"/>
        <path class="cls-3" d="M47.71,26.68l2.14-2.14c.18-.18.18-.48,0-.67-.11-.11-.22-.15-.33-.15s-.26.04-.33.15l-2.14,2.14c-.18.18-.18.48,0,.67.18.18.48.18.66,0h0Z"/>
        <path class="cls-3" d="M41.25,32.48c-.11-.11-.22-.15-.33-.15s-.26.04-.33.15l-2.14,2.14c-.18.18-.18.48,0,.67s.48.18.67,0l2.14-2.14c.18-.18.18-.48,0-.67h0Z"/>
        <path class="cls-3" d="M32.6,41.13c-.11-.11-.22-.15-.33-.15s-.26.04-.33.15l-2.14,2.14c-.18.18-.18.48,0,.67s.48.18.67,0l2.14-2.14c.22-.19.22-.48,0-.67h0Z"/>
        <path class="cls-3" d="M43.39,31.01l2.14-2.14c.18-.18.18-.48,0-.67-.11-.11-.22-.15-.33-.15s-.26.04-.33.15l-2.14,2.14c-.18.18-.18.48,0,.67.18.18.48.18.66,0h0Z"/>
      </g>
      <g>
        <path class="cls-1" d="M72.29,46.49c-1.12-3.12-3.29-5.14-6.26-5.84-4.33-1.02-9.24.98-11.86,3.48-1.28,1.22-2.11,2.87-2.43,4.79-1.18-.11-2.02,0-2.17.03-.46.04-6.45.75-6.54,6.72-.12,1.21-.15,3.72,1.32,5.96,1.28,1.96,3.38,3.24,6.25,3.82,1.05.21,2.04.3,2.97.3,3.25,0,5.74-1.13,7.38-2.23.57-.38,1.08-.78,1.51-1.16.11.01.22.03.33.04,1.47.2,2.74.37,3.11,1.04.08.14.22.24.38.26.03,0,.05,0,.08,0,.13,0,.27-.05.36-.15.09-.09,2.19-2.14,3.95-5.26,2.35-4.19,2.91-8.28,1.63-11.85ZM54.89,44.89c2.23-2.13,6.26-3.87,9.99-3.38-.01.05-.04.09-.06.13-.06.08-.28.18-.46.25-.29.13-.61.27-.87.53-.22.23-.34.54-.44.81-.08.22-.17.46-.29.55-.08.07-.32.09-.53.11-.31.03-.66.07-.97.25-.29.16-.49.42-.67.65-.14.19-.29.39-.43.44-.1.04-.33,0-.54-.04-.31-.05-.66-.11-1.02-.02-.33.08-.59.29-.82.47-.19.15-.38.3-.52.32-.11.01-.32-.07-.52-.15-.3-.12-.63-.25-1-.24-.34.01-.65.17-.92.31-.21.11-.43.22-.57.21-.07,0-.17-.05-.28-.11.27-.4.57-.76.91-1.09ZM49.67,50s.03,0,.05,0c.09-.01,1.02-.16,2.29,0,.04.01.07.02.11.03.03,0,.06,0,.09,0,1.89.28,4.44,1.22,6.26,4.09,2,3.17,3.42,4.76,4.29,5.55-1.48.31-4.33.81-7.39.76-5.8-.08-9.58-1.96-11.24-5.57.6-4.44,5.33-4.85,5.54-4.86ZM50.8,64.44c-2.58-.52-4.45-1.65-5.57-3.36-.97-1.48-1.19-3.12-1.2-4.3,2.12,3.01,6,4.63,11.35,4.7,2.92.04,5.61-.38,7.21-.7-1.69,1.78-5.64,4.89-11.78,3.66ZM69.76,57.8c-1.24,2.21-2.7,3.89-3.38,4.63-.67-.59-1.75-.8-2.97-.97.54-.57.86-1.02.97-1.18.04-.04.07-.09.09-.14.11-.25.01-.53-.21-.66-.01,0-.03-.01-.04-.02,0,0,0,0-.01,0-.01,0-1.65-.85-4.83-5.89-1.84-2.92-4.41-4.02-6.24-4.42-.12-.03-.23-.05-.35-.07.13-.78.36-1.51.68-2.18.22.13.48.24.76.25h.06c.4,0,.73-.17,1.03-.33.18-.09.37-.19.48-.19.15,0,.36.08.57.16.31.13.67.27,1.05.22.43-.06.76-.32,1.03-.53.16-.13.32-.25.43-.28.14-.04.37,0,.59.04.34.06.72.12,1.09-.02.41-.16.67-.5.88-.78.12-.16.25-.32.34-.37.13-.07.36-.1.58-.12.3-.03.64-.07.93-.24,4.46,3.47,3.74,9.5,3.73,9.56-.04.29.16.55.45.59.02,0,.04,0,.07,0,.26,0,.49-.19.52-.46.04-.28.81-6.69-4.12-10.52.04-.09.07-.19.11-.27.07-.17.14-.37.22-.45.11-.11.32-.21.53-.3.31-.13.67-.29.9-.61.12-.17.19-.35.24-.54,2.54.64,4.41,2.41,5.39,5.13,1.2,3.32.67,7.01-1.54,10.96Z"/>
        <path class="cls-1" d="M51.35,58.12c.57.04,1.25.06,1.97.06,2.37,0,5.11-.17,5.25-.18.25-.01.45-.21.49-.46.03-.25-.12-.49-.36-.56-.02,0-1.88-.64-4.06-2.7-1.56-1.47-3.56-2.23-5.09-1.94-.83.16-1.46.63-1.78,1.31-.38.82-.32,1.75.15,2.55.64,1.09,1.93,1.81,3.43,1.92ZM48.72,54.09c.18-.38.52-.62,1.03-.72.15-.03.31-.04.48-.04,1,0,2.42.5,3.7,1.71.96.91,1.87,1.56,2.61,2.02-1.57.07-3.72.13-5.1.02-1.14-.08-2.14-.62-2.6-1.41-.3-.52-.34-1.08-.1-1.58Z"/>
        <path class="cls-1" d="M66.09,43.69c-.21.2-.22.53-.02.74,2.55,2.72,3.6,5.8,3.12,9.14-.36,2.51-1.5,4.25-1.52,4.28-.16.24-.1.57.14.73.09.06.19.09.29.09.17,0,.34-.08.43-.23.05-.08,1.27-1.92,1.68-4.66.38-2.54.1-6.34-3.38-10.05-.19-.21-.52-.22-.74-.02Z"/>
      </g>
      <path class="cls-2" d="M7.3,19.17c.47,1.34,2.69,2.64,5.8,3.39,2.65.64,7.1,1.16,13.27.05.36-.07.69-.15,1.03-.22.86-.4,1.79-.68,2.79-.85,3.44-1.34,5.27-3.33,6.21-4.95,1.33-2.27,1.64-5,.85-7.51.03,0,.06-.02.09-.03-.15-.36-.28-.73-.4-1.1-.03.01-.07.02-.1.03-1.2-2.68-3.57-4.65-6.43-5.32h0c-3.05-.74-6.63-.07-10.35,1.94-5.51,2.97-8.66,6.15-10.33,8.3-1.97,2.53-2.9,4.93-2.43,6.28ZM36.44,12.95c-.14,1.07-.5,2.1-1.04,3.04-1.13,1.93-3.65,4.45-9.24,5.46-5.97,1.08-10.25.58-12.79-.04-.72-.17-1.43-.39-2.12-.66,2.41.25,6.95.25,14-1.47,7.19-1.76,10.06-4.58,11.19-6.34ZM35.66,11.98c-1.42,2.62-5.32,4.87-10.69,6.18-6.95,1.7-12.09,1.79-14.77,1.28,2.77-.44,7.63-1.63,13.89-3.59,5.91-1.85,10.21-3.74,12.07-5.25-.09.48-.25.95-.49,1.37h0ZM35.88,9.1h0s.08.02.12.03c-.36.59-2.98,2.71-12.26,5.62-7.45,2.34-12.02,3.32-14.18,3.63,1.89-1.11,6.06-3.19,13.35-6,7.52-2.91,11.69-3.58,12.97-3.28ZM22.49,11.29h0c-5.69,2.2-9.31,3.89-11.34,4.92-.66.33-1.24.64-1.75.93,1.61-1.85,5.32-4.95,12.34-8.2,4.45-2.06,8.44-2.82,11.22-2.15.82.17,1.59.55,2.23,1.09-2.4-.02-7,1.21-12.71,3.42ZM10.65,13.6c1.61-2.06,4.64-5.12,9.97-7.99,3.46-1.86,6.75-2.5,9.52-1.83h0c1.43.34,2.75,1.06,3.81,2.07-.23-.08-.47-.15-.72-.21h0c-2.15-.52-5.98-.55-11.98,2.23-5.6,2.59-8.99,5.04-10.85,6.64-.27.23-.63.56-1.01.93.38-.64.79-1.25,1.25-1.84Z"/>
      <g>
        <path class="cls-1" d="M25.21,57.81c.1-1.18-.8-2.37-2.61-3.46-2.21-1.33-5.55-2.35-8.87-2.73.44-.39.89-.81,1.35-1.28,1.88-1.92,3.41-4.15,4.52-6.6.87-1.95,1.71-4.73.88-7.03l.08-.08c.43-.43.43-1.12,0-1.55-.43-.43-1.12-.43-1.55,0,0,0,0,0,0,0l-1.48,1.56c.12-1.83-.26-3.27-1.29-3.89s-2.48-.28-4.04.69l.68-2.03h0c.18-.59-.15-1.2-.73-1.38-.58-.18-1.19.15-1.37.73l-.03.11c-2.43.34-4.48,2.38-5.8,4.07-1.64,2.13-2.89,4.53-3.71,7.09-1.78,5.83-1.2,9.26,1.88,11.11.2.12.42.24.64.35.12.09.24.17.36.25-.53.61-.86,1.36-.93,2.17-.14,1.65.76,3.15,2.56,4.22,1.56.94,3.69,1.53,6.34,1.76,5.98.52,12.84-1.02,13.1-4.07ZM15.87,33.37c.85.51,1.14,2.01.83,4.15l-9.13,9.66,4.25-12.6c1.75-1.28,3.21-1.72,4.05-1.21ZM4.68,53.2c-.16-.1-.55-.37-.55-.37-.22-.1-.42-.21-.61-.33-1.4-.84-2.2-2.05-2.45-3.7-.25-1.65.04-3.8.89-6.57,1.25-4.08,5.01-10.3,9.12-10.67l.32-.26.1-.34c.06-.19.26-.3.45-.24.19.06.3.26.24.45h0l-5.85,17.36.62.37,12.59-13.31c.14-.14.37-.14.51,0,.14.14.14.37,0,.51l-.25.25-.08.4c1.59,3.8-2.13,10.04-5.15,13.05-.64.64-1.26,1.21-1.85,1.7-2.77-.21-5.1.09-6.76.88-.46.21-.89.48-1.28.81h0ZM20.56,60.48c-2.42.68-5.48.92-8.39.66-2.5-.22-4.58-.79-6.02-1.66-1.56-.94-2.32-2.16-2.2-3.53.11-1.23.91-2.24,2.32-2.9,1.6-.76,3.91-1.03,6.68-.79,3.44.3,7,1.34,9.28,2.71,1.53.92,2.33,1.9,2.26,2.77-.09,1.07-1.52,2.07-3.92,2.74Z"/>
        <path class="cls-1" d="M5.55,57.59c1.48,1.82,4.01,2.65,6.28,2.08.48-.12.3-.87-.19-.75-2.03.5-4.23-.25-5.54-1.87-.31-.38-.87.15-.56.53h0Z"/>
      </g>
      <g>
        <path class="cls-3" d="M73.58,21.49l-.03.14c-.5,2.12-1.41,4.12-2.71,5.95-.96,1.35-2.38,2.25-4.02,2.53s-3.27-.1-4.62-1.05c-1.35-.96-2.25-2.38-2.52-4.01-.28-1.63.1-3.27,1.05-4.62,1.67-2.36.6-4.93-.82-6.41-.78-.81-2.87-2.54-5.26-.98-2.86,1.86-6.71,1.05-8.57-1.81s-1.05-6.71,1.81-8.57c1.79-1.17,3.72-1.96,5.74-2.36,1.92-.38,3.89-.39,5.83-.03,1.79.33,3.53.97,5.18,1.89,1.54.87,2.96,1.97,4.21,3.27.14.15.29.31.43.47,2.44,2.72,4.06,6.14,4.55,9.64.27,2,.19,4.01-.25,5.96h0ZM61.16,22.96c-.13.6-.15,1.22-.05,1.84.21,1.25.9,2.34,1.93,3.07,1.03.73,2.29,1.02,3.53.81,1.25-.21,2.34-.9,3.07-1.93,1.19-1.68,2.03-3.51,2.48-5.44.43-1.82.51-3.69.25-5.57-.45-3.21-1.94-6.36-4.19-8.86-.13-.15-.26-.29-.4-.43-1.15-1.2-2.46-2.21-3.87-3.01-1.5-.85-3.09-1.42-4.72-1.73-1.76-.32-3.54-.32-5.29.02-1.83.36-3.59,1.08-5.23,2.15-2.19,1.42-2.81,4.37-1.38,6.56,1.42,2.19,4.37,2.81,6.56,1.38,2.7-1.76,5.45-.54,7.11,1.2,1.81,1.88,3.15,5.18.96,8.27-.37.51-.62,1.09-.76,1.69h0Z"/>
        <path class="cls-3" d="M59.37,10.47s0,.03-.02.05c-.07.19-.28.28-.47.21-1.98-.75-4.3-.47-6.05.73-.17.11-.39.07-.51-.09-.11-.17-.07-.39.09-.51,1.94-1.33,4.52-1.64,6.72-.8.18.06.27.24.23.41h0Z"/>
        <path class="cls-3" d="M71.34,20.85c-.45,1.99-1.3,3.89-2.52,5.54-.12.16-.35.2-.51.08-.16-.12-.2-.35-.08-.51,2.1-2.84,3.06-6.49,2.65-9.99-.02-.2.12-.38.32-.41.2-.02.38.12.41.32.2,1.65.1,3.34-.27,4.96h0Z"/>
        <path class="cls-3" d="M70.2,20.22c-.14.64-.34,1.27-.59,1.87-.08.19-.29.28-.47.2-.19-.08-.28-.29-.2-.47.75-1.85,1-3.88.72-5.86-.02-.2.11-.38.31-.41.2-.03.38.11.41.31.21,1.46.14,2.93-.18,4.36h0Z"/>
        <path class="cls-3" d="M59.94,3.6v.02c-.06.19-.26.31-.45.25-2.4-.7-5.03-.67-7.41.09-.19.06-.4-.04-.46-.24-.06-.19.04-.4.24-.46,2.52-.8,5.29-.84,7.83-.1.19.06.29.25.25.43h0Z"/>
        <path class="cls-3" d="M57.05,4.58c-.04.19-.24.32-.44.28-1.64-.37-3.43-.14-4.92.64-.18.09-.4.03-.49-.16-.09-.18-.03-.4.16-.49,1.64-.86,3.61-1.12,5.42-.71.2.05.32.24.27.44h0Z"/>
      </g>
    </g>
  </g>
</svg>