<?xml version="1.0" encoding="UTF-8"?>
<svg id="Calque_2" xmlns="http://www.w3.org/2000/svg" viewBox="0 0 75.21 59.34">
  <defs>
    <style>
      .cls-1 {
        fill: none;
      }
    </style>
  </defs>
  <g id="Calque_1-2" data-name="Calque_1">
    <g>
      <g>
        <g>
          <path class="cls-1" d="M1.67,21.43c.3,1.01,2.61,3.34,3.98,4.21,0-.05,0-.11.01-.16.48-1.91,1.24-3.76,1.68-5.68.49-2.13-.25-3.64-1.92-4.49-.78-.4-1.28-.36-1.64.63-.42,1.13-.96,2.28-1.71,3.22-.62.78-.67,1.41-.41,2.28Z"/>
          <path class="cls-1" d="M10.56,30.32c0-.16.02-.32.06-.46.53-1.9,1.23-3.75,1.67-5.68.45-1.9-.5-3.65-2.15-4.37-.69-.3-1.17-.22-1.42.59-.49,1.59-1.07,3.16-1.53,4.75-.36,1.24,1.64,3.8,3.37,5.17Z"/>
          <path class="cls-1" d="M20.49,39.4c0-.07.01-.14.03-.21.48-1.81,1.19-3.56,1.62-5.38.5-2.1-.22-3.79-1.82-4.54-.75-.35-1.56-.7-1.84.68-.27,1.32-.78,2.59-1.19,3.88-.69,2.23,1.17,4,3.2,5.57Z"/>
          <path class="cls-1" d="M15.42,34.87c.1-.31.21-.65.33-1.02.55-1.89,1.13-3.79,1.46-5.72.28-1.58-.47-2.85-1.96-3.57-.78-.37-1.44-.25-1.72.68-.43,1.38-.85,2.78-1.28,4.17-.6,1.98,1.36,3.94,3.16,5.45Z"/>
          <path class="cls-1" d="M27.2,36.6v.05c.02.1.03.21.03.32v.02c0,.31-.03.65-.11,1.01,0,0,0,.02,0,.03s0,.02,0,.03c-.1.42-.21.84-.34,1.27-.01.04-.02.09-.03.13-.13.47-.27.94-.41,1.42-.15.46-.29.93-.42,1.4-.15.47-.28.94-.41,1.42-.04.12-.06.22-.08.33-.02.08-.03.16-.05.23h0c-.34-.28-.7-.59-1.06-.93-.27-.25-.54-.52-.78-.81-.25-.28-.48-.58-.69-.87-.13-.2-.26-.4-.37-.6-.39-.72-.57-1.43-.39-2.09.08-.28.17-.57.26-.85.27-.85.57-1.68.84-2.53.08-.26.15-.53.22-.79.05-.18.1-.33.16-.46.06-.14.13-.27.21-.36.01-.02.03-.05.05-.06.07-.09.15-.15.23-.19h0c.39,1.07,1.01,2.22,1.63,3.07.04-.15.1-.3.19-.43.25-.42.51-.83.77-1.23.08.11.15.2.21.31.1.16.17.33.23.51.01.03.03.06.04.1h0c.03.1.04.21.06.31.02.08.05.16.06.25Z"/>
          <path class="cls-1" d="M31.24,39.29h0c-.16.25-.32.5-.48.74-.38.62-.36,1.42-.14,2.26.04.18.1.36.16.53,0,0-.01.03-.01.04-.02.08-.04.15-.05.23l-.02.12s-.01.09-.01.14c-.02.2-.02.38-.01.58v.02s0,0,0,0c-.04.07-.08.13-.13.2-.04.06-.08.13-.13.2-.09.13-.17.27-.26.41-.05.08-.09.16-.13.23-.04.06-.07.12-.11.19s-.07.14-.11.2c-.04.07-.07.14-.11.21-.03.05-.05.11-.08.17-.02.07-.05.14-.08.21,0,0,0,.02-.01.03-.02.05-.03.11-.05.16-.03.05-.04.11-.07.16h0c-.03.12-.08.22-.13.31h0c-.03.06-.05.1-.08.14-.08.12-.18.22-.31.28-.04.02-.09.04-.14.04-.04,0-.08.01-.13.01-.14,0-.29-.04-.47-.11-.09-.04-.17-.08-.27-.14-.08-.05-.16-.11-.24-.17h0c-.16-.14-.3-.29-.43-.44-.06-.08-.13-.16-.2-.24-.14-.17-.27-.35-.41-.5-.04-.05-.08-.1-.12-.14.07-.24.14-.47.2-.7.21-.69.41-1.36.6-1.99.1-.36.22-.72.32-1.07.04-.15.09-.3.14-.44.04-.15.09-.29.14-.44,0-.05.03-.1.04-.15.11.22.24.43.36.64.24.41.5.81.77,1.2h0s.02.04.03.05c.19-.27.38-.58.59-.89.49-.79.98-1.56,1.46-2.37h0s.03.02.04.04c0,0,.02.01.02.02,0,0,.02.01.02.02Z"/>
          <path d="M30.86,44.87c-.05-.16-.09-.32-.12-.47-.03-.16-.05-.3-.07-.45-.04.07-.08.13-.13.2-.04.06-.08.13-.13.2-.09.13-.17.27-.26.41-.05.08-.09.16-.13.23-.04.06-.07.12-.11.19s-.07.14-.11.2-.08.14-.12.21c-.03.05-.05.11-.07.17-.02.07-.05.14-.08.21,0,0,0,.02-.01.03-.02.05-.04.11-.06.16-.02.05-.04.11-.06.16h0c-.03.12-.08.22-.13.31h0c-.03.06-.05.1-.08.14-.08.12-.18.22-.31.28-.04.02-.09.04-.14.04-.04,0-.08.01-.13.01-.13,0-.28-.02-.46-.11-.09-.04-.18-.09-.27-.14-.08-.05-.16-.11-.24-.17h0c-.16-.14-.3-.29-.43-.44-.06-.08-.13-.16-.2-.24-.14-.17-.27-.35-.41-.5-.04-.05-.09-.1-.13-.14.07-.24.15-.47.21-.7.21-.69.41-1.36.6-1.99.1-.36.22-.72.32-1.07.04-.15.09-.3.14-.44.04-.15.09-.29.13-.44.02-.05.03-.1.05-.14-.44-.84-.77-1.71-.81-2.53v-.02c-.06.21-.11.43-.16.65-.06.21-.12.42-.18.64-.01.04-.02.09-.03.13-.14.48-.27.95-.42,1.42-.14.47-.28.93-.42,1.4-.15.47-.28.94-.41,1.42-.03.11-.06.22-.08.33,0,.04-.01.08-.02.11-.01.04-.02.07-.03.11-.35-.27-.7-.58-1.06-.93-.27-.25-.54-.52-.78-.81-.26-.28-.49-.57-.69-.87-.14-.2-.26-.4-.37-.6-.27-.48-.44-.95-.46-1.42-.01-.07,0-.15,0-.23,0-.08,0-.15.02-.22,0-.08.02-.15.04-.22.08-.28.17-.57.26-.85.27-.85.57-1.68.84-2.53.08-.26.15-.53.22-.79.05-.18.1-.33.16-.46.06-.14.13-.27.21-.36.01-.02.03-.05.05-.06.07-.09.15-.15.23-.19-.06-.19-.13-.39-.18-.56-.04-.15-.08-.28-.11-.41,0,0,0-.02,0-.02-.09-.41-.14-.78-.11-1.1,0-.09,0-.16.03-.24-.33-.43-.59-.95-.87-1.46-.19.3-.37.6-.54.9-.02.05-.03.11-.05.15-.02-.02-.05-.05-.07-.08-.09-.11-.2-.24-.3-.38-.41-.54-.86-1.23-1.25-1.94-.04-.07-.08-.14-.12-.2-.02-.03-.04-.07-.06-.1h0s0-.03-.01-.04c-.1-.18-.19-.36-.27-.53,0,0-.01-.02-.02-.03-.25-.15-.47-.32-.68-.51-.44-.41-.8-.91-1.17-1.46-.1-.15-.21-.31-.32-.47-.86-1.26-2.78-1.74-3.83-2.91-1-1.12-1.27-2.94-2.91-3.52-1.42-.5-2.46-1.16-3.04-2.72-.31-.86-1.33-1.58-2.2-2.05-2.2-1.18-2.88-.72-3.54,1.74-.26.94-.99,1.75-1.49,2.63-.39.68-.73,1.37-.88,1.62.18,2.81,3.95,6.77,5.57,7.13.11.02.24,0,.37-.03.91,2.11,3.67,4.68,5.2,5.16.96,1.85,2.89,3.83,4.14,4.34.1.33.3.66.64,1.01.48.49,4.14,3.33,4.81,3.54.02,0,.04,0,.06,0,.81,1.94,2.9,4.05,4.3,4.58.07.03.16.03.24.05.15.82.58,1.51,1.32,2.07,1.47,1.11,2.88.94,3.79-.37.15-.22.29-.46.41-.74.04-.09.08-.19.12-.28.09-.22.19-.44.29-.66-.16-.31-.28-.63-.38-.95ZM5.66,25.48c0,.05,0,.11,0,.16-.38-.24-.82-.59-1.28-.98-.17-.15-.34-.31-.5-.47-.22-.19-.42-.4-.61-.61-.2-.21-.38-.4-.56-.61-.09-.1-.17-.2-.25-.3-.08-.1-.16-.2-.22-.29-.07-.1-.14-.19-.19-.27-.06-.09-.11-.18-.16-.25-.1-.16-.17-.3-.2-.43-.26-.87-.22-1.5.41-2.28.09-.12.18-.23.26-.36.17-.25.34-.5.49-.77.15-.26.3-.54.42-.82.18-.37.33-.75.47-1.13.02-.05.04-.09.05-.14.24-.66.54-.9.95-.87l.16.03c.05.02.11.03.17.05.05.03.12.05.17.07.06.02.13.06.19.09,1.66.85,2.41,2.36,1.92,4.49-.44,1.93-1.2,3.77-1.68,5.68ZM10.83,29.15c-.06.24-.14.48-.2.72-.02.07-.04.14-.05.22,0,.08,0,.16-.01.24-.18-.15-.38-.3-.56-.48-.29-.26-.57-.54-.84-.83-.09-.1-.18-.2-.27-.3-.18-.2-.34-.4-.5-.61-.16-.2-.31-.41-.44-.62-.07-.11-.13-.21-.19-.32-.12-.2-.23-.4-.31-.6-.05-.09-.08-.17-.11-.25-.01-.03-.03-.06-.03-.09-.03-.07-.05-.14-.07-.2-.06-.19-.09-.38-.08-.55,0-.04,0-.08,0-.11h0c0-.08.02-.13.03-.19.46-1.59,1.04-3.17,1.53-4.75.03-.09.06-.17.09-.24s.06-.13.11-.19c.03-.04.06-.08.08-.11.15-.17.34-.23.56-.22.04,0,.09.01.14.02.04.01.09.02.14.03.05,0,.1.04.15.05.05.02.1.04.15.06.3.13.57.29.82.48.25.2.47.42.66.66.09.12.18.25.26.38.06.1.11.2.16.31.05.09.08.18.12.29,0,0,.01.02.01.03v.02c.05.1.08.21.1.32h0c.04.15.07.3.09.45,0,.03,0,.07,0,.1.02.22.02.43.02.65-.02.22-.05.45-.11.68-.03.14-.07.28-.1.42-.04.17-.08.33-.12.5-.05.18-.09.34-.14.51-.2.71-.43,1.42-.66,2.12-.15.47-.29.94-.44,1.41ZM15.42,34.87c-.27-.23-.55-.46-.81-.71-.19-.17-.36-.33-.53-.5-.25-.26-.5-.53-.72-.8-.15-.18-.29-.36-.42-.55-.07-.09-.13-.18-.19-.28h0c-.12-.19-.22-.39-.3-.58-.05-.1-.09-.2-.11-.3-.13-.37-.2-.74-.18-1.11h0s0-.03,0-.05c.01-.19.05-.38.1-.57.43-1.39.84-2.79,1.28-4.18.06-.2.14-.36.24-.49.04-.04.06-.08.1-.12.06-.06.12-.09.19-.13.02-.01.04-.02.07-.04,0,0,.02-.01.03-.01.02-.01.05-.02.06-.03l.12-.02s.09-.02.14-.03c.03,0,.08,0,.11,0,.06,0,.13.01.2.03.06.02.13.03.2.05.03.01.06.02.09.04.06.02.12.05.18.07.27.13.54.29.76.46.21.16.4.33.56.53.05.06.1.13.15.2.05.07.1.13.13.2.04.07.08.15.12.22.04.07.06.13.09.2,0,0,.01.02.01.03h0s.02.06.03.09c.03.06.05.14.07.2.05.19.09.38.1.58,0,.08,0,.17,0,.25,0,.09,0,.17-.02.26,0,.02,0,.04,0,.06,0,.09-.02.19-.04.29h0c-.17.97-.39,1.93-.65,2.88-.25.95-.53,1.9-.81,2.84-.12.37-.24.71-.33,1.02ZM20.49,39.41c-.2-.15-.39-.31-.59-.47-.19-.16-.39-.31-.56-.48-.1-.08-.19-.16-.27-.24-.18-.16-.35-.33-.5-.5-.32-.34-.61-.69-.83-1.05-.06-.09-.11-.19-.15-.27-.06-.09-.1-.18-.13-.27,0,0,0-.02,0-.02,0,0-.01-.02-.01-.03h0c-.05-.09-.07-.16-.1-.25-.11-.3-.18-.61-.19-.92,0-.04,0-.09,0-.13s0-.08,0-.13c0-.02,0-.03,0-.04,0-.05,0-.11.02-.16,0-.02,0-.03,0-.05,0-.03,0-.06.01-.09,0-.03,0-.06.01-.09h0c.03-.13.06-.25.1-.37.1-.32.2-.64.31-.96.11-.32.22-.64.32-.97.13-.38.25-.77.35-1.15.03-.1.05-.2.08-.3.04-.16.08-.32.11-.49.02-.06.03-.12.05-.18,0-.02,0-.03.01-.04,0-.02.01-.04.02-.05.02-.06.03-.12.06-.17,0,0,0-.03.01-.04.01-.04.02-.06.04-.09.01-.03.03-.05.05-.08.01-.03.04-.07.06-.09t0-.02s.04-.05.07-.07c0,0,.02-.02.03-.02.02-.01.03-.02.05-.03.02-.02.05-.03.07-.05,0,0,.02-.01.02-.01h0s.05-.02.07-.03c.04-.01.08-.02.12-.03h.02s0,0,.02,0c.04,0,.08,0,.14,0,.04,0,.09,0,.15.02.04.01.09.02.13.03.04.01.09.03.13.05.03,0,.05,0,.07.02.14.05.3.12.44.19.25.11.5.26.69.43,0,0,0,0,0,0,0,0,0,0,.02.01.03.02.06.05.09.07.06.06.12.11.18.17.01.02.03.03.04.04.04.04.08.09.12.13.04.04.07.1.12.15.01.02.02.03.03.05,0,0,0,0,.01.02t.01.02s0,0,.01.02c.04.03.06.07.08.11,0,0,.01.02.01.04.04.05.07.11.1.17.03.05.06.12.09.17.01.03.03.07.04.1.01.03.03.06.04.09.04.1.08.22.11.32h0s.03.08.02.11c.04.12.06.25.08.38.02.13.03.27.04.42,0,.03.01.07,0,.11,0,.13,0,.26,0,.39,0,.17-.02.33-.05.51,0,.03,0,.05-.01.08,0,.02-.01.04,0,.06-.01.12-.05.24-.08.38-.43,1.82-1.13,3.57-1.61,5.37-.01.07-.02.15-.03.22ZM32.02,38.13c-.05-.05-.12-.1-.18-.15-.22.41-.46.81-.7,1.22h0s.04.04.05.05c0,0,.02.01.02.02,0,.02,0,.02.01.03h0s0,0,0,0c.03-.06.08-.11.12-.17.2-.3.4-.61.62-.92.02-.03.03-.05.06-.07,0,0,0,0,0,0ZM27.24,36.74s-.02-.06-.03-.09c.01.07.01.14.02.21,0,.04,0,.08,0,.13,0,0,0,0,0-.02.01-.04.02-.08.05-.12-.02-.04-.03-.07-.04-.11ZM27.43,33.84c-.2.29-.39.59-.58.89-.09.13-.17.25-.25.39.08.11.15.2.21.31.09.16.17.33.23.5,0,.02.01.04.02.06.01.03.02.06.03.1v-.06c-.02-.07-.03-.15-.04-.22v-.03c0-.19-.01-.38,0-.58.01-.04.01-.09.01-.13l.02-.13c.01-.08.03-.15.05-.23.01-.07.04-.15.08-.22.03-.09.06-.16.1-.25.02-.06.06-.14.1-.2.02-.05.05-.08.07-.13-.02-.03-.04-.06-.06-.08Z"/>
        </g>
        <g>
          <path class="cls-1" d="M27.06,35.8c-.01-.2-.02-.39,0-.58-.02.19-.02.38,0,.58Z"/>
          <path class="cls-1" d="M23.61,28.85c-.1.33-.13.67-.12,1.03"/>
          <path class="cls-1" d="M34.39,35.52c-.14-.04-.28-.03-.42.01.14-.05.28-.06.42-.01Z"/>
          <path class="cls-1" d="M33.3,47.41c.31.58.55,1.54,1.17,2.03.96.76,1.33-.33,1.87-.93.75-.83,1.64-1.55,2.49-2.31,1.39-1.27,1.29-3.48-.33-4.47-.37-.24-1.36-.16-1.58.14-1.21,1.66-2.28,3.45-3.62,5.55Z"/>
          <path d="M24.35,26.64c-.36,0-.73-.01-1.1-.04h0c-.09.13-.17.26-.25.39.4.54.62,1.16.63,1.86.06-.21.15-.42.28-.62.23-.37.47-.74.71-1.11.1-.16.21-.33.31-.49-.18.01-.37,0-.57,0ZM40.68,42.06c-.25-.42-.59-.81-1.02-1.19-1.16-1.03-1.92-1.97-2.12-3.55-.21-1.8-2.26-2.43-3.02-3.73-.76-1.34-.44-3.37-1.94-4.4-1.33-.89-1.65-2.08-2.13-3.5-.03-.08-.06-.16-.1-.23-.2-.45-.51-.86-.86-1.25-.37.16-.75.29-1.14.41.38.4.66.84.83,1.31.27.75.22,1.57-.17,2.4-.25.51-.51,1.02-.79,1.52-.22.41-.46.81-.7,1.22-.48.8-.97,1.59-1.46,2.37-.2.32-.41.62-.59.89-.41-.59-.83-1.24-1.17-1.9-.44-.85-.77-1.73-.81-2.55-.01-.36.02-.7.12-1.03.06-.21.15-.42.28-.62.23-.37.47-.74.71-1.11.1-.16.21-.33.31-.49.32-.5.64-1,.95-1.49-.13.03-.26.04-.39.05-.63.06-1.08.09-1.36.03-.09.16-.2.33-.3.49-.2.29-.39.59-.58.89-.09.13-.17.25-.25.39-.27.4-.53.81-.77,1.23-.09.12-.14.28-.19.43-.63-.86-1.24-2.01-1.64-3.08-.06-.19-.13-.39-.18-.56-.04-.15-.08-.28-.11-.41,0,0,0-.02,0-.02-.09-.41-.14-.78-.11-1.1,0-.09,0-.16.03-.24.02-.17.07-.33.16-.46.32-.51.64-1.02.99-1.52.58-.88,1.19-1.75,1.76-2.63.25-.38.49-.54.76-.53.62-1.36-1.82-2.54-.95-3.47.23-.24.48-.45.71-.67-.11-.47-.39-.95-.73-1.39-.25-.32-.52-.6-.79-.86-1.8-1.73-2.58-1.47-3.88.73-.49.84-1.42,1.42-2.13,2.13-.56.54-1.08,1.12-1.28,1.32-.1.5-.11,1.07-.03,1.67.13,1.06.52,2.23,1,3.28.75,1.64,1.76,3.03,2.48,3.42.1.06.23.07.36.07.03.27.1.56.18.85.18.64.44,1.32.77,1.97.05.09.1.2.15.29.44.86.97,1.66,1.48,2.28,0,0,0,0,0,0,0,0,0,0,.02.01.19.23.38.45.58.62,0,0,0,0,.01.02t.01.02s0,0,.01.02c.06.03.1.08.14.1.09.08.17.14.26.2,0,.06.03.11.04.18.14.6.35,1.25.61,1.86.24.55.52,1.09.81,1.58.05.08.1.15.15.23.39.63.82,1.15,1.21,1.45.01.34.1.7.35,1.13.07.15.31.49.62.92.26.38.59.82.93,1.28.01.02.03.04.04.05.36.47.73.94,1.06,1.35,0,0,0,0,0,0,.14.18.28.34.41.49.27.31.49.54.61.61.02.02.05.02.06.02.02.19.05.38.1.57h0c.18.87.53,1.77.96,2.58.28.55.6,1.06.93,1.49.31.39.62.71.92.94.06.05.14.08.21.1-.08.83.16,1.61.72,2.35,1.3,1.71,3,1.71,4.34.06.65-.8,1.29-1.66,2.09-2.29,1.43-1.14,2.13-2.52,2.03-3.89-.05-.58-.24-1.14-.58-1.68ZM18.6,22.67c-.02.05-.03.11-.05.15-.5-.56-1.11-1.47-1.62-2.4-.04-.07-.08-.14-.12-.2-.02-.03-.04-.07-.06-.1h0s0-.03-.01-.04c-.1-.18-.19-.36-.27-.53,0,0-.01-.02-.02-.03-.04-.1-.09-.18-.12-.28-.08-.16-.14-.3-.19-.45-.05-.14-.1-.26-.14-.38-.02-.07-.04-.15-.06-.22-.06-.19-.08-.36-.09-.49-.02-.91.2-1.5,1-2.08.97-.7,1.8-1.66,2.5-2.64.62-.86,1.11-.76,1.75-.16.21.19.38.38.54.58.83,1.07.98,2.37.31,3.85-.06.14-.13.27-.21.41-.16.29-.32.57-.51.87-.2.35-.42.7-.65,1.04-.12.2-.25.39-.39.58h0s0,.02-.01.03c-.17.27-.35.54-.53.8-.17.26-.35.53-.52.8-.19.3-.37.6-.54.9ZM28.36,38.96c-.06-.08-.12-.18-.18-.28-.09-.13-.17-.27-.24-.4-.11-.19-.22-.4-.32-.6-.14-.27-.26-.56-.34-.83-.02-.04-.03-.07-.04-.11-.01-.03-.02-.06-.03-.09v-.05c-.04-.11-.07-.23-.09-.33-.02-.06-.03-.11-.03-.16v-.06c-.02-.07-.03-.15-.04-.22v-.03c0-.19-.01-.38,0-.58.01-.04.01-.09.01-.13l.02-.13c.01-.08.03-.15.05-.23.01-.07.04-.15.08-.22.03-.09.06-.16.1-.25.02-.06.06-.14.1-.2.02-.05.05-.08.07-.13.01-.03.03-.06.05-.09.18-.28.38-.57.57-.84.05-.08.11-.16.16-.25.04-.07.08-.11.13-.17.15-.23.3-.44.44-.67.14-.2.27-.4.38-.61.03-.06.07-.11.1-.17.14-.23.27-.47.4-.71.64-1.25,1.34-.7,1.95-.15,1.34,1.15,1.58,2.97.54,4.85-.9,1.64-2.05,3.13-2.99,4.75-.03.06-.06.13-.09.19-.15-.2-.29-.39-.43-.58-.12-.17-.24-.33-.35-.51ZM32.53,46.03c-.42-.58-.87-1.28-1.24-2.02-.1-.19-.19-.38-.26-.56-.06-.14-.13-.28-.18-.43-.03-.06-.05-.13-.07-.19-.06-.18-.11-.35-.16-.53-.22-.84-.24-1.64.14-2.26.15-.24.31-.49.47-.73h0s0,0,0,0c.03-.06.08-.11.12-.17.2-.3.4-.61.62-.92.01-.02.03-.05.05-.08.19-.28.38-.55.56-.83.2-.3.39-.61.57-.93.26-.47.53-.74.81-.84.14-.05.28-.05.42-.01.04,0,.08.01.12.03.1.04.2.1.31.18.05.03.1.08.15.12.11.08.22.19.33.32.04.04.07.08.1.13.04.04.06.07.09.12.07.08.14.16.19.25.06.08.12.17.17.25.11.19.21.37.28.56.04.06.05.13.07.19.03.09.06.17.08.25.02.11.05.21.07.32.11.73-.03,1.48-.45,2.24-.24.43-.49.85-.75,1.27-.38.63-.78,1.26-1.18,1.88-.4.63-.79,1.26-1.18,1.88-.11.17-.19.34-.28.51ZM39.32,45.62c-.13.2-.29.39-.49.57-.21.19-.42.38-.64.56-.42.38-.85.75-1.26,1.14-.21.19-.4.39-.59.6-.03.03-.05.06-.07.09-.02.03-.04.05-.07.09l-.27.37c-.09.12-.18.25-.28.35-.04.04-.07.08-.11.1-.02.03-.05.05-.07.06-.02.01-.05.03-.07.04-.02.01-.05.03-.07.04-.09.05-.19.06-.3.06-.05,0-.1-.02-.17-.04-.11-.03-.24-.11-.38-.22-.08-.06-.16-.13-.22-.2-.06-.07-.11-.13-.17-.2-.03-.05-.07-.11-.1-.16-.03-.05-.07-.11-.09-.17-.02-.02-.03-.05-.04-.07-.03-.05-.06-.11-.09-.17-.05-.09-.09-.18-.13-.28-.06-.14-.12-.28-.17-.4-.03-.06-.06-.13-.09-.19-.03-.06-.06-.12-.09-.17.17-.26.33-.52.5-.77s.32-.51.47-.75c.31-.49.61-.97.9-1.42.59-.92,1.16-1.79,1.76-2.62.15-.21.7-.31,1.12-.27.09.01.17.02.25.05h0c.08.03.14.05.19.09.09.05.18.12.26.18.07.06.14.11.2.17.19.18.35.39.47.6.04.07.07.14.11.22.04.07.07.15.1.23.04.08.06.15.07.23.13.53.1,1.09-.08,1.62-.08.22-.18.44-.32.65Z"/>
        </g>
        <g>
          <path d="M56.19,15.27c1.59-1.59,1.5-1.76-.45-3.28-.72-.55-1.02-.96-.43-1.75.25-.34.42-.72.53-.9.48-1.54.02-2.18-1.75-2.26-4.14-.21-7.82.94-10.74,4.07-.49.52-.88,1.18-1.45,1.61-1.35,1.06-2.96.64-3.57-.95-.26-.66-.22-1.44-.37-2.15-.88-4.14-3.34-7.13-6.98-9.12-1.89-1.04-2.6-.63-2.74,1.53-.07,1.04-.01,1.72-1.46,1.76-2.32.06-2.44.26-1.96,2.6.21,1.07-.04,1.39-1.02,1.78-2.1.83-2.17.95-1.17,3.11.28.6.27.95.08,1.23-.16.24-.45.42-.81.67-.09.06-.18.12-.26.18-1.54,1.04-1.52,1.27-.17,2.94.29.36.45.65.49.9.07.44-.21.78-.71,1.28,0,0-.02.02-.03.03-.73.71-1.08,1.17-1.01,1.59h0c.05.35.37.68.96,1.1.09.06.18.13.29.21,1.31.92,1.16,1.51.43,2.72-.93,1.56-.43,2.32,1.36,2.43h0c.38.02.74.04,1.1.04.19,0,.38,0,.57,0,1.5-.03,2.93-.25,4.28-.71.4-.14.79-.29,1.17-.47,1.33-.62,2.55-1.51,3.67-2.71.57-.61,1.09-1.29,1.75-1.8,1.24-.98,3-.44,3.54,1.07.2.58.2,1.23.31,1.84.15.77.34,1.49.59,2.18.46,1.28,1.11,2.43,1.91,3.45-.15-.68-.6-1.38-1.17-2.07.46-.22.83-.42,1.14-.58-.22-.44-.43-.9-.59-1.37-.26-.7-.44-1.46-.55-2.25-.21-1.46-.38-2.88-1.95-3.65-1.98-.98-3.52-.71-5.17,1.35-1.24,1.54-2.69,2.61-4.34,3.3-.37.16-.75.29-1.14.41-.8.25-1.62.42-2.5.52-.13.03-.26.04-.39.05-.63.06-1.08.09-1.36.03-.55-.13-.52-.6-.2-1.76.33-1.16.35-2.01-.85-2.6-.97-.5-1.12-1.17-.2-1.9.08-.06.16-.13.25-.21.29-.23.46-.45.56-.67.62-1.36-1.82-2.54-.95-3.47.23-.24.48-.45.71-.67.91-.8,1.64-1.48.62-3.02-.2-.28-.03-1.21.08-1.24,2.71-.47,2.59-2.26,1.91-4.25q3.13-.34,3.98-3.75c3.71,2.03,6.15,4.91,6.64,9.19.22,1.83.95,3.19,2.79,3.72,1.86.54,3.19-.29,4.31-1.74,2.34-3.02,5.52-4.27,9.25-4.39,1.12-.03,1.74.07.88,1.3-.05.08-.1.18-.15.27-1.47,2.24,1.94,2.84,1.61,3.77-.51,1.41-2.52,2.35-.61,4.13.68.64.77,1.12-.19,1.58-1.72.78-2,1.94-.88,3.49.55.77.06,1.13-.66,1.26-.58.11-1.04.3-1.37.56-.44.35-.64.84-.56,1.47.66.72,1.23,1.56,1.72,2.53.06.11.11.22.18.34.19-.34.17-.82-.08-1.48-.3-.76-.31-1.23-.11-1.55.22-.37.74-.56,1.45-.74,1.46-.39,1.76-1.47.91-2.64-.81-1.15-.59-1.66.61-2.35,1.63-.94,1.69-1.49.49-2.91-.71-.84-1.04-1.24-.08-2.22Z"/>
          <path d="M36.27,16.35c1.39,1.23,3.34,1.31,5.1,1.36.28,0,.51-.27.51-.54,0-.3-.25-.5-.54-.51-1.46-.04-3.2-.05-4.36-1.07-.5-.44-1.22.31-.72.76h0Z"/>
        </g>
        <g>
          <path d="M74.03,31.12c1.2-1.44,1.06-1.97-.54-2.89-.96-.54-1.41-.8-.84-2.06.93-2.03.78-2.18-1.56-2.91-.86-.27-1.29-.56-1.02-1.5.12-.4.15-.82.19-1.03-.08-1.61-.73-2.06-2.43-1.52-3.96,1.25-7.01,3.6-8.66,7.54-.28.67-.42,1.42-.8,2.02-.89,1.46-2.56,1.62-3.68.35-.47-.53-.7-1.27-1.09-1.89-.25-.39-.52-.76-.79-1.11-.36-.48-.75-.91-1.15-1.32-2.09-2.06-4.72-3.25-7.78-3.7-2.14-.33-2.65.32-2.03,2.39.25.87.51,1.47-.34,1.95-.12.07-.26.13-.42.2-.34.14-.62.26-.86.37-1.27.61-1.14,1.04-.08,2.74.58.93.46,1.31-.33,2.03-1.68,1.49-1.7,1.64-.02,3.32.86.85.52,1.25-.03,2.03-1.26,1.74-1.27,1.91.67,3.08,1.13.67,1.02,1.12.54,2.16-.11.25-.21.47-.29.67-.35.93-.25,1.35.58,1.68.24.11.56.2.94.3,1.54.4,1.6,1,1.35,2.39-.34,1.79.39,2.32,2.12,1.8,3.97-1.18,7.13-3.38,8.77-7.36.32-.77.58-1.58,1-2.29.83-1.35,2.67-1.46,3.69-.23.39.47.62,1.08.94,1.61,2.25,3.76,5.63,5.75,9.91,6.28,2.02.24,2.65-.29,1.93-2.19-.59-1.54-.08-1.92,1.16-2.49,1.5-.69,1.8-1.45.78-2.62-1.16-1.33-.64-1.84.47-2.62,1.23-.87,1.14-1.98-.07-2.79-1.15-.78-1.13-1.35-.23-2.42ZM72.95,34.3c.78.52.44,1.05-.17,1.4-1.5.89-1.76,2.02-.61,3.32.69.77.6,1.34-.33,1.57-1.7.45-2.19,1.45-1.57,3.03.47,1.22-.33,1.25-1.06,1.1-3.52-.78-6.36-2.57-8.11-5.81-.7-1.3-1.36-2.57-3.1-2.75-2.18-.23-3.55.55-4.37,3.05-1.1,3.3-3.35,5.46-6.35,6.94-1.69.82-1.9.74-2.05-1.09-.1-1.19-.37-2-1.7-2.15-1.09-.13-1.46-.7-.84-1.72.05-.08.09-.17.15-.27,1.35-2.26-2.39-2.38-1.8-3.75.65-1.49,1.85-2.55-.04-3.92-.28-.2-.44-1.13-.35-1.19,1.36-.79,1.7-1.68,1.48-2.58-.15-.68-.6-1.38-1.17-2.07.46-.22.83-.42,1.14-.58,1.67-.92,1.62-1.38,1.29-4.32,3.12.47,5.75,1.61,7.7,3.78.66.72,1.23,1.56,1.72,2.53.06.11.11.22.18.34.81,1.45,1.94,2.32,3.72,2.19,1.93-.13,2.89-1.39,3.43-3.12,1.15-3.64,3.7-5.92,7.15-7.33,1.05-.43,1.66-.55,1.29.9-.03.11-.04.21-.05.31-.61,2.61,2.8,2,2.81,2.98.02,1.51-1.54,3.09.86,4.08.87.36,1.12.78.36,1.54-1.33,1.32-1.2,2.53.39,3.58Z"/>
          <path d="M54.32,34.1c1.74.67,3.59.08,5.26-.49.64-.22.26-1.19-.37-.97-1.38.47-3.01,1.07-4.45.51-.26-.1-.57-.01-.69.26-.11.24,0,.59.26.69h0Z"/>
        </g>
      </g>
      <path d="M8.96,44.65c-3.38.62,1.89,4.61,3.48,4.74,4.48.28-1.25-5.38-3.48-4.74ZM12.44,48.27c-1.1-.16-2.94-1.29-3.41-2.28-.04-.09.02-.21.13-.22,1.17-.1,3.04,1,3.59,2.04.12.23-.06.5-.31.46Z"/>
      <path d="M7,48.22c.53-3.39-4.97.27-5.62,1.72-1.74,4.14,5.49.59,5.62-1.72ZM2.43,50.31c.52-.98,2.19-2.36,3.28-2.47.1-.01.19.09.16.19-.29,1.14-1.95,2.54-3.11,2.72-.25.04-.45-.22-.33-.45Z"/>
      <path d="M13.52,39.36c-3-1.68-1.48,4.75-.34,5.87,3.27,3.06,2.46-4.95.34-5.87ZM13.89,44.37c-.74-.83-1.45-2.87-1.17-3.93.03-.1.15-.14.23-.09.97.67,1.7,2.71,1.47,3.86-.05.25-.36.34-.53.15Z"/>
      <path d="M21.02,49.21c3.39-.56-1.8-4.64-3.39-4.81-4.47-.36,1.15,5.4,3.39,4.81ZM17.61,45.52c1.1.18,2.92,1.34,3.36,2.34.04.09-.03.21-.13.21-1.18.08-3.02-1.06-3.56-2.11-.12-.23.07-.49.32-.45Z"/>
      <path d="M14.11,50.83c-2.2,2.64,4.4,2.34,5.7,1.43,3.62-2.65-4.4-3.34-5.7-1.43ZM19.1,51.39c-.95.58-3.09.89-4.08.42-.09-.04-.11-.17-.04-.25.84-.83,2.98-1.17,4.07-.73.24.1.27.42.05.55Z"/>
      <path d="M8.19,50.48c-3.41.42,1.61,4.71,3.19,4.94,4.45.54-.93-5.45-3.19-4.94ZM11.45,54.31c-1.09-.23-2.86-1.46-3.27-2.48-.04-.09.04-.2.14-.21,1.18-.03,2.97,1.18,3.47,2.25.11.23-.09.49-.34.44Z"/>
      <path d="M21.43,54.35c1.09,3.26,4.3-2.52,4.21-4.11-.35-4.47-5.15,1.99-4.21,4.11ZM24.53,50.4c0,1.11-.86,3.1-1.78,3.69-.09.06-.21,0-.23-.09-.27-1.15.57-3.15,1.52-3.85.21-.15.5-.01.5.25Z"/>
      <path d="M16.9,54.62c-3.37.65,1.93,4.59,3.52,4.71,4.48.24-1.3-5.37-3.52-4.71ZM20.41,58.22c-1.1-.15-2.96-1.27-3.43-2.25-.04-.09.02-.21.12-.22,1.17-.11,3.05.98,3.61,2.01.12.23-.05.5-.31.46Z"/>
    </g>
  </g>
</svg>