<?xml version="1.0" encoding="UTF-8"?>
<svg id="Calque_2" xmlns="http://www.w3.org/2000/svg" viewBox="0 0 66.51 74.97">
  <defs>
    <style>
      .cls-1 {
        fill: #000;
      }
    </style>
  </defs>
  <g id="Calque_1-2" data-name="Calque_1">
    <g>
      <g>
        <path class="cls-1" d="M28.91,52.79v2.04h.01v-2.04h-.01Z"/>
        <path class="cls-1" d="M45.37,27.85h-1.91l-3.66-17.9-.16-.76-.41-2.01-.03-.15-.99-4.83c-.02-.12-.12-.2-.24-.2h-.04L2.05,10.5c-.13.03-.21.17-.17.31l.87,4.26.43,2.13,7.38,36.1c.19.92.7,1.7,1.43,2.2.73.51,1.61.68,2.47.48l14.45-3.19v2.04l-14.06,3.1c-.37.09-.74.13-1.11.13-.97,0-1.92-.3-2.75-.87-1.16-.79-1.95-2.02-2.25-3.46L.05,11.24c-.13-.59-.02-1.2.28-1.7.31-.51.77-.87,1.33-1L37.52.05c1.12-.27,2.25.5,2.5,1.72l1.08,5.25.48,2.33,3.79,18.5Z"/>
        <g>
          <path class="cls-1" d="M9.79,14.73c.18.76-1.54,1.77-3.83,2.25-1.03.21-2,.28-2.78.22l-.43-2.13c.67-.35,1.56-.66,2.57-.87,2.29-.47,4.3-.24,4.48.53Z"/>
          <ellipse class="cls-1" cx="16.78" cy="13.28" rx="4.24" ry="1.42" transform="translate(-2.32 3.63) rotate(-11.55)"/>
          <ellipse class="cls-1" cx="27.92" cy="10.97" rx="4.24" ry="1.42" transform="translate(-1.63 5.81) rotate(-11.55)"/>
          <path class="cls-1" d="M39.8,9.95c-.14.03-.28.06-.41.09-2.29.47-4.3.24-4.48-.53-.18-.76,1.53-1.77,3.83-2.24.17-.03.33-.07.49-.09l.41,2.01.16.76Z"/>
        </g>
        <path class="cls-1" d="M31.67,33.47c1.79-.67,2.87-2.47,2.44-4.31-.48-2.04-2.61-3.32-4.77-2.87-.5.1-.96.3-1.36.56-.79-1.53-2.61-2.42-4.45-2.04-1.69.35-2.88,1.67-3.09,3.2-.34-.01-.68,0-1.03.07-2.16.45-3.52,2.46-3.05,4.5.42,1.79,2.12,3,4,2.96l1.56,6.67c.22.94,1.21,1.54,2.21,1.33l7.63-1.58c1-.21,1.63-1.14,1.41-2.08l-1.49-6.39Z"/>
      </g>
      <g>
        <path class="cls-1" d="M37.79,41.59v.09h21.45v-.09h-21.45Z"/>
        <path class="cls-1" d="M60.9,41.61c-.07-.02-.15-.02-.22-.02h-1.44v.09h-21.45v-.09h-3.04c-3.21,0-5.83,3.14-5.83,6.99v23.33c0,1.68,1.14,3.06,2.55,3.06h32.49c1.41,0,2.55-1.38,2.55-3.06v-23.33c0-3.76-2.49-6.84-5.61-6.97ZM64.84,71.91c0,.58-.39,1.06-.88,1.06H31.47c-.49,0-.89-.48-.89-1.06v-23.33c0-2.75,1.87-4.99,4.17-4.99h25.93c.07,0,.15,0,.22.02,2.21.13,3.94,2.31,3.94,4.97v23.33Z"/>
        <path class="cls-1" d="M60.68,43.59h-24.56v.09h24.79v-.07c-.07-.02-.15-.02-.22-.02ZM59.24,35.53v.46c.02-.07.02-.15.02-.23s0-.16-.02-.23Z"/>
        <path class="cls-1" d="M60.9,32.01v9.6c-.07-.02-.15-.02-.22-.02h-1.44v-5.6c.02-.07.02-.15.02-.23s0-.16-.02-.23v-3.52c0-1.19-.81-2.16-1.8-2.16h-17.87c-.98,0-1.79.97-1.79,2.16v9.58h-1.67v-9.58c0-2.29,1.55-4.16,3.46-4.16h17.87c1.91,0,3.46,1.87,3.46,4.16Z"/>
        <path class="cls-1" d="M59.24,35.53v.46c-.09.45-.42.77-.82.77h-14.15c-.47,0-.83-.44-.83-1,0-.49.29-.9.69-.98.04-.01.09-.02.14-.02h14.15c.4,0,.72.33.82.77Z"/>
        <path class="cls-1" d="M59.26,35.76c0,.08,0,.16-.03.23v-.46c.02.07.03.15.03.23Z"/>
        <path class="cls-1" d="M41.61,58.35c0,3.27,2.3,5.93,5.12,5.93h18.12v2h-18.12c-3.74,0-6.79-3.56-6.79-7.93s3.05-7.94,6.79-7.94h18.12v2h-18.12c-2.82,0-5.12,2.66-5.12,5.94Z"/>
      </g>
    </g>
  </g>
</svg>