<?xml version="1.0" encoding="UTF-8"?>
<svg id="Calque_2" xmlns="http://www.w3.org/2000/svg" viewBox="0 0 74.82 61.41">
  <defs>
    <style>
      .cls-1 {
        fill: #fff;
      }
    </style>
  </defs>
  <g id="Calque_1-2" data-name="Calque_1">
    <g>
      <path class="cls-1" d="M.04,18.25c.16.99.28,1.87.47,2.74-.21-.85-.31-1.72-.47-2.68v-.06Z"/>
      <path class="cls-1" d="M13.23,51.78c-1.53-1.59-2.85-3.4-3.9-5.49-.72-1.44-1.24-2.93-1.52-4.43.29,1.5.81,2.99,1.53,4.43,1.04,2.09,2.35,3.88,3.88,5.49Z"/>
      <path d="M74.69,22.25c-.12-.44-.18-.88-.24-1.34v-.04c-.07-.41-.16-.82-.26-1.24-.07-.37-.18-.72-.28-1.09-.29-1-.66-1.97-1.12-2.93-.12-.24-.25-.47-.38-.71-.47-.84-1-1.56-1.59-2.15-.21-.21-.41-.4-.63-.56-.04-.04-.09-.09-.13-.12-.22-.16-.44-.32-.68-.46-.24-.15-.47-.28-.72-.4-.03-.01-.07-.03-.1-.04-.26-.13-.53-.24-.79-.32-.22-.07-.44-.15-.65-.19-.16-.06-.32-.09-.49-.12-1.04-.24-2.18-.31-3.35-.25-.57.03-1.15.07-1.72.13-.13,0-.25.01-.38.04-.4.03-.78.09-1.18.15-1.46.21-2.9.52-4.33.85-.65.16-1.29.34-1.94.5-.44.12-.9.25-1.34.37-3.71,1.02-7.49,1.49-11.29,1.96-1.79.22-3.59.47-5.39.77-.51.07-.85-.03-1.22-.41-.6-.63-1.19-1.27-1.79-1.88-.9-.94-1.8-1.9-2.71-2.84-.9-.94-1.81-1.87-2.74-2.8-2.55-2.55-5.34-4.77-8.74-6.12C13.98-.79,9.81-.23,6.11,3.01,3.25,5.49,1.31,8.44.44,12.01H.44c-.06.49-.15.93-.28,1.38-.04.25-.09.51-.13.78v.32s-.01.09-.01.13c0,.06.01.1.01.16,0,.12-.01.25-.01.37,0,.21.01.41.01.62-.01.82-.06,1.62,0,2.43,0,.01,0,.03.01.04v.06c.04.22.07.44.12.66.03.25.07.49.1.72.04.22.07.43.12.63.03.22.07.44.13.66,1.12,5.09,3.58,9.5,6.96,13.43.4.47.53.88.41,1.52-.41,2.03-.43,4-.07,5.93.28,1.5.79,2.99,1.52,4.43.19.38.4.77.63,1.13.03.09.09.16.13.24.01.03.03.06.04.09,0,.01.01.04.03.06h.01s0,.01.01.03t.01.03s.06.1.09.15c.12.19.24.38.38.57.06.1.12.21.19.29.04.06.09.13.13.19.03.06.06.1.09.15h.01s0,.01.01.03.01.03.03.04.03.03.04.06c.29.41.6.81.93,1.19.35.43.72.84,1.1,1.24,1.97,2.06,4.3,3.74,6.86,5.16,5.16,2.85,10.74,4.25,16.61,4.44,6.58.21,12.8-1.06,18.35-4.78,1.27-.85,2.41-1.79,3.41-2.82.49-.5.96-1.03,1.38-1.59,2.1-2.77,3.27-6.08,3.31-10.01,0-.09,0-.16.01-.25.01-.15.04-.29.1-.41.01-.06.04-.12.09-.18.03-.06.06-.12.1-.15.12-.16.28-.31.47-.44,2.52-1.78,4.74-3.8,6.53-6.18.35-.49.69-.97,1.02-1.47.32-.52.62-1.03.9-1.57s.54-1.1.78-1.68c.47-1.18.81-2.41,1.13-3.55.1-.38.21-.74.31-1.09v.07c.06-.32.09-.65.15-.96.03-.13.06-.24.07-.34-.01-.54-.07-1.21-.13-1.75ZM9.2,31.54c-.04.1-.12.19-.32.54-.12-.25-.18-.43-.28-.56-3-3.85-5.13-8.11-5.75-13.01-.71-5.72,1.16-10.43,5.72-13.99,2.57-2,5.4-2.25,8.42-1.16,2.94,1.07,5.4,2.88,7.61,5.05,2.32,2.28,4.56,4.66,6.83,7,.06.06.1.15.15.21-1.65.63-3.3,1.16-4.84,1.87-2.84,1.32-5.31,3.13-6.59,6.11-.44,1.04-1.02,1.38-2.1,1.54-3.99.63-7.08,2.62-8.83,6.4ZM60.38,43c-.54,6.92-4.88,10.83-10.78,13.43-3.74,1.65-7.7,2.25-12.79,2.25-6.37-.15-13.21-2.02-19.13-6.62-3.06-2.37-5.5-5.24-6.71-8.99-1.27-3.93-.72-7.71,1.19-11.3,1.02-1.88,2.71-3,4.74-3.6,2.8-.82,5.64-.75,8.45-.21,2.47.47,4.96,1,7.36,1.75,5.19,1.59,10.48,2.71,15.85,3.53,2.38.37,4.75.96,7.03,1.74,3.83,1.31,5.16,3.59,4.8,8.02ZM69.93,30.34c-1.68,3.1-4.06,5.58-6.86,7.68-.1.07-.21.12-.37.21-.69-2.13-2-3.78-3.94-4.78-1.5-.78-3.12-1.44-4.77-1.85-2.62-.66-5.27-1.16-7.93-1.54-3.77-.53-7.4-1.47-11.04-2.53-3.91-1.16-7.86-2.25-12.08-2.63.19-.37.32-.71.51-.99,1.44-2.18,3.59-3.44,5.94-4.4,2.74-1.12,5.64-1.6,8.55-2.03,4.11-.6,8.22-1.07,12.3-1.81,3.37-.62,6.67-1.62,10.03-2.25,1.72-.32,3.52-.35,5.25-.26,2,.1,3.49,1.25,4.43,3.02,2.53,4.72,2.49,9.48-.04,14.18ZM.02,13.81c0,.1.01.19.01.28v-.32s0,.03-.01.04Z"/>
      <path d="M20.36,43.29c.16.69-.4,1.37-1.1,1.5-.72.13-1.38-.29-1.59-1.09-.46-1.75-.88-3.5-1.32-5.27-.03-.12-.03-.24-.03-.29-.01-.78.41-1.34,1.06-1.46.69-.12,1.35.16,1.53.82.53,1.91,1.02,3.84,1.46,5.78Z"/>
      <path d="M40.7,40.33c0,.63-.35,1.06-.93,1.28-.15.04-.29.06-.44.1-.16-.04-.32-.07-.5-.12-1.66-.46-3.34-.91-5-1.38-.97-.26-1.43-.99-1.19-1.78.24-.78.96-1.12,1.88-.87,1.71.46,3.4.91,5.09,1.4.66.19,1.1.63,1.09,1.37Z"/>
      <path d="M38.95,48.37c-.13.19-.32.66-.66.91-1.52,1.07-3.08,2.1-4.63,3.12-.68.44-1.47.24-1.87-.38-.4-.63-.26-1.44.38-1.9,1.54-1.06,3.1-2.12,4.71-3.13.91-.57,2.05.07,2.07,1.38Z"/>
      <path d="M53.8,47.51c-.22-.08-.72-.14-1.06-.4-1.44-1.17-2.85-2.4-4.24-3.64-.61-.53-.62-1.36-.13-1.9.5-.55,1.32-.64,1.93-.14,1.43,1.21,2.87,2.43,4.27,3.7.8.73.47,1.99-.78,2.37Z"/>
      <path d="M42.76,26.02c0,.97-.46,1.53-1.1,1.66-.63.12-1.34-.22-1.52-.87-.52-1.91-.99-3.83-1.44-5.75-.15-.65.32-1.27.96-1.47.65-.19,1.4.06,1.59.71.57,1.99,1.06,4,1.52,5.72Z"/>
      <path d="M67.7,26.67c-1.41,1.35-2.87,2.66-4.34,3.96-.22.19-.57.22-1.04.4-.32-.32-.84-.62-.97-1.02-.12-.41-.03-1.1.26-1.38,1.37-1.37,2.81-2.65,4.27-3.91.57-.49,1.38-.38,1.85.16.46.5.49,1.31-.03,1.8Z"/>
      <path d="M55.75,19.81c-.51,1.89-1.08,3.76-1.67,5.63-.09.28-.38.49-.69.88-.44-.11-1.04-.1-1.36-.37-.31-.29-.6-.93-.49-1.32.46-1.88,1.04-3.72,1.63-5.56.24-.71.99-1.04,1.67-.82.65.19,1.09.87.9,1.55Z"/>
      <path d="M18.95,10.2c-1.53,1.03-3.06,2.06-4.58,3.08-.06.04-.13.07-.19.1-.66.29-1.37.1-1.75-.49-.38-.57-.32-1.35.28-1.78,1.6-1.12,3.25-2.18,4.88-3.27.18-.1.41-.12.51-.15.77,0,1.22.29,1.41.9.21.65,0,1.21-.57,1.6Z"/>
      <path d="M14.24,21.74c0,1.21-1.07,1.93-1.93,1.43-1.71-1-3.38-2.07-5.03-3.16-.59-.38-.66-1.18-.29-1.78.35-.56,1.09-.84,1.68-.49,1.71,1.02,3.38,2.07,5.03,3.16.31.21.44.66.54.84Z"/>
    </g>
  </g>
</svg>