<?xml version="1.0" encoding="UTF-8"?><svg id="Calque_1" xmlns="http://www.w3.org/2000/svg" viewBox="0 0 24 24"><path d="M8.26,6.32c-.07-.01-.12-.06-.12-.13v-.05c.02-.46.03-.93-.15-1.3-.21-.41-.63-.68-1.1-.71-.1-.01-.2-.01-.3-.01h-.13c-.06,0-.11-.04-.12-.1l-.15-.7c-.1-.51-.21-1.02-.31-1.53v-.07s-.01-.12-.03-.2c-.05-.18-.18-.4-.39-.46-.17-.05-.37.01-.49.15-.07.08-.13.19-.16.3-.02.05-.02.11-.03.16,0,.01,0,.03-.01.05.01.01.01.03.01.04-.04.25-.1.5-.16.75-.03.14-.06.28-.09.43-.04.19-.08.39-.12.59l-.1.49c-.01.06-.06.1-.12.1-.5,0-.97.04-1.33.43-.38.42-.37,1.04-.35,1.63,0,.07-.05.14-.11.14-.64.07-1.04.52-1.05,1.16v13.89c.01.71.48,1.16,1.21,1.17,1.15.01,2.29.01,3.44,0h2.28c.59-.07.99-.5,1.02-1.08v-13.43c0-.21.01-.42,0-.64-.03-.59-.45-1.03-1.04-1.07ZM5.2,2.01c.01-.06.06-.1.12-.1s.12.04.13.1l.18.9.22,1.06s0,.08-.02.11c-.03.03-.06.04-.1.04h-.81s-.07-.01-.1-.04c-.02-.03-.03-.07-.02-.11.13-.65.27-1.31.4-1.96ZM3.05,5.12c.18-.47.61-.52.99-.52h2.07s.02,0,.04-.01h.18c.37,0,.83-.03,1.11.28.22.25.22.53.22.8v.52c0,.07-.06.13-.12.13H3.12c-.07,0-.13-.06-.13-.13v-.47c-.01-.19-.02-.41.06-.6ZM8.83,21.39c-.01.4-.24.66-.59.68H2.57c-.22,0-.48-.02-.64-.26-.15-.22-.13-.55-.11-.82,0-.08.01-.14.01-.2v-12.55c0-.09-.01-.18-.01-.28-.01-.19-.01-.39.01-.59.03-.36.3-.57.81-.6.18,0,.36,0,.53.01.09,0,.18.01.25.01h2.86c.21,0,.42-.01.63-.01.31-.01.63-.02.95-.01h.05s.06,0,.1.01c.05,0,.12,0,.2.01.62.04.62.55.62.91v4.32c0,1.04,0,2.08.01,3.12.02,2.05.03,4.17-.01,6.25Z"/><path d="M7.64,14.85c-.16-.4-.4-.7-.7-.9.02-.08,0-.17-.03-.25-.05-.12-.17-.2-.29-.2-.07,0-.14,0-.21,0-.06,0-.12,0-.18,0,0-.16,0-.32-.02-.51-.01-.12-.1-.23-.22-.28-.12-.05-.25-.04-.35.03-.22.16-.4.33-.52.49-.13-.29-.3-.58-.48-.82-.1-.14-.23-.15-.31-.13-.08.03-.16.13-.15.3.03.29.08.62.18.93-.21-.04-.45-.05-.72-.03-.12,0-.23.09-.29.2-.05.12-.05.25.02.35.1.16.21.29.32.4-.1.07-.2.16-.29.25-.09.09-.12.22-.09.34,0,.04.03.08.06.12-.02.03-.03.06-.05.09-.18.41-.18.85-.01,1.29.34.87,1.17,1.38,2.11,1.38.28,0,.57-.04.85-.14.56-.19,1.02-.6,1.28-1.16.26-.56.29-1.21.07-1.77ZM6.19,13.82c.15-.02.29-.01.41,0,.01,0,.02,0,.03.03,0,.01,0,.03,0,.04-.04.06-.09.13-.14.2-.23.29-.56.59-.92.47-.05-.01-.1-.03-.14-.07-.02-.01-.03-.04-.03-.06,0-.06.01-.11.03-.16.03-.09.08-.16.15-.22.07-.07.16-.11.26-.14.11-.04.23-.06.35-.07ZM5.84,13.01s.03,0,.04,0c.01,0,.03.02.03.03.02.17.03.35.01.51-.19.04-.34.1-.47.2-.05.03-.1.07-.14.11,0-.03,0-.05,0-.08,0-.05-.02-.1-.03-.16.12-.25.38-.47.57-.61ZM4.93,13.61c.03.08.05.15.06.22,0,.02,0,.03,0,.05.01.06.01.12.01.17-.04-.04-.07-.08-.1-.13-.01-.02-.02-.03-.03-.05-.04-.06-.08-.13-.1-.21-.1-.22-.17-.5-.22-.82.18.28.3.54.38.77ZM3.66,13.87s0-.02,0-.04c0-.01.02-.02.03-.02.07,0,.15-.01.24-.01.2,0,.42.02.59.1.03.05.05.1.08.14.01.02.03.04.04.06h0c.05.07.1.14.16.2.03.03.07.05.1.08,0,0,0,0,0,0h0s-.01.05-.03.06c-.02.01-.04.03-.06.03-.14.08-.29.08-.42.04-.04-.01-.08-.03-.13-.05-.06-.03-.12-.07-.18-.12-.04-.03-.08-.06-.11-.09-.13-.13-.24-.27-.32-.4ZM3.65,14.92c.08-.09.19-.18.32-.27.05.03.1.07.15.09.15.08.31.12.46.12.11,0,.23-.03.34-.07-.2.35-.7.32-1.07.24-.06-.01-.12-.03-.18-.05,0,0-.02-.01-.02-.03,0-.02,0-.03,0-.04ZM7.29,16.49c-.22.48-.61.83-1.09.99-1.09.36-2.19-.09-2.57-1.06-.14-.36-.14-.71,0-1.05.01-.02.02-.04.03-.06.22.05.42.08.61.08.51,0,.87-.23,1-.65.15.1.31.14.46.14.35,0,.72-.23,1.05-.67.01,0,.02.01.03.02.23.16.42.41.54.73.19.48.16,1.03-.06,1.52Z"/><polygon points="22.12 13.1 22.12 13.1 22.12 13.1 22.12 13.1"/><path d="M22.12,13.1h0s0,0,0,0h0ZM21.49,14.51l-.42,6.37c-.03.5-.38.9-.79.9h-6.84c-.41,0-.76-.39-.79-.9l-.45-6.83s-.07.02-.13.04c-.08.03-.15.07-.22.1-.06.02-.12.04-.17.06l.44,6.67c.05.79.64,1.4,1.33,1.4h6.84c.69,0,1.28-.61,1.33-1.4l.41-6.22c-.18-.04-.36-.1-.53-.18Z"/><path d="M22.48,12.89l-.34-1.16c-.17-.59-.67-.98-1.24-.98h-8.07c-.57,0-1.07.39-1.24.98l-.31,1.04c-.39.29-.75.77-.4,1.24.14.19.38.27.61.26.06,0,.13-.01.19-.03.06-.02.12-.04.17-.06.07-.03.14-.07.22-.1.06-.02.1-.03.13-.04.05,0,.08.02.16.09.23.24.38.5.68.67.24.13.5.2.77.15.25-.04.49-.18.64-.39.1-.15.08-.23.24-.06.11.12.21.24.35.32.23.14.51.17.76.06.28-.12.44-.44.73-.53.38-.13.77.29,1.09.45.25.13.52.2.79.11.25-.08.32-.25.46-.44.18-.25.23-.09.4.04.12.09.25.16.39.19.23.05.48.01.68-.1.1-.06.2-.13.28-.22.05-.06.08-.15.13-.2.16-.15.22-.07.36.05.12.09.25.18.4.26.16.08.34.14.53.18.35.07.72.03,1-.2.6-.51-.1-1.16-.54-1.6ZM12.09,11.88c.1-.36.4-.6.73-.6h8.07c.33,0,.62.24.73.6l.2.69h-9.93l.2-.69ZM22.5,14.28c-.15.03-.31.03-.46,0-.03,0-.06,0-.09-.02-.17-.04-.3-.12-.43-.21-.11-.07-.21-.16-.32-.24-.16-.11-.35-.2-.54-.11-.21.09-.26.32-.42.47-.25.24-.58.19-.83-.02-.29-.26-.7-.4-.9.04-.06.14-.09.29-.25.35-.14.06-.3.02-.43-.05-.26-.12-.47-.32-.73-.44-.47-.22-.84-.07-1.2.26-.24.22-.5.35-.79.1-.16-.15-.28-.37-.51-.42-.16-.03-.3.05-.39.17-.18.24-.3.44-.64.42-.38-.03-.67-.35-.87-.64-.12-.17-.23-.36-.47-.34-.02,0-.04,0-.06.01-.18.04-.35.16-.53.23-.06.02-.13.04-.2.04-.26,0-.35-.24-.25-.46.06-.13.18-.23.29-.31.03-.02.07-.05.1-.07h0l10.53.07h0c.21.23.43.46.62.7.17.21-.01.43-.24.48Z"/><path d="M18.11,20.16c.28-.1-.09-.29-.17-.31-.13-.02-.26.14.17.31Z"/><path d="M17.37,19.43c.07-.03.11-.36.01-.38-.18-.07-.22.45-.01.38Z"/><path d="M16.82,20.23c.16.07.19-.3.07-.32-.13-.03-.15.29-.07.32Z"/><path d="M16.68,18.48c.07-.03.1-.39.04-.41q-.05,0-.1,0c-.07.03-.19.5.06.42Z"/><path d="M16.37,18.86c-.01.06.24.47.36.25.06-.05-.17-.31-.19-.32-.06-.02-.14.02-.16.07Z"/><path d="M15.68,18.23c.14.02.36.15.33-.1-.11-.1-.51-.17-.33.1Z"/><path d="M15.9,16.52c-.19-.04-.2.38-.11.41.17.06.26-.38.11-.41Z"/><path d="M15.82,18.92c.17.07.19-.28.1-.31-.15-.07-.18.28-.1.31Z"/><path d="M15.82,17.68c.08.02.35-.17.16-.28-.09-.03-.36.19-.16.28Z"/><path d="M15.04,17.45c.06.04.49-.04.29-.2-.14,0-.46,0-.29.2Z"/><path d="M19.28,19.59s-.02-.03-.03-.04c-.28-.36-.63-.44-.98-.7-.55-.38-1-1-1.26-1.61-.13-.29-.19-.62-.36-.89-.12-.19-.35-.41-.57-.55-.08-.05-.15-.09-.22-.11-.5-.15-.77.07-.81.07-.05,0-.28-.25-.57-.2-.39.07.09.59.09.64,0,.06-.33.34-.18,1.25.18,1.21,1.3,2.97,2.43,3.49.74.35,1.84.41,2.42-.27.31-.36.33-.7.06-1.09ZM14.62,15.79c.14.11.23.13.11.2-.06-.09-.17-.21-.11-.2ZM19.11,20.42s-.04.06-.07.09c-.6.69-1.75.47-2.43.02-.99-.65-2.29-2.72-1.95-3.92.01-.04.03-.08.05-.13h0c.15-.35.52-.64.91-.59.28.04.59.3.76.52.22.29.28.65.42.98.26.59.73,1.24,1.25,1.62.34.25.81.4,1.05.76.16.25.15.43,0,.64Z"/></svg>