<?xml version="1.0" encoding="UTF-8"?><svg id="Calque_1" xmlns="http://www.w3.org/2000/svg" viewBox="0 0 24 24"><path d="M14.36,11.44l-.53.44-.45-.54.38-.32c.36-.3.39-.87.06-1.3l-5.37-7.06c-.18-.23-.43-.39-.7-.43-.25-.04-.48.02-.66.17l-4.7,3.88c-.18.15-.28.36-.29.61-.01.27.09.55.29.76l5.92,6.6c.36.4.93.48,1.29.18l.38-.32.45.54-.53.44c-.11.09-.12.27-.02.39.81.98,2.05,1.31,2.76.73l2.28-1.89c.71-.58.62-1.86-.19-2.84-.1-.12-.27-.14-.39-.05ZM2.67,6.96c0-.1.04-.18.11-.23l4.7-3.88c.06-.05.15-.08.25-.06.12.02.23.09.32.2l2.31,3.03c-.23.31-.54.54-.91.67-.46.15-1.01.16-1.29.62-.23.38-.13.88-.38,1.24-.22.3-.64.46-.99.6-.24.1-.47.2-.69.34-.14.09-.27.18-.39.28-.07.05-.13.1-.19.15-.02.02-.05.04-.07.06-.02.02-.09.03-.03.03-.05,0-.09.03-.13.05l-2.47-2.75c-.09-.1-.14-.23-.13-.35ZM9.26,14.01c-.14.12-.38.07-.53-.1l-3.08-3.43c.18-.1.34-.26.5-.38.21-.15.44-.28.68-.39.41-.18.84-.33,1.18-.64.18-.16.31-.36.39-.59.08-.22.09-.45.14-.67.05-.2.12-.34.33-.41.23-.08.48-.11.72-.19.44-.15.79-.42,1.09-.76l2.73,3.59c.14.19.14.43,0,.54l-.59.49s0,0,0,0l-2.97,2.45h0s-.59.49-.59.49ZM10.41,13.79l2.35-1.95.2-.17.45.54-2.56,2.11-.45-.54ZM14.57,13.89l-.28.23s-.01-.03-.03-.05c-.19-.23-.5-.28-.69-.12s-.2.47,0,.7c.01.01.03.02.04.03l-.36.3s-.01-.03-.03-.05c-.19-.23-.5-.28-.69-.12s-.2.47,0,.7c.01.01.03.02.04.03l-.28.23c-.42.35-1.2.15-1.79-.42l2-1.65,1.48-1.23h0s.52-.43.52-.43c.45.69.5,1.48.07,1.83Z"/><path d="M15.22,17.86c0-.35-.25-.63-.55-.63s-.55.28-.55.63.25.63.55.63.55-.28.55-.63Z"/><ellipse cx="15.04" cy="19.52" rx=".37" ry=".38"/><path d="M17.1,19.1c.34-.13.5-.51.37-.85-.13-.34-.51-.5-.85-.37s-.5.51-.37.85c.13.34.51.5.85.37Z"/><path d="M16.43,16.77c.02-.21-.14-.39-.35-.41s-.39.14-.4.35c-.02.21.14.39.35.41s.39-.14.4-.35Z"/><path d="M16.99,19.86c-.35,0-.63.29-.63.65s.28.65.63.65.63-.29.63-.65-.28-.65-.63-.65Z"/><ellipse cx="18.19" cy="16.94" rx=".49" ry=".53"/><path d="M18.57,18.37c-.29,0-.53.24-.53.53s.24.53.53.53.53-.24.53-.53-.24-.53-.53-.53Z"/><path d="M5.55,14.92s-.08,0-.12,0c0-.01,0-.03,0-.04,0-.04.02-.08.03-.11.02-.04.04-.07.06-.1.03-.03.05-.06.08-.08.03-.02.06-.03.09-.05.02,0,.04-.01.06-.02.16-.03.27-.22.23-.37-.05-.17-.2-.26-.37-.23-.28.06-.52.25-.66.49-.09.16-.14.35-.14.54-.43.09-.84.29-1.17.55-.33.26-.57.7-.46,1.08,0,0,0,0,0,.01.16,1.26-.24,2.62-.79,3.73-.11.23-.28.45-.29.71,0,.27.16.53.41.64.53.24,1.26.03,1.74-.24.56-.32.97-.84,1.26-1.4.28-.57.52-1.2.63-1.83.06-.33.04-.67-.08-.95.46-.2.73-.7.67-1.2-.08-.59-.61-1.01-1.17-1.13ZM5.51,18.17c-.08.35-.2.7-.33,1.04-.22.6-.55,1.22-1.09,1.59-.26.18-.57.31-.89.34-.09,0-.4.04-.47-.04-.06-.08.07-.23.1-.3.58-1.11.99-2.4.98-3.67.48.1,1.02-.14,1.48.13.32.19.29.6.21.92ZM5.73,16.73s-.06.03-.09.04c-.06-.04-.1-.09-.17-.12-.27-.12-.56-.15-.85-.13-.18.01-.82.16-.87-.15-.04-.27.44-.53.63-.63.32-.17.69-.29,1.06-.21.27.06.56.24.65.52.08.28-.07.61-.36.67Z"/><path d="M21.8,7.73c-.2-.23-.43-.44-.66-.63-.67-.57-1.48-1.05-2.36-1.19-.11-.02-.22-.03-.32-.03.15-.18.29-.38.41-.59.42-.76.63-1.63.7-2.48.02-.18,0-.39-.2-.45-.13-.04-.27,0-.39.04-.33.08-.65.17-.96.29-.82.31-1.62.79-2.14,1.51-.32.45-.52.98-.55,1.53-.02.28-.03.6.11.85.14.26.42.42.71.43,0,0,.01,0,.02,0-.03.19,0,.38.09.56,0,.01.01.03.02.04.6.9,1.55,1.39,2.62,1.4.84,0,1.69-.22,2.45-.56.29-.13.78-.33.45-.71ZM16.16,7h0s.01,0,.02,0c0,0-.01,0-.02,0h0ZM16.18,7.01s0,0,0,0c0,0,0,0,0,0,.01,0,.02,0,.03,0-.01,0-.02,0-.03,0ZM16.25,6.97s0,0,.01-.01h0s0,0-.01.01ZM16.37,6.53s0-.02,0-.04c-.07-.25-.12-.49.02-.72.15-.24.4-.39.64-.51.55-.27,1.17-.51,1.42-1.13.13-.33-.37-.54-.5-.22-.1.26-.32.43-.56.56-.33.19-.69.31-1,.52-.25.17-.47.41-.58.69-.1.25-.08.5-.03.74,0-.01-.02-.03-.02-.04-.14-.26-.09-.68-.04-.96.07-.4.24-.77.49-1.09.45-.59,1.11-.98,1.79-1.26.27-.11.55-.21.83-.28.09-.02.2-.04.29-.07.04-.02.05-.01.07-.01,0,.03,0,.07-.01.09-.07.71-.24,1.41-.54,2.06-.18.39-.42.73-.71,1.01h0c-.27.03-.54.1-.79.21-.23.1-.5.24-.7.42-.02,0-.04,0-.06.01ZM21.53,7.99s0,0,0,0c0,0-.01-.02-.02-.02,0,0,0,0-.01-.01-.1.03-.2.1-.3.14-.66.29-1.35.49-2.07.53-1.04.05-1.97-.37-2.55-1.25-.03-.04-.06-.06-.09-.07.02,0,.05,0,.07.02-.03-.07-.04-.13-.04-.19.35.21.72.41,1.13.5.24.06.49.07.74.03.2-.03.49-.12.66,0,.13.08.29.08.38-.05.09-.11.08-.31-.05-.38-.24-.15-.5-.19-.78-.15-.25.03-.49.09-.74.05-.37-.06-.71-.24-1.03-.44.22-.15.49-.27.67-.32.19-.06.39-.1.59-.11h0c.22-.01.44,0,.66.03.76.13,1.46.55,2.05,1.03.21.17.41.35.6.55.02.02.06.07.09.09,0,0,0,0,0,0,0,0,.06-.04.06-.03,0,.07-.01.1-.03.07Z"/></svg>