<?xml version="1.0" encoding="UTF-8"?>
<svg id="Calque_2" xmlns="http://www.w3.org/2000/svg" viewBox="0 0 72.41 71.43">
  <defs>
    <style>
      .cls-1 {
        fill: #000;
      }
    </style>
  </defs>
  <g id="Calque_1-2" data-name="Calque_1">
    <g>
      <g>
        <path class="cls-1" d="M1.17,14.86L18.34.66c.65-.54,1.5-.76,2.4-.62.98.15,1.9.72,2.54,1.56l19.61,25.78c1.2,1.57,1.1,3.67-.23,4.76l-15.15,12.52c-1.33,1.1-3.4.8-4.72-.67L1.15,19.89c-.71-.79-1.09-1.8-1.05-2.79.03-.91.41-1.7,1.06-2.24ZM41.33,30.54c.52-.43.52-1.3,0-1.99L21.73,2.77c-.3-.39-.72-.65-1.15-.72-.34-.05-.67.03-.9.22L2.5,16.47c-.24.2-.38.5-.39.85-.02.44.16.9.49,1.27l21.63,24.11c.57.64,1.43.8,1.95.37l15.15-12.52Z"/>
        <path class="cls-1" d="M28.34,41.28l10.84-8.96c.41-.34,1.05-.26,1.41.18l2.96,3.58c.37.44.33,1.08-.09,1.42l-10.84,8.96c-.41.34-1.05.26-1.41-.18l-2.96-3.58c-.37-.44-.33-1.08.09-1.42ZM39.75,34.55l-9.34,7.72,1.63,1.97,9.34-7.72-1.63-1.97Z"/>
        <path class="cls-1" d="M28.61,47.07l16.21-13.4c.41-.34,1.05-.26,1.41.18,2.97,3.6,3.29,8.26.71,10.39l-8.35,6.9c-2.58,2.13-7.1.94-10.07-2.65-.37-.44-.33-1.08.09-1.42ZM45.35,35.94l-14.62,12.08c2.16,2.09,4.99,2.8,6.53,1.52l8.35-6.9c1.55-1.28,1.38-4.19-.26-6.7Z"/>
        <g>
          <ellipse class="cls-1" cx="43.23" cy="44.36" rx="1.66" ry="1.96" transform="translate(-18.35 37.71) rotate(-39.58)"/>
          <ellipse class="cls-1" cx="39.4" cy="47.53" rx="1.66" ry="1.96" transform="translate(-21.25 36) rotate(-39.58)"/>
        </g>
        <path class="cls-1" d="M31.5,13.76c-1.23,1.88-3.15,3.23-5.36,3.77-1.01.25-2.13.37-2.83,1.1-.97,1.01-.76,2.76-1.28,4.1-.93,2.43-3.87,3-6.12,4.17-1.13.59-2.13,1.37-3.1,2.18-.21.18-.44.36-.73.35-.39-.02-.72-.37-.99-.69-3.06-3.62-6.12-7.24-9.18-10.86-.26-.31-.53-.63-.66-1.01-.27-.76.1-1.51.52-2.1,1.28-1.82,3.1-3.14,4.88-4.44,3.55-2.58,7.1-5.15,10.65-7.73.93-.67,1.96-1.38,3.18-1.25,1.77.19,3.11,1.99,4.15,3.59,1.88,2.89,3.77,5.78,5.65,8.67"/>
      </g>
      <g>
        <ellipse class="cls-1" cx="45.96" cy="57.15" rx="2.02" ry="2.29"/>
        <ellipse class="cls-1" cx="47.3" cy="63.21" rx="1.34" ry="1.38"/>
        <circle class="cls-1" cx="53.96" cy="59.44" r="2.39"/>
        <ellipse class="cls-1" cx="51.04" cy="53.05" rx="1.37" ry="1.4"/>
        <ellipse class="cls-1" cx="54.43" cy="66.79" rx="2.29" ry="2.36"/>
        <ellipse class="cls-1" cx="58.81" cy="53.76" rx="1.79" ry="1.94"/>
        <ellipse class="cls-1" cx="60.21" cy="60.93" rx="1.93" ry="1.95"/>
      </g>
      <g>
        <path class="cls-1" d="M3.96,52.47c.58,4.59-.89,9.56-2.9,13.65-.41.82-1.04,1.65-1.06,2.6-.02,1,.58,1.92,1.48,2.33,1.94.87,4.62.12,6.36-.87,2.05-1.15,3.55-3.06,4.59-5.13s1.89-4.39,2.32-6.67-.09-4.64-2.38-5.66c-.97-.43-2.06-.55-3.11-.48-.68.04-2.99.57-3.17-.54-.16-1,1.62-1.92,2.3-2.3,1.16-.63,2.53-1.07,3.86-.78,1,.22,2.06.88,2.37,1.91s-.25,2.22-1.3,2.46c-1.42.33-.89,2.53.53,2.2,2.08-.48,3.35-2.6,3.07-4.68s-2.23-3.71-4.28-4.12c-2.47-.49-5.05.57-6.98,2.09-1.66,1.31-2.72,3.83-.69,5.37s4.65-.19,6.73,1.04c1.18.7,1.05,2.18.78,3.34-.29,1.29-.73,2.56-1.19,3.8-.82,2.19-2.01,4.47-3.99,5.82-.96.65-2.09,1.12-3.25,1.23-.34.03-1.47.16-1.71-.14-.23-.28.25-.83.38-1.09,2.48-4.8,4.14-10.48,3.45-15.92-.18-1.44-2.38-.9-2.2.53h0Z"/>
        <path class="cls-1" d="M12.29,46.96c-.06-.18-.1-.36-.12-.55l.03.3c-.02-.21-.01-.43.02-.64l-.05.29c.04-.24.11-.47.21-.7l-.12.26c.1-.22.23-.43.38-.62l-.18.23c.15-.19.33-.36.52-.5l-.24.17c.17-.13.36-.23.56-.31l-.28.11c.13-.05.26-.08.39-.11.58-.12,1-.79.84-1.36-.18-.61-.74-.96-1.36-.84-1.01.2-1.92.91-2.42,1.81s-.72,2.02-.37,3c.1.29.24.53.51.7.24.15.58.21.86.14s.55-.25.7-.51c.14-.25.23-.58.14-.86h0Z"/>
      </g>
      <path d="M72.02,20.11c-.72-.84-1.59-1.6-2.43-2.31-2.46-2.07-5.39-3.83-8.61-4.36-.39-.07-.79-.1-1.18-.11.55-.66,1.05-1.37,1.48-2.16,1.52-2.76,2.3-5.95,2.58-9.07.06-.66,0-1.41-.75-1.65-.46-.15-.98.02-1.44.14-1.19.29-2.37.64-3.51,1.08-2.99,1.15-5.94,2.88-7.83,5.51-1.18,1.64-1.88,3.58-2,5.6-.07,1.03-.12,2.21.4,3.12.52.97,1.52,1.54,2.6,1.57.03,0,.05,0,.08-.01-.11.68,0,1.4.33,2.04.02.05.05.1.08.15,2.18,3.3,5.66,5.08,9.59,5.11,3.09.03,6.16-.82,8.97-2.06,1.05-.46,2.85-1.21,1.65-2.6ZM51.4,17.46h0s.05,0,.07-.02c-.02,0-.04.01-.06.01h0ZM51.49,17.48s-.03-.01-.04,0c.01,0,.02,0,.03,0,.04,0,.09,0,.13,0-.04.01-.08.01-.12.02ZM51.79,17.31s-.03.02-.05.03c.02,0,.03-.02.05-.04h0ZM50.06,15.39c-.03-.05-.06-.09-.09-.15-.51-.95-.33-2.47-.15-3.5.25-1.45.89-2.81,1.79-3.99,1.65-2.15,4.07-3.59,6.55-4.6.99-.41,2-.75,3.04-1.03.33-.09.73-.13,1.05-.25.14-.06.2-.05.24-.05-.02.12-.03.24-.05.34-.26,2.59-.86,5.17-1.97,7.53-.67,1.43-1.55,2.67-2.6,3.67h0c-1,.12-1.97.37-2.9.76-.85.37-1.83.87-2.55,1.54-.08,0-.15.03-.22.05-.02-.05-.01-.09-.02-.14-.26-.9-.45-1.78.08-2.62.54-.86,1.45-1.41,2.34-1.85,2.01-.99,4.29-1.88,5.19-4.13.48-1.19-1.36-1.99-1.84-.79-.37.94-1.17,1.58-2.03,2.06-1.2.68-2.5,1.12-3.64,1.9-.9.61-1.71,1.49-2.1,2.52-.35.93-.29,1.81-.11,2.72ZM71.03,21.07s-.02-.01-.02-.02c-.02,0-.04-.06-.07-.07-.01,0-.02-.03-.05-.04-.36.11-.74.36-1.1.52-2.39,1.04-4.95,1.79-7.56,1.92-3.82.2-7.21-1.34-9.33-4.56-.1-.15-.22-.23-.34-.27.09,0,.19.03.27.06-.1-.24-.15-.47-.13-.69,1.3.78,2.64,1.49,4.14,1.84.88.21,1.81.24,2.71.1.73-.11,1.78-.43,2.41-.02.46.29,1.06.28,1.41-.17.31-.4.29-1.11-.17-1.41-.87-.56-1.84-.68-2.85-.55-.93.11-1.78.32-2.71.17-1.35-.22-2.61-.88-3.78-1.59.79-.56,1.8-.97,2.45-1.18.71-.23,1.44-.36,2.17-.41h0c.8-.05,1.6-.01,2.39.13,2.79.49,5.32,2.01,7.5,3.77.78.63,1.51,1.3,2.2,2,.09.08.21.26.32.34h.02s.22-.14.23-.12c0,.27-.04.35-.11.26Z"/>
    </g>
  </g>
</svg>