<?xml version="1.0" encoding="UTF-8"?><svg id="Calque_1" xmlns="http://www.w3.org/2000/svg" viewBox="0 0 24 24"><path d="M22.15,16.48c-.67-.75-1.64-1.22-2.31-1.97-.32-.35-.75-.66-1.08-1.02-.72-.82-1.07-1.75-2.11-2.03l.18.21c.09.1.13.21.09.34.62.39,1.02,1.16,1.59,1.79.29.32.64.58.93.88.12.12.2.26.34.39.56.54,1.35.98,1.94,1.53.45.43.42.59-.1.92-.58.36-1.54.83-2.17,1.1-1.38.62-3.41.79-4.92.7-1.34-.08-2.27-.88-3.09-1.87-.47-.58-.78-1.22-.17-1.85l.33-.31c-.17-.04-.34-.07-.51-.11-.99,1-.55,1.89.3,2.81,1.45,1.57,2.31,1.83,4.45,1.72,1.02-.04,2.14-.13,3.11-.47.68-.23,1.29-.59,1.92-.91.69-.36,2.2-.86,1.29-1.86Z"/><path d="M17.16,18.33c.31.1.37-.33.13-.38-.28-.06-.34.32-.13.38Z"/><path d="M16.75,13.75c.32.09.41-.34.11-.39-.27-.05-.32.33-.11.39Z"/><path d="M17.02,16.73c.22-.22-.18-.49-.31-.25-.12.21.14.42.31.25Z"/><path d="M15.97,15.53c.22-.22-.18-.49-.31-.25-.12.21.14.42.31.25Z"/><path d="M15.03,17.71c.31.1.37-.33.13-.38-.28-.06-.34.32-.13.38Z"/><path d="M13.16,18.13c.31.1.37-.33.13-.38-.28-.06-.34.32-.13.38Z"/><path d="M13.42,16.42c.22-.22-.18-.49-.31-.25-.12.21.14.42.31.25Z"/><path d="M18.69,16.58c.19-.21-.19-.5-.34-.22-.11.21.19.38.34.22Z"/><path d="M20.38,16.73c.27.08.37-.32.14-.38-.27-.08-.38.32-.14.38Z"/><path d="M18.14,14.8c.23.13.41-.17.25-.32-.23-.21-.49.18-.25.32Z"/><path d="M11.23,13.93l.1-.17c-.06.03-.09.09-.1.17Z"/><path d="M16.83,11.67l-.18-.21-2.55-2.88-2.52-.61-.5-2.95-.13-.1-4.21-.66-3.85,1.99-.07.2.65,3.9c-.27.1-1.04.04-1.16.32l-.72,4.2c-.02.29,0,.29.23.44.79.49,1.82.97,2.66,1.41.19.1.91.51,1.05.51l4.2-.66c.09-.05.1-.1.13-.2.13-.48.16-1.06.24-1.56.1,0,.13.11.21.16.06.03.11.04.17.06.2.06.4.11.6.15.17.04.34.07.51.11.29.06.58.11.87.17.21.04.43.08.64.12h0s0,0,.01,0c.13.02.27.05.4.08.17.04.33.07.49.11.13.03.27.07.4.1h.02c.27.05.4-.34.53-.53.18-.3.36-.61.53-.91.11-.18.21-.36.32-.53.35-.62.7-1.23,1.07-1.84,0-.02.02-.04.02-.06.04-.12,0-.23-.09-.34ZM13.84,9l2.08,2.36.02.03.05.1-.43-.09-2.82-.61-2.15-2.49,3.25.7ZM11.07,7.91l-1.25-.26-.1.06-1.67,2.79-.07.04-.51-3.32,3.21-1.66.39,2.35ZM6.79,4.79l3.27.48-.04.07-2.91,1.49-3.26-.52,2.95-1.52ZM3.36,6.74l3.58.57.48,2.95-.77-.39-2.71.4-.59-3.53ZM6.59,10.39l2.95,1.52s-.14.06-.18.06c-1.03.17-2.08.31-3.12.46l-2.92-1.56,3.26-.48ZM5.31,16.6l-3.22-1.7.61-3.77,3.22,1.71-.61,3.75ZM9.39,16.11l-3.59.55.62-3.74,3.61-.56-.64,3.74ZM10.42,14.32s-.22-.14-.19-.2l.35-2.03c0-.16-.15-.24-.26-.31-.48-.29-1.05-.53-1.54-.8-.05-.03-.29-.16-.3-.19l1.41-2.42.08-.03,2.34,2.71-1.89,3.27ZM15.43,13.57l-.29.48-.37.64-.39.66-.09-.02-.72-.15-.4-.09-.62-.12-.45-.1-.56-.12-.39-.08-.33-.07.39-.67h0c.01-.09.04-.14.1-.17h0s1.4-2.47,1.4-2.47l1.92.42.67.15.98.21-.88,1.49Z"/></svg>