<?xml version="1.0" encoding="UTF-8"?>
<svg id="Calque_2" xmlns="http://www.w3.org/2000/svg" viewBox="0 0 57.5 74.83">
  <defs>
    <style>
      .cls-1 {
        fill: #1d1d1b;
      }
    </style>
  </defs>
  <g id="Calque_1-2" data-name="Calque_1">
    <g>
      <path class="cls-1" d="M33.08,38.25l-.75-4.84-.27-1.75-.86-5.56c-.05-.31-.23-.58-.49-.75-.06-.04-.12-.07-.19-.1-.37-.14-.78-.07-1.08.17l-.55.44-8.84,7.11-.19.15c-.3.24-.45.63-.39,1.01l.04.24,1.72,11.2.11.7c.06.39.32.71.69.86.06.02.12.04.19.05.01.01.01,0,.01,0,.06.01.13.02.19.02.25,0,.49-.08.68-.24l2.58-2.07,1.32-1.06,3.33-2.68,1.38-1.11.97-.78c.3-.24.46-.63.4-1.01ZM28.66,40.57h0s-1.98,1.6-1.98,1.6l-1.33,1.06-2.63,2.12-.92-5.91-.82-5.3h.01l8.84-7.11.89,5.79.27,1.75.57,3.67-1.52,1.22-1.38,1.11Z"/>
      <path class="cls-1" d="M22.82,46.05l-1.02-6.61-.81-5.3-.04-.24c-.06-.38-.32-.7-.68-.85h0l-.21-.08-10.58-4.11-.66-.25c-.36-.14-.77-.08-1.08.16-.06.05-.11.1-.14.15-.21.24-.3.56-.25.87l1.88,12.14c.05.39.31.71.68.85l11.45,4.45c.13.05.26.07.4.07.16,0,.32-.04.47-.12.01.01.01,0,.01,0,.07-.03.14-.07.2-.12.3-.24.45-.63.39-1.01ZM10.66,41.47l-1.73-11.2h0s5.58,2.16,5.58,2.16l4.99,1.94,1.73,11.2-10.57-4.1Z"/>
      <path class="cls-1" d="M30.77,25.57c0-.08-.03-.15-.06-.22-.11-.29-.33-.52-.62-.63l-11.46-4.45c-.12-.04-.25-.07-.38-.07-.25,0-.49.08-.69.24l-9.58,7.7c-.24.19-.38.48-.39.78-.02.08-.01.15,0,.23.06.39.32.71.68.86l.66.25h0s5.58,2.17,5.58,2.17l4.99,1.94h.01l.21.08c.13.05.26.08.4.08.24,0,.48-.09.68-.24l.18-.15h.01l8.84-7.11.55-.44c.3-.24.45-.63.39-1.02ZM20.05,32.97l-10.58-4.11,8.84-7.1,10.58,4.1-8.84,7.11Z"/>
      <path class="cls-1" d="M50.64,46.77l-2.35-12.06c-.06-.31-.25-.57-.51-.72-.06-.04-.13-.07-.2-.1-.37-.13-.78-.05-1.07.21l-9.09,7.9-.18.16c-.3.25-.43.65-.36,1.03l.04.23h.01l2.16,11.14.14.69c.07.38.34.7.71.82.07.02.14.04.21.05.05.01.1.01.15.01.26,0,.51-.09.71-.26l9.27-8.07h.01c.29-.25.42-.64.35-1.03ZM40.56,54.27l-2.16-11.13,8.56-7.45,2.16,11.14-8.56,7.44Z"/>
      <path class="cls-1" d="M40.7,54.96l-.14-.69-2.16-11.13-.05-.24c-.07-.38-.35-.69-.71-.82l-.22-.08h-.01l-5.7-1.96-1.67-.58-1.38,1.11h0s1.67.58,1.67.58l6.59,2.27h.01l2.16,11.14-10.72-3.69-1.37-7.04-.32-1.66-1.33,1.06.33,1.66,1.26,6.49c.08.39.35.7.72.83l11.61,3.99c.12.04.24.06.36.06.18,0,.36-.04.52-.14.07-.03.13-.07.19-.12.3-.26.43-.65.36-1.04Z"/>
      <path class="cls-1" d="M28.66,40.57l1.38-1.11,1.67.58,5.7,1.96h.01l8.55-7.44-10.72-3.69-2.92,2.54-1.34,1.16-.27-1.75,1.34-1.16,2.38-2.07c.29-.26.71-.34,1.07-.21l11.62,3.99c.3.1.53.33.65.62.03.06.05.14.07.21.07.38-.07.77-.36,1.03l-.53.46-8.56,7.45-.18.15c-.2.18-.46.27-.72.27-.12,0-.24-.02-.35-.06l-.22-.08h-.01l-6.59-2.27-1.67-.57h0Z"/>
      <path class="cls-1" d="M51.04,23.71c-.36,0-.7-.18-.9-.48l-6.88-10.18c-.22-.32-.25-.74-.08-1.09L48.55.91c.17-.35.52-.58.9-.61.37-.03.76.15.98.48l6.88,10.18c.22.32.25.74.08,1.09l-5.37,11.05c-.17.35-.51.58-.9.61-.03,0-.05,0-.08,0ZM50.67,22.44h0s0,0,0,0ZM44.63,12.4l6.35,9.4,4.96-10.2-6.35-9.4-4.96,10.2ZM44.52,12.61h0s0,0,0,0Z"/>
      <path class="cls-1" d="M38.22,24.96c-.36,0-.7-.18-.91-.48l-6.88-10.18c-.22-.32-.25-.74-.08-1.09.17-.35.52-.58.9-.61l12.25-.87c.37-.03.76.15.98.48l6.88,10.18c.22.32.25.74.08,1.09s-.52.58-.91.61l-12.25.87s-.05,0-.07,0ZM32.07,14.05l6.35,9.4,11.31-.8-6.35-9.4-11.31.8ZM43.62,13.23h0,0ZM43.56,12.48h0,0Z"/>
      <path class="cls-1" d="M31.29,14.1c-.36,0-.7-.18-.9-.48-.22-.32-.25-.74-.08-1.09l5.37-11.05s0,0,0,0c.17-.35.52-.58.9-.61L48.84,0c.39-.03.76.16.98.48s.25.74.08,1.09l-5.37,11.05c-.17.35-.52.58-.9.61l-12.26.87s-.05,0-.08,0ZM36.92,2.35l-4.96,10.2,11.31-.8,4.96-10.2-11.31.8Z"/>
      <path class="cls-1" d="M11.87,74.83c-.22,0-.44-.07-.62-.19-.32-.22-.5-.6-.47-.99l1-12.24c.03-.39.27-.73.62-.9l11.1-5.25c.35-.16.77-.13,1.09.09.32.22.5.6.47.99l-1,12.24c-.03.39-.27.73-.62.9l-11.11,5.25c-.15.07-.31.1-.47.1ZM13.27,61.76l-.93,11.3,10.25-4.85.93-11.3-10.25,4.85ZM13.05,61.86h0s0,0,0,0Z"/>
      <path class="cls-1" d="M11.19,74.77c-.22,0-.44-.06-.62-.19L.47,67.59c-.32-.22-.5-.6-.47-.99l1.01-12.25c.03-.39.27-.73.62-.9.36-.17.77-.13,1.09.09l10.1,6.99c.32.22.5.6.47.99l-1.01,12.25c-.03.39-.27.73-.62.9-.15.07-.31.1-.47.1ZM1.52,66.49l9.33,6.46.93-11.3-9.33-6.46-.93,11.3ZM11.97,61.78h0,0ZM11.96,61.77s0,0,0,0h0Z"/>
      <path class="cls-1" d="M12.59,61.97c-.22,0-.44-.06-.62-.19l-10.1-6.99c-.32-.22-.5-.6-.47-.99.03-.39.27-.73.62-.9l11.11-5.25c.35-.17.77-.13,1.09.09l10.1,6.99c.32.22.5.6.47.99-.03.39-.27.73-.62.9l-11.11,5.25c-.15.07-.31.1-.47.1ZM3.3,53.95l9.33,6.46,10.25-4.85-9.33-6.45-10.25,4.85ZM13.36,48.97s0,0,0,0h0ZM13.44,48.32h0,0Z"/>
    </g>
  </g>
</svg>