<?xml version="1.0" encoding="UTF-8"?>
<svg id="Calque_2" xmlns="http://www.w3.org/2000/svg" viewBox="0 0 74.53 68.24">
  <defs>
    <style>
      .cls-1 {
        fill: #000;
      }

      .cls-2 {
        fill: none;
      }

      .cls-3 {
        fill: #000;
      }

      .cls-4 {
        fill: #000;
      }
    </style>
  </defs>
  <g id="Calque_1-2" data-name="Calque_1">
    <g>
      <path class="cls-2" d="M9.11,8.15l-.27,3.38-1.63-2.22.09-1.29c.03-.59.48-.97.99-.95.26.01.47.11.64.32.17.21.24.46.18.76Z"/>
      <path class="cls-2" d="M5.2,15.15l-2.92-.27c-.47-.07-.83-.53-.81-1.13.03-.6.47-.98.99-.96l1.12.09,1.63,2.26Z"/>
      <path class="cls-2" d="M57.79,43.49l-.2.7c-.05-.06-.09-.11-.15-.18.04-.06.07-.11.1-.17.07-.11.16-.23.24-.35Z"/>
      <path class="cls-2" d="M35.09,63l.31-.28c.05-.06.1-.09.17-.11"/>
      <path class="cls-2" d="M13.69,43c.28-.33.57-.67.9-.98.13-.14.19-.3.18-.47"/>
      <path class="cls-2" d="M25.19,40.02c0,.05-.02.1-.04.16"/>
      <path class="cls-2" d="M45.98,26.04c.21-.01.41-.1.55-.27.04-.04.07-.09.09-.15"/>
      <polygon class="cls-2" points="48.68 64.97 53.67 66.31 54 65.07 49.02 63.72 48.68 64.97"/>
      <path class="cls-4" d="M36.8,24.71c-.2.34-.36.69-.5,1.06l-4.42-3.85c-.24-.21-.26-.56-.05-.8.18-.21.52-.28.8-.05l4.17,3.64Z"/>
      <path class="cls-4" d="M54.3,11.66c-.72.41-1.37.96-1.88,1.65.02-.29.13-.58.28-.84.15-.23.27-.48.38-.75.9-2.35-.26-4.95-2.6-5.86-1.67-.58-3.1-.32-4.65.87-.01.39-.09.85-.24,1.33-.15.52-.01.85.46,1.09.78.4,1.45.93,1.95,1.55l.5-1.29c.11-.29.45-.44.74-.33.29.11.44.45.32.74l-.82,2.15c.14.32.23.65.29,1,.03.23.05.47.05.7-.39.02-.77.07-1.15.17.02-.23,0-.46-.03-.69-.2-1.23-1.04-2.3-2.37-2.97-.91-.46-1.32-1.49-1.03-2.44.08-.3.15-.6.19-.93.29-2.83-1.73-5.34-4.56-5.64-2.81-.3-5.34,1.73-5.64,4.56-.03.31-.03.64-.01.94.07.99-.55,1.91-1.52,2.17-1.44.38-2.49,1.25-2.94,2.41-.45,1.16-.25,2.51.56,3.75.28.44.41.93.31,1.41-.09.48-.41.89-.84,1.17-1.69,1.11-2.55,2.75-2.31,4.33h0c.27,1.71,1.96,3.08,4.15,3.84,1.7.59,3.28,2.12,3.42,4.02l.14,1.75c.05.65.5,1.17,1.12,1.31.19.41.42.79.68,1.16-.2.04-.4.04-.6.02-.94-.1-1.73-.71-2.11-1.53-.27.18-.57.29-.91.34-1.15.19-2.25-.49-2.64-1.58l-.52-1.48c-.36-1.06-1.72-1.88-2.95-1.97-.03,0-.06-.01-.1-.01-.18-.4-.38-.8-.56-1.21.25.04.5.07.76.09,1.63.11,3.36,1.07,3.93,2.72l.52,1.49c.21.57.78.93,1.39.83.35-.06.65-.25.83-.52l-.1-1.33c-.09-1.29-1.33-2.56-2.66-3.02-1.21-.42-2.35-1.03-3.22-1.82-.88-.78-1.5-1.76-1.68-2.92-.29-1.87.59-3.7,2.19-4.99l-3.4-1.67c-.28-.15-.4-.48-.26-.77.14-.28.48-.4.76-.25l3.85,1.89c.07-.2.05-.4-.11-.66-.64-.97-.98-2.05-.98-3.12,0-.56.09-1.13.3-1.67.13-.33.29-.64.49-.93l-.35-2.26c-.05-.31.17-.6.48-.66.3-.04.59.17.65.48l.22,1.38c.63-.51,1.39-.89,2.23-1.12.51-.13.72-.44.68-.97-.02-.36-.03-.92.05-1.37-.95-1.33-2.61-2.03-4.37-1.81-2.47.39-4.15,2.7-3.76,5.18.04.28.11.55.21.81.3.85-.04,1.83-.84,2.29-1.15.66-1.83,1.64-1.95,2.72-.11,1.09.35,2.2,1.33,3.08.34.31.58.73.62,1.19.03.45-.16.9-.48,1.25-.18.2-.33.41-.48.63-.14-.23-.26-.46-.41-.69-.07-.11-.16-.23-.23-.34.09-.13.17-.24.27-.35.16-.18.19-.31.19-.42-.01-.11-.06-.25-.24-.42-1.21-1.07-1.87-2.54-1.71-4.03.16-1.5,1.12-2.79,2.52-3.6.39-.22.48-.49.33-.93-.11-.32-.21-.67-.26-1.01-.48-3.09,1.64-6,4.71-6.48,1.85-.28,3.57.31,4.88,1.61.99-2.6,3.63-4.33,6.53-4.01,2.89.3,5.11,2.54,5.51,5.3,1.58-1.01,3.43-1.17,5.11-.54,2.76,1.06,4.21,4.08,3.41,6.87Z"/>
      <path class="cls-4" d="M44.82,14.15l-5.83,3.21-.56,5.26c-.5.48-.94,1-1.3,1.56l.74-6.94-5.01-4.38c-.24-.2-.26-.56-.05-.8.15-.18.49-.29.8-.05l4.41,3.85,1.08-10.23c.04-.31.32-.54.64-.51.31.03.53.31.5.63l-1.09,10.24,5.13-2.84c.27-.15.63-.05.77.23.16.27.05.62-.22.77Z"/>
      <path d="M61.04,49.16c-.77-.77-1.47-1.5-1.93-2.25-.04-.06-.07-.14-.1-.2-.56-.09-1.09-.3-1.57-.6.08.5.28.99.57,1.47.5.83,1.26,1.65,2.12,2.5,2.28,2.28,5.3,4.84,4.17,9.06-.77,2.85-2.8,4.06-4.91,4.52,1.69-2.07,3.85-6.29,1.18-11.33-.17-.31-.56-.44-.88-.27-.31.17-.44.56-.27.88,3.03,5.71-1.01,10.2-2.09,10.98h-.02c-.78.03-1.51-.01-2.14-.07,1.34-.79,2.42-2.16,2.84-3.72.52-1.92.25-2.99-.14-4.08-.49-1.4-1.23-2.81-.3-6.76.08-.34-.14-.69-.48-.77-.34-.08-.7.14-.77.48-.87,3.66-.42,5.36.06,6.72.43,1.19.92,2.07.38,4.07-.57,2.17-2.74,3.94-4.91,3.37-2.16-.58-3.29-2.67-2.56-5.37.53-2,1.37-2.53,2.3-3.36,1.01-.88,2.15-2.02,3.23-5.06l-.81,1.87c-.18.39-.62.57-1.01.43l-.56-.21c-.79,1.33-1.58,1.91-2.29,2.52-.84.75-1.6,1.54-2.11,3.47-.48,1.76-.31,3.3.32,4.5-.52-.24-1.09-.54-1.67-.9-.53-1.22-1.74-6.98,3.5-10.43l-1.46-.54c-3.9,3-4.09,7.24-3.7,9.71-1.56-1.46-2.7-3.52-1.94-6.35.57-2.15,1.86-3.38,3.39-4.18l-1.53-.56c-1.4.95-2.53,2.3-3.11,4.41-1.08,4.07,1.04,6.84,3.48,8.58.16.1.3.21.46.31.09.08.18.13.25.16.63.4,1.26.72,1.83.99-.04.07-.07.16-.09.24l-.33,1.25c-.19.69.23,1.4.92,1.57l4.98,1.34c.69.19,1.4-.23,1.58-.92l.33-1.24c.02-.09.03-.18.04-.26.65.06,1.38.09,2.15.06.02,0,.06,0,.09-.01.23-.01.46-.02.69-.04,2.98-.29,6.22-1.62,7.31-5.68,1.28-4.76-1.93-7.72-4.49-10.31ZM53.67,66.31l-4.98-1.33.33-1.25,4.98,1.34-.33,1.24Z"/>
      <path d="M30.93,47.62c-.2-.22-.4-.43-.6-.64-.17-.16-.32-.32-.49-.48-.39-.35-.77-.69-1.17-1.01-1.61-1.29-3.29-2.26-4.95-2.83-.09-.03-.18-.05-.27-.08-.4-.14-.8-.24-1.2-.32-.6-.11-1.2-.18-1.77-.18-.13,0-.24,0-.35.01-.78.04-1.52.21-2.16.5-.52.23-.99.54-1.38.94-1.44,1.44-1.81,3.7-1.13,6.33.69,2.51,2.25,5.15,4.51,7.4,3.08,3.08,6.78,4.89,9.91,4.89,1.56,0,2.94-.5,3.89-1.44,2.75-2.76,1.5-8.39-2.85-13.09ZM32.89,59.83c-.69.69-1.75,1.06-3,1.06-2.76,0-6.21-1.75-8.98-4.51-2.06-2.07-3.58-4.51-4.2-6.84-.56-2.19-.31-4.01.81-5.14.41-.45,1.01-.77,1.73-.93.38-.09.79-.14,1.22-.14.79,0,1.64.15,2.51.42,1.77.54,3.65,1.63,5.35,3.08.38.32.75.66,1.11,1.02.2.2.39.4.57.59,3.77,4.11,5.1,9.16,2.88,11.38Z"/>
      <path d="M28.85,48.65s-.07-.07-.1-.1c-1.94-1.95-4.39-3.14-6.45-3.14h-.04c-1.12.01-2.11.39-2.78,1.06-1,1.01-1.32,2.57-.88,4.34.44,1.69,1.44,3.44,2.94,4.89,2.01,1.94,4.4,3.14,6.46,3.14,1.13,0,2.14-.39,2.83-1.07,1.98-1.98,1.08-5.99-1.97-9.11ZM29.95,56.88c-.57.56-1.39.69-1.95.69-1.69,0-3.83-1.06-5.58-2.75-1.32-1.32-2.26-2.83-2.64-4.34-.31-1.38-.13-2.5.5-3.13.69-.57,1.44-.7,2.01-.7,1.69,0,3.83,1.07,5.58,2.76,2.57,2.57,3.51,6.03,2.07,7.46Z"/>
      <path d="M26.94,50.3c-.88-.88-2.01-1.44-3.01-1.44-.56,0-1.06.19-1.44.56-.51.5-.7,1.31-.45,2.2.2.75.7,1.56,1.32,2.25.94.95,2,1.45,3.01,1.45.56,0,1.06-.19,1.44-.56,1-1.01.63-2.95-.88-4.46ZM26.94,53.87c-.13.13-.31.19-.56.19-.64,0-1.45-.44-2.14-1.06-.5-.5-.88-1.13-1-1.69-.13-.44-.06-.82.13-1.01.13-.06.31-.13.56-.13.63,0,1.44.44,2.14,1.07,1,1,1.31,2.25.88,2.63Z"/>
      <path d="M32.24,45.2s-.03-.03-.04-.04c-.35-.35-.72-.69-1.08-1.01-.02-.02-.03-.03-.05-.05-.63-.57-1.27-1.09-1.93-1.57-1.3-.96-2.64-1.74-3.98-2.35-.44-.2-.88-.38-1.31-.53-.04-.01-.07-.02-.11-.03h.01c-1-.36-1.99-.6-2.96-.74-.52-.06-1.04-.11-1.55-.11-.45,0-.88.04-1.29.09-.6.08-1.2.22-1.74.42-.56.21-1.08.49-1.55.83-.29.19-.56.42-.81.67-.4.4-.73.83-1,1.33-.01,0-.01.01-.01.01h0c-4.36,5.14-5.05,12.41-1.68,18.29l-.82.81c-.13.13-.19.31-.19.5s.13.31.25.44c.26.2.51.32.76.45,0,.25.13.44.19.5.13.13.19.19.31.19,0,.13,0,.25.06.38s.19.44.63.5l.44.06c.06.25.13.44.31.63.31.31.75.38,1.06.38,0,.19.06.38.19.5.07.13.2.19.32.31,0,.14.06.26.13.32.13.19.31.31.56.38.19,0,.38-.06.44-.06.31-.13.63-.25.94-.44,2.58,1.25,5.4,2,8.21,2,3.84,0,7.66-1.37,10.65-4,.02-.02.04-.03.06-.04.01-.01.03-.02.05-.04.3-.19.57-.42.83-.68,3.88-3.88,1.96-12.06-4.28-18.28ZM31.6,65.45h-.02c-4.5,2.24-10.02,2.11-14.43-.73-.19-.13-.44-.13-.63,0-.13.06-.31.19-.44.25-.13-.13-.25-.25-.44-.25.06-.25-.06-.5-.25-.63-.38-.31-.81-.31-1.14-.31h-.13c0-.06.06-.19.06-.25,0-.31-.25-.5-.5-.56l-.44-.06c.06-.13.06-.31,0-.44-.06-.2-.25-.39-.5-.39h-.13c0-.13,0-.19-.06-.31-.06-.19-.31-.31-.5-.38h-.19l.5-.5c.19-.19.25-.5.06-.75-2.72-4.45-2.86-9.84-.63-14.29-.04,1.03.08,2.14.38,3.32.81,3.39,2.95,6.9,5.95,9.91,3.96,4.01,8.85,6.39,12.99,6.39.15,0,.29,0,.44-.02.08-.04.18-.08.26-.14-.07.05-.16.09-.24.14ZM35.65,62.53s-.04.04-.07.06c0,0,0,.01-.01.01-.14.14-.27.26-.43.36-.18.17-.35.32-.53.48.16-.15.32-.29.48-.45-1.02.76-2.38,1.16-3.95,1.16-3.76,0-8.4-2.32-12.1-5.96-2.83-2.81-4.84-6.14-5.65-9.34-.56-2.31-.46-4.34.3-5.86.25-.51.56-.96.96-1.36.04-.04.07-.06.11-.09h.01c.27-.26.56-.48.89-.65.53-.32,1.14-.55,1.79-.7.55-.13,1.15-.19,1.77-.19.11,0,.24.02.35.02,1.51.06,3.14.46,4.8,1.17,1.4.6,2.8,1.42,4.16,2.41.41.29.8.59,1.19.92.52.43,1.02.88,1.51,1.36.03.03.06.05.09.08t.02.02c5.74,5.78,7.69,13.16,4.31,16.54Z"/>
      <path class="cls-3" d="M35.57,62.61c-.14.14-.27.26-.43.36-.02.01-.03.02-.05.03.1-.09.21-.19.31-.28.05-.06.1-.09.17-.11Z"/>
      <path class="cls-3" d="M31.84,65.32c-.07.05-.16.09-.24.14h-.02c.08-.04.18-.08.26-.14Z"/>
      <path class="cls-3" d="M35.14,62.97c-.18.17-.35.32-.53.48.16-.15.32-.29.48-.45.02-.01.03-.02.05-.03Z"/>
      <polygon class="cls-3" points="13.69 43 13.68 43 13.69 43 13.69 43"/>
      <path d="M32.82,42.74c-.02-.26-.1-.71-.27-1.29-.66-2.59-2.51-8.03-5.06-13.54-.02-.04-.05-.09-.07-.15-.18-.4-.38-.8-.56-1.21-.36-.75-.74-1.51-1.15-2.29-.63-1.19-1.31-2.38-2.02-3.53-.14-.23-.26-.46-.41-.69-.07-.11-.16-.23-.23-.34-2.28-3.55-4.95-6.64-7.8-7.9-1.73-.77-3.37-.83-4.94-.21l.22-3.27c0-.05.01-.1.01-.1.02-.7-.17-1.34-.57-1.87-.41-.56-.99-.89-1.6-.96-1.16-.16-2.23.8-2.46,2.14-.87-.94-2.2-.99-3.14-.08-.57.54-.87,1.34-.87,2.15,0,.54.14,1.07.41,1.52-1.17.05-2.16,1.11-2.3,2.54-.1,1.49.83,2.83,2.16,2.93l2.96.28c-.85,1.91-.98,3.99-.43,6.2,1.33,5.41,6.69,10.64,11.42,14.4.34.28.69.54,1.02.8.14.09.26.2.39.29.14.1.27.2.41.3.42-.05.84-.09,1.29-.09.51,0,1.03.05,1.55.11-.6-.42-1.22-.84-1.85-1.31-.19-.13-.38-.27-.57-.42-.23-.18-.46-.34-.69-.52-.54-.41-1.09-.82-1.65-1.27l1.49-1.58c.3-.31.32-.84.05-1.19-.15-.18-.33-.27-.53-.27-.18,0-.36.07-.5.23l-1.72,1.82c-1.82-1.57-3.61-3.29-5.08-5.15l3.92-4.17c.3-.32.32-.85.05-1.2-.15-.18-.33-.27-.53-.27-.18,0-.35.07-.5.23l-3.92,4.17c-1.26-1.75-2.22-3.53-2.67-5.3-.22-.85-.27-1.66-.24-2.4.08-1.85.83-3.51,2.32-5.09,2.03-2.31,4.21-2.87,6.58-1.82,2.59,1.16,5,4,7.15,7.29l-3.12,3.3c-.3.31-.32.85-.05,1.19.15.18.34.27.54.27.18,0,.35-.07.49-.22l2.02-2.15.96-1.02c.08.15.16.28.24.43.68,1.16,1.3,2.34,1.91,3.5.09.19.2.38.29.56l-.54.57-.27.28c-.3.32-.32.85-.05,1.2.15.18.33.27.53.27.18,0,.35-.07.5-.23l.58-.63c.13.26.2.46.32.67,2.02,4.4,3.51,8.55,4.36,11.22.26.82.45,1.5.58,2.01.11.46.18.78.19.94.03.48-.01.82-.07,1.03-.05.14-.1.22-.16.26-.01.01-.03.02-.04.03.36.32.73.66,1.08,1.01.01.01.03.03.04.04.06-.07.13-.14.17-.23.25-.43.4-1,.42-1.63h0c.01-.21.02-.41-.01-.6ZM2.28,14.88c-.47-.07-.83-.53-.81-1.13.03-.6.47-.98.99-.96l1.12.09,1.63,2.26-2.92-.27ZM7.29,12.99c-.36.4-1.04.37-1.41,0-.96-.96-1.78-2.04-2.7-3.04-.38-.41-.38-1,0-1.41.36-.39,1.06-.39,1.41,0,.92,1,1.75,2.08,2.7,3.04.39.4.37,1.01,0,1.41ZM8.84,11.52l-1.63-2.22.09-1.29c.03-.59.48-.97.99-.95.26.01.47.11.64.32.17.21.24.46.18.76l-.27,3.38Z"/>
      <path class="cls-1" d="M23.84,39.64s-.07-.02-.11-.03h.01s.06.02.1.03Z"/>
      <path d="M74.04,30.67c1.44-3.9-.36-8.23-4.04-10,.58-2.95-1.03-5.93-3.92-7.01-1.18-.43-2.46-.49-3.67-.19-.72-1.01-1.73-1.8-2.91-2.23-1.78-.66-3.66-.45-5.19.42-.72.41-1.37.96-1.88,1.65-.17.22-.31.45-.45.69-.96-.29-1.94-.41-2.89-.33-.39.02-.77.07-1.15.17-2.61.54-4.87,2.38-5.86,5.06-.22.59-.36,1.21-.45,1.83-1.21.41-2.3,1.06-3.21,1.91-.5.48-.94,1-1.3,1.56l-.08.73-.24-.21c-.2.34-.36.69-.5,1.06-.03.06-.06.14-.08.2-.85,2.32-.66,4.77.35,6.84.19.41.42.79.68,1.16.91,1.31,2.18,2.39,3.74,3.04-.05,1.05.24,2.07.85,2.94.55.77,1.3,1.34,2.17,1.66.27.1.54.18.84.23.24.04.48.05.73.05-.09.33-.19.66-.29.98l-1.42,4.63c-.13.41.09.84.5.99l.56.21,1.53.56,2.25.82,1.46.54,2.24.82.56.21c.4.15.83-.04,1.01-.43l.81-1.87.02-.05.99-2.26c.22-.55.48-1.08.75-1.61.26.25.54.48.85.66.48.3,1.01.51,1.57.6.02,0,.03.01.05.01,1.58.26,3.18-.31,4.23-1.5,4.35,1.25,9.01-1.06,10.6-5.37.92-2.48.65-5.24-.71-7.51.35-.52.64-1.08.85-1.68ZM57.02,41.81c-.29.4-.55.77-.79,1.14-.74,1.08-1.37,2.26-1.88,3.48l-.07.17-1.45,3.3-4.13-1.52-1.85-.68-1.21-.45,1.19-3.89c.2-.64.36-1.27.51-1.91.16-.2.22-.48.15-.74.04-.22.07-.45.1-.66.4-2.83.69-6.48.06-8.82.66.13,1.48.16,2.45-.05.35,2.06-.09,6.23-.32,7.84-.05.39.17.74.52.88.03.01.06.02.1.03.41.08.82-.16.94-.55l2.22-7.5c.59.43,1.21.78,1.85,1.01.48.18.97.3,1.49.36l-3.14,6.98c-.18.4-.02.84.35,1.04.03.02.06.03.09.04.35.14.76,0,.97-.32,1.65-2.64,3.83-5.57,4.71-6.2.41.56,1,1.11,1.81,1.53-1.62,1.36-3.34,3.53-4.69,5.47ZM71.56,32.77c1.32,1.91,1.65,4.35.84,6.53-1.37,3.67-5.44,5.57-9.11,4.24-.34-.14-.73,0-.94.3-.67.98-1.85,1.49-3.01,1.29-.22-.03-.42-.09-.62-.17-.43-.18-.81-.44-1.13-.78-.05-.06-.09-.11-.15-.18.04-.06.07-.11.1-.17.07-.11.16-.23.24-.35.26-.38.56-.79.88-1.24,1.05-1.44,2.39-3.13,3.66-4.31-.01.85.11,1.85.59,2.67.1.17.25.29.42.34.22.08.47.07.69-.05.39-.23.51-.72.29-1.11-.63-1.05-.34-2.88-.19-3.48.11-.43-.14-.87-.57-.99-2.04-.54-2.63-1.7-2.79-2.4,1.02-.31,1.94-.8,2.64-1.45.26-.25.32-.63.18-.93.2.05.42.04.6-.06,1.12-.58,1.44-1.88,1.45-2.54.01-.44-.34-.8-.79-.81-.44-.01-.81.34-.81.79,0,.01-.04.87-.58,1.15-.39.21-.53.67-.35,1.05-.26-.07-.56-.02-.78.18-.64.59-1.53,1.01-2.51,1.24-.01,0-.02,0-.02.01-1.26.28-2.66.25-3.79-.17-1.33-.49-2.69-1.65-3.54-2.96-.23-.35-.43-.73-.57-1.09-.01-.02-.01-.03-.02-.05-.17-.42-.63-.63-1.04-.46-.42.16-.62.63-.46,1.04.06.17.14.32.22.49.15.29.3.57.48.85-.22.09-.43.17-.64.23-.01.01-.02,0-.02.01h-.01c-2.25.71-3.44-.18-3.5-.22-.2-.17-.46-.22-.7-.16-.25.05-.46.23-.55.47-.05.14-.11.26-.19.39-.77,1.58-2.03,2.15-2.1,2.18-.41.18-.59.65-.42,1.05.09.22.26.36.46.45.19.06.4.06.59-.02.06-.02,1.18-.52,2.18-1.79.4,1.65.35,4.5-.15,8.04-.02.15-.04.3-.07.45-.26.03-.53.02-.8-.02-.8-.14-1.5-.57-1.97-1.23-.47-.67-.66-1.47-.51-2.29v-.07c.09-.4-.14-.8-.52-.93l-.18-.06c-1.33-.49-2.43-1.33-3.22-2.4-.24-.31-.45-.65-.63-1-.39-.72-.64-1.49-.74-2.3-.17-1.13-.05-2.3.36-3.44.23-.64.56-1.24.97-1.77.94-1.28,2.31-2.23,3.9-2.65.34-.08.58-.39.6-.74.03-.66.16-1.3.39-1.92.67-1.82,2.1-3.16,3.79-3.78.45-.18.93-.29,1.41-.35,1-.14,2.03-.03,3.03.34.04.01.08.03.13.04l.13.05c.2.08.42.08.62,0,.2-.08.35-.24.44-.44.03-.08.07-.17.1-.24.18-.36.39-.69.63-.98,1.22-1.44,3.22-2.03,5.09-1.33.82.3,1.53.83,2.05,1.53-1.41-.28-2.73-.02-3.57.34-.41.17-.58.64-.42,1.04.18.41.65.6,1.05.43.15-.05,3.61-1.46,5.64,2.12.09.17.25.29.43.35.21.07.46.06.67-.05.39-.22.52-.72.3-1.09-.64-1.14-1.42-1.9-2.23-2.41.88-.21,1.79-.17,2.64.16,2.31.84,3.53,3.36,2.77,5.7-.14.41.07.85.48,1,3.29,1.23,4.99,4.92,3.77,8.23-.23.62-.55,1.2-.95,1.72-.22.27-.23.66-.03.95Z"/>
      <path d="M46.46,24.64c-1.18-1.05-1.01-2.53-1-2.61.05-.44-.25-.83-.69-.91-.44-.05-.84.25-.91.69,0,.02-.02.17-.02.4-.01.23.01.56.07.94.14.8.51,1.83,1.48,2.69.07.06.17.11.26.15.1.04.22.05.32.05.21-.01.41-.1.55-.27.04-.04.07-.09.09-.15.19-.31.11-.73-.17-.98Z"/>
      <path d="M70.9,31.69c-.8,1.57-3.45,1.98-3.97,2.04-.13.02-.26,0-.38-.04-.27-.09-.48-.34-.52-.65-.05-.44.26-.84.7-.9.93-.13,2.43-.57,2.74-1.18.2-.4.68-.55,1.07-.35.4.21.55.69.35,1.07Z"/>
      <path d="M51.79,23.09c-.04.16-.14.29-.27.4-.03.03-.46.42-.42,1.27.03.44-.31.82-.75.85-.11.01-.23-.01-.32-.05-.29-.1-.5-.38-.53-.7-.1-1.75.94-2.56,1.05-2.66.3-.22.71-.2.98.02.05.04.1.09.15.15.16.22.2.48.11.72Z"/>
      <path d="M70.37,41.8c-.65,1.16-3.02,1.7-3.74,1.85-.16.03-.3.01-.44-.03-.25-.09-.45-.32-.5-.6-.09-.44.19-.85.63-.94,1.2-.24,2.48-.74,2.66-1.05.22-.39.71-.53,1.09-.31.39.22.52.71.3,1.09Z"/>
      <path d="M69.31,28.42c-.23.28-.59.38-.92.26-.07-.03-.15-.06-.22-.11-.34-.28-.41-.78-.13-1.14,1.37-1.75.81-2.6.78-2.64-.28-.34-.22-.83.13-1.12.34-.28.87-.22,1.14.13.06.07,1.43,1.8-.78,4.62Z"/>
    </g>
  </g>
</svg>