<?xml version="1.0" encoding="UTF-8"?>
<svg id="Calque_2" xmlns="http://www.w3.org/2000/svg" viewBox="0 0 59.5 75">
  <defs>
    <style>
      .cls-1 {
        fill: none;
      }

      .cls-2 {
        fill: #010101;
      }
    </style>
  </defs>
  <g id="Calque_1-2" data-name="Calque_1">
    <g>
      <path class="cls-1" d="M4.15,19.15c4.11-1.25,8.08.35,12.14,1.05,4.52.79,9.22-.43,13.73-.89,2.26-.23,4.56-.52,6.83-.52,2.08,0,3.91.68,5.89,1.39,4.22,1.51,8.5.87,12.6-.84l1.64-16.66H2.52l1.63,16.48Z"/>
      <path class="cls-2" d="M32.3,38.18c-.82-1.37-1.67-2.78-2.55-4.27-.86,1.47-1.7,2.86-2.52,4.22-3.95,6.56-7.07,11.75-7.07,15.82,0,3.74,1.24,10.02,9.59,10.02h0c8.91-.01,9.6-7.67,9.6-10.02,0-4.07-2.96-8.98-7.05-15.77ZM36.62,58.07c-1.02,1.9-2.81,3.29-4.9,3.8-.1.02-.19.04-.29.04-.52,0-1-.36-1.13-.89-.16-.63.22-1.27.85-1.42,1.46-.36,2.69-1.32,3.4-2.64s.83-2.89.33-4.3c-.21-.61.11-1.28.72-1.49.61-.22,1.28.1,1.49.71.29.83.44,1.7.44,2.56,0,1.26-.31,2.51-.91,3.63Z"/>
      <path class="cls-2" d="M59.2.44c-.23-.28-.55-.44-.89-.44H1.19c-.33,0-.66.16-.88.44C.08.72-.02,1.11,0,1.48l7.14,72.33c.07.68.57,1.19,1.18,1.19h42.84c.6,0,1.12-.51,1.19-1.19L59.5,1.48c.03-.37-.07-.76-.3-1.04ZM29.75,66.31c-7.47,0-11.94-4.62-11.94-12.36,0-4.72,3.11-9.88,7.42-17.03,1.13-1.88,2.3-3.82,3.51-5.92.21-.36.6-.59,1.01-.59s.81.23,1.02.59c1.23,2.13,2.41,4.08,3.54,5.97,4.29,7.12,7.39,12.26,7.39,16.98,0,5.98-3.14,12.36-11.95,12.36ZM55.34,19.33c-4.1,1.71-8.37,2.35-12.6.84-1.97-.7-3.81-1.39-5.89-1.39-2.27,0-4.57.3-6.83.53-4.51.46-9.21,1.68-13.73.89-4.06-.71-8.03-2.31-12.14-1.06L2.52,2.67h54.47l-1.65,16.66Z"/>
    </g>
  </g>
</svg>