<?xml version="1.0" encoding="UTF-8"?>
<svg id="Calque_2" data-name="Calque 2" xmlns="http://www.w3.org/2000/svg" viewBox="0 0 52.69 66.26">
  <g id="Calque_1-2" data-name="Calque 1">
    <g>
      <path d="M41.08,66.26H11.61c-2.44,0-4.49-1.84-4.65-4.18L.01,4.82c-.1-1.27.4-2.5,1.37-3.4.97-.9,2.34-1.42,3.75-1.42h42.42c1.42,0,2.79.52,3.75,1.42s1.47,2.13,1.37,3.36l-6.96,57.34c-.16,2.3-2.2,4.14-4.64,4.14ZM5.13,1.92c-.82,0-1.58.29-2.15.81-.56.52-.84,1.21-.78,1.92l6.95,57.27c.1,1.38,1.17,2.42,2.46,2.42h29.46c1.28,0,2.36-1.05,2.45-2.38l6.96-57.35c.05-.68-.23-1.36-.79-1.89-.56-.52-1.32-.81-2.15-.81H5.13Z"/>
      <g>
        <path d="M30.07,24.67c4.54,7.53,7.81,12.97,7.81,17.7,0,5.76-2.99,11.91-11.38,11.98-.05,0-.1.01-.16.01-7.33,0-11.53-4.37-11.53-11.99,0-4.74,3.46-10.5,7.85-17.78l.17-.28c.84-1.39,1.69-2.81,2.57-4.3.2-.33.55-.54.94-.54h0c.38,0,.74.2.94.54.75,1.27,1.47,2.48,2.18,3.66l.59.98M26.34,22.69c-.56.93-1.1,1.84-1.65,2.74l-.17.28c-4.21,7-7.54,12.52-7.54,16.66,0,4.45,1.6,9.75,9.2,9.82.05,0,.1-.01.15-.01,8.45,0,9.36-6.86,9.36-9.81,0-4.12-3.15-9.35-7.5-16.58,0,0-.02-.03-.02-.03l-.59-.98c-.41-.68-.83-1.38-1.25-2.09Z"/>
        <path d="M33.54,46.58c-.95,2.07-2.61,3.58-4.55,4.14-.09.02-.18.04-.27.04-.48,0-.93-.39-1.05-.97-.15-.69.2-1.38.79-1.55,1.35-.39,2.5-1.44,3.15-2.87s.77-3.15.31-4.68c-.19-.66.1-1.39.67-1.62.57-.24,1.19.11,1.38.77.27.9.41,1.85.41,2.79,0,1.37-.29,2.73-.84,3.95Z"/>
      </g>
    </g>
  </g>
</svg>