<?xml version="1.0" encoding="UTF-8"?>
<svg id="Calque_2" xmlns="http://www.w3.org/2000/svg" viewBox="0 0 51.15 75">
  <defs>
    <style>
      .cls-1 {
        fill: #1d1d1b;
      }

      .cls-2 {
        fill: none;
        stroke: #1d1d1b;
        stroke-miterlimit: 10;
        stroke-width: 2px;
      }
    </style>
  </defs>
  <g id="Calque_1-2" data-name="Calque_1">
    <g>
      <path class="cls-2" d="M9.58,5.51v15.05c0,.87-.24,1.72-.68,2.4l-3.01,4.6c-3.16,4.84-4.89,12.98-4.89,19.2v23.42c0,2.11,1.38,3.81,3.09,3.81h5.5s6.17,0,6.17,0h5.5c1.7,0,3.09-1.71,3.09-3.81v-23.42c0-6.22-1.73-14.36-4.89-19.2l-3.01-4.6c-.44-.68-.68-1.52-.68-2.4V5.51c0-1.11-.73-2.01-1.63-2.01h-2.91c-.9,0-1.63.9-1.63,2.01Z"/>
      <rect class="cls-1" x="7.55" width="10.23" height="7.99" rx="2.31" ry="2.31"/>
      <g>
        <path class="cls-1" d="M12.53,61.03c-.22-.97-.94-1.78-1.94-2.09-.06-.03-.13-.04-.2-.06-.06-.01-.13-.03-.19-.03-1.03-.18-2.04.23-2.68.99-.27.33-.47.73-.58,1.17-.36,1.54.59,3.09,2.13,3.45.23.06.45.08.66.08.65,0,1.27-.22,1.77-.61s.87-.94,1.03-1.6c.1-.44.1-.89,0-1.3ZM11.55,62.1c-.24,1-1.24,1.63-2.25,1.39-1-.24-1.62-1.25-1.38-2.25.2-.86.97-1.44,1.81-1.44.15,0,.29.02.43.05.86.21,1.44.97,1.44,1.82,0,.14-.02.28-.05.43Z"/>
        <path class="cls-1" d="M11.17,56.44c-.03-.13-.07-.25-.12-.36-.3-.8-.96-1.45-1.83-1.71-.06-.02-.12-.04-.18-.05-.06-.01-.13-.03-.19-.03-1.03-.18-2.04.22-2.67.98-.28.33-.48.73-.59,1.18-.18.75-.05,1.52.35,2.17.36.59.92,1.03,1.58,1.22.07.03.13.04.2.06.22.05.44.08.66.08.53,0,1.05-.15,1.51-.43.15-.09.29-.2.42-.32.1-.09.19-.18.28-.29.28-.33.47-.73.58-1.17.11-.45.1-.91,0-1.33ZM6.79,58.09c-.26-.42-.34-.92-.23-1.41.2-.86.97-1.44,1.82-1.44.14,0,.29.02.43.05,1,.24,1.62,1.25,1.39,2.25-.12.49-.41.9-.84,1.16-.42.26-.92.34-1.41.23-.49-.12-.9-.41-1.16-.84Z"/>
        <path class="cls-1" d="M15.77,57.53c-.06-.3-.18-.58-.34-.84-.37-.6-.93-1.02-1.6-1.23-.06-.02-.12-.04-.18-.05s-.13-.03-.19-.03c-.69-.13-1.39,0-1.98.38-.16.1-.3.2-.43.32-.09.09-.18.18-.26.27-.28.34-.49.75-.59,1.19-.11.44-.1.88,0,1.31.02.13.06.25.11.38.07.16.15.32.24.48.4.65,1.03,1.11,1.78,1.28.07.02.13.03.2.04.15.03.31.04.46.04.53,0,1.05-.15,1.51-.43.65-.4,1.1-1.03,1.28-1.78.11-.44.1-.9,0-1.33ZM14.81,58.63c-.12.49-.42.9-.84,1.16-.42.26-.93.34-1.41.23-.49-.12-.9-.41-1.16-.84-.26-.42-.34-.92-.23-1.41.12-.48.41-.9.84-1.16.3-.18.63-.28.97-.28.15,0,.29.02.44.05.48.12.9.41,1.16.84.26.42.34.93.23,1.41Z"/>
        <path class="cls-1" d="M12.96,48.05c-.06-.14-.12-.28-.2-.41-.01-.02-.03-.05-.04-.07-.4-.65-1.04-1.11-1.78-1.29-.75-.17-1.52-.05-2.17.35-.65.41-1.11,1.04-1.28,1.78-.1.43-.1.87,0,1.29.06.31.18.6.35.88.13.21.28.4.45.57.31.3.7.53,1.12.66.07.02.14.04.21.06.07.02.14.03.21.03.15.03.3.04.46.04.26,0,.52-.04.77-.1.02-.01.05-.01.07-.02.23-.08.45-.17.66-.3.15-.1.29-.2.42-.33.11-.09.21-.19.29-.31.27-.33.46-.71.57-1.14h0c.07-.29.09-.58.07-.86h0c-.02-.3-.08-.56-.18-.83ZM8.69,50.06c-.26-.43-.34-.93-.23-1.42.12-.48.41-.89.84-1.15.3-.19.63-.28.98-.28.14,0,.29.01.43.05,1,.23,1.62,1.24,1.39,2.24h0c-.12.49-.41.9-.84,1.16-.42.27-.93.35-1.41.23-.34-.08-.64-.24-.88-.48-.11-.1-.2-.22-.28-.35Z"/>
        <path class="cls-1" d="M15.55,47.37c-.66-.15-1.34-.07-1.94.23-.08.03-.15.07-.23.12-.15.1-.29.2-.42.33-.23.2-.42.44-.56.7,0,0-.01,0-.01.01-.13.23-.23.47-.29.74h0c-.1.44-.1.87,0,1.29.02.14.06.27.11.4.07.16.15.32.24.48.13.21.28.4.45.57.31.3.7.53,1.12.66.07.02.14.04.21.06.07.02.14.03.21.04.15.03.3.04.45.04.27,0,.53-.04.78-.11.02-.01.05-.01.07-.02.23-.07.45-.17.66-.3.28-.17.52-.39.71-.64.27-.33.47-.72.57-1.14.36-1.54-.59-3.09-2.13-3.46ZM13.3,51.15c-.26-.43-.34-.93-.23-1.41h0c.12-.5.41-.9.84-1.16.3-.19.63-.28.98-.28.14,0,.29.01.43.05,1,.23,1.62,1.24,1.39,2.25-.12.48-.41.89-.84,1.16-.42.26-.93.34-1.41.22-.34-.08-.64-.24-.88-.48-.11-.1-.2-.22-.28-.35Z"/>
        <path class="cls-1" d="M9.83,51.9c-.03-.14-.07-.27-.13-.4-.15-.41-.4-.79-.73-1.09-.35-.32-.79-.56-1.28-.68-.07-.02-.13-.03-.2-.03-.69-.12-1.38.02-1.97.39-.65.4-1.11,1.03-1.28,1.78-.18.74-.05,1.51.35,2.16.37.6.92,1.03,1.59,1.24.06.02.13.03.19.05.22.05.44.08.67.08.52,0,1.04-.15,1.5-.43.15-.1.29-.2.42-.33.1-.08.18-.17.26-.27.29-.34.49-.74.6-1.18.1-.44.1-.88.01-1.29ZM5.44,53.51c-.26-.43-.34-.93-.23-1.41.12-.49.41-.9.84-1.16.3-.19.63-.28.98-.28.14,0,.29.01.43.05.32.08.61.23.83.44.48.45.72,1.13.56,1.81-.12.48-.41.89-.84,1.16-.42.26-.93.34-1.41.22-.49-.11-.9-.41-1.16-.83Z"/>
        <path class="cls-1" d="M14.44,53c-.03-.14-.07-.28-.13-.41-.15-.41-.4-.79-.73-1.09-.3-.27-.67-.49-1.08-.62-.06-.02-.13-.04-.2-.06-.07-.02-.13-.03-.2-.03-.69-.12-1.38.02-1.97.39-.16.1-.3.2-.43.32-.11.1-.2.2-.29.31-.27.33-.46.72-.56,1.15-.11.45-.1.9,0,1.33.03.12.06.24.11.35.31.8.96,1.44,1.83,1.71.06.03.12.04.19.06.06.01.13.03.19.03.16.03.31.05.47.05.53,0,1.05-.15,1.51-.43.15-.1.29-.2.42-.33.1-.08.18-.17.26-.27.29-.34.49-.74.6-1.18.1-.44.1-.87.01-1.28ZM11.13,51.82c.17-.05.33-.07.51-.07.14,0,.29.01.43.05.32.08.61.23.83.44.48.45.72,1.13.56,1.81-.12.48-.41.89-.84,1.16-.42.26-.92.34-1.41.23-1-.24-1.63-1.25-1.39-2.25.12-.49.41-.9.84-1.16.13-.08.26-.14.4-.19.02-.01.05-.01.07-.02Z"/>
        <path class="cls-1" d="M18.69,53.2c-.36-.59-.92-1.02-1.58-1.23-.06-.02-.13-.04-.2-.06-.75-.17-1.52-.05-2.17.36-.16.1-.3.2-.43.32-.11.1-.2.2-.29.31-.27.33-.46.72-.56,1.15-.11.45-.1.9,0,1.33.03.12.06.24.11.35.33.85,1.06,1.54,2.02,1.77.06.01.12.03.18.03.16.03.32.05.48.05,1.3,0,2.48-.9,2.79-2.21.18-.75.05-1.52-.35-2.17ZM18.07,55.14c-.24,1-1.25,1.62-2.25,1.39-1-.24-1.63-1.25-1.39-2.25.12-.49.41-.9.84-1.16.13-.08.26-.14.4-.19.02-.01.05-.01.07-.02.16-.05.34-.07.51-.07.14,0,.29.01.43.05.48.11.9.41,1.16.84.18.3.28.64.28.98,0,.14-.02.29-.05.43Z"/>
        <path class="cls-1" d="M13.2,48.73c.52-1.51.79-2.12,1.54-3.53.51-.96,1.12-1.98,2.05-2.58s2.5-1.36,3.15-.25c.59,1.02.1,2.89-.95,3.31-.48.19-.33,1.16.15.97.95-.38,1.65-1.66,1.79-2.95.16-1.46-.72-1.72-1.71-2.1-2.31-.87-4.1,1.24-5.08,3.05-.82,1.52-1.13,2.26-1.7,3.89-.17.48.24,1.52.4,1.04l.36-.86Z"/>
      </g>
      <path class="cls-1" d="M50.15,33.11c-.58-.61-1.34-.95-2.14-.95h-10.23c-.8,0-1.56.34-2.14.95-.69.73-1.05,1.76-.99,2.83l.58,10.48c0,4.03,3.04,7.37,6.91,7.75.25.03.5.04.75.04s.5,0,.75-.04c3.88-.38,6.92-3.72,6.92-7.71l.58-10.52c.06-1.07-.3-2.1-.99-2.83ZM36.73,34.14c.21-.22.56-.48,1.05-.48h10.23c.49,0,.84.26,1.05.48.41.43.62,1.06.58,1.72l-.36,6.5-.04.81v.19s-.18,3.06-.18,3.06c0,.26-.02.52-.05.77,0,.04,0,.07-.02.1-.41,3.05-2.99,5.42-6.1,5.42-.28,0-.56-.02-.83-.06-1.07-.15-2.06-.59-2.89-1.24-.7-.54-1.28-1.23-1.69-2.02,0,0,0,0-.01,0v-.02s0,0,0-.01c-.35-.65-.58-1.37-.67-2.13-.04-.28-.06-.56-.06-.85l-.09-1.54-.06-1.18-.02-.29-.05-1-.36-6.5c-.04-.66.17-1.29.58-1.72Z"/>
      <rect class="cls-1" x="42.15" y="53.45" width="1.5" height="19.7"/>
      <path class="cls-1" d="M42.68,71.8l-4.57,2.15c-.5.24-.33.99.22.99h9.13c.55,0,.72-.75.22-.99l-4.57-2.15c-.14-.07-.3-.07-.44,0Z"/>
      <rect class="cls-1" x="35.78" y="42.36" width="13.58" height="1"/>
      <path class="cls-1" d="M36.79,47.22c-.49-.41-.81-1.01-.88-1.71,0-.06,0-.11,0-.17-.03-.62.24-1.23.68-1.69l.06,1.18.09,1.54c0,.29.02.57.06.85Z"/>
      <path class="cls-1" d="M41.87,47.51s.03.05.05.08c-.03-.03-.05-.06-.06-.09,0,.01.01.01.01.01Z"/>
      <path class="cls-1" d="M49.23,43.36l-.17,3.06c0,.26-.02.52-.05.77,0,.04,0,.07-.02.1-.41,3.05-2.99,5.42-6.1,5.42-.28,0-.56-.02-.83-.06-1.07-.15-2.06-.59-2.89-1.24-.7-.54-1.28-1.23-1.69-2.02,0,0,0,0-.01,0v-.02s0,0,0-.01c-.35-.65-.58-1.37-.67-2.13-.04-.28-.06-.56-.06-.85l-.09-1.54-.06-1.18c.09-.1.19-.2.31-.29h12.34Z"/>
      <path class="cls-1" d="M43.94,47.52s.02-.02.03-.02c-.02.02-.04.03-.06.04h.01s.02-.02.02-.02Z"/>
      <path class="cls-1" d="M50.24,45.18c.04.93-.48,1.66-1.21,2.08,0,.02-.02.02-.04.03.02-.03.02-.06.02-.1.03-.25.05-.51.05-.77l.17-3.06h-12.34c.43-.35.96-.55,1.51-.52,3.11.16,6.23.11,9.34-.16.57-.05,1.09.15,1.5.49.04.04.08.07.12.11.52.49.85,1.21.88,1.9Z"/>
      <path class="cls-1" d="M37.96,47.87c3.22,0,3.22-5,0-5s-3.22,5,0,5h0Z"/>
      <path class="cls-1" d="M41.92,47.59s-.05-.06-.06-.09c0,.01.01.01.01.01.01.03.03.05.05.08Z"/>
      <path class="cls-1" d="M43.97,47.5s-.04.03-.06.04h.01s.02-.02.02-.02c.01,0,.02-.02.03-.02Z"/>
      <path class="cls-1" d="M44.53,51.13s-.02.02-.04.03c.04-.04.06-.06.07-.06l-.03.03Z"/>
      <path class="cls-1" d="M49.03,47.26s0-.05-.02-.07c0,.04,0,.07-.02.1-.41,3.05-2.99,5.42-6.1,5.42-.28,0-.56-.02-.83-.06-1.07-.15-2.06-.59-2.89-1.24-.7-.54-1.28-1.23-1.69-2.02,0,0,0,0-.01,0v-.02s0,0,0-.01c-.35-.65-.58-1.37-.67-2.13-.04-.28-.06-.56-.06-.85l-.09-1.54c-.18.11-.33.23-.46.36-.09.09-.18.2-.27.32-.29.42-.48.97-.46,1.45.03.64.24,1.31.73,1.77.28.25.57.42.89.53.17.29.34.58.53.86.54.76,1.23,1.61,2.07,2.13.02.03.05.05.07.07.52.48,1.07.66,1.77.74,1.51.17,3.07-.23,4.42-.92,1.43-.75,3.23-2.31,3.23-4.06,0-.29-.05-.57-.13-.82ZM36.89,49s.02.04.06.09c.01.02.03.04.05.06.01.02.02.03.03.05-.25-.21-.23-.29-.14-.2Z"/>
    </g>
  </g>
</svg>